M48
;DRILL file {Pcbnew (2013-07-07 BZR 4022)-stable} date 19/05/2015 04:41:10 PM
;FORMAT={-:-/ absolute / inch / decimal}
FMAT,2
INCH,TZ
T1C0.010
T2C0.012
T3C0.020
T4C0.024
T5C0.026
T6C0.030
T7C0.031
T8C0.032
T9C0.035
T10C0.036
T11C0.039
T12C0.040
T13C0.043
T14C0.051
T15C0.052
T16C0.059
T17C0.067
T18C0.091
%
G90
G05
M72
T1
X4.685Y-3.395
X4.685Y-3.495
X4.685Y-3.575
X4.716Y-8.1069
X4.725Y-3.445
X4.725Y-3.535
X4.725Y-3.615
X4.765Y-3.185
X4.765Y-3.265
X4.765Y-3.335
X4.7672Y-3.1059
X4.7733Y-8.3895
X4.775Y-8.0239
X4.8111Y-3.279
X4.8483Y-8.3727
X4.8547Y-8.1418
X4.885Y-3.185
X4.885Y-3.2208
X4.885Y-3.375
X4.885Y-3.5721
X4.9355Y-8.5057
X4.9355Y-8.6319
X4.9441Y-8.3727
X4.9546Y-7.9633
X4.96Y-7.8443
X4.9615Y-5.3636
X4.9623Y-3.279
X4.9726Y-7.009
X4.9743Y-7.9478
X4.9925Y-8.0934
X4.994Y-7.9629
X5.005Y-3.205
X5.005Y-3.295
X5.005Y-3.355
X5.005Y-3.425
X5.0123Y-6.588
X5.0137Y-7.9478
X5.0218Y-6.4721
X5.0326Y-6.419
X5.0334Y-7.9629
X5.0527Y-8.1878
X5.0531Y-8.264
X5.0533Y-8.0391
X5.0536Y-8.5057
X5.0536Y-8.6319
X5.0631Y-2.5216
X5.0638Y-3.0044
X5.0727Y-7.9623
X5.0745Y-7.8666
X5.085Y-3.205
X5.085Y-3.275
X5.085Y-3.355
X5.085Y-3.435
X5.085Y-3.505
X5.0865Y-4.445
X5.0865Y-4.515
X5.0865Y-4.585
X5.0865Y-4.655
X5.0865Y-4.725
X5.087Y-6.4361
X5.0924Y-7.9359
X5.1116Y-8.1875
X5.1121Y-7.9637
X5.1122Y-8.2635
X5.1123Y-8.0387
X5.1126Y-8.632
X5.1127Y-8.5057
X5.1225Y-7.009
X5.1318Y-7.9343
X5.1515Y-7.9625
X5.1665Y-6.5934
X5.1707Y-8.1876
X5.1713Y-8.0395
X5.1713Y-8.2632
X5.1717Y-8.5057
X5.1717Y-8.632
X5.1738Y-6.938
X5.1739Y-7.0798
X5.175Y-6.706
X5.191Y-7.9625
X5.1931Y-4.0191
X5.2106Y-7.9349
X5.2257Y-7.009
X5.2301Y-8.1873
X5.2302Y-7.9623
X5.2302Y-8.2631
X5.2304Y-8.0385
X5.2307Y-8.632
X5.2308Y-8.5057
X5.2335Y-3.7491
X5.2335Y-3.8291
X5.2336Y-3.4311
X5.2336Y-3.5891
X5.2336Y-3.671
X5.2337Y-3.5091
X5.2499Y-7.9342
X5.2696Y-8.0391
X5.2696Y-8.2629
X5.27Y-8.1874
X5.2886Y-8.3895
X5.3038Y-6.6832
X5.3282Y-5.3636
X5.3367Y-3.4312
X5.3367Y-3.5891
X5.3367Y-3.671
X5.3367Y-3.7491
X5.3367Y-3.8292
X5.3368Y-3.5091
X5.3479Y-6.5355
X5.3605Y-6.6419
X5.3908Y-3.8485
X5.407Y-3.7004
X5.4144Y-3.7404
X5.4233Y-3.6058
X5.4233Y-3.7161
X5.4242Y-6.5054
X5.4284Y-6.6874
X5.434Y-6.588
X5.447Y-3.7617
X5.4578Y-6.0749
X5.4605Y-3.9112
X5.4663Y-6.131
X5.4721Y-3.8119
X5.4735Y-3.8368
X5.4757Y-3.8668
X5.4774Y-6.2856
X5.4991Y-3.838
X5.507Y-6.211
X5.5096Y-3.4705
X5.5159Y-6.4928
X5.5166Y-6.6699
X5.5299Y-3.8395
X5.536Y-8.1069
X5.5388Y-3.5992
X5.5446Y-6.1319
X5.5474Y-6.2842
X5.567Y-3.9892
X5.5674Y-3.8471
X5.5679Y-3.4447
X5.5699Y-3.9113
X5.574Y-6.0728
X5.595Y-8.0239
X5.6108Y-3.5965
X5.6203Y-3.5152
X5.6224Y-3.3007
X5.6649Y-3.3009
X5.6656Y-3.7791
X5.6748Y-8.1418
X5.6932Y-8.3895
X5.6944Y-6.5803
X5.702Y-6.297
X5.7059Y-6.4187
X5.7069Y-3.7476
X5.7229Y-3.7004
X5.7252Y-3.8777
X5.7347Y-6.457
X5.7357Y-6.6531
X5.7462Y-6.5586
X5.7683Y-8.3727
X5.7727Y-3.6916
X5.8137Y-3.8691
X5.8554Y-8.632
X5.8555Y-8.5057
X5.864Y-8.3727
X5.8948Y-7.9663
X5.9142Y-7.9488
X5.9533Y-7.9628
X5.9728Y-8.1892
X5.973Y-8.2636
X5.9732Y-8.0376
X5.9736Y-8.5057
X5.9736Y-8.632
X5.9928Y-7.9625
X6.0124Y-7.9348
X6.0319Y-8.1881
X6.0321Y-8.2628
X6.0322Y-8.0379
X6.0326Y-8.5057
X6.0326Y-8.632
X6.0503Y-2.5211
X6.0518Y-7.9354
X6.0715Y-7.9625
X6.0909Y-8.1879
X6.0911Y-8.2635
X6.0913Y-8.0381
X6.0917Y-8.5057
X6.0917Y-8.6319
X6.0981Y-4.8574
X6.1011Y-4.7444
X6.1021Y-4.9434
X6.1109Y-7.9625
X6.1305Y-7.9344
X6.1421Y-4.6974
X6.1502Y-8.2634
X6.1504Y-8.0381
X6.1504Y-8.1875
X6.1508Y-8.5056
X6.1508Y-8.632
X6.1699Y-7.9343
X6.1847Y-5.3464
X6.1895Y-7.9631
X6.1895Y-8.1885
X6.1895Y-8.2634
X6.1896Y-8.0382
X6.1916Y-5.127
X6.1941Y-5.0344
X6.1941Y-5.1854
X6.1952Y-5.2503
X6.2089Y-8.3895
X6.2135Y-7.7409
X6.2169Y-5.4129
X6.219Y-5.5914
X6.2197Y-5.5032
X6.2276Y-3.2357
X6.2277Y-2.6028
X6.2453Y-7.8263
X6.2456Y-7.7946
X6.2484Y-3.5606
X6.2494Y-3.7605
X6.2541Y-2.7392
X6.2542Y-2.6392
X6.2663Y-7.8106
X6.2668Y-7.842
X6.2828Y-7.9446
X6.2975Y-7.7241
X6.3147Y-4.7113
X6.366Y-5.0531
X6.3828Y-4.9439
X6.3905Y-4.995
X6.3968Y-5.079
X6.4008Y-5.44
X6.4008Y-5.5555
X6.4031Y-4.7044
X6.4101Y-4.8644
X6.4201Y-4.7534
X6.4365Y-5.4834
X6.4391Y-4.9014
X6.4561Y-5.5961
X6.4859Y-7.5569
X6.4859Y-7.8577
X6.4933Y-8.3727
X6.5157Y-4.9954
X6.5331Y-5.5933
X6.545Y-7.475
X6.5631Y-8.391
X6.5835Y-8.025
X6.5835Y-8.115
X6.5836Y-7.935
X6.6133Y-8.3947
X6.6227Y-5.4708
X6.6241Y-5.5961
X6.6248Y-7.5917
X6.6412Y-2.4597
X6.6883Y-8.3728
X6.7558Y-8.6316
X6.7615Y-3.845
X6.7754Y-8.5057
X6.7947Y-7.9625
X6.8142Y-7.9414
X6.834Y-7.9627
X6.834Y-8.0774
X6.8372Y-8.663
X6.8407Y-3.6215
X6.8536Y-7.9408
X6.8733Y-3.5471
X6.8734Y-7.9625
X6.8926Y-8.0411
X6.8927Y-8.1883
X6.893Y-8.2639
X6.8936Y-8.5057
X6.8936Y-8.6319
X6.906Y-3.6215
X6.9127Y-7.9625
X6.9211Y-8.0607
X6.9286Y-7.8646
X6.9324Y-7.9354
X6.9519Y-8.1878
X6.9521Y-7.9628
X6.9523Y-8.0398
X6.9523Y-8.2631
X6.9527Y-8.5057
X6.9527Y-8.632
X6.9696Y-3.9325
X6.9718Y-7.9347
X6.9719Y-3.9717
X6.9752Y-4.0112
X6.9759Y-7.8644
X6.9761Y-3.5479
X6.9798Y-3.9128
X6.9824Y-8.0634
X6.9914Y-7.9626
X7.0109Y-8.1884
X7.0112Y-8.0413
X7.0112Y-8.2634
X7.0117Y-8.5057
X7.0117Y-8.632
X7.0308Y-7.9626
X7.0391Y-3.5213
X7.0414Y-8.0628
X7.0474Y-7.8598
X7.0505Y-4.0917
X7.0506Y-7.93
X7.0657Y-3.928
X7.0657Y-3.996
X7.0701Y-8.0396
X7.0702Y-4.0812
X7.0702Y-7.9624
X7.0702Y-8.2636
X7.0703Y-8.1879
X7.0708Y-8.5057
X7.0708Y-8.632
X7.0812Y-4.2219
X7.0899Y-3.8427
X7.0899Y-7.9312
X7.0932Y-7.8599
X7.1004Y-3.9608
X7.1095Y-4.0812
X7.1096Y-5.6317
X7.1096Y-8.1876
X7.1096Y-8.2635
X7.129Y-8.3876
X7.1297Y-4.2434
X7.1336Y-3.928
X7.1336Y-3.996
X7.1423Y-3.5214
X7.1489Y-3.8323
X7.1489Y-4.0812
X7.1686Y-3.8428
X7.1853Y-4.1901
X7.1854Y-4.0878
X7.2184Y-4.0468
X7.2189Y-4.0112
X7.2189Y-3.9719
X7.219Y-3.9324
X7.2297Y-3.9522
X7.2299Y-3.9128
X7.2371Y-5.4787
X7.2642Y-6.1823
X7.2643Y-5.9599
X7.2693Y-4.0057
X7.3163Y-5.6122
X7.3209Y-4.1066
X7.3418Y-5.4865
X7.345Y-6.1008
X7.3534Y-6.0115
X7.4123Y-8.3727
X7.4492Y-6.0625
X7.4834Y-8.3895
X7.4836Y-8.0251
X7.505Y-7.9786
X7.505Y-8.0838
X7.5178Y-5.9603
X7.5333Y-8.3895
X7.5564Y-5.39
X7.5761Y-6.0815
X7.5861Y-7.9354
X7.6004Y-6.0614
X7.6083Y-8.3727
X7.615Y-2.6881
X7.64Y-5.3768
X7.6639Y-5.3754
X7.6758Y-8.6322
X7.6844Y-6.1878
X7.6955Y-8.5056
X7.6968Y-2.7311
X7.7041Y-8.3727
X7.7067Y-5.3281
X7.707Y-7.9616
X7.7102Y-6.1876
X7.7114Y-7.9113
X7.7138Y-7.8874
X7.7295Y-5.311
X7.7428Y-5.6292
X7.7558Y-8.073
X7.7579Y-8.6634
X7.7656Y-6.5462
X7.7768Y-2.6882
X7.7788Y-6.3509
X7.7933Y-7.9626
X7.813Y-8.0414
X7.813Y-8.1875
X7.813Y-8.2643
X7.8136Y-8.5057
X7.8136Y-8.632
X7.8143Y-6.0913
X7.8221Y-6.7915
X7.8314Y-5.5092
X7.8327Y-7.9626
X7.842Y-8.0608
X7.8467Y-7.8578
X7.8512Y-5.2442
X7.8524Y-7.9297
X7.8568Y-2.7311
X7.8697Y-5.5249
X7.8721Y-7.9624
X7.8721Y-8.0399
X7.8721Y-8.187
X7.8721Y-8.2632
X7.8726Y-8.5057
X7.8726Y-8.632
X7.8829Y-5.4301
X7.8918Y-7.9316
X7.8962Y-7.8584
X7.8977Y-5.9481
X7.9012Y-8.0618
X7.9085Y-5.8243
X7.9115Y-7.9626
X7.9166Y-5.405
X7.9186Y-5.7855
X7.9231Y-5.9006
X7.9311Y-8.1868
X7.9311Y-8.2643
X7.9312Y-8.0411
X7.9317Y-8.5057
X7.9317Y-8.632
X7.9318Y-5.9658
X7.9419Y-5.2483
X7.9502Y-5.9451
X7.9508Y-7.9626
X7.9594Y-5.9821
X7.9602Y-8.0636
X7.9652Y-7.858
X7.967Y-5.4672
X7.969Y-5.3894
X7.9705Y-7.9325
X7.972Y-5.5099
X7.972Y-5.6264
X7.9732Y-5.588
X7.9732Y-5.7834
X7.9733Y-5.5478
X7.9734Y-5.4299
X7.9736Y-5.667
X7.9741Y-5.8634
X7.9742Y-5.3126
X7.9902Y-7.9624
X7.9902Y-8.0399
X7.9902Y-8.1867
X7.9902Y-8.2644
X7.9907Y-8.5057
X7.9907Y-8.632
X8.0099Y-7.9331
X8.012Y-5.7466
X8.0122Y-5.4671
X8.0124Y-5.784
X8.0125Y-5.4295
X8.0126Y-5.3906
X8.0126Y-5.9806
X8.0127Y-5.8229
X8.0128Y-5.6266
X8.0128Y-5.902
X8.0134Y-5.5099
X8.0137Y-5.8619
X8.014Y-5.6668
X8.0148Y-5.5878
X8.0152Y-5.3128
X8.0158Y-5.5522
X8.022Y-6.2645
X8.0296Y-8.04
X8.0296Y-8.1867
X8.0296Y-8.2643
X8.0364Y-7.8884
X8.0443Y-5.23
X8.049Y-8.3896
X8.0508Y-5.4666
X8.0512Y-5.2698
X8.0512Y-5.5854
X8.0516Y-5.6655
X8.0516Y-5.9021
X8.0518Y-5.3926
X8.0518Y-5.7848
X8.0518Y-5.3114
X8.0518Y-5.7445
X8.0518Y-5.9807
X8.0519Y-6.02
X8.052Y-5.9448
X8.0524Y-5.353
X8.0526Y-5.627
X8.0527Y-6.1042
X8.0528Y-5.431
X8.0536Y-5.8612
X8.054Y-5.51
X8.059Y-4.3744
X8.0886Y-5.7025
X8.0902Y-4.3046
X8.0902Y-5.272
X8.0904Y-5.9448
X8.0906Y-5.4674
X8.0908Y-5.2372
X8.091Y-5.3901
X8.091Y-6.0614
X8.0912Y-5.5871
X8.0913Y-5.8228
X8.0914Y-5.9812
X8.0914Y-5.6657
X8.0914Y-5.784
X8.0914Y-5.9017
X8.0915Y-5.7447
X8.0917Y-6.0202
X8.092Y-5.51
X8.0926Y-6.1006
X8.0928Y-5.55
X8.0929Y-5.3095
X8.0936Y-5.431
X8.0948Y-5.6229
X8.1089Y-4.5787
X8.1094Y-4.645
X8.1175Y-4.6693
X8.1294Y-6.1012
X8.13Y-5.5096
X8.1302Y-5.4668
X8.1302Y-6.059
X8.1303Y-5.9803
X8.1304Y-5.4322
X8.1306Y-5.2724
X8.1306Y-5.5494
X8.1306Y-5.9018
X8.1307Y-5.7444
X8.1307Y-5.6262
X8.131Y-5.3513
X8.131Y-5.5891
X8.131Y-5.8636
X8.131Y-6.0197
X8.1318Y-5.7838
X8.1355Y-5.2219
X8.146Y-4.6102
X8.1488Y-4.5796
X8.1506Y-4.441
X8.1567Y-4.714
X8.1604Y-5.2195
X8.1606Y-4.4658
X8.1673Y-6.0601
X8.1689Y-5.5471
X8.1693Y-5.6261
X8.1694Y-5.8638
X8.1697Y-4.2821
X8.1699Y-5.4687
X8.1699Y-5.8231
X8.17Y-5.7445
X8.1701Y-5.7837
X8.1702Y-5.3096
X8.1703Y-6.0211
X8.1704Y-5.6648
X8.1704Y-5.9016
X8.1706Y-5.5094
X8.1711Y-5.9857
X8.1712Y-6.2012
X8.1716Y-5.3906
X8.1716Y-5.7043
X8.173Y-5.4328
X8.1793Y-4.3639
X8.1883Y-5.2189
X8.1922Y-6.11
X8.193Y-6.2206
X8.194Y-4.6784
X8.1956Y-4.5348
X8.1999Y-7.7516
X8.2076Y-5.8217
X8.2084Y-5.4691
X8.2084Y-5.6648
X8.2091Y-5.6267
X8.2093Y-5.3102
X8.2093Y-5.9019
X8.2093Y-5.9807
X8.2093Y-6.0205
X8.2093Y-6.058
X8.2095Y-5.5087
X8.2095Y-5.9414
X8.2096Y-5.5478
X8.2105Y-4.3681
X8.2112Y-5.7042
X8.2112Y-5.7817
X8.2162Y-4.6666
X8.225Y-4.4364
X8.2259Y-4.2448
X8.2261Y-7.5942
X8.2264Y-4.5926
X8.2267Y-4.4044
X8.2288Y-6.109
X8.2289Y-6.2446
X8.2414Y-4.5466
X8.245Y-4.7242
X8.2459Y-6.0203
X8.246Y-6.0568
X8.2465Y-5.2303
X8.2478Y-5.5862
X8.2484Y-5.7047
X8.2485Y-5.5086
X8.2486Y-5.312
X8.2486Y-5.8625
X8.2486Y-5.9414
X8.2487Y-5.3901
X8.2487Y-5.9019
X8.2488Y-5.7432
X8.2488Y-5.9812
X8.2489Y-5.5483
X8.2489Y-5.6266
X8.249Y-5.4691
X8.249Y-5.7839
X8.2492Y-5.2729
X8.2516Y-5.4314
X8.2521Y-5.8213
X8.2585Y-4.4698
X8.2588Y-4.7023
X8.2789Y-4.282
X8.2795Y-4.2475
X8.2815Y-7.65
X8.2852Y-5.3088
X8.2876Y-5.7448
X8.2876Y-5.9407
X8.288Y-5.6658
X8.2881Y-5.5476
X8.2881Y-5.8626
X8.2881Y-5.9807
X8.2882Y-5.7055
X8.2882Y-5.8234
X8.2882Y-5.902
X8.2883Y-6.0193
X8.2883Y-6.0596
X8.2884Y-4.4048
X8.2891Y-4.4354
X8.2891Y-5.2762
X8.29Y-5.3521
X8.2903Y-5.236
X8.2997Y-4.4701
X8.3047Y-4.5533
X8.3078Y-6.1123
X8.3203Y-4.1618
X8.3206Y-4.1272
X8.3206Y-4.624
X8.323Y-7.4954
X8.3252Y-5.6272
X8.3257Y-5.9375
X8.3261Y-6.0211
X8.3262Y-5.3512
X8.3266Y-5.314
X8.327Y-5.5486
X8.3273Y-5.5086
X8.3273Y-5.7449
X8.3274Y-5.6658
X8.3274Y-5.9018
X8.3274Y-6.1254
X8.3275Y-5.8232
X8.3277Y-5.9804
X8.328Y-5.587
X8.3293Y-5.392
X8.3311Y-5.8667
X8.3332Y-5.7854
X8.3347Y-4.4758
X8.3347Y-4.7044
X8.3398Y-4.2578
X8.3398Y-4.2911
X8.3471Y-6.1089
X8.3482Y-7.5161
X8.3495Y-6.256
X8.3506Y-4.4344
X8.3514Y-4.4038
X8.3518Y-4.5926
X8.3568Y-4.5604
X8.3596Y-4.4755
X8.3597Y-5.2753
X8.3611Y-4.1617
X8.3617Y-4.1263
X8.3626Y-5.227
X8.3628Y-5.3113
X8.364Y-5.7062
X8.3644Y-5.9379
X8.365Y-6.0214
X8.3658Y-5.3502
X8.3662Y-5.5861
X8.3665Y-5.4686
X8.3665Y-5.9022
X8.3666Y-5.3926
X8.3667Y-5.5081
X8.3668Y-5.5476
X8.3669Y-5.8234
X8.367Y-5.202
X8.367Y-5.8628
X8.3671Y-5.744
X8.3672Y-4.3631
X8.3676Y-5.4332
X8.3704Y-7.5417
X8.3706Y-7.0043
X8.3706Y-7.0299
X8.3706Y-7.0811
X8.3706Y-7.1067
X8.3706Y-7.1322
X8.3706Y-7.1578
X8.3706Y-7.1834
X8.3706Y-7.209
X8.3706Y-7.2346
X8.3706Y-7.2602
X8.3706Y-7.2858
X8.3706Y-7.3114
X8.3706Y-7.337
X8.3706Y-7.4137
X8.3706Y-7.4393
X8.3706Y-7.4905
X8.3706Y-7.5673
X8.3706Y-7.5929
X8.3706Y-7.7464
X8.3706Y-7.3626
X8.3706Y-7.6441
X8.3716Y-4.694
X8.3732Y-5.1552
X8.3834Y-4.6243
X8.3842Y-4.5919
X8.4004Y-4.1608
X8.4028Y-4.126
X8.4029Y-5.938
X8.403Y-5.3508
X8.4033Y-5.3888
X8.4037Y-5.4679
X8.4049Y-5.4307
X8.4049Y-6.0172
X8.4056Y-5.547
X8.406Y-5.8624
X8.4061Y-5.7842
X8.4062Y-5.5869
X8.4062Y-5.9807
X8.4063Y-5.705
X8.4067Y-6.1081
X8.4074Y-5.3122
X8.4076Y-5.2352
X8.408Y-5.2758
X8.4082Y-5.6254
X8.4084Y-4.4674
X8.409Y-5.827
X8.409Y-5.9046
X8.4127Y-4.6228
X8.4145Y-4.435
X8.415Y-4.4038
X8.4151Y-4.5928
X8.4397Y-7.6953
X8.4399Y-7.0555
X8.4412Y-4.1614
X8.4421Y-4.1257
X8.443Y-7.3882
X8.4431Y-4.5551
X8.4436Y-5.3112
X8.4436Y-5.8642
X8.4442Y-4.4718
X8.4445Y-5.9005
X8.4445Y-6.253
X8.4446Y-5.3892
X8.445Y-6.019
X8.4451Y-5.7841
X8.4452Y-5.5867
X8.4454Y-5.9806
X8.4455Y-5.5475
X8.4455Y-5.6264
X8.4455Y-5.8231
X8.4455Y-6.0593
X8.4456Y-5.7445
X8.4457Y-5.6655
X8.4457Y-5.705
X8.4458Y-5.5084
X8.4461Y-5.4298
X8.4463Y-4.4354
X8.4476Y-5.3516
X8.448Y-5.9388
X8.4529Y-4.7041
X8.4652Y-5.2297
X8.4744Y-4.4718
X8.4776Y-4.4035
X8.478Y-4.5929
X8.4811Y-5.31
X8.4817Y-5.2744
X8.4828Y-5.9377
X8.4829Y-5.3909
X8.4829Y-7.7797
X8.4842Y-4.2996
X8.4846Y-5.8632
X8.4846Y-5.9019
X8.4847Y-5.4307
X8.4848Y-5.7836
X8.4849Y-5.5081
X8.4849Y-5.5476
X8.4849Y-5.705
X8.4849Y-5.9807
X8.485Y-5.6262
X8.485Y-5.8231
X8.4855Y-5.6651
X8.4858Y-5.5862
X8.4865Y-4.1764
X8.4883Y-4.1399
X8.4923Y-4.256
X8.494Y-4.5472
X8.4958Y-4.3582
X8.4991Y-4.6696
X8.504Y-6.9734
X8.5078Y-4.4374
X8.5085Y-7.7798
X8.5113Y-6.1607
X8.516Y-8.0289
X8.5198Y-5.3117
X8.5204Y-5.9806
X8.5214Y-4.663
X8.5221Y-5.9047
X8.5222Y-6.0169
X8.5229Y-5.5068
X8.5236Y-4.358
X8.5243Y-5.4688
X8.5243Y-5.6657
X8.5243Y-5.5475
X8.5244Y-5.8237
X8.5246Y-5.3516
X8.5246Y-5.7841
X8.5252Y-5.5862
X8.5252Y-5.8638
X8.5256Y-5.4316
X8.5262Y-5.627
X8.5277Y-6.0608
X8.5277Y-5.23
X8.5322Y-4.161
X8.5326Y-4.126
X8.5341Y-7.7797
X8.536Y-5.1962
X8.5378Y-4.6276
X8.5408Y-4.5928
X8.5429Y-4.558
X8.5435Y-4.433
X8.5458Y-7.3874
X8.5508Y-6.1191
X8.5549Y-5.2099
X8.5596Y-6.9015
X8.5597Y-7.7797
X8.5618Y-5.8988
X8.5622Y-5.7812
X8.5622Y-5.5097
X8.5632Y-6.0197
X8.5635Y-6.0591
X8.5637Y-5.8234
X8.5639Y-5.2726
X8.564Y-5.7468
X8.564Y-5.9422
X8.5642Y-5.3105
X8.5642Y-5.5492
X8.5646Y-5.3902
X8.5646Y-5.7044
X8.566Y-5.6286
X8.566Y-5.668
X8.566Y-5.9789
X8.5666Y-7.6522
X8.5678Y-5.8614
X8.5694Y-4.126
X8.5698Y-4.5961
X8.5716Y-4.1602
X8.5724Y-4.6242
X8.5731Y-4.3706
X8.5852Y-6.9019
X8.5853Y-7.7798
X8.5885Y-4.6999
X8.5955Y-5.3935
X8.5992Y-4.3432
X8.5992Y-5.7442
X8.6012Y-5.6252
X8.6019Y-5.35
X8.6022Y-5.709
X8.6026Y-5.6635
X8.6026Y-5.9798
X8.6027Y-5.5432
X8.6028Y-5.5868
X8.6028Y-5.8642
X8.603Y-4.5575
X8.603Y-5.4688
X8.6032Y-4.4047
X8.6032Y-5.5084
X8.6032Y-6.0188
X8.6038Y-5.2722
X8.604Y-4.4711
X8.6041Y-5.9425
X8.6042Y-4.4962
X8.6042Y-5.9042
X8.6049Y-6.0605
X8.605Y-5.3108
X8.6058Y-5.8234
X8.6064Y-5.7828
X8.6076Y-7.6536
X8.6107Y-6.9019
X8.611Y-4.125
X8.611Y-4.1599
X8.6299Y-4.5211
X8.6334Y-3.7997
X8.6351Y-4.6243
X8.6353Y-4.5931
X8.6363Y-6.9019
X8.638Y-6.0598
X8.6387Y-5.6683
X8.6392Y-5.8584
X8.6402Y-5.5042
X8.6408Y-6.1006
X8.641Y-5.2318
X8.6419Y-5.9806
X8.642Y-5.2706
X8.6424Y-5.9413
X8.6426Y-5.7068
X8.6428Y-5.7414
X8.643Y-4.3482
X8.6434Y-6.019
X8.6436Y-5.5852
X8.6437Y-5.4289
X8.6437Y-5.5502
X8.6438Y-5.3896
X8.6444Y-5.3473
X8.6446Y-5.7762
X8.6447Y-5.4707
X8.6448Y-5.9018
X8.6458Y-5.6318
X8.6462Y-5.8242
X8.652Y-3.4509
X8.656Y-8.0289
X8.6613Y-3.6994
X8.6617Y-4.2732
X8.6619Y-6.9019
X8.6638Y-4.1278
X8.6638Y-4.1758
X8.6654Y-5.2256
X8.6755Y-6.1046
X8.677Y-3.6472
X8.6787Y-5.4267
X8.6794Y-5.3113
X8.6797Y-5.4672
X8.6802Y-5.9022
X8.6806Y-6.0589
X8.6812Y-5.3877
X8.6812Y-5.6662
X8.6817Y-5.9806
X8.6818Y-5.7051
X8.6824Y-4.3948
X8.6825Y-5.7446
X8.6826Y-6.0198
X8.6832Y-5.5452
X8.6842Y-4.6579
X8.6862Y-5.9406
X8.6866Y-5.8279
X8.6875Y-6.9019
X8.6904Y-4.3482
X8.692Y-4.4568
X8.6952Y-4.5058
X8.711Y-4.1606
X8.7121Y-4.1275
X8.7122Y-5.9774
X8.7131Y-6.9019
X8.7162Y-5.9022
X8.7164Y-5.5529
X8.7172Y-5.3907
X8.7199Y-3.4418
X8.7199Y-6.019
X8.7202Y-8.2385
X8.7206Y-5.8268
X8.7207Y-3.6148
X8.7208Y-5.745
X8.7208Y-5.9436
X8.7211Y-6.0594
X8.7217Y-5.5066
X8.7218Y-5.35
X8.722Y-6.1018
X8.7222Y-5.3117
X8.7222Y-5.5852
X8.7227Y-6.1711
X8.7259Y-5.6242
X8.726Y-8.0289
X8.7274Y-3.7156
X8.729Y-3.8893
X8.7304Y-4.6601
X8.7387Y-6.9019
X8.7517Y-4.1281
X8.7528Y-4.1612
X8.7572Y-5.4272
X8.7572Y-5.5508
X8.7586Y-5.6281
X8.7587Y-5.5066
X8.7587Y-5.5872
X8.7598Y-5.3908
X8.7603Y-6.02
X8.7604Y-5.3116
X8.7604Y-6.0987
X8.7605Y-5.7452
X8.7607Y-5.9432
X8.7608Y-5.3496
X8.761Y-5.8674
X8.7613Y-6.0636
X8.7614Y-5.4701
X8.7622Y-5.6638
X8.7622Y-5.8992
X8.7623Y-5.8267
X8.7715Y-3.6814
X8.772Y-3.6143
X8.79Y-6.9711
X8.7907Y-4.1287
X8.7914Y-4.1616
X8.7952Y-5.3101
X8.7952Y-5.3927
X8.7952Y-6.2084
X8.796Y-5.709
X8.7961Y-8.0289
X8.7967Y-6.0172
X8.7977Y-5.4702
X8.7992Y-5.3507
X8.7998Y-5.988
X8.8Y-5.5432
X8.8Y-5.9438
X8.8Y-5.8625
X8.8007Y-5.7497
X8.8136Y-6.1915
X8.8156Y-6.9018
X8.8156Y-7.7795
X8.8179Y-3.4495
X8.8284Y-7.7316
X8.8291Y-7.7068
X8.8357Y-4.1281
X8.8357Y-4.1602
X8.8409Y-6.0217
X8.8412Y-6.9018
X8.8422Y-5.7742
X8.8448Y-5.3312
X8.8456Y-5.5433
X8.846Y-5.703
X8.8482Y-5.8752
X8.8483Y-6.073
X8.8493Y-5.9226
X8.8512Y-5.4492
X8.8518Y-5.4098
X8.8564Y-3.3872
X8.864Y-6.1012
X8.8668Y-6.9018
X8.8717Y-5.8678
X8.879Y-5.3933
X8.8803Y-5.5436
X8.8812Y-4.2392
X8.8812Y-4.2792
X8.8822Y-5.2972
X8.8889Y-5.8186
X8.892Y-5.9855
X8.8924Y-6.9018
X8.8924Y-7.7798
X8.8942Y-6.1353
X8.8981Y-7.7544
X8.9027Y-5.2762
X8.9112Y-4.1592
X8.9112Y-4.1892
X8.9179Y-6.9711
X8.9188Y-4.3495
X8.9194Y-4.3876
X8.92Y-4.4298
X8.9204Y-4.4687
X8.9209Y-3.3889
X8.9227Y-3.4388
X8.9239Y-5.2402
X8.926Y-8.1838
X8.9358Y-8.0289
X8.9373Y-5.5258
X8.9412Y-4.1992
X8.9412Y-4.2392
X8.9436Y-6.9018
X8.9456Y-6.1176
X8.9567Y-4.4707
X8.957Y-4.5144
X8.9572Y-4.3882
X8.9585Y-4.3487
X8.9594Y-4.4302
X8.9594Y-4.5418
X8.9594Y-4.7494
X8.9608Y-4.5787
X8.9614Y-4.6192
X8.9614Y-5.1719
X8.9617Y-4.6588
X8.9632Y-4.694
X8.9691Y-6.9018
X8.9712Y-4.1592
X8.9712Y-4.2092
X8.9712Y-4.2792
X8.9723Y-6.0847
X8.973Y-5.53
X8.9889Y-3.4127
X8.9912Y-4.3192
X8.9912Y-4.3692
X8.9912Y-4.4092
X8.9912Y-4.4492
X8.9912Y-4.4892
X8.9912Y-4.5592
X8.9912Y-4.5992
X8.9912Y-4.6392
X8.9966Y-7.8532
X8.997Y-5.82
X8.998Y-5.754
X9.0012Y-4.7292
X9.0012Y-4.7792
X9.0061Y-8.0289
X9.0123Y-7.1066
X9.0123Y-7.1834
X9.0123Y-7.2602
X9.0123Y-7.3626
X9.0123Y-7.5418
X9.0316Y-6.0682
X9.0465Y-6.5
X9.0465Y-6.55
X9.0528Y-3.3893
X9.0559Y-3.4375
X9.064Y-7.7842
X9.08Y-5.6445
X9.0809Y-6.0687
X9.0814Y-7.6441
X9.0814Y-7.6953
X9.0815Y-7.2346
X9.0815Y-7.2858
X9.0815Y-7.5673
X9.0815Y-7.5929
X9.0815Y-7.6185
X9.0815Y-7.6697
X9.0816Y-7.1578
X9.0959Y-7.8648
X9.0967Y-7.7527
X9.1196Y-3.621
X9.125Y-5.6445
X9.1364Y-3.537
X9.1379Y-3.4147
X9.182Y-7.3888
X9.1989Y-3.7042
X9.221Y-2.6684
X9.2211Y-2.4266
X9.2229Y-3.3313
X9.2429Y-2.805
X9.2636Y-5.6503
X9.2931Y-3.622
X9.2975Y-7.2074
X9.2976Y-6.9973
X9.2976Y-7.0673
X9.2976Y-7.1373
X9.3042Y-5.5976
X9.3086Y-3.5328
X9.3097Y-3.325
X9.316Y-8.2172
X9.336Y-8.4622
X9.3472Y-8.3028
X9.3558Y-8.3357
X9.3755Y-8.3041
X9.3884Y-3.6231
X9.3912Y-3.4694
X9.395Y-8.4619
X9.3951Y-8.3326
X9.3983Y-8.18
X9.4148Y-8.304
X9.4171Y-3.3221
X9.4345Y-8.3353
X9.4541Y-8.3039
X9.4628Y-2.8645
X9.4628Y-2.946
X9.4738Y-8.335
X9.4935Y-8.3165
X9.4935Y-8.4619
X9.4945Y-5.878
X9.5132Y-8.3346
X9.5329Y-8.3043
X9.5412Y-4.6488
X9.5437Y-4.428
X9.5441Y-4.4752
X9.5465Y-4.3846
X9.5489Y-4.5501
X9.5517Y-4.6012
X9.5525Y-8.462
X9.5526Y-8.3358
X9.5722Y-8.3041
X9.5755Y-3.8944
X9.5919Y-8.3349
X9.5972Y-4.6362
X9.6116Y-8.3126
X9.6116Y-8.462
X9.6182Y-4.5844
X9.6203Y-4.5305
X9.6314Y-8.335
X9.6343Y-4.3261
X9.651Y-8.3041
X9.653Y-3.4212
X9.6706Y-8.462
X9.6707Y-8.3357
X9.6819Y-4.2939
X9.6882Y-3.005
X9.6904Y-8.3042
X9.7737Y-4.5096
X9.8052Y-4.6176
X9.8187Y-4.5606
X9.8202Y-4.4736
X9.9636Y-5.401
X10.0396Y-3.9806
X10.0451Y-3.5611
X10.046Y-3.7056
X10.0886Y-4.1186
X10.1096Y-3.6436
X10.135Y-3.3641
X10.1667Y-8.2373
X10.1867Y-3.7112
X10.1896Y-4.0306
X10.2118Y-8.2485
X10.2251Y-3.6151
X10.2576Y-4.1276
X10.2654Y-4.477
X10.2661Y-4.6177
X10.285Y-3.364
X10.2935Y-8.217
X10.3132Y-8.462
X10.3157Y-8.3197
X10.3198Y-4.2586
X10.3254Y-5.1588
X10.3329Y-8.3049
X10.3407Y-3.7049
X10.3416Y-4.0126
X10.3526Y-8.3358
X10.3626Y-4.1256
X10.3722Y-8.3144
X10.3723Y-8.462
X10.3751Y-3.5641
X10.3919Y-8.3357
X10.4117Y-8.3042
X10.4312Y-8.3356
X10.4384Y-4.6924
X10.451Y-8.3041
X10.4626Y-4.0756
X10.4707Y-8.3319
X10.4707Y-8.462
X10.4845Y-4.4776
X10.4871Y-4.3377
X10.4904Y-8.304
X10.4911Y-5.1598
X10.5101Y-8.3359
X10.5272Y-3.779
X10.528Y-3.5536
X10.5297Y-8.3137
X10.5298Y-8.462
X10.54Y-4.8787
X10.5494Y-8.3356
X10.55Y-4.7038
X10.5514Y-3.9212
X10.5691Y-8.304
X10.5888Y-8.3316
X10.5888Y-8.462
X10.6085Y-8.304
X10.6282Y-8.3359
X10.6471Y-3.6664
X10.6479Y-8.4621
X10.6489Y-3.7739
X10.6498Y-3.5471
X10.655Y-3.9205
X10.658Y-4.3762
X10.6583Y-4.4614
X10.6675Y-8.3359
X10.668Y-4.078
X10.6733Y-4.2085
X10.6889Y-4.3039
X10.6896Y-4.4176
X10.7207Y-4.3762
X10.7228Y-4.4641
X10.7243Y-4.5274
X10.747Y-4.5629
X10.7687Y-4.691
X10.955Y-2.979
X10.955Y-3.18
X11.1149Y-2.9791
X11.115Y-3.185
T2
X4.7332Y-4.1559
X4.7333Y-4.024
X4.7499Y-4.2815
X4.7887Y-4.809
X4.8331Y-4.1558
X4.8332Y-4.0242
X4.8346Y-3.7335
X4.835Y-3.866
X4.8541Y-4.6484
X4.8542Y-4.5618
X4.8586Y-3.66
X4.9325Y-3.866
X4.9351Y-4.5618
X4.9352Y-4.6485
X4.951Y-6.224
X5.0272Y-3.1078
X5.034Y-6.228
X5.091Y-3.61
X5.0932Y-4.1558
X5.1486Y-4.445
X5.165Y-4.585
X5.165Y-4.725
X5.1932Y-4.1559
X5.2752Y-6.2239
X5.2839Y-4.4789
X5.284Y-4.7033
X5.2871Y-7.9557
X5.307Y-6.1537
X5.3268Y-6.0689
X5.3717Y-6.1519
X5.3735Y-5.8911
X5.5075Y-3.3946
X5.5418Y-3.7364
X5.5651Y-3.661
X5.6002Y-5.961
X5.6036Y-6.031
X5.6345Y-3.696
X5.6592Y-6.1913
X5.665Y-3.4075
X5.6857Y-6.2503
X5.6858Y-3.9591
X5.687Y-6.0645
X5.7133Y-6.3712
X5.7335Y-6.101
X5.7883Y-3.7822
X5.8006Y-6.191
X5.8066Y-6.041
X5.827Y-6.3473
X5.847Y-6.1243
X5.8852Y-3.7641
X5.8881Y-6.041
X5.8951Y-3.9118
X5.9141Y-5.3553
X5.9176Y-5.0753
X5.9271Y-6.1243
X5.9445Y-5.3022
X6.0076Y-5.2366
X6.0308Y-5.1569
X6.0341Y-5.1954
X6.1241Y-2.6392
X6.1242Y-2.7392
X6.1242Y-2.9992
X6.1242Y-3.0992
X6.1244Y-3.1992
X6.207Y-7.9341
X6.3133Y-5.607
X6.3831Y-5.6048
X6.5644Y-2.4615
X6.7633Y-8.3916
X6.8376Y-4.0457
X6.9098Y-3.9382
X7.1224Y-7.9492
X7.1293Y-8.0417
X7.1687Y-6.0706
X7.4428Y-5.9451
X7.5002Y-5.3901
X7.535Y-6.3526
X7.638Y-5.6292
X7.7572Y-5.8678
X7.8499Y-6.5771
X7.931Y-6.5442
X7.9612Y-6.0692
X7.9811Y-6.5017
X8.0453Y-7.9584
X8.0646Y-6.396
X8.1048Y-7.1818
X8.1254Y-7.468
X8.3027Y-6.4228
X8.4226Y-6.9397
X8.4416Y-7.6187
X8.4436Y-6.418
X8.4932Y-6.8844
X8.5493Y-7.0554
X8.5528Y-6.9868
X8.5714Y-4.729
X8.6104Y-4.7365
X8.6245Y-3.5419
X8.6269Y-3.6181
X8.7469Y-6.8666
X8.7804Y-3.1727
X8.7901Y-7.0758
X8.8189Y-3.1155
X8.9075Y-7.3624
X8.9076Y-7.5424
X8.908Y-7.2594
X8.918Y-7.0759
X8.9377Y-3.2063
X8.9781Y-3.2477
X9.0049Y-3.2273
X9.0465Y-6.65
X9.0486Y-6.6
X9.0836Y-7.4649
X9.1122Y-8.0604
X9.1189Y-3.1027
X9.24Y-5.6593
X9.2837Y-4.2586
X9.2837Y-4.3486
X9.2837Y-4.4486
X9.2837Y-4.5286
X9.2837Y-4.6086
X9.3019Y-6.5
X9.3021Y-6.6001
X9.3021Y-6.6499
X9.3913Y-4.3049
X9.4197Y-4.3486
X9.4337Y-4.4886
X9.4437Y-4.5386
X9.4537Y-4.5586
X9.5377Y-7.637
X9.5385Y-7.4368
X9.6437Y-4.6286
X9.8173Y-4.4087
X10.0462Y-8.0272
X10.6146Y-4.2576
X10.7846Y-4.2576
T3
X5.625Y-6.86
X5.735Y-6.83
X5.81Y-7.75
X5.91Y-7.75
X6.395Y-7.99
X6.395Y-8.09
X7.285Y-8.03
X7.285Y-8.135
X9.44Y-6.92
X9.44Y-7.05
X9.44Y-7.175
T6
X6.0448Y-3.5606
X6.0448Y-3.7606
X9.366Y-7.4034
X9.366Y-7.6034
T7
X10.8844Y-5.2116
X10.8844Y-5.2904
X10.8844Y-5.3691
X10.8844Y-5.4478
X10.8844Y-5.5266
X10.8844Y-5.6053
X10.8844Y-5.6841
X10.8844Y-5.7628
X10.8844Y-5.8415
X10.8844Y-5.9203
X10.8844Y-5.999
X10.8844Y-6.0778
X10.8844Y-6.1565
X10.8844Y-6.2352
X10.8844Y-6.314
X10.8844Y-6.3927
X10.8844Y-6.4715
X10.8844Y-6.5502
X10.8844Y-6.6289
X10.8844Y-6.7864
X10.8844Y-6.8652
X10.8844Y-6.9439
X10.8844Y-7.0226
X10.8844Y-7.1014
X10.9631Y-5.1722
X10.9631Y-5.251
X10.9631Y-5.3297
X10.9631Y-5.4085
X10.9631Y-5.4872
X10.9631Y-5.5659
X10.9631Y-5.6447
X10.9631Y-5.7234
X10.9631Y-5.8022
X10.9631Y-5.8809
X10.9631Y-5.9596
X10.9631Y-6.0384
X10.9631Y-6.1171
X10.9631Y-6.1959
X10.9631Y-6.2746
X10.9631Y-6.3533
X10.9631Y-6.4321
X10.9631Y-6.5108
X10.9631Y-6.5896
X10.9631Y-6.747
X10.9631Y-6.8258
X10.9631Y-6.9045
X10.9631Y-6.9833
X10.9631Y-7.062
X10.9631Y-7.1407
X11.0615Y-5.1722
X11.0615Y-5.251
X11.0615Y-5.3297
X11.0615Y-5.4085
X11.0615Y-5.4872
X11.0615Y-5.5659
X11.0615Y-5.6447
X11.0615Y-5.7234
X11.0615Y-5.8022
X11.0615Y-5.8809
X11.0615Y-5.9596
X11.0615Y-6.0384
X11.0615Y-6.1171
X11.0615Y-6.1959
X11.0615Y-6.2746
X11.0615Y-6.3533
X11.0615Y-6.4321
X11.0615Y-6.5108
X11.0615Y-6.5896
X11.0615Y-6.747
X11.0615Y-6.8258
X11.0615Y-6.9045
X11.0615Y-6.9833
X11.0615Y-7.062
X11.0615Y-7.1407
X11.1403Y-5.2116
X11.1403Y-5.2904
X11.1403Y-5.3691
X11.1403Y-5.4478
X11.1403Y-5.5266
X11.1403Y-5.6053
X11.1403Y-5.6841
X11.1403Y-5.7628
X11.1403Y-5.8415
X11.1403Y-5.9203
X11.1403Y-5.999
X11.1403Y-6.0778
X11.1403Y-6.1565
X11.1403Y-6.2352
X11.1403Y-6.314
X11.1403Y-6.3927
X11.1403Y-6.4715
X11.1403Y-6.5502
X11.1403Y-6.6289
X11.1403Y-6.7864
X11.1403Y-6.8652
X11.1403Y-6.9439
X11.1403Y-7.0226
X11.1403Y-7.1014
T8
X8.473Y-8.346
X8.473Y-8.4247
X8.573Y-8.346
X8.573Y-8.4247
T10
X5.3499Y-2.931
X5.3999Y-3.031
X5.4499Y-2.931
X5.4999Y-3.031
X5.5499Y-2.931
X5.5999Y-3.031
X5.6499Y-2.931
X5.6999Y-3.031
X5.7499Y-2.931
X5.7999Y-3.031
T12
X6.889Y-2.334
X6.889Y-2.434
X6.889Y-2.534
X6.889Y-2.634
X6.889Y-2.734
X7.5172Y-4.504
X7.5172Y-4.604
X7.5172Y-4.704
X7.5172Y-4.804
X7.5172Y-4.904
X7.5568Y-2.3608
X7.5568Y-2.4608
X7.6568Y-2.3608
X7.6568Y-2.4608
X7.7568Y-2.3608
X7.7568Y-2.4608
X7.8568Y-2.3608
X7.8568Y-2.4608
X7.9568Y-2.3608
X7.9568Y-2.4608
X8.0568Y-2.3608
X8.0568Y-2.4608
X8.1568Y-2.3608
X8.1568Y-2.4608
X8.913Y-8.4558
X8.913Y-8.5558
X8.913Y-8.6558
X8.913Y-8.7558
X8.913Y-8.8558
X9.1969Y-6.8071
X9.2969Y-6.8071
X9.4331Y-6.5307
X9.4331Y-6.6307
X9.4331Y-6.7307
X10.1772Y-4.9488
X10.1772Y-5.0488
X10.2772Y-4.9488
X10.2772Y-5.0488
X10.3772Y-4.9488
X10.3772Y-5.0488
X10.4772Y-4.9488
X10.4772Y-5.0488
X10.5772Y-4.9488
X10.5772Y-5.0488
T13
X5.3141Y-2.5211
X5.4141Y-2.5211
X5.7361Y-2.5211
X5.8361Y-2.5211
T14
X9.983Y-3.1384
X10.1917Y-3.1384
X10.4003Y-3.1384
X10.6149Y-3.1384
T15
X9.5075Y-2.3785
X9.7075Y-2.3785
T16
X9.39Y-4.99
X9.845Y-4.99
T17
X5.2702Y-2.8011
X5.88Y-2.8011
X9.2896Y-4.8896
X9.2896Y-5.0904
X9.4904Y-4.8896
X9.4904Y-5.0904
X9.7446Y-4.8896
X9.7446Y-5.0904
X9.9454Y-4.8896
X9.9454Y-5.0904
T18
X8.2868Y-8.531
X8.7592Y-8.531
T4
X6.4994Y-2.4189G85X6.4837Y-2.4189
G05
X6.6963Y-2.4189G85X6.6806Y-2.4189
G05
T5
X9.149Y-8.4815G85X9.149Y-8.5209
G05
X9.149Y-8.7573G85X9.149Y-8.779
G05
X9.7986Y-8.4815G85X9.7986Y-8.5209
G05
X9.7986Y-8.7573G85X9.7986Y-8.779
G05
X10.1262Y-8.4815G85X10.1262Y-8.5209
G05
X10.1262Y-8.7573G85X10.1262Y-8.779
G05
X10.7758Y-8.4815G85X10.7758Y-8.5209
G05
X10.7758Y-8.7573G85X10.7758Y-8.779
G05
T9
X6.4483Y-2.3156G85X6.4483Y-2.2959
G05
X6.7317Y-2.3156G85X6.7317Y-2.2959
G05
T11
X8.693Y-2.6286G85X8.693Y-2.7073
G05
X8.9173Y-2.5499G85X8.8386Y-2.5499
G05
X10.2164Y-2.6347G85X10.2164Y-2.7134
G05
X10.4407Y-2.5559G85X10.362Y-2.5559
G05
T13
X4.7524Y-8.8409G85X4.7524Y-8.8684
G05
X4.776Y-8.5875G85X4.776Y-8.6525
G05
X5.3587Y-8.5875G85X5.3587Y-8.6525
G05
X5.3823Y-8.8409G85X5.3823Y-8.8684
G05
X5.6724Y-8.8409G85X5.6724Y-8.8684
G05
X5.696Y-8.5875G85X5.696Y-8.6525
G05
X6.2787Y-8.5875G85X6.2787Y-8.6525
G05
X6.3023Y-8.8409G85X6.3023Y-8.8684
G05
X6.5924Y-8.8409G85X6.5924Y-8.8684
G05
X6.616Y-8.5875G85X6.616Y-8.6525
G05
X7.1987Y-8.5875G85X7.1987Y-8.6525
G05
X7.2223Y-8.8409G85X7.2223Y-8.8684
G05
X7.5124Y-8.8409G85X7.5124Y-8.8684
G05
X7.536Y-8.5875G85X7.536Y-8.6525
G05
X8.1187Y-8.5875G85X8.1187Y-8.6525
G05
X8.1423Y-8.8409G85X8.1423Y-8.8684
G05
X8.9193Y-2.7861G85X8.8367Y-2.7861
G05
X10.4427Y-2.7921G85X10.3601Y-2.7921
G05
T0
M30
