G04 (created by PCBNEW (2013-07-07 BZR 4022)-stable) date 19/05/2015 04:41:07 PM*
%MOIN*%
G04 Gerber Fmt 3.4, Leading zero omitted, Abs format*
%FSLAX34Y34*%
G01*
G70*
G90*
G04 APERTURE LIST*
%ADD10C,0.00590551*%
%ADD11C,0.0905512*%
%ADD12R,0.0984252X0.11811*%
%ADD13O,0.0570866X0.0472441*%
%ADD14C,0.06*%
%ADD15C,0.11811*%
%ADD16C,0.056*%
%ADD17R,0.06X0.06*%
%ADD18O,0.0708661X0.137795*%
%ADD19O,0.0708661X0.0925197*%
%ADD20C,0.102362*%
%ADD21C,0.139764*%
%ADD22C,0.0751968*%
%ADD23C,0.0787402*%
%ADD24O,0.0511811X0.0905512*%
%ADD25O,0.0511811X0.0748031*%
%ADD26O,0.08X0.16*%
%ADD27R,0.1378X0.1378*%
%ADD28R,0.0472441X0.0472441*%
%ADD29C,0.0472441*%
%ADD30C,0.0866142*%
%ADD31R,0.0866142X0.0866142*%
%ADD32C,0.0393701*%
%ADD33C,0.018*%
%ADD34C,0.0318*%
%ADD35C,0.022*%
%ADD36C,0.005*%
G04 APERTURE END LIST*
G54D10*
G54D11*
X106149Y-31384D03*
X104003Y-31384D03*
X101916Y-31384D03*
X99830Y-31384D03*
G54D12*
X67317Y-23057D03*
X64482Y-23057D03*
G54D13*
X66884Y-24189D03*
X64915Y-24189D03*
G54D14*
X85730Y-83460D03*
X84730Y-83460D03*
X84730Y-84247D03*
X85730Y-84247D03*
G54D15*
X87592Y-85310D03*
X82868Y-85310D03*
G54D16*
X93660Y-76033D03*
X93660Y-74033D03*
G54D17*
X75568Y-24607D03*
G54D14*
X75568Y-23607D03*
X76568Y-24607D03*
X76568Y-23607D03*
X77568Y-24607D03*
X77568Y-23607D03*
X78568Y-24607D03*
X78568Y-23607D03*
X79568Y-24607D03*
X79568Y-23607D03*
X80568Y-24607D03*
X80568Y-23607D03*
X81568Y-24607D03*
X81568Y-23607D03*
G54D18*
X66160Y-86200D03*
X71987Y-86200D03*
G54D19*
X65924Y-88546D03*
X72223Y-88546D03*
G54D18*
X56960Y-86200D03*
X62787Y-86200D03*
G54D19*
X56724Y-88546D03*
X63023Y-88546D03*
G54D18*
X47760Y-86200D03*
X53587Y-86200D03*
G54D19*
X47524Y-88546D03*
X53823Y-88546D03*
G54D18*
X75360Y-86200D03*
X81187Y-86200D03*
G54D19*
X75124Y-88546D03*
X81423Y-88546D03*
G54D20*
X52701Y-28010D03*
X58800Y-28010D03*
G54D21*
X53500Y-26809D03*
X58000Y-26809D03*
G54D22*
X56498Y-29309D03*
X57998Y-30309D03*
X56998Y-30309D03*
X55998Y-30309D03*
X54998Y-30309D03*
X55498Y-29309D03*
X54498Y-29309D03*
X57498Y-29309D03*
G54D23*
X58361Y-25211D03*
X57361Y-25211D03*
X54140Y-25211D03*
X53140Y-25211D03*
G54D22*
X53498Y-29309D03*
X53998Y-30309D03*
G54D16*
X60447Y-35605D03*
X60447Y-37605D03*
G54D24*
X91489Y-85012D03*
X97986Y-85012D03*
G54D25*
X91489Y-87681D03*
X97986Y-87681D03*
G54D24*
X101261Y-85012D03*
X107758Y-85012D03*
G54D25*
X101261Y-87681D03*
X107758Y-87681D03*
G54D26*
X95075Y-23785D03*
X97075Y-23785D03*
G54D27*
X104014Y-27921D03*
X104014Y-25559D03*
X102164Y-26740D03*
X88780Y-27861D03*
X88780Y-25499D03*
X86930Y-26680D03*
G54D28*
X109631Y-71407D03*
G54D29*
X108843Y-71013D03*
X109631Y-70620D03*
X108843Y-70226D03*
X109631Y-69832D03*
X108843Y-69438D03*
X109631Y-69045D03*
X108843Y-68651D03*
X109631Y-68257D03*
X108843Y-67864D03*
X109631Y-67470D03*
X108843Y-66289D03*
X109631Y-65895D03*
X108843Y-65501D03*
X109631Y-65108D03*
X108843Y-64714D03*
X109631Y-64320D03*
X108843Y-63927D03*
X109631Y-63533D03*
X108843Y-63139D03*
X109631Y-62746D03*
X108843Y-62352D03*
X109631Y-61958D03*
X108843Y-61564D03*
X109631Y-61171D03*
X108843Y-60777D03*
X109631Y-60383D03*
X108843Y-59990D03*
X109631Y-59596D03*
X108843Y-59202D03*
X109631Y-58809D03*
X108843Y-58415D03*
X109631Y-58021D03*
X108843Y-57627D03*
X109631Y-57234D03*
X108843Y-56840D03*
X109631Y-56446D03*
X108843Y-56053D03*
X109631Y-55659D03*
X108843Y-55265D03*
X109631Y-54872D03*
X108843Y-54478D03*
X109631Y-54084D03*
X108843Y-53690D03*
X109631Y-53297D03*
X108843Y-52903D03*
X109631Y-52509D03*
X108843Y-52116D03*
X110615Y-71407D03*
X111402Y-71013D03*
X110615Y-70620D03*
X111402Y-70226D03*
X110615Y-69832D03*
X111402Y-69438D03*
X110615Y-69045D03*
X111402Y-68651D03*
X110615Y-68257D03*
X111402Y-67864D03*
X110615Y-67470D03*
X111402Y-66289D03*
X110615Y-65895D03*
X111402Y-65501D03*
X110615Y-65108D03*
X111402Y-64714D03*
X110615Y-64320D03*
X111402Y-63927D03*
X110615Y-63533D03*
X111402Y-63139D03*
X110615Y-62746D03*
X111402Y-62352D03*
X110615Y-61958D03*
X111402Y-61564D03*
X110615Y-61171D03*
X111402Y-60777D03*
X110615Y-60383D03*
X111402Y-59990D03*
X110615Y-59596D03*
X111402Y-59202D03*
X110615Y-58809D03*
X111402Y-58415D03*
X110615Y-58021D03*
X111402Y-57627D03*
X110615Y-57234D03*
X111402Y-56840D03*
X110615Y-56446D03*
X111402Y-56053D03*
X110615Y-55659D03*
X111402Y-55265D03*
X110615Y-54872D03*
X111402Y-54478D03*
X110615Y-54084D03*
X111402Y-53690D03*
X110615Y-53297D03*
X111402Y-52903D03*
X110615Y-52509D03*
X111402Y-52116D03*
X109631Y-51722D03*
X110615Y-51722D03*
G54D17*
X101772Y-50488D03*
G54D14*
X101772Y-49488D03*
X102772Y-50488D03*
X102772Y-49488D03*
X103772Y-50488D03*
X103772Y-49488D03*
X104772Y-50488D03*
X104772Y-49488D03*
X105772Y-50488D03*
X105772Y-49488D03*
G54D17*
X68890Y-23340D03*
G54D14*
X68890Y-24340D03*
X68890Y-25340D03*
X68890Y-26340D03*
X68890Y-27340D03*
G54D17*
X89130Y-88558D03*
G54D14*
X89130Y-87558D03*
X89130Y-86558D03*
X89130Y-85558D03*
X89130Y-84558D03*
G54D17*
X75172Y-49040D03*
G54D14*
X75172Y-48040D03*
X75172Y-47040D03*
X75172Y-46040D03*
X75172Y-45040D03*
G54D17*
X94331Y-67307D03*
G54D14*
X94331Y-66307D03*
X94331Y-65307D03*
G54D17*
X91969Y-68071D03*
G54D14*
X92969Y-68071D03*
G54D30*
X98450Y-49900D03*
G54D31*
X99453Y-48896D03*
X99453Y-50903D03*
X97446Y-50903D03*
X97446Y-48896D03*
G54D30*
X93900Y-49900D03*
G54D31*
X94903Y-48896D03*
X94903Y-50903D03*
X92896Y-50903D03*
X92896Y-48896D03*
G54D32*
X57350Y-68300D03*
X59100Y-77500D03*
X56250Y-68600D03*
X72850Y-80300D03*
X72850Y-81350D03*
X63950Y-79900D03*
X63950Y-80900D03*
X58100Y-77500D03*
X94400Y-71750D03*
X94400Y-70500D03*
X94400Y-69200D03*
G54D33*
X86298Y-45211D03*
X84816Y-52744D03*
X86041Y-44962D03*
X84651Y-52297D03*
X85077Y-44374D03*
X85245Y-53516D03*
X86653Y-52256D03*
X86429Y-43482D03*
X85730Y-43706D03*
X86409Y-52318D03*
X84846Y-54307D03*
X87303Y-46601D03*
X86919Y-44568D03*
X85645Y-53902D03*
X84445Y-53892D03*
X86029Y-45575D03*
X85697Y-45961D03*
X83675Y-54332D03*
X85641Y-53105D03*
X86031Y-44047D03*
X85723Y-46242D03*
X83627Y-53113D03*
X86039Y-44711D03*
X84029Y-53508D03*
X86350Y-46243D03*
X84460Y-54298D03*
X86049Y-53108D03*
X86823Y-43948D03*
X86951Y-45058D03*
X85548Y-52099D03*
X84810Y-53100D03*
X85407Y-45928D03*
X85434Y-44330D03*
X85359Y-51962D03*
X85428Y-45580D03*
X85276Y-52300D03*
X84779Y-45929D03*
X83657Y-53502D03*
X84775Y-44035D03*
X86419Y-52706D03*
X84743Y-44718D03*
X84435Y-53112D03*
X84441Y-44718D03*
X84475Y-53516D03*
X83046Y-45533D03*
X82485Y-53120D03*
X83346Y-44758D03*
X82464Y-52303D03*
X81701Y-53096D03*
X82266Y-44044D03*
X82161Y-46666D03*
X81603Y-52195D03*
X80928Y-53095D03*
X81605Y-44658D03*
X80907Y-52372D03*
X81459Y-46102D03*
X81505Y-44410D03*
X80511Y-52698D03*
X81487Y-45796D03*
X80442Y-52300D03*
X83205Y-46240D03*
X82890Y-52762D03*
X83505Y-44344D03*
X82902Y-52360D03*
X84073Y-53122D03*
X83841Y-45919D03*
X84075Y-52352D03*
X84144Y-44350D03*
X83625Y-52270D03*
X83833Y-46243D03*
X84083Y-44674D03*
X83731Y-51552D03*
X82890Y-44354D03*
X82491Y-52729D03*
X82263Y-45926D03*
X81882Y-52189D03*
X83261Y-53512D03*
X82996Y-44701D03*
X83567Y-45604D03*
X83669Y-52020D03*
X83265Y-53140D03*
X83517Y-45926D03*
X84990Y-46696D03*
X84048Y-54307D03*
X83665Y-53926D03*
X84430Y-45551D03*
X86443Y-53473D03*
X86352Y-45931D03*
X82899Y-53521D03*
X82413Y-45466D03*
X81354Y-52219D03*
X82249Y-44364D03*
X82584Y-44698D03*
X81305Y-52724D03*
X84939Y-45472D03*
X85638Y-52726D03*
X82090Y-56267D03*
X103526Y-83358D03*
X82488Y-56266D03*
X103919Y-83357D03*
X104312Y-83356D03*
X80133Y-55099D03*
X79719Y-55099D03*
X104117Y-83042D03*
X87586Y-55066D03*
X106282Y-83359D03*
X105691Y-83040D03*
X87571Y-55508D03*
X105101Y-83359D03*
X87604Y-57452D03*
X104510Y-83041D03*
X87622Y-58267D03*
X106675Y-83359D03*
X87216Y-55066D03*
X106085Y-83040D03*
X87163Y-55529D03*
X87207Y-57450D03*
X105494Y-83356D03*
X104904Y-83040D03*
X87205Y-58268D03*
X81699Y-58231D03*
X93755Y-83041D03*
X94148Y-83040D03*
X82076Y-58217D03*
X83640Y-57062D03*
X81310Y-60197D03*
X94541Y-83039D03*
X79594Y-59821D03*
X94345Y-83353D03*
X96510Y-83041D03*
X88511Y-54492D03*
X95919Y-83349D03*
X88455Y-55433D03*
X88421Y-57742D03*
X95329Y-83043D03*
X88481Y-58752D03*
X94738Y-83350D03*
X87976Y-54702D03*
X96904Y-83042D03*
X88803Y-55436D03*
X96314Y-83350D03*
X95722Y-83041D03*
X88006Y-57497D03*
X95132Y-83346D03*
X88717Y-58678D03*
X57727Y-36916D03*
X62276Y-32357D03*
X55678Y-34446D03*
X53908Y-38485D03*
X81305Y-55494D03*
X55673Y-38470D03*
X81301Y-54668D03*
X55669Y-39892D03*
X82094Y-55087D03*
X81705Y-55094D03*
X55698Y-39112D03*
X53367Y-38292D03*
X80139Y-56668D03*
X53366Y-34312D03*
X81688Y-55471D03*
X53367Y-35091D03*
X82488Y-55483D03*
X53366Y-35891D03*
X82484Y-55086D03*
X80935Y-54310D03*
X53366Y-36710D03*
X53366Y-37491D03*
X80527Y-54310D03*
X54233Y-37161D03*
X79735Y-56670D03*
X80919Y-55100D03*
X54990Y-38379D03*
X54143Y-37403D03*
X80927Y-55500D03*
X54469Y-37616D03*
X80539Y-55100D03*
X80125Y-54295D03*
X54720Y-38118D03*
X54734Y-38367D03*
X79734Y-54299D03*
X57228Y-37003D03*
X50638Y-30044D03*
X56203Y-35152D03*
X55095Y-34704D03*
X55298Y-38394D03*
X56655Y-37790D03*
X57069Y-37476D03*
X52336Y-35891D03*
X54233Y-36058D03*
X52335Y-37491D03*
G54D34*
X51931Y-40191D03*
G54D33*
X52336Y-36710D03*
X52337Y-35091D03*
X54070Y-37004D03*
X90809Y-60687D03*
X86030Y-54688D03*
X90465Y-65500D03*
X90316Y-60682D03*
X90465Y-65000D03*
X86063Y-57828D03*
X86427Y-57414D03*
X85641Y-55492D03*
X86027Y-55868D03*
X86461Y-58242D03*
X86391Y-58584D03*
X86025Y-56635D03*
X85659Y-56680D03*
X87121Y-59774D03*
X86861Y-59406D03*
X87207Y-59436D03*
X87161Y-59022D03*
X88492Y-59226D03*
X87999Y-59438D03*
X86057Y-58234D03*
X85621Y-57812D03*
X86021Y-57090D03*
X85639Y-57468D03*
X86796Y-54672D03*
X86786Y-54267D03*
X88790Y-53933D03*
X87607Y-53496D03*
X88821Y-52972D03*
X87951Y-53101D03*
X88409Y-60217D03*
X87966Y-60172D03*
X86447Y-59018D03*
X86027Y-58642D03*
X88000Y-58625D03*
X87609Y-58674D03*
X85659Y-56286D03*
X85261Y-56270D03*
X86811Y-53877D03*
X87171Y-53907D03*
X88518Y-54098D03*
X87571Y-54272D03*
X88447Y-53312D03*
X87991Y-53507D03*
X88920Y-59855D03*
X87606Y-59432D03*
X86031Y-55084D03*
X86401Y-55042D03*
X86436Y-55502D03*
X86026Y-55432D03*
X87218Y-53500D03*
X86387Y-56683D03*
X89980Y-57540D03*
X86817Y-57051D03*
X89970Y-58200D03*
X91250Y-56445D03*
X87259Y-56242D03*
X90800Y-56445D03*
X87586Y-56281D03*
X87221Y-53117D03*
X85622Y-55097D03*
X99636Y-54010D03*
X85229Y-55068D03*
X85243Y-55475D03*
X86438Y-53896D03*
X83665Y-54686D03*
X83667Y-55081D03*
X80518Y-53114D03*
G54D35*
X75002Y-53901D03*
G54D33*
X90123Y-71066D03*
X82882Y-60193D03*
X87227Y-61711D03*
G54D35*
X81254Y-74680D03*
G54D33*
X82815Y-76500D03*
X83705Y-70810D03*
X83670Y-58628D03*
X83705Y-71066D03*
X83275Y-58232D03*
X82521Y-58213D03*
X83705Y-71322D03*
X84029Y-59380D03*
X83705Y-70042D03*
X83665Y-59022D03*
X83705Y-70298D03*
X82881Y-58626D03*
X83706Y-76441D03*
X88924Y-69018D03*
X87603Y-60200D03*
X87604Y-60987D03*
X88668Y-69018D03*
X86380Y-60598D03*
X85085Y-77798D03*
X85341Y-77797D03*
X86407Y-61006D03*
X86826Y-60198D03*
X88284Y-77316D03*
X88291Y-77068D03*
X86754Y-61046D03*
X85204Y-59806D03*
X88924Y-77798D03*
X85632Y-60197D03*
X88981Y-77544D03*
X84451Y-57841D03*
X88412Y-69018D03*
X84850Y-58231D03*
X88156Y-69018D03*
X86363Y-69019D03*
X87211Y-60594D03*
X87219Y-61018D03*
X86107Y-69019D03*
X85851Y-69019D03*
X86026Y-59798D03*
X86433Y-60190D03*
X85595Y-69015D03*
X85639Y-59422D03*
X83705Y-77464D03*
X84829Y-77797D03*
X85659Y-59789D03*
X82486Y-59414D03*
X85597Y-77797D03*
X83705Y-74137D03*
X86041Y-59042D03*
X86418Y-59806D03*
X83705Y-74393D03*
X85251Y-58638D03*
X83230Y-74954D03*
X83705Y-74905D03*
X85617Y-58988D03*
X88136Y-61915D03*
X83482Y-75161D03*
X87952Y-62084D03*
X83704Y-75417D03*
X84846Y-58632D03*
X83705Y-75672D03*
X83705Y-75928D03*
X84846Y-59019D03*
X83705Y-71578D03*
X81702Y-60211D03*
X81921Y-61100D03*
X83705Y-71834D03*
X81672Y-60601D03*
X83705Y-72090D03*
X81293Y-61012D03*
X83705Y-72346D03*
X80917Y-60202D03*
X83705Y-72601D03*
X83705Y-72857D03*
X80926Y-61006D03*
X83705Y-73113D03*
X80909Y-60614D03*
X83705Y-73369D03*
X80526Y-61042D03*
X89691Y-69018D03*
X84828Y-59377D03*
X82881Y-59807D03*
X90814Y-76953D03*
X90815Y-76697D03*
X82487Y-59812D03*
X84060Y-58624D03*
X90814Y-76441D03*
X90815Y-76185D03*
X83332Y-57854D03*
X81711Y-59857D03*
X90815Y-75929D03*
X82093Y-59807D03*
X90815Y-75673D03*
X86619Y-69019D03*
X83274Y-59018D03*
X83257Y-59375D03*
X87131Y-69019D03*
X86032Y-60188D03*
X90123Y-71834D03*
X82882Y-59020D03*
X86875Y-69019D03*
X82093Y-59019D03*
X87387Y-69019D03*
X89436Y-69018D03*
X84480Y-59388D03*
X103328Y-83049D03*
X81307Y-56262D03*
X93042Y-55976D03*
X93558Y-83357D03*
X81693Y-56261D03*
X92636Y-56503D03*
X80220Y-62645D03*
X80518Y-59807D03*
X77295Y-53110D03*
X89358Y-80289D03*
X80523Y-53530D03*
X82083Y-54691D03*
X81729Y-54328D03*
X50865Y-45850D03*
X76639Y-53754D03*
X50865Y-46550D03*
X76400Y-53768D03*
X50865Y-47250D03*
X79689Y-53894D03*
X50865Y-44450D03*
X50865Y-45150D03*
X80517Y-53926D03*
X80519Y-60200D03*
X75761Y-60815D03*
X80151Y-53128D03*
X77067Y-53281D03*
X72643Y-59599D03*
X75564Y-53900D03*
X78143Y-60913D03*
X82487Y-57432D03*
X82111Y-57817D03*
X76004Y-60614D03*
X80914Y-57840D03*
X72693Y-40057D03*
X80915Y-57447D03*
X72189Y-39719D03*
X72297Y-39522D03*
X80520Y-59448D03*
X80914Y-59017D03*
X72190Y-39324D03*
X80124Y-57840D03*
X72299Y-39128D03*
X79085Y-58243D03*
X71686Y-38428D03*
X71489Y-38323D03*
X80535Y-58612D03*
X70899Y-38427D03*
X80912Y-58228D03*
X80886Y-57025D03*
X71489Y-40812D03*
X72188Y-40112D03*
X81306Y-57444D03*
X70505Y-40917D03*
X80518Y-57445D03*
X70702Y-40812D03*
X81306Y-59018D03*
X80904Y-59448D03*
X73163Y-56122D03*
X71095Y-40812D03*
X77788Y-63509D03*
X90061Y-80289D03*
X84445Y-62530D03*
X82881Y-58234D03*
X76968Y-27311D03*
X87961Y-80289D03*
X89723Y-60847D03*
X76150Y-26881D03*
X89456Y-61176D03*
X87260Y-80289D03*
X87198Y-60190D03*
X83495Y-62560D03*
X82485Y-58625D03*
X81703Y-59016D03*
X82289Y-62446D03*
X47160Y-81069D03*
X55360Y-81069D03*
X76083Y-83727D03*
X66883Y-83728D03*
X74123Y-83727D03*
X57683Y-83727D03*
X48483Y-83727D03*
X64859Y-78577D03*
X64933Y-83727D03*
X64859Y-75569D03*
X85113Y-61607D03*
X78524Y-79297D03*
X78918Y-79316D03*
X85221Y-60169D03*
X79115Y-79626D03*
X85508Y-61191D03*
X79508Y-79626D03*
X85635Y-60591D03*
X79705Y-79325D03*
X84454Y-59806D03*
X80099Y-79331D03*
X84849Y-59807D03*
X77138Y-78874D03*
X84435Y-58642D03*
X84062Y-59807D03*
X77933Y-79626D03*
X78327Y-79626D03*
X84048Y-60172D03*
X81303Y-59803D03*
X77070Y-79616D03*
X84445Y-59005D03*
X77114Y-79113D03*
X82487Y-59019D03*
X75861Y-79354D03*
X69324Y-79354D03*
X81712Y-62012D03*
X69718Y-79347D03*
X81930Y-62206D03*
X69914Y-79626D03*
X83471Y-61089D03*
X70308Y-79626D03*
X83260Y-60211D03*
X70506Y-79300D03*
X83078Y-61123D03*
X70899Y-79312D03*
X83274Y-61254D03*
X68536Y-79408D03*
X82287Y-61090D03*
X84067Y-61081D03*
X68734Y-79625D03*
X84450Y-60190D03*
X69127Y-79625D03*
X67947Y-79625D03*
X82459Y-60203D03*
X68340Y-79627D03*
X82093Y-60580D03*
X68142Y-79414D03*
X82460Y-60568D03*
X50924Y-79359D03*
X80516Y-56655D03*
X51318Y-79343D03*
X80914Y-56657D03*
X51515Y-79625D03*
X79731Y-55880D03*
X51910Y-79625D03*
X80147Y-55878D03*
X52106Y-79349D03*
X79733Y-55478D03*
X52499Y-79342D03*
X80912Y-55871D03*
X78697Y-55249D03*
X80948Y-56229D03*
X50137Y-79478D03*
X79719Y-56264D03*
X50334Y-79629D03*
X80525Y-56270D03*
X50727Y-79623D03*
X72371Y-54787D03*
X79669Y-54672D03*
X49546Y-79633D03*
X49940Y-79629D03*
X78314Y-55092D03*
X80507Y-54666D03*
X73418Y-54865D03*
X80512Y-55854D03*
X49743Y-79478D03*
X79731Y-57834D03*
X60124Y-79348D03*
X80517Y-57848D03*
X60518Y-79354D03*
X79740Y-58634D03*
X60715Y-79625D03*
X61109Y-79625D03*
X80136Y-58619D03*
X81700Y-57445D03*
X61305Y-79344D03*
X61699Y-79343D03*
X81701Y-57837D03*
X62668Y-78420D03*
X79318Y-59658D03*
X59533Y-79628D03*
X81715Y-57043D03*
X59928Y-79625D03*
X82111Y-57042D03*
X78977Y-59481D03*
X62456Y-77946D03*
X59142Y-79488D03*
X62453Y-78263D03*
X77102Y-61876D03*
X80516Y-59021D03*
X58948Y-79663D03*
X79231Y-59006D03*
X76844Y-61878D03*
X62663Y-78106D03*
G54D34*
X96882Y-30050D03*
X105271Y-37790D03*
X105279Y-35536D03*
X101095Y-36436D03*
X100450Y-35611D03*
X102250Y-36151D03*
X103750Y-35641D03*
X101866Y-37112D03*
X100459Y-37056D03*
X103406Y-37049D03*
X106497Y-35471D03*
X106488Y-37739D03*
X106470Y-36664D03*
X92210Y-26684D03*
X92429Y-28050D03*
X111150Y-31850D03*
X104384Y-46924D03*
X105500Y-47038D03*
X104845Y-44776D03*
X104871Y-43377D03*
X109550Y-31800D03*
G54D33*
X83277Y-59804D03*
X77656Y-65462D03*
G54D35*
X81048Y-71818D03*
G54D33*
X77768Y-26882D03*
X88942Y-61353D03*
X85160Y-80289D03*
X85677Y-58614D03*
X78568Y-27311D03*
X88640Y-61012D03*
X86424Y-59413D03*
X86560Y-80289D03*
G54D35*
X65644Y-24615D03*
G54D33*
X69752Y-40112D03*
X66412Y-24597D03*
X67615Y-38450D03*
X68733Y-35471D03*
X69696Y-39325D03*
X69798Y-39128D03*
X79502Y-59451D03*
X82486Y-53901D03*
X51123Y-80387D03*
X80296Y-81867D03*
X80296Y-82643D03*
X79902Y-81867D03*
X79902Y-82644D03*
X79311Y-81868D03*
X79311Y-82643D03*
X78721Y-81870D03*
X78721Y-82632D03*
X78130Y-82643D03*
X78130Y-81875D03*
X78721Y-79624D03*
X78721Y-80399D03*
X79902Y-79624D03*
X80296Y-80400D03*
X79902Y-80399D03*
X70702Y-79624D03*
X70701Y-80396D03*
X105297Y-83137D03*
X105888Y-83316D03*
X104707Y-83319D03*
X93472Y-83028D03*
X78726Y-85057D03*
X79317Y-85057D03*
X79907Y-85057D03*
X79907Y-86320D03*
X79317Y-86320D03*
X78726Y-86320D03*
X78136Y-86320D03*
X78136Y-85057D03*
X76955Y-85056D03*
X68372Y-86630D03*
X68936Y-86319D03*
X69527Y-86320D03*
X70117Y-86320D03*
X70708Y-86320D03*
X70708Y-85057D03*
X70117Y-85057D03*
X69527Y-85057D03*
X68936Y-85057D03*
X67754Y-85057D03*
X61508Y-85056D03*
X61508Y-86320D03*
X60917Y-85057D03*
X60917Y-86319D03*
X60326Y-86320D03*
X60326Y-85057D03*
X59736Y-85057D03*
X59736Y-86320D03*
X58555Y-85057D03*
X58554Y-86320D03*
X49355Y-85057D03*
X49355Y-86319D03*
X50536Y-86319D03*
X51126Y-86320D03*
X51717Y-86320D03*
X52307Y-86320D03*
X52308Y-85057D03*
X51717Y-85057D03*
X51127Y-85057D03*
X50536Y-85057D03*
X93360Y-84622D03*
X104707Y-84620D03*
X103723Y-84620D03*
X103132Y-84620D03*
X105888Y-84620D03*
X106479Y-84621D03*
X105298Y-84620D03*
X87613Y-54701D03*
X82881Y-57055D03*
X86865Y-58279D03*
X86445Y-57762D03*
X87621Y-56638D03*
X49615Y-53636D03*
X93983Y-81800D03*
X102118Y-82485D03*
X103722Y-83144D03*
X103157Y-83197D03*
X96116Y-83126D03*
X94935Y-83165D03*
G54D35*
X71224Y-79492D03*
G54D33*
X82261Y-75942D03*
G54D35*
X95385Y-74368D03*
X95377Y-76370D03*
G54D34*
X48850Y-31850D03*
X47650Y-31850D03*
X47650Y-32650D03*
X47650Y-33350D03*
G54D33*
X48850Y-32208D03*
G54D34*
X46850Y-33950D03*
X46850Y-34950D03*
X46850Y-35750D03*
X47250Y-36150D03*
X47250Y-35350D03*
X47250Y-34450D03*
X48850Y-33750D03*
X50050Y-32050D03*
X50850Y-32050D03*
X50850Y-32750D03*
X50850Y-33550D03*
X50850Y-34350D03*
X50850Y-35050D03*
G54D33*
X49623Y-32790D03*
G54D34*
X50050Y-34250D03*
X50050Y-33550D03*
X50050Y-32950D03*
G54D35*
X92400Y-56593D03*
G54D33*
X77428Y-56292D03*
X74492Y-60625D03*
X72642Y-61823D03*
X66133Y-83947D03*
X65631Y-83910D03*
G54D35*
X90836Y-74649D03*
X84416Y-76187D03*
G54D33*
X84451Y-55867D03*
G54D35*
X90486Y-66000D03*
X93019Y-65000D03*
X93021Y-66499D03*
X93021Y-66001D03*
X53735Y-58911D03*
X58066Y-60410D03*
X58881Y-60410D03*
X58006Y-61910D03*
X58270Y-63473D03*
X49352Y-46485D03*
X48541Y-46484D03*
X47887Y-48090D03*
X52840Y-47033D03*
X52839Y-44789D03*
X47499Y-42815D03*
X51932Y-41559D03*
X50932Y-41558D03*
X48331Y-41558D03*
X47332Y-41559D03*
X49325Y-38660D03*
X48350Y-38660D03*
X50910Y-36100D03*
X50272Y-31078D03*
X61241Y-26392D03*
X61242Y-27392D03*
X61242Y-29992D03*
X61242Y-30992D03*
X61244Y-31992D03*
X59176Y-50753D03*
X87804Y-31727D03*
X69098Y-39382D03*
X68376Y-40457D03*
G54D33*
X89730Y-55300D03*
G54D35*
X83027Y-64228D03*
X80646Y-63960D03*
X79310Y-65442D03*
X78499Y-65771D03*
X84932Y-68844D03*
X85528Y-69868D03*
X87469Y-68666D03*
X89180Y-70759D03*
X87901Y-70758D03*
X84226Y-69397D03*
X85493Y-70554D03*
X89076Y-75424D03*
X89075Y-73624D03*
X89080Y-72594D03*
G54D34*
X92211Y-24266D03*
X111149Y-29791D03*
X109550Y-29790D03*
X101350Y-33641D03*
X102850Y-33640D03*
G54D33*
X68407Y-36215D03*
X69060Y-36215D03*
X65157Y-49954D03*
X95755Y-38944D03*
X91989Y-37042D03*
X105400Y-48787D03*
X104911Y-51598D03*
X101667Y-82373D03*
X93951Y-83326D03*
X94935Y-84619D03*
X93950Y-84619D03*
X96707Y-83357D03*
X95526Y-83358D03*
X96706Y-84620D03*
X96116Y-84620D03*
X95525Y-84620D03*
X87202Y-82385D03*
X89260Y-81838D03*
X80490Y-83896D03*
X77579Y-86634D03*
X75333Y-83895D03*
X74834Y-83895D03*
X69521Y-79628D03*
X71096Y-81876D03*
X71096Y-82635D03*
X70702Y-82636D03*
X70112Y-82634D03*
X69523Y-82631D03*
X68930Y-82639D03*
X71290Y-83876D03*
X56932Y-83895D03*
X61895Y-79631D03*
X61896Y-80382D03*
X61895Y-81885D03*
X61895Y-82634D03*
X61502Y-82634D03*
X60911Y-82635D03*
X60321Y-82628D03*
X59730Y-82636D03*
X62089Y-83895D03*
X51121Y-79637D03*
X52302Y-79623D03*
X52696Y-80391D03*
X52696Y-82629D03*
X52302Y-82631D03*
X51713Y-82632D03*
X51122Y-82635D03*
X50531Y-82640D03*
X52700Y-81874D03*
X52886Y-83895D03*
X47733Y-83895D03*
X92976Y-71373D03*
X92975Y-72074D03*
X90815Y-72346D03*
X90815Y-72858D03*
X83706Y-73626D03*
X85458Y-73874D03*
X85666Y-76522D03*
X86076Y-76536D03*
X88156Y-77795D03*
X90967Y-77527D03*
X89966Y-78532D03*
X90959Y-78648D03*
G54D35*
X56650Y-34075D03*
X55075Y-33946D03*
X58951Y-39118D03*
X58852Y-37641D03*
X57883Y-37822D03*
G54D33*
X54605Y-39112D03*
X52336Y-34311D03*
X52335Y-38291D03*
X55388Y-35992D03*
G54D35*
X55650Y-36609D03*
G54D33*
X56108Y-35965D03*
X62494Y-37605D03*
X62484Y-35606D03*
X48111Y-32790D03*
X48850Y-35721D03*
X47672Y-31059D03*
X50631Y-25216D03*
X73209Y-41066D03*
X70812Y-42219D03*
X71297Y-42434D03*
X71853Y-41901D03*
X70657Y-39959D03*
X71004Y-39608D03*
X70657Y-39280D03*
X71336Y-39280D03*
X71336Y-39959D03*
G54D34*
X102661Y-46177D03*
G54D35*
X59445Y-53022D03*
G54D34*
X106889Y-43039D03*
X106680Y-40780D03*
X106733Y-42085D03*
X107687Y-46910D03*
X107470Y-45629D03*
X107243Y-45274D03*
X106583Y-44614D03*
X107228Y-44641D03*
X106580Y-43762D03*
X106895Y-44176D03*
X107207Y-43762D03*
G54D33*
X69761Y-35479D03*
X70391Y-35213D03*
X88460Y-57030D03*
X80913Y-59812D03*
X81317Y-57838D03*
X81309Y-58636D03*
X81309Y-55891D03*
X79312Y-80411D03*
X78130Y-80414D03*
X70112Y-80413D03*
X68926Y-80411D03*
X81699Y-54687D03*
X82876Y-59407D03*
X83311Y-58667D03*
X84089Y-59046D03*
X80127Y-59020D03*
X80905Y-54674D03*
X81309Y-53513D03*
X86793Y-53113D03*
G54D35*
X79611Y-60692D03*
G54D33*
X80119Y-57466D03*
X84454Y-56264D03*
X84854Y-56651D03*
X85243Y-58237D03*
X86446Y-54707D03*
X86457Y-56318D03*
X86806Y-60589D03*
X86425Y-57068D03*
X82093Y-60205D03*
X84857Y-55862D03*
X87221Y-55852D03*
G54D34*
X61421Y-46973D03*
X61011Y-47443D03*
X60981Y-48573D03*
X61021Y-49433D03*
X61941Y-50343D03*
X61847Y-53463D03*
X62169Y-54128D03*
X62190Y-55913D03*
X62197Y-55031D03*
X55166Y-66699D03*
X53605Y-66419D03*
X53479Y-65355D03*
X54242Y-65054D03*
X54340Y-65880D03*
X54284Y-66874D03*
X53038Y-66832D03*
X51750Y-67060D03*
X91378Y-34146D03*
G54D35*
X92837Y-46086D03*
X96437Y-46286D03*
G54D33*
X86040Y-59425D03*
G54D34*
X105513Y-39212D03*
X106549Y-39205D03*
X103197Y-42586D03*
X102653Y-44770D03*
X103625Y-41256D03*
X102575Y-41276D03*
X100885Y-41186D03*
X100395Y-39806D03*
X101895Y-40306D03*
X103415Y-40126D03*
X104625Y-40756D03*
X93911Y-34693D03*
X94170Y-33220D03*
X93096Y-33249D03*
X92228Y-33312D03*
X88563Y-33871D03*
X88178Y-34494D03*
X86519Y-34508D03*
X87198Y-34417D03*
X89226Y-34387D03*
X89208Y-33888D03*
X90558Y-34374D03*
X89888Y-34126D03*
X90527Y-33892D03*
X54578Y-60749D03*
X55740Y-60728D03*
X55159Y-64928D03*
X54663Y-61310D03*
X55446Y-61319D03*
X55474Y-62842D03*
X55070Y-62110D03*
X54774Y-62856D03*
X61916Y-51269D03*
X61941Y-51853D03*
X61952Y-52502D03*
X97737Y-45096D03*
X98202Y-44736D03*
X98187Y-45606D03*
X98052Y-46176D03*
X96343Y-43261D03*
X96819Y-42939D03*
X95972Y-46362D03*
X96182Y-45844D03*
X96203Y-45305D03*
X95412Y-46488D03*
X95517Y-46012D03*
X95489Y-45501D03*
X95437Y-44280D03*
X95441Y-44752D03*
X95465Y-43846D03*
G54D35*
X92837Y-45286D03*
X92837Y-44486D03*
X92837Y-42586D03*
X92837Y-43486D03*
X91188Y-31026D03*
X56344Y-36959D03*
X55417Y-37363D03*
G54D33*
X50527Y-81878D03*
X51116Y-81875D03*
X51707Y-81876D03*
X52301Y-81873D03*
X50533Y-80391D03*
X51713Y-80395D03*
X52304Y-80385D03*
X61504Y-80381D03*
X60913Y-80381D03*
X60322Y-80379D03*
X59732Y-80376D03*
X61504Y-81875D03*
X60909Y-81879D03*
X60319Y-81881D03*
X59728Y-81892D03*
X68927Y-81883D03*
X69519Y-81878D03*
X70109Y-81884D03*
X70703Y-81879D03*
X69523Y-80398D03*
G54D35*
X77571Y-58678D03*
G54D33*
X89026Y-52762D03*
X81566Y-47140D03*
X81939Y-46784D03*
X84032Y-53888D03*
X83205Y-41272D03*
X83616Y-41263D03*
X84027Y-41260D03*
X84420Y-41257D03*
X84882Y-41399D03*
X85325Y-41260D03*
X85693Y-41260D03*
X86109Y-41250D03*
X87120Y-41275D03*
X87516Y-41281D03*
X88356Y-41281D03*
X87906Y-41287D03*
X83596Y-52753D03*
X80157Y-55522D03*
X79418Y-52483D03*
X79185Y-57855D03*
X82883Y-44048D03*
X83279Y-55870D03*
X87999Y-55432D03*
X83272Y-57449D03*
X84456Y-57050D03*
X84848Y-57050D03*
X79165Y-54050D03*
X80125Y-53906D03*
X87621Y-58992D03*
X87951Y-53927D03*
X83661Y-55861D03*
X84847Y-57836D03*
X89584Y-43487D03*
X89571Y-43882D03*
X89593Y-44302D03*
X89566Y-44707D03*
X89616Y-46588D03*
X89613Y-46192D03*
X89607Y-45787D03*
X89593Y-45418D03*
X86903Y-43482D03*
X86841Y-46579D03*
X89593Y-47494D03*
X86637Y-41278D03*
X85884Y-46999D03*
X85377Y-46276D03*
X85991Y-43432D03*
X83671Y-43631D03*
X83513Y-44038D03*
X83397Y-42578D03*
X85235Y-43580D03*
X84149Y-44038D03*
X84150Y-45928D03*
X82258Y-42448D03*
X80901Y-43046D03*
X81792Y-43639D03*
X82104Y-43681D03*
X81955Y-45348D03*
X81088Y-45787D03*
X82587Y-47023D03*
X82794Y-42475D03*
X88482Y-60730D03*
X85954Y-53935D03*
X85242Y-54688D03*
X85197Y-53117D03*
X82092Y-53102D03*
X83650Y-60214D03*
X89613Y-51719D03*
X84922Y-42560D03*
X85276Y-60608D03*
X84462Y-44354D03*
X85213Y-46630D03*
X73450Y-61008D03*
X73534Y-60115D03*
X86435Y-55852D03*
X53282Y-53636D03*
X71096Y-56317D03*
X82489Y-54691D03*
X56223Y-33006D03*
X56648Y-33008D03*
X57251Y-38776D03*
X58136Y-38690D03*
X90816Y-71578D03*
G54D35*
X89376Y-32062D03*
X89780Y-32476D03*
X56036Y-60310D03*
X53717Y-61519D03*
X56592Y-61913D03*
X56870Y-60645D03*
X57335Y-61010D03*
X59271Y-61243D03*
X90048Y-32272D03*
X60308Y-51568D03*
X60076Y-52365D03*
X60341Y-51953D03*
X53070Y-61537D03*
X53268Y-60689D03*
X58470Y-61243D03*
G54D34*
X96530Y-34212D03*
X94628Y-29460D03*
X94628Y-28645D03*
G54D35*
X106145Y-42576D03*
X107845Y-42576D03*
X52752Y-62239D03*
G54D33*
X76758Y-86322D03*
X67558Y-86316D03*
X55950Y-80239D03*
X47750Y-80239D03*
X65450Y-74750D03*
X93160Y-82172D03*
X102935Y-82170D03*
G54D35*
X59141Y-53553D03*
X56002Y-59610D03*
G54D34*
X57462Y-65586D03*
X57357Y-66531D03*
G54D33*
X71423Y-35214D03*
G54D34*
X57059Y-64187D03*
X57347Y-64570D03*
G54D35*
X57133Y-63712D03*
X88189Y-31155D03*
G54D34*
X93883Y-36230D03*
X92930Y-36219D03*
X63147Y-47112D03*
X64031Y-47043D03*
X64391Y-49013D03*
X64101Y-48643D03*
X64201Y-47533D03*
X57020Y-62970D03*
G54D35*
X56857Y-62503D03*
G54D33*
X66248Y-75917D03*
X48547Y-81418D03*
X56748Y-81418D03*
G54D34*
X56944Y-65803D03*
X91363Y-35369D03*
X91195Y-36209D03*
X93085Y-35327D03*
X63968Y-50789D03*
X63660Y-50530D03*
X63905Y-49949D03*
X63828Y-49438D03*
G54D33*
X87586Y-55872D03*
G54D34*
X66227Y-54707D03*
X66241Y-55960D03*
X65331Y-55932D03*
X64561Y-55960D03*
X64008Y-55554D03*
X64008Y-54399D03*
X64365Y-54833D03*
G54D33*
X87960Y-57090D03*
X89373Y-55258D03*
X88889Y-58186D03*
X83273Y-56658D03*
X82879Y-56658D03*
X82875Y-57448D03*
X86831Y-55452D03*
X86811Y-56662D03*
X86824Y-57446D03*
X83667Y-55476D03*
X84061Y-55869D03*
X84849Y-56262D03*
X84060Y-57842D03*
X83269Y-55486D03*
X84081Y-56254D03*
X83670Y-57440D03*
X82489Y-57839D03*
G54D35*
X63831Y-56047D03*
X63133Y-56069D03*
G54D33*
X84848Y-55081D03*
X83251Y-56272D03*
X85242Y-56657D03*
X84848Y-55476D03*
X84456Y-56655D03*
X84062Y-57050D03*
X85245Y-57841D03*
X84455Y-57445D03*
G54D34*
X87290Y-38893D03*
G54D33*
X81174Y-46693D03*
X86019Y-53500D03*
G54D34*
X86612Y-36993D03*
X86769Y-36471D03*
X87206Y-36147D03*
X86333Y-37996D03*
X87719Y-36142D03*
X87714Y-36813D03*
X87273Y-37155D03*
G54D35*
X94197Y-43486D03*
X93913Y-43049D03*
X86268Y-36180D03*
X86244Y-35418D03*
G54D33*
X84841Y-42996D03*
X81715Y-53906D03*
X84828Y-53909D03*
X80901Y-52720D03*
X87603Y-53116D03*
X86037Y-52722D03*
X84036Y-54679D03*
X83292Y-53920D03*
X82851Y-53088D03*
X84079Y-52758D03*
X86616Y-42732D03*
G54D35*
X85713Y-47290D03*
X86103Y-47365D03*
G54D33*
X83397Y-42911D03*
X83595Y-44755D03*
X84126Y-46228D03*
X83346Y-47044D03*
X84528Y-47041D03*
X80589Y-43744D03*
X81696Y-42821D03*
X81093Y-46450D03*
X82788Y-42820D03*
X82449Y-47242D03*
X82083Y-56648D03*
X80125Y-59806D03*
X81302Y-60590D03*
X79602Y-80636D03*
X79012Y-80618D03*
X78420Y-80608D03*
X77558Y-80730D03*
X70414Y-80628D03*
X69824Y-80634D03*
X69211Y-80607D03*
G54D35*
X62070Y-79341D03*
G54D33*
X80364Y-78884D03*
X79652Y-78580D03*
X78962Y-78584D03*
X78467Y-78578D03*
X70932Y-78599D03*
X70474Y-78598D03*
X69759Y-78644D03*
X69286Y-78646D03*
G54D35*
X56858Y-39591D03*
G54D33*
X103254Y-51588D03*
G54D35*
X71293Y-80417D03*
G54D33*
X81999Y-77516D03*
G54D35*
X76380Y-56292D03*
G54D33*
X58640Y-83727D03*
X75178Y-59603D03*
G54D35*
X67633Y-83916D03*
X52871Y-79557D03*
X80453Y-79584D03*
X98173Y-44087D03*
X48586Y-36600D03*
X48346Y-37335D03*
X48332Y-40242D03*
X47333Y-40240D03*
X48542Y-45618D03*
X49351Y-45618D03*
X51650Y-47250D03*
X51650Y-45850D03*
X51486Y-44450D03*
X84436Y-64180D03*
G54D34*
X51225Y-70090D03*
G54D33*
X94945Y-58780D03*
X91820Y-73888D03*
X77041Y-83727D03*
X62975Y-77241D03*
X62135Y-77409D03*
X62828Y-79446D03*
X49925Y-80934D03*
X49600Y-78443D03*
X50745Y-78666D03*
X49441Y-83727D03*
X92976Y-69973D03*
X92976Y-70673D03*
X90640Y-77842D03*
X75050Y-80838D03*
X74836Y-80251D03*
X75050Y-79786D03*
X68340Y-80774D03*
X65836Y-79350D03*
X65835Y-80250D03*
X65835Y-81150D03*
X54757Y-38668D03*
X62541Y-27392D03*
X60503Y-25211D03*
X62542Y-26392D03*
X62277Y-26028D03*
X72184Y-40468D03*
X69719Y-39717D03*
X71854Y-40878D03*
X78829Y-54301D03*
G54D35*
X74428Y-59451D03*
X71687Y-60706D03*
X75350Y-63526D03*
G54D34*
X78221Y-67915D03*
G54D35*
X79811Y-65017D03*
G54D33*
X84454Y-55475D03*
X85251Y-55862D03*
X85645Y-57044D03*
X81303Y-54322D03*
G54D34*
X52257Y-70090D03*
X51738Y-69380D03*
X51739Y-70798D03*
G54D33*
X83644Y-59379D03*
X86816Y-59806D03*
X87613Y-60636D03*
X86049Y-60605D03*
X84455Y-60593D03*
X84089Y-58270D03*
X85040Y-69734D03*
G54D35*
X90465Y-66500D03*
G54D33*
X82883Y-60596D03*
X82094Y-59414D03*
X81693Y-58638D03*
X87997Y-59880D03*
X85853Y-77797D03*
X84399Y-70554D03*
X85221Y-59047D03*
X86011Y-56252D03*
X85636Y-58234D03*
X82515Y-54314D03*
X82483Y-57047D03*
X81299Y-55096D03*
X82095Y-55478D03*
X78511Y-52442D03*
X79741Y-53126D03*
X80121Y-54671D03*
X80909Y-53901D03*
X84454Y-58231D03*
X86801Y-59022D03*
X85991Y-57442D03*
X86436Y-54289D03*
X87597Y-53908D03*
X80126Y-58229D03*
X81703Y-56648D03*
X83272Y-55086D03*
X82477Y-55862D03*
X80127Y-56266D03*
X83668Y-58234D03*
X84430Y-73881D03*
X87900Y-69710D03*
X89179Y-69710D03*
X90123Y-72601D03*
X90123Y-73625D03*
X90123Y-75417D03*
X84397Y-76952D03*
G54D35*
X100462Y-80272D03*
X91122Y-80604D03*
G54D34*
X49726Y-70090D03*
X50326Y-64190D03*
X50123Y-65880D03*
X51665Y-65934D03*
X50870Y-64361D03*
X50218Y-64721D03*
G54D35*
X49510Y-62240D03*
X50340Y-62280D03*
X94337Y-44886D03*
X94437Y-45386D03*
X94537Y-45586D03*
G54D33*
X90011Y-47792D03*
X90011Y-47292D03*
X89911Y-46392D03*
X89911Y-45992D03*
X89911Y-45592D03*
X89911Y-44892D03*
X89911Y-44492D03*
X89911Y-44092D03*
X89911Y-43692D03*
X89911Y-43192D03*
X89111Y-41892D03*
X89411Y-41992D03*
X89411Y-42392D03*
X88811Y-42392D03*
X88811Y-42792D03*
X89711Y-42792D03*
X89711Y-42092D03*
X89711Y-41592D03*
X89111Y-41592D03*
X89631Y-46940D03*
X83202Y-41618D03*
X87109Y-41606D03*
X87527Y-41612D03*
X87913Y-41616D03*
X88356Y-41602D03*
X89187Y-43495D03*
X89193Y-43876D03*
X89199Y-44298D03*
X89203Y-44687D03*
X89569Y-45144D03*
X86637Y-41758D03*
X85321Y-41610D03*
X85715Y-41602D03*
X86109Y-41599D03*
X83610Y-41617D03*
X84003Y-41608D03*
X84411Y-41614D03*
X84864Y-41764D03*
X84457Y-55084D03*
X85255Y-54316D03*
X89238Y-52402D03*
X82880Y-55476D03*
X84055Y-55470D03*
X83715Y-46940D03*
X84957Y-43582D03*
G54D36*
X104928Y-62713D02*
X104928Y-63406D01*
X105079Y-63460D02*
X105131Y-63408D01*
X104982Y-63460D02*
X105079Y-63460D01*
X104928Y-63406D02*
X104982Y-63460D01*
X105315Y-62630D02*
X105207Y-62630D01*
X105131Y-62707D02*
X105131Y-63408D01*
X105207Y-62630D02*
X105131Y-62707D01*
X106038Y-62691D02*
X105977Y-62630D01*
X106038Y-65039D02*
X106038Y-62691D01*
X105807Y-64953D02*
X105807Y-62694D01*
X105807Y-64953D02*
X105684Y-65075D01*
X108533Y-65192D02*
X106191Y-65192D01*
X106191Y-65192D02*
X106038Y-65039D01*
X108843Y-65501D02*
X108533Y-65192D01*
X105399Y-64961D02*
X105514Y-65075D01*
X105514Y-65075D02*
X105684Y-65075D01*
X105399Y-62715D02*
X105315Y-62630D01*
X105399Y-62715D02*
X105399Y-64961D01*
X105807Y-62694D02*
X105871Y-62630D01*
X105871Y-62630D02*
X105977Y-62630D01*
X104928Y-62713D02*
X104845Y-62630D01*
X87121Y-59774D02*
X87270Y-59774D01*
X87349Y-59695D02*
X100015Y-59695D01*
X87270Y-59774D02*
X87349Y-59695D01*
X104238Y-62630D02*
X101303Y-59695D01*
X101303Y-59695D02*
X100015Y-59695D01*
X104845Y-62630D02*
X104238Y-62630D01*
X106130Y-64999D02*
X106130Y-62642D01*
X105828Y-62539D02*
X106027Y-62539D01*
X106027Y-62539D02*
X106130Y-62642D01*
X105715Y-62651D02*
X105715Y-64913D01*
X106232Y-65101D02*
X106130Y-64999D01*
X109631Y-65895D02*
X109280Y-65544D01*
X109007Y-65101D02*
X109280Y-65374D01*
X109280Y-65374D02*
X109280Y-65544D01*
X109007Y-65101D02*
X106232Y-65101D01*
X105546Y-64978D02*
X105491Y-64923D01*
X105651Y-64978D02*
X105546Y-64978D01*
X105715Y-64913D02*
X105651Y-64978D01*
X105491Y-62649D02*
X105380Y-62539D01*
X105491Y-64923D02*
X105491Y-62649D01*
X86861Y-59548D02*
X86917Y-59604D01*
X86917Y-59604D02*
X100052Y-59604D01*
X86861Y-59406D02*
X86861Y-59548D01*
X105380Y-62539D02*
X104277Y-62539D01*
X104277Y-62539D02*
X101342Y-59604D01*
X101342Y-59604D02*
X100052Y-59604D01*
X105715Y-62651D02*
X105828Y-62539D01*
X102104Y-57266D02*
X105223Y-60385D01*
X105838Y-60009D02*
X105760Y-60009D01*
X105718Y-60330D02*
X105718Y-60051D01*
X105662Y-60385D02*
X105718Y-60330D01*
X86021Y-57090D02*
X86122Y-57090D01*
X87034Y-57266D02*
X102104Y-57266D01*
X87000Y-57232D02*
X87034Y-57266D01*
X86264Y-57232D02*
X87000Y-57232D01*
X86122Y-57090D02*
X86264Y-57232D01*
X105223Y-60385D02*
X105662Y-60385D01*
X105718Y-60051D02*
X105760Y-60009D01*
X105880Y-60051D02*
X105838Y-60009D01*
X105935Y-60385D02*
X105880Y-60331D01*
X106059Y-60327D02*
X106059Y-60062D01*
X106001Y-60385D02*
X106059Y-60327D01*
X106112Y-60010D02*
X106170Y-60010D01*
X106059Y-60062D02*
X106112Y-60010D01*
X106224Y-60326D02*
X106224Y-60064D01*
X106224Y-60064D02*
X106170Y-60010D01*
X106422Y-59382D02*
X106422Y-60322D01*
X106422Y-60322D02*
X106359Y-60385D01*
X106359Y-60385D02*
X106283Y-60385D01*
X106283Y-60385D02*
X106224Y-60326D01*
X106679Y-59270D02*
X106534Y-59270D01*
X106534Y-59270D02*
X106422Y-59382D01*
X107444Y-60970D02*
X107444Y-59383D01*
X107444Y-60970D02*
X107554Y-61080D01*
X107554Y-61080D02*
X108541Y-61080D01*
X108541Y-61080D02*
X108843Y-60777D01*
X106790Y-59381D02*
X106679Y-59270D01*
X106790Y-60997D02*
X106790Y-59381D01*
X106873Y-61080D02*
X106790Y-60997D01*
X106959Y-61080D02*
X106873Y-61080D01*
X107048Y-60990D02*
X106959Y-61080D01*
X107048Y-59384D02*
X107048Y-60990D01*
X107166Y-59266D02*
X107048Y-59384D01*
X107327Y-59266D02*
X107166Y-59266D01*
X107444Y-59383D02*
X107327Y-59266D01*
X106001Y-60385D02*
X105935Y-60385D01*
X105880Y-60331D02*
X105880Y-60051D01*
X102066Y-57357D02*
X105186Y-60477D01*
X106397Y-60477D02*
X106514Y-60360D01*
X105186Y-60477D02*
X106397Y-60477D01*
X106514Y-59428D02*
X106514Y-60360D01*
X106565Y-59377D02*
X106514Y-59428D01*
X85798Y-57627D02*
X85639Y-57468D01*
X86233Y-57627D02*
X85798Y-57627D01*
X86278Y-57582D02*
X86233Y-57627D01*
X86652Y-57582D02*
X86278Y-57582D01*
X86779Y-57709D02*
X86652Y-57582D01*
X88081Y-57709D02*
X86779Y-57709D01*
X88432Y-57357D02*
X88081Y-57709D01*
X102066Y-57357D02*
X88432Y-57357D01*
X106996Y-61171D02*
X106835Y-61171D01*
X106698Y-59426D02*
X106649Y-59377D01*
X106698Y-61034D02*
X106698Y-59426D01*
X106835Y-61171D02*
X106698Y-61034D01*
X107498Y-61171D02*
X109631Y-61171D01*
X107140Y-61028D02*
X106996Y-61171D01*
X107140Y-59422D02*
X107140Y-61028D01*
X107204Y-59358D02*
X107140Y-59422D01*
X107290Y-59358D02*
X107204Y-59358D01*
X107352Y-59420D02*
X107290Y-59358D01*
X107352Y-61025D02*
X107352Y-59420D01*
X107498Y-61171D02*
X107352Y-61025D01*
X106649Y-59377D02*
X106565Y-59377D01*
X106640Y-66830D02*
X106544Y-66830D01*
X106306Y-66765D02*
X106239Y-66831D01*
X106306Y-66554D02*
X106306Y-66765D01*
X106356Y-66504D02*
X106306Y-66554D01*
X106435Y-66504D02*
X106356Y-66504D01*
X106487Y-66555D02*
X106435Y-66504D01*
X106487Y-66773D02*
X106487Y-66555D01*
X106544Y-66830D02*
X106487Y-66773D01*
X107017Y-66831D02*
X106938Y-66831D01*
X106700Y-66771D02*
X106640Y-66830D01*
X106700Y-66559D02*
X106700Y-66771D01*
X106756Y-66503D02*
X106700Y-66559D01*
X106823Y-66503D02*
X106756Y-66503D01*
X106882Y-66562D02*
X106823Y-66503D01*
X106882Y-66776D02*
X106882Y-66562D01*
X106938Y-66831D02*
X106882Y-66776D01*
X107341Y-66501D02*
X107187Y-66501D01*
X107450Y-68888D02*
X107450Y-66610D01*
X107516Y-68954D02*
X107450Y-68888D01*
X108065Y-68864D02*
X108065Y-66622D01*
X108843Y-68651D02*
X108541Y-68954D01*
X108155Y-68954D02*
X108065Y-68864D01*
X108541Y-68954D02*
X108155Y-68954D01*
X107671Y-68875D02*
X107593Y-68954D01*
X107671Y-66612D02*
X107671Y-68875D01*
X107780Y-66502D02*
X107671Y-66612D01*
X107945Y-66502D02*
X107780Y-66502D01*
X108065Y-66622D02*
X107945Y-66502D01*
X107450Y-66610D02*
X107341Y-66501D01*
X107516Y-68954D02*
X107593Y-68954D01*
X98931Y-60330D02*
X105432Y-66831D01*
X88522Y-60330D02*
X98931Y-60330D01*
X88522Y-60330D02*
X88409Y-60217D01*
X106239Y-66831D02*
X105432Y-66831D01*
X107076Y-66772D02*
X107017Y-66831D01*
X107076Y-66611D02*
X107076Y-66772D01*
X107187Y-66501D02*
X107076Y-66611D01*
X107168Y-66649D02*
X107168Y-66810D01*
X88216Y-60422D02*
X98894Y-60422D01*
X98894Y-60422D02*
X105396Y-66924D01*
X87966Y-60172D02*
X88216Y-60422D01*
X107630Y-69045D02*
X107478Y-69045D01*
X108110Y-69045D02*
X107973Y-68908D01*
X107973Y-68908D02*
X107973Y-66659D01*
X107973Y-66659D02*
X107908Y-66594D01*
X107908Y-66594D02*
X107822Y-66594D01*
X107822Y-66594D02*
X107762Y-66653D01*
X107762Y-66653D02*
X107762Y-68913D01*
X107762Y-68913D02*
X107630Y-69045D01*
X108110Y-69045D02*
X109631Y-69045D01*
X107225Y-66592D02*
X107168Y-66649D01*
X107298Y-66592D02*
X107225Y-66592D01*
X107358Y-66653D02*
X107298Y-66592D01*
X107358Y-68925D02*
X107358Y-66653D01*
X107478Y-69045D02*
X107358Y-68925D01*
X107168Y-66810D02*
X107054Y-66924D01*
X107054Y-66924D02*
X105396Y-66924D01*
X106830Y-64152D02*
X106607Y-64152D01*
X106541Y-62306D02*
X106476Y-62241D01*
X106476Y-62241D02*
X104606Y-62241D01*
X104606Y-62241D02*
X101432Y-59067D01*
X88331Y-59067D02*
X101432Y-59067D01*
X88216Y-59182D02*
X88331Y-59067D01*
X86447Y-59018D02*
X86611Y-59182D01*
X88216Y-59182D02*
X86611Y-59182D01*
X106541Y-64086D02*
X106607Y-64152D01*
X106541Y-62308D02*
X106541Y-64086D01*
X106895Y-64087D02*
X106830Y-64152D01*
X107203Y-64384D02*
X107100Y-64281D01*
X107100Y-64281D02*
X107100Y-62300D01*
X107100Y-62300D02*
X107040Y-62239D01*
X107040Y-62239D02*
X106951Y-62239D01*
X106951Y-62239D02*
X106895Y-62296D01*
X108994Y-64384D02*
X107203Y-64384D01*
X110302Y-64795D02*
X110615Y-65108D01*
X108994Y-64384D02*
X109405Y-64795D01*
X110302Y-64795D02*
X109405Y-64795D01*
X106895Y-62296D02*
X106895Y-64087D01*
X107192Y-64219D02*
X107192Y-62246D01*
X107192Y-64219D02*
X107265Y-64292D01*
X106540Y-62150D02*
X104643Y-62150D01*
X106632Y-62242D02*
X106540Y-62150D01*
X88318Y-58834D02*
X86219Y-58834D01*
X86219Y-58834D02*
X86027Y-58642D01*
X88460Y-58976D02*
X101469Y-58976D01*
X88318Y-58834D02*
X88460Y-58976D01*
X104643Y-62150D02*
X101469Y-58976D01*
X106632Y-63225D02*
X106632Y-62242D01*
X107094Y-62148D02*
X106901Y-62148D01*
X110889Y-64703D02*
X109442Y-64703D01*
X109031Y-64292D02*
X109442Y-64703D01*
X111035Y-65134D02*
X111035Y-64849D01*
X111035Y-64849D02*
X110889Y-64703D01*
X111035Y-65134D02*
X111402Y-65501D01*
X107192Y-62246D02*
X107094Y-62148D01*
X106901Y-62148D02*
X106803Y-62245D01*
X106803Y-63223D02*
X106751Y-63276D01*
X106751Y-63276D02*
X106683Y-63276D01*
X106683Y-63276D02*
X106632Y-63225D01*
X106803Y-62245D02*
X106803Y-63223D01*
X107265Y-64292D02*
X109031Y-64292D01*
X105563Y-61882D02*
X102197Y-58516D01*
X107175Y-61882D02*
X107264Y-61793D01*
X105563Y-61882D02*
X107175Y-61882D01*
X107264Y-61793D02*
X107264Y-61593D01*
X88105Y-58730D02*
X88225Y-58730D01*
X88225Y-58730D02*
X88438Y-58516D01*
X88000Y-58625D02*
X88105Y-58730D01*
X107489Y-61594D02*
X107436Y-61541D01*
X107774Y-63578D02*
X107606Y-63578D01*
X107606Y-63578D02*
X107489Y-63461D01*
X108106Y-63446D02*
X108106Y-61601D01*
X109370Y-63997D02*
X108959Y-63586D01*
X109370Y-63997D02*
X110810Y-63997D01*
X111023Y-63519D02*
X111402Y-63139D01*
X111023Y-63784D02*
X111023Y-63519D01*
X110810Y-63997D02*
X111023Y-63784D01*
X108246Y-63586D02*
X108106Y-63446D01*
X108959Y-63586D02*
X108246Y-63586D01*
X107910Y-63442D02*
X107774Y-63578D01*
X107910Y-61599D02*
X107910Y-63442D01*
X107968Y-61541D02*
X107910Y-61599D01*
X108046Y-61541D02*
X107968Y-61541D01*
X108106Y-61601D02*
X108046Y-61541D01*
X107489Y-63461D02*
X107489Y-61594D01*
X107316Y-61541D02*
X107436Y-61541D01*
X107264Y-61593D02*
X107316Y-61541D01*
X102197Y-58516D02*
X88438Y-58516D01*
X106488Y-61745D02*
X106488Y-61619D01*
X106609Y-61571D02*
X106655Y-61617D01*
X106536Y-61571D02*
X106609Y-61571D01*
X106488Y-61619D02*
X106536Y-61571D01*
X106794Y-61790D02*
X106698Y-61790D01*
X106655Y-61747D02*
X106655Y-61617D01*
X106698Y-61790D02*
X106655Y-61747D01*
X107116Y-61790D02*
X107049Y-61790D01*
X106843Y-61742D02*
X106794Y-61790D01*
X106843Y-61558D02*
X106843Y-61742D01*
X106891Y-61509D02*
X106843Y-61558D01*
X106952Y-61509D02*
X106891Y-61509D01*
X107002Y-61559D02*
X106952Y-61509D01*
X107002Y-61743D02*
X107002Y-61559D01*
X107049Y-61790D02*
X107002Y-61743D01*
X107172Y-61556D02*
X107278Y-61450D01*
X107278Y-61450D02*
X107475Y-61450D01*
X107116Y-61790D02*
X107172Y-61735D01*
X108198Y-63409D02*
X108198Y-61563D01*
X109407Y-63905D02*
X110242Y-63905D01*
X110242Y-63905D02*
X110615Y-63533D01*
X109407Y-63905D02*
X108996Y-63494D01*
X108283Y-63494D02*
X108198Y-63409D01*
X108996Y-63494D02*
X108283Y-63494D01*
X107581Y-61555D02*
X107475Y-61450D01*
X107581Y-63412D02*
X107581Y-61555D01*
X107655Y-63486D02*
X107581Y-63412D01*
X107735Y-63486D02*
X107655Y-63486D01*
X107818Y-63403D02*
X107735Y-63486D01*
X107818Y-61561D02*
X107818Y-63403D01*
X107930Y-61450D02*
X107818Y-61561D01*
X108084Y-61450D02*
X107930Y-61450D01*
X108198Y-61563D02*
X108084Y-61450D01*
X107172Y-61735D02*
X107172Y-61556D01*
X106488Y-61745D02*
X106442Y-61790D01*
X102235Y-58425D02*
X87859Y-58425D01*
X105600Y-61790D02*
X102235Y-58425D01*
X105600Y-61790D02*
X106442Y-61790D01*
X87609Y-58674D02*
X87859Y-58425D01*
X108041Y-58839D02*
X108041Y-60092D01*
X109512Y-59134D02*
X109128Y-58750D01*
X109928Y-59134D02*
X109512Y-59134D01*
X110186Y-59392D02*
X109928Y-59134D01*
X111402Y-61564D02*
X110357Y-61564D01*
X110357Y-61564D02*
X110186Y-61393D01*
X110186Y-61393D02*
X110186Y-59392D01*
X108131Y-58750D02*
X108041Y-58839D01*
X109128Y-58750D02*
X108131Y-58750D01*
X107853Y-60092D02*
X107905Y-60144D01*
X107853Y-58842D02*
X107761Y-58750D01*
X85999Y-56476D02*
X87733Y-56476D01*
X85809Y-56286D02*
X85999Y-56476D01*
X85809Y-56286D02*
X85659Y-56286D01*
X87733Y-56476D02*
X88029Y-56771D01*
X102452Y-56771D02*
X88029Y-56771D01*
X107761Y-58750D02*
X104430Y-58750D01*
X104430Y-58750D02*
X102452Y-56771D01*
X107853Y-58842D02*
X107853Y-60092D01*
X107989Y-60144D02*
X107905Y-60144D01*
X108041Y-60092D02*
X107989Y-60144D01*
X107761Y-60142D02*
X107761Y-58896D01*
X108132Y-60149D02*
X108132Y-58919D01*
X107761Y-60142D02*
X107855Y-60235D01*
X107855Y-60235D02*
X108046Y-60235D01*
X104393Y-58841D02*
X102415Y-56863D01*
X102415Y-56863D02*
X85578Y-56863D01*
X85261Y-56387D02*
X85453Y-56579D01*
X85453Y-56579D02*
X85453Y-56738D01*
X85453Y-56738D02*
X85578Y-56863D01*
X85261Y-56270D02*
X85261Y-56387D01*
X107761Y-58896D02*
X107707Y-58841D01*
X108132Y-60149D02*
X108046Y-60235D01*
X108210Y-58841D02*
X108132Y-58919D01*
X110094Y-59429D02*
X110094Y-61438D01*
X110094Y-59429D02*
X109890Y-59225D01*
X109890Y-59225D02*
X109474Y-59225D01*
X109474Y-59225D02*
X109090Y-58841D01*
X110094Y-61438D02*
X110615Y-61958D01*
X109090Y-58841D02*
X108210Y-58841D01*
X104393Y-58841D02*
X107707Y-58841D01*
X99970Y-55735D02*
X99970Y-54864D01*
X98854Y-56163D02*
X88852Y-56163D01*
X88381Y-55692D02*
X86751Y-55692D01*
X86561Y-55502D02*
X86751Y-55692D01*
X86436Y-55502D02*
X86561Y-55502D01*
X100068Y-55834D02*
X103005Y-55834D01*
X99970Y-55735D02*
X100068Y-55834D01*
X99660Y-54751D02*
X99856Y-54751D01*
X99856Y-54751D02*
X99970Y-54864D01*
X99394Y-56163D02*
X99486Y-56163D01*
X99054Y-54752D02*
X99202Y-54752D01*
X99202Y-54752D02*
X99312Y-54862D01*
X99312Y-54862D02*
X99312Y-56080D01*
X99312Y-56080D02*
X99394Y-56163D01*
X98945Y-56073D02*
X98945Y-54862D01*
X98854Y-56163D02*
X98945Y-56073D01*
X98945Y-54862D02*
X99054Y-54752D01*
X99567Y-54844D02*
X99660Y-54751D01*
X99567Y-56083D02*
X99567Y-54844D01*
X99486Y-56163D02*
X99567Y-56083D01*
X109367Y-58393D02*
X110843Y-58393D01*
X111008Y-58558D02*
X111008Y-58808D01*
X105177Y-58006D02*
X108980Y-58006D01*
X108980Y-58006D02*
X109367Y-58393D01*
X110843Y-58393D02*
X111008Y-58558D01*
X111008Y-58808D02*
X111402Y-59202D01*
X103005Y-55834D02*
X105177Y-58006D01*
X88852Y-56163D02*
X88381Y-55692D01*
X98900Y-56257D02*
X88311Y-56257D01*
X86711Y-55817D02*
X86566Y-55672D01*
X86936Y-55817D02*
X86711Y-55817D01*
X87176Y-56057D02*
X86936Y-55817D01*
X88311Y-56257D02*
X88111Y-56057D01*
X86266Y-55672D02*
X86026Y-55432D01*
X86566Y-55672D02*
X86266Y-55672D01*
X88111Y-56057D02*
X87176Y-56057D01*
X98900Y-56257D02*
X99036Y-56121D01*
X99036Y-56121D02*
X99036Y-54899D01*
X99036Y-54899D02*
X99091Y-54844D01*
X99091Y-54844D02*
X99165Y-54844D01*
X99165Y-54844D02*
X99221Y-54900D01*
X99221Y-54900D02*
X99221Y-56125D01*
X99221Y-56125D02*
X99353Y-56257D01*
X99529Y-56257D02*
X99658Y-56128D01*
X99658Y-56128D02*
X99658Y-54905D01*
X99658Y-54905D02*
X99721Y-54842D01*
X99721Y-54842D02*
X99819Y-54842D01*
X99819Y-54842D02*
X99879Y-54902D01*
X99353Y-56257D02*
X99529Y-56257D01*
X102968Y-55925D02*
X105140Y-58097D01*
X100378Y-56255D02*
X100435Y-56199D01*
X100435Y-56199D02*
X100435Y-55983D01*
X100435Y-55983D02*
X100492Y-55925D01*
X101707Y-55925D02*
X102968Y-55925D01*
X99879Y-54903D02*
X99879Y-56204D01*
X99879Y-56204D02*
X99932Y-56257D01*
X99932Y-56257D02*
X100000Y-56257D01*
X100000Y-56257D02*
X100053Y-56205D01*
X100053Y-56205D02*
X100053Y-55978D01*
X100053Y-55978D02*
X100101Y-55930D01*
X100101Y-55930D02*
X100196Y-55930D01*
X100196Y-55930D02*
X100248Y-55982D01*
X100248Y-55982D02*
X100248Y-56203D01*
X100248Y-56203D02*
X100300Y-56255D01*
X108525Y-58097D02*
X108843Y-58415D01*
X105140Y-58097D02*
X108525Y-58097D01*
X100300Y-56255D02*
X100378Y-56255D01*
X100579Y-55925D02*
X100640Y-55986D01*
X100640Y-55986D02*
X100640Y-56198D01*
X100640Y-56198D02*
X100696Y-56254D01*
X100696Y-56254D02*
X100774Y-56254D01*
X100774Y-56254D02*
X100830Y-56198D01*
X100830Y-56198D02*
X100830Y-55985D01*
X100830Y-55985D02*
X100889Y-55925D01*
X100492Y-55925D02*
X100579Y-55925D01*
X100974Y-55925D02*
X101037Y-55988D01*
X101037Y-55988D02*
X101037Y-56195D01*
X101037Y-56195D02*
X101098Y-56256D01*
X101098Y-56256D02*
X101173Y-56256D01*
X101173Y-56256D02*
X101233Y-56196D01*
X101233Y-56196D02*
X101233Y-55988D01*
X101233Y-55988D02*
X101295Y-55925D01*
X100889Y-55925D02*
X100974Y-55925D01*
X101401Y-55925D02*
X101463Y-55987D01*
X101463Y-55987D02*
X101463Y-56117D01*
X101463Y-56117D02*
X101524Y-56178D01*
X101524Y-56178D02*
X101601Y-56178D01*
X101601Y-56178D02*
X101658Y-56121D01*
X101658Y-56121D02*
X101658Y-55975D01*
X101658Y-55975D02*
X101707Y-55925D01*
X101295Y-55925D02*
X101401Y-55925D01*
X85849Y-54870D02*
X88510Y-54870D01*
X85622Y-55097D02*
X85849Y-54870D01*
X89374Y-54010D02*
X99636Y-54010D01*
X88514Y-54870D02*
X89374Y-54010D01*
X88510Y-54870D02*
X88514Y-54870D01*
X88423Y-54312D02*
X88944Y-54312D01*
X102280Y-50980D02*
X102772Y-50488D01*
X100952Y-50980D02*
X102280Y-50980D01*
X100601Y-51330D02*
X100952Y-50980D01*
X100601Y-52767D02*
X100601Y-51330D01*
X99561Y-53807D02*
X100601Y-52767D01*
X89448Y-53807D02*
X99561Y-53807D01*
X88944Y-54312D02*
X89448Y-53807D01*
X85229Y-55068D02*
X85404Y-55068D01*
X88261Y-54474D02*
X88423Y-54312D01*
X85998Y-54474D02*
X88261Y-54474D01*
X85404Y-55068D02*
X85998Y-54474D01*
X88257Y-55256D02*
X88261Y-55256D01*
X85243Y-55475D02*
X85462Y-55256D01*
X85462Y-55256D02*
X88257Y-55256D01*
X103259Y-49975D02*
X102772Y-49488D01*
X103259Y-50881D02*
X103259Y-49975D01*
X103068Y-51071D02*
X103259Y-50881D01*
X100989Y-51071D02*
X103068Y-51071D01*
X100692Y-51368D02*
X100989Y-51071D01*
X100692Y-53209D02*
X100692Y-51368D01*
X99722Y-54180D02*
X100692Y-53209D01*
X89337Y-54180D02*
X99722Y-54180D01*
X88261Y-55256D02*
X89337Y-54180D01*
X97992Y-53716D02*
X99523Y-53716D01*
X103268Y-48984D02*
X103772Y-49488D01*
X101140Y-48984D02*
X103268Y-48984D01*
X100510Y-49614D02*
X101140Y-48984D01*
X100510Y-52729D02*
X100510Y-49614D01*
X99523Y-53716D02*
X100510Y-52729D01*
X86438Y-53896D02*
X86618Y-53716D01*
X86618Y-53716D02*
X97992Y-53716D01*
X83841Y-65449D02*
X83841Y-58943D01*
X83730Y-58832D02*
X83841Y-58943D01*
X83087Y-58832D02*
X83730Y-58832D01*
X82881Y-58626D02*
X83087Y-58832D01*
X82241Y-74976D02*
X82241Y-67049D01*
X82241Y-74976D02*
X83706Y-76441D01*
X82241Y-67049D02*
X83841Y-65449D01*
X85054Y-76794D02*
X85054Y-75919D01*
X85162Y-76839D02*
X85099Y-76839D01*
X85099Y-76839D02*
X85054Y-76794D01*
X85209Y-69274D02*
X85209Y-76791D01*
X86588Y-60929D02*
X86588Y-64517D01*
X86904Y-60804D02*
X87003Y-60705D01*
X87003Y-60705D02*
X87003Y-60374D01*
X87003Y-60374D02*
X86826Y-60198D01*
X86713Y-60804D02*
X86588Y-60929D01*
X86904Y-60804D02*
X86713Y-60804D01*
X85209Y-65895D02*
X85209Y-69274D01*
X86588Y-64517D02*
X85209Y-65895D01*
X85209Y-76791D02*
X85162Y-76839D01*
X84929Y-75871D02*
X84882Y-75918D01*
X85006Y-75871D02*
X84929Y-75871D01*
X85054Y-75919D02*
X85006Y-75871D01*
X88036Y-77237D02*
X85213Y-77237D01*
X88036Y-77237D02*
X88115Y-77316D01*
X88115Y-77316D02*
X88284Y-77316D01*
X84882Y-76906D02*
X85213Y-77237D01*
X84882Y-75918D02*
X84882Y-76906D01*
X85338Y-76966D02*
X86950Y-76966D01*
X85332Y-77146D02*
X85287Y-77101D01*
X85287Y-77101D02*
X85287Y-77017D01*
X85287Y-77017D02*
X85338Y-76966D01*
X88041Y-77146D02*
X88119Y-77068D01*
X88291Y-77068D02*
X88119Y-77068D01*
X85332Y-77146D02*
X88041Y-77146D01*
X86944Y-76748D02*
X87017Y-76821D01*
X86754Y-64478D02*
X85301Y-65932D01*
X85301Y-65932D02*
X85301Y-76667D01*
X86754Y-61046D02*
X86754Y-64478D01*
X85382Y-76748D02*
X85301Y-76667D01*
X85382Y-76748D02*
X86944Y-76748D01*
X87017Y-76899D02*
X87017Y-76821D01*
X86950Y-76966D02*
X87017Y-76899D01*
X84529Y-77576D02*
X84585Y-77632D01*
X84050Y-75497D02*
X82847Y-74294D01*
X82847Y-67206D02*
X84862Y-65191D01*
X82847Y-74294D02*
X82847Y-67206D01*
X85204Y-59806D02*
X85204Y-59930D01*
X85204Y-59930D02*
X84862Y-60271D01*
X84050Y-77097D02*
X84529Y-77576D01*
X84050Y-75497D02*
X84050Y-77097D01*
X84862Y-65191D02*
X84862Y-60271D01*
X88758Y-77632D02*
X88924Y-77798D01*
X84585Y-77632D02*
X88758Y-77632D01*
X85632Y-60197D02*
X85808Y-60373D01*
X85808Y-60850D02*
X85917Y-60959D01*
X85808Y-60373D02*
X85808Y-60850D01*
X84141Y-77059D02*
X84622Y-77540D01*
X84141Y-75091D02*
X83134Y-74083D01*
X83134Y-67320D02*
X85917Y-64536D01*
X83134Y-74083D02*
X83134Y-67320D01*
X85917Y-60959D02*
X85917Y-64536D01*
X84141Y-75091D02*
X84141Y-77059D01*
X84622Y-77540D02*
X88977Y-77540D01*
X82486Y-59414D02*
X82618Y-59414D01*
X82618Y-59414D02*
X82486Y-59414D01*
X82618Y-59414D02*
X82708Y-59504D01*
X82708Y-59504D02*
X82708Y-66405D01*
X82708Y-66405D02*
X82674Y-66439D01*
X85546Y-78024D02*
X83821Y-78024D01*
X83821Y-78024D02*
X82101Y-76304D01*
X82674Y-66439D02*
X82101Y-67011D01*
X82101Y-67011D02*
X82101Y-76304D01*
X85597Y-77973D02*
X85546Y-78024D01*
X85597Y-77797D02*
X85597Y-77973D01*
X86100Y-61448D02*
X86100Y-61046D01*
X86100Y-61046D02*
X86344Y-60802D01*
X86628Y-60288D02*
X86628Y-60658D01*
X86484Y-60802D02*
X86344Y-60802D01*
X86628Y-60658D02*
X86484Y-60802D01*
X83705Y-74137D02*
X83323Y-73754D01*
X83323Y-73754D02*
X83323Y-67389D01*
X83323Y-67389D02*
X86100Y-64612D01*
X86100Y-64612D02*
X86100Y-61448D01*
X86041Y-59042D02*
X86231Y-59231D01*
X86231Y-59231D02*
X86231Y-59501D01*
X86510Y-59615D02*
X86628Y-59733D01*
X86345Y-59615D02*
X86510Y-59615D01*
X86231Y-59501D02*
X86345Y-59615D01*
X86628Y-60288D02*
X86628Y-59733D01*
X86418Y-59806D02*
X86418Y-59939D01*
X86008Y-61000D02*
X86008Y-61373D01*
X86222Y-60787D02*
X86008Y-61000D01*
X86222Y-60136D02*
X86222Y-60787D01*
X86418Y-59939D02*
X86222Y-60136D01*
X83705Y-74393D02*
X83231Y-73919D01*
X86008Y-61373D02*
X86008Y-64574D01*
X83231Y-67351D02*
X86008Y-64574D01*
X83231Y-73919D02*
X83231Y-67351D01*
X83230Y-74954D02*
X83042Y-74954D01*
X82755Y-67156D02*
X84771Y-65141D01*
X82755Y-74667D02*
X82755Y-67156D01*
X83042Y-74954D02*
X82755Y-74667D01*
X85009Y-59621D02*
X85392Y-59238D01*
X85251Y-58800D02*
X85392Y-58941D01*
X85392Y-58941D02*
X85392Y-59238D01*
X85251Y-58638D02*
X85251Y-58800D01*
X85009Y-59973D02*
X85009Y-59621D01*
X84771Y-60211D02*
X85009Y-59973D01*
X84771Y-65141D02*
X84771Y-60211D01*
X85446Y-59390D02*
X85446Y-60641D01*
X83009Y-74208D02*
X83009Y-67230D01*
X83009Y-67230D02*
X85446Y-64793D01*
X85446Y-59390D02*
X85617Y-59218D01*
X85617Y-59218D02*
X85617Y-58988D01*
X83009Y-74208D02*
X83705Y-74905D01*
X85446Y-60641D02*
X85826Y-61021D01*
X85826Y-61021D02*
X85826Y-64412D01*
X85826Y-64412D02*
X85446Y-64793D01*
X84654Y-61482D02*
X84024Y-62112D01*
X84024Y-65528D02*
X84024Y-65759D01*
X83386Y-75672D02*
X82664Y-74950D01*
X82664Y-74950D02*
X82664Y-67118D01*
X82664Y-67118D02*
X84024Y-65759D01*
X84024Y-65528D02*
X84024Y-62112D01*
X85052Y-59004D02*
X84846Y-58798D01*
X84846Y-58632D02*
X84846Y-58798D01*
X84654Y-59772D02*
X85052Y-59374D01*
X85052Y-59374D02*
X85052Y-59004D01*
X83386Y-75672D02*
X83705Y-75672D01*
X84654Y-59772D02*
X84654Y-61482D01*
X83932Y-65721D02*
X83932Y-65487D01*
X83512Y-75928D02*
X82573Y-74989D01*
X82573Y-74989D02*
X82573Y-67080D01*
X82573Y-67080D02*
X83932Y-65721D01*
X83932Y-62063D02*
X83932Y-65487D01*
X83705Y-75928D02*
X83512Y-75928D01*
X84255Y-61741D02*
X83932Y-62063D01*
X84255Y-61741D02*
X84255Y-60866D01*
X84255Y-60866D02*
X84255Y-59350D01*
X84649Y-59216D02*
X84389Y-59216D01*
X84389Y-59216D02*
X84255Y-59350D01*
X84649Y-59216D02*
X84846Y-59019D01*
X89838Y-77103D02*
X90563Y-77103D01*
X90614Y-77218D02*
X90567Y-77265D01*
X90614Y-77154D02*
X90614Y-77218D01*
X90563Y-77103D02*
X90614Y-77154D01*
X89841Y-77265D02*
X90567Y-77265D01*
X83094Y-59594D02*
X82881Y-59807D01*
X83010Y-59202D02*
X83094Y-59286D01*
X83094Y-59286D02*
X83094Y-59594D01*
X89197Y-78388D02*
X89582Y-78388D01*
X89197Y-78388D02*
X83666Y-78388D01*
X83666Y-78388D02*
X81736Y-76458D01*
X81100Y-62418D02*
X81100Y-59708D01*
X81100Y-62418D02*
X81736Y-63055D01*
X81736Y-76458D02*
X81736Y-63055D01*
X89795Y-77368D02*
X89834Y-77407D01*
X89795Y-77311D02*
X89795Y-77368D01*
X89841Y-77265D02*
X89795Y-77311D01*
X90411Y-77407D02*
X89834Y-77407D01*
X90454Y-77450D02*
X90411Y-77407D01*
X90454Y-77517D02*
X90454Y-77450D01*
X89582Y-78388D02*
X90454Y-77517D01*
X81902Y-59202D02*
X81503Y-59601D01*
X81503Y-59601D02*
X81207Y-59601D01*
X81207Y-59601D02*
X81100Y-59708D01*
X83010Y-59202D02*
X81902Y-59202D01*
X89840Y-76953D02*
X89796Y-76997D01*
X90814Y-76953D02*
X89840Y-76953D01*
X89796Y-77061D02*
X89838Y-77103D01*
X89796Y-76997D02*
X89796Y-77061D01*
X89326Y-78045D02*
X89326Y-76773D01*
X89700Y-78142D02*
X89700Y-77733D01*
X89701Y-77460D02*
X89755Y-77514D01*
X89755Y-77514D02*
X90149Y-77514D01*
X90149Y-77514D02*
X90198Y-77563D01*
X90198Y-77563D02*
X90198Y-77633D01*
X90198Y-77633D02*
X90151Y-77680D01*
X90151Y-77680D02*
X89754Y-77680D01*
X89701Y-76987D02*
X89644Y-76930D01*
X89448Y-78098D02*
X89504Y-78042D01*
X89379Y-78098D02*
X89326Y-78045D01*
X89403Y-76697D02*
X89326Y-76773D01*
X89403Y-76697D02*
X90815Y-76697D01*
X89379Y-78098D02*
X89448Y-78098D01*
X89556Y-76930D02*
X89644Y-76930D01*
X89504Y-76982D02*
X89556Y-76930D01*
X89701Y-76987D02*
X89701Y-77460D01*
X89700Y-77733D02*
X89754Y-77680D01*
X89504Y-78042D02*
X89504Y-76982D01*
X81483Y-60964D02*
X81483Y-61488D01*
X81419Y-61724D02*
X81483Y-61788D01*
X81241Y-61724D02*
X81419Y-61724D01*
X81191Y-61674D02*
X81241Y-61724D01*
X81191Y-61611D02*
X81191Y-61674D01*
X81242Y-61561D02*
X81191Y-61611D01*
X81410Y-61561D02*
X81242Y-61561D01*
X81483Y-61488D02*
X81410Y-61561D01*
X89544Y-78297D02*
X89700Y-78142D01*
X89156Y-78297D02*
X83705Y-78297D01*
X83705Y-78297D02*
X81827Y-76420D01*
X81483Y-62672D02*
X81483Y-61788D01*
X81483Y-62672D02*
X81827Y-63017D01*
X81827Y-63058D02*
X81827Y-63017D01*
X81827Y-76420D02*
X81827Y-63058D01*
X89156Y-78297D02*
X89544Y-78297D01*
X89700Y-78142D02*
X89701Y-78141D01*
X82487Y-59812D02*
X82340Y-59812D01*
X81724Y-59596D02*
X81483Y-59837D01*
X82340Y-59812D02*
X82124Y-59596D01*
X82124Y-59596D02*
X81724Y-59596D01*
X81483Y-60964D02*
X81483Y-59837D01*
X81469Y-59484D02*
X81877Y-59076D01*
X81877Y-59076D02*
X81877Y-58931D01*
X84060Y-58624D02*
X83851Y-58415D01*
X83851Y-58415D02*
X82815Y-58415D01*
X80776Y-61623D02*
X80721Y-61678D01*
X80914Y-61623D02*
X80776Y-61623D01*
X80959Y-61578D02*
X80914Y-61623D01*
X80959Y-61512D02*
X80959Y-61578D01*
X80912Y-61465D02*
X80959Y-61512D01*
X80772Y-61465D02*
X80912Y-61465D01*
X80721Y-61414D02*
X80772Y-61465D01*
X91000Y-76627D02*
X90814Y-76441D01*
X80721Y-62050D02*
X80721Y-62168D01*
X81645Y-63093D02*
X81645Y-76499D01*
X80721Y-62168D02*
X81645Y-63093D01*
X83625Y-78479D02*
X81645Y-76499D01*
X89620Y-78479D02*
X83625Y-78479D01*
X91000Y-77100D02*
X89620Y-78479D01*
X91000Y-76627D02*
X91000Y-77100D01*
X80721Y-61414D02*
X80721Y-59719D01*
X81188Y-59484D02*
X81056Y-59616D01*
X81056Y-59616D02*
X80824Y-59616D01*
X80824Y-59616D02*
X80721Y-59719D01*
X81877Y-58931D02*
X81972Y-58836D01*
X81972Y-58836D02*
X82546Y-58836D01*
X82546Y-58836D02*
X82684Y-58698D01*
X82684Y-58698D02*
X82684Y-58546D01*
X82684Y-58546D02*
X82815Y-58415D01*
X81469Y-59484D02*
X81188Y-59484D01*
X80721Y-61755D02*
X80775Y-61809D01*
X80775Y-61809D02*
X80884Y-61809D01*
X80884Y-61809D02*
X80938Y-61863D01*
X80938Y-61863D02*
X80938Y-61945D01*
X80938Y-61945D02*
X80890Y-61993D01*
X80890Y-61993D02*
X80778Y-61993D01*
X80778Y-61993D02*
X80721Y-62050D01*
X80721Y-61678D02*
X80721Y-61755D01*
X82022Y-58456D02*
X82206Y-58456D01*
X82290Y-58372D02*
X82290Y-58154D01*
X82206Y-58456D02*
X82290Y-58372D01*
X80698Y-59400D02*
X80810Y-59288D01*
X90815Y-76185D02*
X91091Y-76461D01*
X89664Y-78571D02*
X83588Y-78571D01*
X81554Y-76537D02*
X81554Y-63130D01*
X81554Y-63130D02*
X80327Y-61903D01*
X83588Y-78571D02*
X81554Y-76537D01*
X91091Y-77143D02*
X89664Y-78571D01*
X91091Y-76461D02*
X91091Y-77143D01*
X80698Y-59400D02*
X80698Y-59544D01*
X80698Y-59544D02*
X80608Y-59634D01*
X80608Y-59634D02*
X80417Y-59634D01*
X80327Y-59724D02*
X80327Y-61903D01*
X80417Y-59634D02*
X80327Y-59724D01*
X81295Y-59288D02*
X81508Y-59075D01*
X80810Y-59288D02*
X81295Y-59288D01*
X83332Y-57854D02*
X82774Y-57854D01*
X81508Y-58938D02*
X81508Y-59075D01*
X81630Y-58816D02*
X81508Y-58938D01*
X81786Y-58816D02*
X81630Y-58816D01*
X81876Y-58726D02*
X81786Y-58816D01*
X81876Y-58602D02*
X81876Y-58726D01*
X82022Y-58456D02*
X81876Y-58602D01*
X82428Y-58016D02*
X82290Y-58154D01*
X82612Y-58016D02*
X82428Y-58016D01*
X82774Y-57854D02*
X82612Y-58016D01*
X89235Y-76659D02*
X89235Y-78090D01*
X89295Y-76600D02*
X89235Y-76659D01*
X82102Y-60938D02*
X82102Y-66749D01*
X89118Y-78206D02*
X83742Y-78206D01*
X83742Y-78206D02*
X81918Y-76382D01*
X81888Y-60171D02*
X81888Y-60724D01*
X82102Y-60938D02*
X81888Y-60724D01*
X81711Y-59994D02*
X81888Y-60171D01*
X81711Y-59857D02*
X81711Y-59994D01*
X81918Y-66932D02*
X81918Y-76382D01*
X82102Y-66749D02*
X81918Y-66932D01*
X89118Y-78206D02*
X89235Y-78090D01*
X90444Y-76439D02*
X90493Y-76488D01*
X89290Y-76098D02*
X90456Y-76098D01*
X89288Y-75929D02*
X89239Y-75978D01*
X89239Y-75978D02*
X89239Y-76047D01*
X89239Y-76047D02*
X89290Y-76098D01*
X89288Y-75929D02*
X90815Y-75929D01*
X90502Y-76221D02*
X90462Y-76261D01*
X90502Y-76144D02*
X90502Y-76221D01*
X90456Y-76098D02*
X90502Y-76144D01*
X89235Y-76313D02*
X89235Y-76389D01*
X89235Y-76389D02*
X89285Y-76439D01*
X89287Y-76261D02*
X89235Y-76313D01*
X90462Y-76261D02*
X89287Y-76261D01*
X89285Y-76439D02*
X90444Y-76439D01*
X90493Y-76561D02*
X90493Y-76488D01*
X90454Y-76600D02*
X90493Y-76561D01*
X90454Y-76600D02*
X89295Y-76600D01*
X82093Y-59807D02*
X82292Y-60006D01*
X82616Y-61018D02*
X82616Y-66365D01*
X89144Y-78010D02*
X89039Y-78115D01*
X82010Y-76342D02*
X82010Y-66972D01*
X83783Y-78115D02*
X82010Y-76342D01*
X89039Y-78115D02*
X83783Y-78115D01*
X89144Y-78010D02*
X89144Y-76670D01*
X89085Y-75852D02*
X89144Y-75911D01*
X90815Y-75673D02*
X88400Y-75673D01*
X89144Y-75985D02*
X89087Y-76042D01*
X89087Y-76042D02*
X88377Y-76042D01*
X88377Y-76042D02*
X88323Y-76096D01*
X88323Y-76096D02*
X88323Y-76172D01*
X88323Y-76172D02*
X88376Y-76225D01*
X88376Y-76225D02*
X89084Y-76225D01*
X89084Y-76225D02*
X89144Y-76285D01*
X89144Y-75911D02*
X89144Y-75985D01*
X89144Y-76382D02*
X89083Y-76443D01*
X89083Y-76443D02*
X88368Y-76443D01*
X88368Y-76443D02*
X88323Y-76488D01*
X88323Y-76488D02*
X88323Y-76568D01*
X88323Y-76568D02*
X88370Y-76615D01*
X88370Y-76615D02*
X89089Y-76615D01*
X89089Y-76615D02*
X89144Y-76670D01*
X89144Y-76285D02*
X89144Y-76382D01*
X88392Y-75852D02*
X88346Y-75806D01*
X88346Y-75806D02*
X88346Y-75727D01*
X88346Y-75727D02*
X88400Y-75673D01*
X89085Y-75852D02*
X88392Y-75852D01*
X82010Y-66972D02*
X82616Y-66365D01*
X82292Y-60694D02*
X82616Y-61018D01*
X82292Y-60006D02*
X82292Y-60694D01*
X78947Y-52691D02*
X78947Y-52100D01*
X79204Y-52768D02*
X79125Y-52689D01*
X82182Y-58023D02*
X81097Y-58023D01*
X82182Y-58023D02*
X82282Y-57923D01*
X80914Y-57840D02*
X81097Y-58023D01*
X82282Y-52983D02*
X82282Y-56724D01*
X82282Y-52983D02*
X81832Y-52533D01*
X81832Y-52533D02*
X79721Y-52533D01*
X79721Y-52533D02*
X79486Y-52768D01*
X82282Y-57923D02*
X82282Y-56724D01*
X79486Y-52768D02*
X79204Y-52768D01*
X78947Y-52100D02*
X78986Y-52061D01*
X74162Y-52768D02*
X78870Y-52768D01*
X72693Y-51299D02*
X74162Y-52768D01*
X72693Y-40057D02*
X72693Y-51299D01*
X78947Y-52691D02*
X78870Y-52768D01*
X79086Y-52061D02*
X78986Y-52061D01*
X79125Y-52100D02*
X79086Y-52061D01*
X79125Y-52689D02*
X79125Y-52100D01*
X76266Y-52959D02*
X76266Y-53027D01*
X76376Y-53075D02*
X76427Y-53024D01*
X76314Y-53075D02*
X76376Y-53075D01*
X76266Y-53027D02*
X76314Y-53075D01*
X76427Y-52953D02*
X76427Y-53024D01*
X81772Y-57633D02*
X81893Y-57512D01*
X81893Y-57512D02*
X81893Y-53796D01*
X81001Y-52905D02*
X81893Y-53796D01*
X81001Y-52905D02*
X76475Y-52905D01*
X81101Y-57633D02*
X80915Y-57447D01*
X81101Y-57633D02*
X81772Y-57633D01*
X76427Y-52953D02*
X76475Y-52905D01*
X76212Y-52905D02*
X76266Y-52959D01*
X74149Y-52905D02*
X72531Y-51287D01*
X72531Y-40061D02*
X72531Y-51287D01*
X72189Y-39719D02*
X72531Y-40061D01*
X74326Y-52905D02*
X74385Y-52964D01*
X74385Y-52964D02*
X74385Y-53196D01*
X74385Y-53196D02*
X74437Y-53248D01*
X74437Y-53248D02*
X74510Y-53248D01*
X74510Y-53248D02*
X74559Y-53199D01*
X74559Y-53199D02*
X74559Y-52965D01*
X74559Y-52965D02*
X74619Y-52905D01*
X74149Y-52905D02*
X74326Y-52905D01*
X74706Y-52905D02*
X74765Y-52964D01*
X74765Y-52964D02*
X74765Y-53196D01*
X74765Y-53196D02*
X74822Y-53253D01*
X74822Y-53253D02*
X74908Y-53253D01*
X74908Y-53253D02*
X74958Y-53203D01*
X74958Y-53203D02*
X74958Y-52958D01*
X74958Y-52958D02*
X75011Y-52905D01*
X74619Y-52905D02*
X74706Y-52905D01*
X75085Y-52905D02*
X75140Y-52960D01*
X75140Y-52960D02*
X75140Y-53202D01*
X75140Y-53202D02*
X75193Y-53255D01*
X75193Y-53255D02*
X75285Y-53255D01*
X75285Y-53255D02*
X75334Y-53206D01*
X75334Y-53206D02*
X75334Y-52959D01*
X75334Y-52959D02*
X75388Y-52905D01*
X75011Y-52905D02*
X75085Y-52905D01*
X75465Y-52905D02*
X75520Y-52960D01*
X75520Y-52960D02*
X75520Y-53203D01*
X75520Y-53203D02*
X75567Y-53250D01*
X75567Y-53250D02*
X75655Y-53250D01*
X75655Y-53250D02*
X75698Y-53207D01*
X75698Y-53207D02*
X75698Y-52959D01*
X75698Y-52959D02*
X75752Y-52905D01*
X75388Y-52905D02*
X75465Y-52905D01*
X75850Y-52905D02*
X75902Y-52957D01*
X75902Y-52957D02*
X75902Y-53201D01*
X75902Y-53201D02*
X75947Y-53246D01*
X75947Y-53246D02*
X76034Y-53246D01*
X76034Y-53246D02*
X76076Y-53204D01*
X76076Y-53204D02*
X76076Y-52956D01*
X76076Y-52956D02*
X76127Y-52905D01*
X75752Y-52905D02*
X75850Y-52905D01*
X76127Y-52905D02*
X76212Y-52905D01*
X70234Y-39006D02*
X70422Y-38818D01*
X70422Y-38818D02*
X71780Y-38818D01*
X70234Y-53917D02*
X70234Y-39006D01*
X76124Y-58148D02*
X76082Y-58106D01*
X76035Y-57922D02*
X75945Y-57922D01*
X75902Y-58102D02*
X75902Y-57965D01*
X75730Y-58100D02*
X75730Y-57961D01*
X75778Y-58148D02*
X75855Y-58148D01*
X75855Y-58148D02*
X75902Y-58102D01*
X75730Y-58100D02*
X75778Y-58148D01*
X75556Y-58106D02*
X75556Y-57964D01*
X74181Y-57865D02*
X70234Y-53917D01*
X75290Y-57865D02*
X75373Y-57948D01*
X74181Y-57865D02*
X75290Y-57865D01*
X75513Y-58148D02*
X75556Y-58106D01*
X75373Y-58104D02*
X75417Y-58148D01*
X75373Y-57948D02*
X75373Y-58104D01*
X75604Y-57916D02*
X75556Y-57964D01*
X75417Y-58148D02*
X75513Y-58148D01*
X75685Y-57916D02*
X75604Y-57916D01*
X75730Y-57961D02*
X75685Y-57916D01*
X75902Y-57965D02*
X75945Y-57922D01*
X79848Y-57662D02*
X79090Y-57662D01*
X78603Y-58148D02*
X76124Y-58148D01*
X79090Y-57662D02*
X78603Y-58148D01*
X80026Y-57840D02*
X79848Y-57662D01*
X80124Y-57840D02*
X80026Y-57840D01*
X76082Y-57969D02*
X76035Y-57922D01*
X76082Y-58106D02*
X76082Y-57969D01*
X72090Y-39128D02*
X72299Y-39128D01*
X71780Y-38818D02*
X72090Y-39128D01*
X74795Y-58282D02*
X74795Y-58153D01*
X78997Y-58330D02*
X79085Y-58243D01*
X74795Y-58282D02*
X74843Y-58330D01*
X74843Y-58330D02*
X78997Y-58330D01*
X74596Y-58330D02*
X74647Y-58280D01*
X74647Y-58280D02*
X74647Y-58153D01*
X74647Y-58153D02*
X74685Y-58115D01*
X70046Y-53989D02*
X74387Y-58330D01*
X70046Y-38350D02*
X70190Y-38206D01*
X70190Y-38206D02*
X71054Y-38206D01*
X71054Y-38206D02*
X71215Y-38367D01*
X71215Y-38367D02*
X71215Y-38537D01*
X71215Y-38537D02*
X71315Y-38637D01*
X71315Y-38637D02*
X71601Y-38637D01*
X71601Y-38637D02*
X71686Y-38552D01*
X71686Y-38552D02*
X71686Y-38428D01*
X70046Y-53989D02*
X70046Y-38350D01*
X74387Y-58330D02*
X74596Y-58330D01*
X74757Y-58115D02*
X74685Y-58115D01*
X74795Y-58153D02*
X74757Y-58115D01*
X80228Y-58422D02*
X74350Y-58422D01*
X74350Y-58422D02*
X69955Y-54027D01*
X71281Y-38115D02*
X70153Y-38115D01*
X70153Y-38115D02*
X69955Y-38313D01*
X71489Y-38323D02*
X71281Y-38115D01*
X80418Y-58612D02*
X80228Y-58422D01*
X80535Y-58612D02*
X80418Y-58612D01*
X69955Y-38313D02*
X69955Y-54027D01*
X70137Y-53949D02*
X74427Y-58239D01*
X74936Y-58239D02*
X75025Y-58239D01*
X70899Y-38427D02*
X70790Y-38318D01*
X70790Y-38318D02*
X70222Y-38318D01*
X70222Y-38318D02*
X70137Y-38403D01*
X70137Y-53949D02*
X70137Y-38403D01*
X80270Y-58048D02*
X79039Y-58048D01*
X80912Y-58228D02*
X80450Y-58228D01*
X80450Y-58228D02*
X80270Y-58048D01*
X79039Y-58048D02*
X78847Y-58239D01*
X74427Y-58239D02*
X74506Y-58239D01*
X74506Y-58239D02*
X74554Y-58191D01*
X74554Y-58191D02*
X74554Y-58018D01*
X74554Y-58018D02*
X74612Y-57960D01*
X74837Y-57960D02*
X74888Y-58011D01*
X74888Y-58011D02*
X74888Y-58191D01*
X74888Y-58191D02*
X74936Y-58239D01*
X74612Y-57960D02*
X74837Y-57960D01*
X75025Y-58239D02*
X75068Y-58197D01*
X75068Y-58197D02*
X75068Y-58007D01*
X75068Y-58007D02*
X75115Y-57960D01*
X75237Y-57960D02*
X75282Y-58005D01*
X75282Y-58005D02*
X75282Y-58193D01*
X75282Y-58193D02*
X75328Y-58239D01*
X75115Y-57960D02*
X75237Y-57960D01*
X75328Y-58239D02*
X78847Y-58239D01*
X80989Y-53704D02*
X78850Y-53704D01*
X80732Y-56871D02*
X80732Y-56538D01*
X80732Y-56538D02*
X80829Y-56441D01*
X80829Y-56441D02*
X81014Y-56441D01*
X81014Y-56441D02*
X81116Y-56339D01*
X81116Y-56339D02*
X81116Y-53831D01*
X71489Y-51079D02*
X71489Y-50019D01*
X74901Y-54491D02*
X71489Y-51079D01*
X78063Y-54491D02*
X74901Y-54491D01*
X78850Y-53704D02*
X78063Y-54491D01*
X71489Y-40812D02*
X71489Y-50019D01*
X81116Y-53831D02*
X80989Y-53704D01*
X80732Y-56871D02*
X80886Y-57025D01*
X80999Y-53305D02*
X80438Y-53305D01*
X72386Y-51847D02*
X72386Y-40309D01*
X74938Y-54399D02*
X72386Y-51847D01*
X78025Y-54399D02*
X74938Y-54399D01*
X78812Y-53612D02*
X78025Y-54399D01*
X80130Y-53612D02*
X78812Y-53612D01*
X80438Y-53305D02*
X80130Y-53612D01*
X72188Y-40112D02*
X72386Y-40309D01*
X81518Y-57233D02*
X81306Y-57444D01*
X81518Y-54094D02*
X81518Y-57233D01*
X81116Y-53692D02*
X81518Y-54094D01*
X81116Y-53422D02*
X81116Y-53692D01*
X80999Y-53305D02*
X81116Y-53422D01*
X74771Y-57728D02*
X74771Y-57580D01*
X77383Y-57928D02*
X77338Y-57883D01*
X77338Y-57883D02*
X77239Y-57883D01*
X77199Y-58003D02*
X77199Y-57923D01*
X77067Y-58057D02*
X77144Y-58057D01*
X77144Y-58057D02*
X77199Y-58003D01*
X76035Y-57771D02*
X76123Y-57771D01*
X75945Y-57525D02*
X75990Y-57570D01*
X75990Y-57570D02*
X75990Y-57726D01*
X75990Y-57726D02*
X76035Y-57771D01*
X75707Y-57770D02*
X75788Y-57770D01*
X75788Y-57770D02*
X75827Y-57731D01*
X75827Y-57731D02*
X75827Y-57569D01*
X75827Y-57569D02*
X75871Y-57525D01*
X75667Y-57730D02*
X75707Y-57770D01*
X75499Y-57567D02*
X75499Y-57731D01*
X75499Y-57567D02*
X75540Y-57526D01*
X75540Y-57526D02*
X75627Y-57526D01*
X75627Y-57526D02*
X75667Y-57566D01*
X75499Y-57731D02*
X75456Y-57773D01*
X75376Y-57773D02*
X75456Y-57773D01*
X75008Y-57773D02*
X75103Y-57773D01*
X75334Y-57731D02*
X75376Y-57773D01*
X75334Y-57575D02*
X75334Y-57731D01*
X75287Y-57528D02*
X75334Y-57575D01*
X75196Y-57528D02*
X75287Y-57528D01*
X75147Y-57577D02*
X75196Y-57528D01*
X75147Y-57730D02*
X75147Y-57577D01*
X75103Y-57773D02*
X75147Y-57730D01*
X74359Y-57773D02*
X74413Y-57720D01*
X74413Y-57720D02*
X74413Y-57572D01*
X74413Y-57572D02*
X74458Y-57527D01*
X74458Y-57527D02*
X74538Y-57527D01*
X74538Y-57527D02*
X74583Y-57572D01*
X74583Y-57572D02*
X74583Y-57721D01*
X74583Y-57721D02*
X74635Y-57773D01*
X74635Y-57773D02*
X74725Y-57773D01*
X74725Y-57773D02*
X74771Y-57728D01*
X74771Y-57580D02*
X74826Y-57525D01*
X74826Y-57525D02*
X74911Y-57525D01*
X74911Y-57525D02*
X74963Y-57577D01*
X74963Y-57577D02*
X74963Y-57728D01*
X74963Y-57728D02*
X75008Y-57773D01*
X70325Y-53879D02*
X70325Y-41096D01*
X74219Y-57773D02*
X70325Y-53879D01*
X70505Y-40917D02*
X70325Y-41096D01*
X74219Y-57773D02*
X74359Y-57773D01*
X75667Y-57566D02*
X75667Y-57730D01*
X75871Y-57525D02*
X75945Y-57525D01*
X77015Y-58005D02*
X77067Y-58057D01*
X77015Y-57581D02*
X77015Y-58005D01*
X76966Y-57532D02*
X77015Y-57581D01*
X76887Y-57532D02*
X76966Y-57532D01*
X76840Y-57579D02*
X76887Y-57532D01*
X76840Y-58011D02*
X76840Y-57579D01*
X76793Y-58057D02*
X76840Y-58011D01*
X76715Y-58057D02*
X76793Y-58057D01*
X76669Y-58011D02*
X76715Y-58057D01*
X76669Y-57577D02*
X76669Y-58011D01*
X76621Y-57529D02*
X76669Y-57577D01*
X76554Y-57529D02*
X76621Y-57529D01*
X76505Y-57578D02*
X76554Y-57529D01*
X76505Y-58011D02*
X76505Y-57578D01*
X76458Y-58057D02*
X76505Y-58011D01*
X76393Y-58057D02*
X76458Y-58057D01*
X76343Y-58007D02*
X76393Y-58057D01*
X76343Y-57577D02*
X76343Y-58007D01*
X76290Y-57524D02*
X76343Y-57577D01*
X76212Y-57524D02*
X76290Y-57524D01*
X76162Y-57574D02*
X76212Y-57524D01*
X76162Y-57732D02*
X76162Y-57574D01*
X76123Y-57771D02*
X76162Y-57732D01*
X77199Y-57923D02*
X77239Y-57883D01*
X78565Y-58057D02*
X77430Y-58057D01*
X79052Y-57570D02*
X78565Y-58057D01*
X79922Y-57570D02*
X79052Y-57570D01*
X80323Y-57640D02*
X80518Y-57445D01*
X80323Y-57640D02*
X79992Y-57640D01*
X79992Y-57640D02*
X79922Y-57570D01*
X77383Y-58010D02*
X77430Y-58057D01*
X77383Y-58010D02*
X77383Y-57928D01*
X81085Y-58950D02*
X81153Y-59018D01*
X70416Y-41237D02*
X70416Y-53624D01*
X70416Y-53624D02*
X74021Y-57229D01*
X80585Y-57229D02*
X74021Y-57229D01*
X80585Y-57229D02*
X80714Y-57358D01*
X70702Y-40812D02*
X70702Y-40951D01*
X70702Y-40951D02*
X70416Y-41237D01*
X81153Y-59018D02*
X81306Y-59018D01*
X80714Y-57962D02*
X80794Y-58042D01*
X80714Y-57358D02*
X80714Y-57962D01*
X81085Y-58168D02*
X80959Y-58042D01*
X80959Y-58042D02*
X80794Y-58042D01*
X81085Y-58950D02*
X81085Y-58168D01*
X70507Y-41399D02*
X70507Y-53466D01*
X70507Y-41399D02*
X71095Y-40812D01*
X70507Y-53466D02*
X73163Y-56122D01*
X78697Y-55249D02*
X78736Y-55288D01*
X80761Y-56229D02*
X80948Y-56229D01*
X80696Y-56164D02*
X80761Y-56229D01*
X80696Y-55492D02*
X80696Y-56164D01*
X80492Y-55288D02*
X80696Y-55492D01*
X78736Y-55288D02*
X80492Y-55288D01*
X79669Y-54672D02*
X72485Y-54672D01*
X72485Y-54672D02*
X72371Y-54787D01*
X78314Y-55092D02*
X79200Y-55092D01*
X79200Y-55092D02*
X79382Y-54910D01*
X80379Y-54666D02*
X80507Y-54666D01*
X80136Y-54910D02*
X80379Y-54666D01*
X79382Y-54910D02*
X80136Y-54910D01*
X73418Y-54865D02*
X76545Y-54865D01*
X76545Y-54865D02*
X77373Y-55693D01*
X77373Y-55693D02*
X80351Y-55693D01*
X80351Y-55693D02*
X80512Y-55854D01*
X77102Y-60298D02*
X78220Y-59180D01*
X78220Y-59180D02*
X80357Y-59180D01*
X80357Y-59180D02*
X80516Y-59021D01*
X77102Y-61876D02*
X77102Y-60298D01*
X76844Y-61878D02*
X76844Y-60428D01*
X78266Y-59006D02*
X79231Y-59006D01*
X76844Y-60428D02*
X78266Y-59006D01*
M02*
