G04 (created by PCBNEW (2013-07-07 BZR 4022)-stable) date 10/11/2015 03:16:48 PM*
%MOIN*%
G04 Gerber Fmt 3.4, Leading zero omitted, Abs format*
%FSLAX34Y34*%
G01*
G70*
G90*
G04 APERTURE LIST*
%ADD10C,0.00590551*%
%ADD11R,0.118425X0.149921*%
%ADD12R,0.08X0.08*%
%ADD13C,0.08*%
%ADD14R,0.065X0.045*%
%ADD15R,0.033X0.128268*%
%ADD16O,0.0711811X0.110551*%
%ADD17O,0.0711811X0.0948031*%
%ADD18C,0.0770866*%
%ADD19C,0.25622*%
%ADD20C,0.110551*%
%ADD21R,0.0298X0.0495276*%
%ADD22R,0.0495276X0.0298*%
%ADD23R,0.201102X0.201102*%
%ADD24R,0.118425X0.13811*%
%ADD25R,0.035748X0.0829921*%
%ADD26O,0.0770866X0.0672441*%
%ADD27R,0.0302X0.0790551*%
%ADD28R,0.1066X0.0987402*%
%ADD29R,0.0987402X0.1066*%
%ADD30C,0.13811*%
%ADD31R,0.045X0.065*%
%ADD32R,0.0711811X0.0369291*%
%ADD33R,0.0369291X0.0711811*%
%ADD34C,0.076*%
%ADD35R,0.0607874X0.0788189*%
%ADD36R,0.118425X0.0436*%
%ADD37R,0.0357X0.0436*%
%ADD38R,0.0436X0.0357*%
%ADD39R,0.0672X0.0672*%
%ADD40R,0.07X0.058*%
%ADD41C,0.0397*%
%ADD42C,0.0357*%
%ADD43R,0.055X0.075*%
%ADD44R,0.075X0.055*%
%ADD45R,0.157795X0.118425*%
%ADD46R,0.118425X0.157795*%
%ADD47O,0.0908661X0.157795*%
%ADD48O,0.0908661X0.11252*%
%ADD49R,0.149921X0.118425*%
%ADD50R,0.0455906X0.1*%
%ADD51C,0.122362*%
%ADD52C,0.159764*%
%ADD53C,0.0951968*%
%ADD54C,0.0987402*%
%ADD55R,0.0514961X0.0310236*%
%ADD56R,0.0310236X0.0514961*%
%ADD57R,0.0879134X0.0879134*%
%ADD58R,0.07X0.12*%
%ADD59R,0.12X0.07*%
%ADD60R,0.0535X0.031*%
%ADD61R,0.148X0.236*%
%ADD62R,0.0672441X0.031811*%
%ADD63R,0.110551X0.197165*%
%ADD64R,0.031811X0.0672441*%
%ADD65R,0.197165X0.110551*%
%ADD66R,0.0849606X0.157795*%
%ADD67R,0.0672441X0.0400787*%
%ADD68R,0.114488X0.142047*%
%ADD69R,0.114488X0.153858*%
%ADD70R,0.075X0.17*%
%ADD71R,0.17X0.075*%
%ADD72R,0.1381X0.0987*%
%ADD73O,0.1X0.18*%
%ADD74R,0.1578X0.1578*%
%ADD75C,0.116457*%
%ADD76R,0.0672441X0.0672441*%
%ADD77C,0.0672441*%
%ADD78R,0.0672441X0.039685*%
%ADD79R,0.0948031X0.0869291*%
%ADD80R,0.0428346X0.0711811*%
%ADD81R,0.1066X0.083*%
%ADD82R,0.083X0.1066*%
%ADD83R,0.0514X0.0514*%
%ADD84R,0.13X0.09*%
%ADD85C,0.106614*%
%ADD86R,0.106614X0.106614*%
%ADD87R,0.100709X0.0928346*%
%ADD88R,0.0908661X0.0987402*%
%ADD89C,0.0593701*%
%ADD90R,0.118X0.095*%
%ADD91R,0.0869291X0.122362*%
%ADD92C,0.17*%
%ADD93R,0.17X0.17*%
%ADD94C,0.1775*%
G04 APERTURE END LIST*
G54D10*
G54D11*
X105557Y-40776D03*
X108234Y-40776D03*
G54D12*
X47605Y-49809D03*
G54D13*
X48605Y-49809D03*
X49605Y-49809D03*
X50605Y-49809D03*
X51605Y-49809D03*
X52605Y-49809D03*
X53605Y-49809D03*
X54605Y-49809D03*
G54D14*
X89350Y-79473D03*
X89350Y-80073D03*
G54D15*
X102267Y-83913D03*
X102464Y-83913D03*
X102661Y-83913D03*
X102858Y-83913D03*
X103055Y-83913D03*
X103251Y-83913D03*
X103448Y-83913D03*
X103645Y-83913D03*
X103842Y-83913D03*
X104039Y-83913D03*
X102070Y-83913D03*
X101873Y-83913D03*
X101677Y-83913D03*
X101480Y-83913D03*
X101283Y-83913D03*
X101086Y-83913D03*
X100889Y-83913D03*
X100692Y-83913D03*
G54D16*
X99019Y-84937D03*
X105515Y-84937D03*
G54D17*
X99019Y-87606D03*
X105515Y-87606D03*
G54D18*
X102267Y-87960D03*
G54D15*
X104236Y-83913D03*
X104432Y-83913D03*
G54D19*
X48820Y-24301D03*
X110820Y-85301D03*
X110820Y-24301D03*
G54D20*
X109035Y-30921D03*
X107066Y-30921D03*
X105097Y-30921D03*
X103129Y-30921D03*
G54D21*
X56516Y-35428D03*
X56359Y-35428D03*
X56201Y-35428D03*
X56044Y-35428D03*
X55887Y-35428D03*
X55729Y-35428D03*
X55572Y-35428D03*
X55414Y-35428D03*
X55257Y-35428D03*
X55099Y-35428D03*
X54942Y-35428D03*
X54784Y-35428D03*
X56044Y-37790D03*
X56201Y-37790D03*
X56359Y-37790D03*
X56516Y-37790D03*
G54D22*
X54469Y-36373D03*
X54469Y-36531D03*
X54469Y-36688D03*
X54469Y-36846D03*
X54469Y-37003D03*
X54469Y-37161D03*
X54469Y-37318D03*
X54469Y-37475D03*
G54D23*
X55650Y-36609D03*
G54D22*
X54469Y-35743D03*
X54469Y-35901D03*
X54469Y-36058D03*
X54469Y-36216D03*
G54D21*
X54784Y-37790D03*
X54942Y-37790D03*
X55099Y-37790D03*
X55257Y-37790D03*
X55414Y-37790D03*
X55572Y-37790D03*
X55729Y-37790D03*
X55887Y-37790D03*
G54D22*
X56831Y-37475D03*
X56831Y-37318D03*
X56831Y-37161D03*
X56831Y-37003D03*
X56831Y-36846D03*
X56831Y-36688D03*
X56831Y-36531D03*
X56831Y-36373D03*
X56831Y-36216D03*
X56831Y-36058D03*
X56831Y-35901D03*
X56831Y-35743D03*
G54D24*
X67317Y-23057D03*
X64482Y-23057D03*
G54D25*
X65900Y-24189D03*
X65644Y-24189D03*
X66155Y-24189D03*
X65388Y-24189D03*
X66411Y-24189D03*
G54D26*
X66884Y-24189D03*
X64915Y-24189D03*
G54D27*
X53089Y-80011D03*
X52892Y-80011D03*
X52695Y-80011D03*
X52498Y-80011D03*
X52301Y-80011D03*
X52105Y-80011D03*
X51908Y-80011D03*
X51711Y-80011D03*
X51514Y-80011D03*
X51317Y-80011D03*
X51120Y-80011D03*
X50923Y-80011D03*
X50727Y-80011D03*
X50530Y-80011D03*
X50333Y-80011D03*
X50136Y-80011D03*
X49939Y-80011D03*
X49742Y-80011D03*
X49546Y-80011D03*
X50333Y-82255D03*
X50136Y-82255D03*
X49939Y-82255D03*
X49742Y-82255D03*
X50530Y-82255D03*
X50727Y-82255D03*
X50923Y-82255D03*
X51120Y-82255D03*
X51317Y-82255D03*
X51514Y-82255D03*
X51711Y-82255D03*
X51908Y-82255D03*
X52105Y-82255D03*
X52301Y-82255D03*
X52498Y-82255D03*
X49546Y-82255D03*
X52695Y-82255D03*
X52892Y-82255D03*
X53089Y-82255D03*
G54D28*
X98450Y-31576D03*
X98450Y-29923D03*
G54D29*
X97923Y-28050D03*
X99576Y-28050D03*
G54D13*
X85730Y-83460D03*
X84730Y-83460D03*
X84730Y-84247D03*
X85730Y-84247D03*
G54D30*
X87592Y-85310D03*
X82868Y-85310D03*
G54D31*
X92160Y-69973D03*
X92760Y-69973D03*
G54D14*
X85860Y-79473D03*
X85860Y-80073D03*
X87960Y-79473D03*
X87960Y-80073D03*
X90050Y-79473D03*
X90050Y-80073D03*
G54D31*
X92160Y-72073D03*
X92760Y-72073D03*
G54D14*
X88660Y-79473D03*
X88660Y-80073D03*
X87260Y-79473D03*
X87260Y-80073D03*
G54D31*
X92160Y-71373D03*
X92760Y-71373D03*
X92160Y-70673D03*
X92760Y-70673D03*
G54D14*
X85160Y-79473D03*
X85160Y-80073D03*
X86560Y-79473D03*
X86560Y-80073D03*
G54D32*
X90468Y-77464D03*
X90468Y-77208D03*
X90468Y-76952D03*
X90468Y-76696D03*
X90468Y-76440D03*
X90468Y-76184D03*
X90468Y-75928D03*
X90468Y-75672D03*
X90468Y-75417D03*
X90468Y-75161D03*
X90468Y-74905D03*
X90468Y-74649D03*
X90468Y-74393D03*
X90468Y-74137D03*
X90468Y-73881D03*
X90468Y-73625D03*
X90468Y-73369D03*
X90468Y-73113D03*
X90468Y-72857D03*
X90468Y-72602D03*
X90468Y-72346D03*
X90468Y-72090D03*
X90468Y-71834D03*
X90468Y-71578D03*
X90468Y-71322D03*
X90468Y-71066D03*
X90468Y-70810D03*
X90468Y-70554D03*
X90468Y-70298D03*
X90468Y-70042D03*
G54D33*
X89691Y-69363D03*
X89435Y-69363D03*
X89179Y-69363D03*
X88923Y-69363D03*
X88667Y-69363D03*
X88411Y-69363D03*
X88155Y-69363D03*
X87900Y-69363D03*
X87644Y-69363D03*
X87388Y-69363D03*
X87132Y-69363D03*
X86876Y-69363D03*
X86620Y-69363D03*
X86364Y-69363D03*
X86108Y-69363D03*
X85852Y-69363D03*
X85596Y-69363D03*
X85340Y-69363D03*
X85085Y-69363D03*
X84829Y-69363D03*
G54D32*
X84051Y-70042D03*
X84051Y-70298D03*
X84051Y-70554D03*
X84051Y-70810D03*
X84051Y-71066D03*
X84051Y-71322D03*
X84051Y-71578D03*
X84051Y-71834D03*
X84051Y-72090D03*
X84051Y-72346D03*
X84051Y-72602D03*
X84051Y-72857D03*
X84051Y-73113D03*
X84051Y-73369D03*
X84051Y-73625D03*
X84051Y-73881D03*
X84051Y-74137D03*
X84051Y-74393D03*
X84051Y-74649D03*
X84051Y-74905D03*
X84051Y-75161D03*
X84051Y-75417D03*
X84051Y-75672D03*
X84051Y-75928D03*
X84051Y-76184D03*
X84051Y-76440D03*
X84051Y-76696D03*
X84051Y-76952D03*
X84051Y-77208D03*
X84051Y-77464D03*
G54D33*
X84829Y-78143D03*
X85085Y-78143D03*
X85340Y-78143D03*
X85596Y-78143D03*
X85852Y-78143D03*
X86108Y-78143D03*
X86364Y-78143D03*
X86620Y-78143D03*
X86876Y-78143D03*
X87132Y-78143D03*
X87388Y-78143D03*
X87644Y-78143D03*
X87900Y-78143D03*
X88155Y-78143D03*
X88411Y-78143D03*
X88667Y-78143D03*
X88923Y-78143D03*
X89179Y-78143D03*
X89435Y-78143D03*
X89691Y-78143D03*
G54D34*
X93660Y-76033D03*
X93660Y-74033D03*
G54D35*
X76571Y-57351D03*
X77571Y-57351D03*
X77571Y-58233D03*
X76571Y-58233D03*
G54D36*
X75177Y-59815D03*
X72642Y-59815D03*
X75177Y-60315D03*
X75177Y-60815D03*
X75177Y-61315D03*
X72642Y-60315D03*
X72642Y-60815D03*
X72642Y-61315D03*
G54D31*
X50650Y-45850D03*
X51250Y-45850D03*
G54D14*
X77768Y-26496D03*
X77768Y-27096D03*
X78568Y-26496D03*
X78568Y-27096D03*
X78501Y-58022D03*
X78501Y-57422D03*
G54D31*
X77211Y-56292D03*
X76611Y-56292D03*
G54D14*
X75531Y-57502D03*
X75531Y-58102D03*
G54D31*
X50650Y-47250D03*
X51250Y-47250D03*
X50650Y-46550D03*
X51250Y-46550D03*
X50650Y-45150D03*
X51250Y-45150D03*
X50650Y-44450D03*
X51250Y-44450D03*
X75950Y-62975D03*
X75350Y-62975D03*
G54D14*
X78011Y-53092D03*
X78011Y-52492D03*
X84700Y-62950D03*
X84700Y-63550D03*
G54D31*
X77255Y-61063D03*
X77855Y-61063D03*
X77309Y-60067D03*
X77909Y-60067D03*
G54D37*
X89373Y-55050D03*
X89727Y-55050D03*
X85812Y-42736D03*
X86166Y-42736D03*
G54D38*
X82110Y-47525D03*
X82110Y-47171D03*
G54D37*
X84892Y-47353D03*
X84538Y-47353D03*
G54D38*
X85514Y-47724D03*
X85514Y-47370D03*
G54D37*
X86629Y-47384D03*
X86275Y-47384D03*
G54D38*
X83820Y-47468D03*
X83820Y-47822D03*
X82000Y-42484D03*
X82000Y-42838D03*
X82536Y-42460D03*
X82536Y-42814D03*
X83109Y-42577D03*
X83109Y-42931D03*
X84585Y-42631D03*
X84585Y-42985D03*
G54D37*
X80715Y-46138D03*
X81069Y-46138D03*
X81568Y-47386D03*
X81214Y-47386D03*
G54D38*
X85246Y-42581D03*
X85246Y-42935D03*
X83829Y-42622D03*
X83829Y-42976D03*
X80866Y-43317D03*
X80866Y-43671D03*
G54D39*
X76962Y-62975D03*
X77788Y-62975D03*
G54D40*
X80206Y-63010D03*
X80206Y-63510D03*
X81106Y-63010D03*
X81106Y-63510D03*
G54D41*
X88195Y-52523D03*
X88195Y-52917D03*
X88195Y-53311D03*
X88195Y-53704D03*
X88195Y-54098D03*
X88195Y-54492D03*
X88195Y-54885D03*
X88195Y-55279D03*
X88195Y-55673D03*
X88195Y-56067D03*
X88195Y-56460D03*
X88195Y-56854D03*
X88195Y-57248D03*
X88195Y-57641D03*
X88195Y-58035D03*
X88195Y-58429D03*
X87801Y-52523D03*
X87407Y-52523D03*
X87014Y-52523D03*
X86620Y-52523D03*
X86226Y-52523D03*
X85833Y-52523D03*
X85439Y-52523D03*
X85045Y-52523D03*
X87801Y-58429D03*
X87801Y-58035D03*
X87801Y-57641D03*
X87801Y-57248D03*
X87801Y-56854D03*
X87801Y-56460D03*
X87801Y-56067D03*
X87801Y-55673D03*
X87801Y-55279D03*
X87801Y-54885D03*
X87801Y-54492D03*
X87801Y-54098D03*
X87801Y-52917D03*
X87801Y-53311D03*
X87801Y-53704D03*
X87407Y-52917D03*
X87407Y-53311D03*
X87407Y-53704D03*
X87407Y-54098D03*
X87407Y-54492D03*
X87407Y-54885D03*
X87407Y-55279D03*
X87407Y-55673D03*
X87014Y-52917D03*
X87014Y-53311D03*
X87014Y-53704D03*
X87014Y-54098D03*
X87014Y-54492D03*
X87014Y-54885D03*
X87014Y-55279D03*
X87014Y-55673D03*
X86620Y-52917D03*
X86620Y-53311D03*
X86620Y-53704D03*
X87407Y-56067D03*
X87014Y-56067D03*
X87407Y-56460D03*
X87014Y-56460D03*
X87014Y-56854D03*
X87407Y-56854D03*
X87407Y-57248D03*
X87407Y-57641D03*
X87014Y-57641D03*
X87014Y-57248D03*
X87407Y-58035D03*
X87014Y-58035D03*
X87014Y-58429D03*
X87407Y-58429D03*
X86620Y-57248D03*
X86226Y-57248D03*
X86226Y-57641D03*
X86620Y-57641D03*
X86620Y-58035D03*
X86226Y-58035D03*
X85833Y-58035D03*
X85833Y-58429D03*
X86226Y-58429D03*
X86620Y-58429D03*
X86226Y-52917D03*
X86226Y-53311D03*
X86226Y-53704D03*
X85833Y-53704D03*
X85833Y-53311D03*
X85833Y-52917D03*
X85439Y-52917D03*
X85439Y-53311D03*
X85439Y-53704D03*
X85045Y-53704D03*
X85045Y-53311D03*
X85045Y-52917D03*
X84651Y-52523D03*
X84651Y-52917D03*
X84651Y-53311D03*
X84651Y-53704D03*
X84258Y-53704D03*
X84258Y-53311D03*
X84258Y-52917D03*
X84258Y-52523D03*
X83864Y-52523D03*
X83864Y-52917D03*
X83864Y-53311D03*
X83864Y-53704D03*
X83470Y-53704D03*
X83077Y-53704D03*
X82683Y-53704D03*
X82683Y-53311D03*
X83077Y-53311D03*
X83470Y-53311D03*
X83470Y-52917D03*
X83077Y-52917D03*
X82683Y-52917D03*
X83470Y-52523D03*
X83077Y-52523D03*
X82683Y-52523D03*
X82289Y-52523D03*
X82289Y-52917D03*
X82289Y-53311D03*
X82289Y-53704D03*
X86620Y-55279D03*
X86620Y-54885D03*
X86620Y-54492D03*
X86620Y-54098D03*
X86226Y-54098D03*
X86226Y-54492D03*
X86226Y-54885D03*
X86226Y-55279D03*
X85833Y-54098D03*
X85833Y-54492D03*
X85833Y-54885D03*
X85439Y-54098D03*
X85439Y-54492D03*
X85045Y-54098D03*
X85045Y-54492D03*
X84651Y-54098D03*
X84651Y-54492D03*
X84258Y-54098D03*
X84258Y-54492D03*
X83864Y-54098D03*
X83864Y-54492D03*
X83077Y-54098D03*
X83077Y-54492D03*
X82683Y-54098D03*
X82683Y-54492D03*
X82289Y-54098D03*
X82289Y-54492D03*
X83470Y-54098D03*
X83470Y-54492D03*
X82683Y-54885D03*
X82683Y-55279D03*
X82683Y-55673D03*
X82683Y-56067D03*
X82683Y-56460D03*
X82289Y-54885D03*
X82289Y-55279D03*
X82289Y-55673D03*
X82289Y-56067D03*
X82289Y-56460D03*
X86620Y-55673D03*
X86620Y-56067D03*
X86620Y-56460D03*
X86620Y-56854D03*
X86226Y-55673D03*
X86226Y-56067D03*
X86226Y-56460D03*
X86226Y-56854D03*
X82683Y-56854D03*
X82289Y-56854D03*
X82683Y-57248D03*
X82289Y-57248D03*
X82289Y-57641D03*
X82683Y-57641D03*
X85439Y-58035D03*
X85045Y-58035D03*
X84651Y-58035D03*
X84258Y-58035D03*
X83864Y-58035D03*
X83470Y-58035D03*
X83077Y-58035D03*
X82683Y-58035D03*
X82289Y-58035D03*
X82289Y-58429D03*
X82683Y-58429D03*
X83077Y-58429D03*
X83470Y-58429D03*
X83864Y-58429D03*
X84258Y-58429D03*
X84651Y-58429D03*
X85045Y-58429D03*
X85439Y-58429D03*
X88195Y-58822D03*
X88195Y-59216D03*
X88195Y-59610D03*
X88195Y-60004D03*
X87801Y-58822D03*
X87801Y-59216D03*
X87801Y-59610D03*
X87801Y-60004D03*
X87407Y-58822D03*
X87407Y-59216D03*
X87407Y-59610D03*
X87407Y-60004D03*
X87014Y-58822D03*
X87014Y-59216D03*
X87014Y-59610D03*
X87014Y-60004D03*
X86620Y-58822D03*
X86620Y-59216D03*
X86620Y-59610D03*
X86620Y-60004D03*
X86226Y-58822D03*
X86226Y-59216D03*
X86226Y-59610D03*
X86226Y-60004D03*
X85833Y-58822D03*
X85833Y-59216D03*
X85833Y-59610D03*
X85833Y-60004D03*
X85439Y-58822D03*
X85439Y-59216D03*
X85439Y-59610D03*
X85439Y-60004D03*
X85045Y-58822D03*
X85045Y-59216D03*
X85045Y-59610D03*
X85045Y-60004D03*
X84651Y-58822D03*
X84651Y-59216D03*
X84651Y-59610D03*
X84651Y-60004D03*
X84258Y-58822D03*
X84258Y-59216D03*
X84258Y-59610D03*
X84258Y-60004D03*
X83864Y-58822D03*
X83864Y-59216D03*
X83864Y-59610D03*
X83864Y-60004D03*
X83470Y-58822D03*
X83470Y-59216D03*
X83470Y-59610D03*
X83470Y-60004D03*
X83077Y-58822D03*
X83077Y-59216D03*
X83077Y-59610D03*
X83077Y-60004D03*
X82683Y-58822D03*
X82683Y-59216D03*
X82683Y-59610D03*
X82683Y-60004D03*
X82289Y-58822D03*
X82289Y-59216D03*
X82289Y-59610D03*
X82289Y-60004D03*
X81896Y-52523D03*
X81502Y-52523D03*
X81108Y-52523D03*
X80714Y-52523D03*
X80714Y-52917D03*
X80714Y-53311D03*
X80714Y-53704D03*
X80714Y-54098D03*
X80714Y-54492D03*
X80714Y-54885D03*
X80714Y-55279D03*
X80714Y-55673D03*
X80714Y-56067D03*
X80714Y-56460D03*
X80714Y-56854D03*
X80714Y-57248D03*
X80714Y-57641D03*
X80714Y-58035D03*
X80714Y-58429D03*
X80714Y-58822D03*
X80714Y-59216D03*
X80714Y-59610D03*
X80714Y-60004D03*
X81108Y-52917D03*
X81108Y-53311D03*
X81108Y-53704D03*
X81108Y-54098D03*
X81108Y-54492D03*
X81108Y-54885D03*
X81108Y-55279D03*
X81108Y-55673D03*
X81108Y-56067D03*
X81108Y-56460D03*
X81108Y-56854D03*
X81108Y-57248D03*
X81108Y-57641D03*
X81108Y-58035D03*
X81108Y-58429D03*
X81108Y-58822D03*
X81108Y-59216D03*
X81108Y-59610D03*
X81108Y-60004D03*
X81502Y-52917D03*
X81502Y-53311D03*
X81502Y-53704D03*
X81502Y-54098D03*
X81502Y-54492D03*
X81502Y-54885D03*
X81502Y-55279D03*
X81502Y-55673D03*
X81502Y-56067D03*
X81502Y-56460D03*
X81502Y-56854D03*
X81502Y-57248D03*
X81502Y-57641D03*
X81502Y-58035D03*
X81502Y-58429D03*
X81502Y-58822D03*
X81502Y-59216D03*
X81502Y-59610D03*
X81502Y-60004D03*
X81896Y-52917D03*
X81896Y-53311D03*
X81896Y-53704D03*
X81896Y-54098D03*
X81896Y-54492D03*
X81896Y-54885D03*
X81896Y-55279D03*
X81896Y-55673D03*
X81896Y-56067D03*
X81896Y-56460D03*
X81896Y-56854D03*
X81896Y-57248D03*
X81896Y-57641D03*
X81896Y-58035D03*
X81896Y-58429D03*
X81896Y-58822D03*
X81896Y-59216D03*
X81896Y-59610D03*
X81896Y-60004D03*
X80321Y-52523D03*
X80321Y-52917D03*
X80321Y-53311D03*
X80321Y-53704D03*
X80321Y-54098D03*
X80321Y-54492D03*
X80321Y-54885D03*
X80321Y-55279D03*
X80321Y-55673D03*
X80321Y-56066D03*
X80321Y-56460D03*
X80321Y-56854D03*
X80321Y-57248D03*
X80321Y-57641D03*
X80321Y-58035D03*
X80321Y-58429D03*
X80321Y-58822D03*
X80321Y-59216D03*
X80321Y-59610D03*
X80321Y-60003D03*
X80321Y-60397D03*
X80321Y-60791D03*
X79927Y-52523D03*
X79927Y-52917D03*
X79927Y-53311D03*
X79927Y-53704D03*
X79927Y-54098D03*
X79927Y-54492D03*
X79927Y-54885D03*
X79927Y-55279D03*
X79927Y-55673D03*
X79927Y-56066D03*
X79927Y-56460D03*
X79927Y-56854D03*
X79927Y-57248D03*
X79927Y-57641D03*
X79927Y-58035D03*
X79927Y-58429D03*
X79927Y-58822D03*
X79927Y-59216D03*
X79927Y-59610D03*
X79927Y-60003D03*
X79927Y-60397D03*
X79927Y-60791D03*
X83077Y-54885D03*
X83077Y-55279D03*
X83077Y-55673D03*
X83077Y-56066D03*
X83077Y-56460D03*
X83077Y-56854D03*
X83077Y-57248D03*
X83077Y-57641D03*
X83470Y-54885D03*
X83470Y-55279D03*
X83470Y-55673D03*
X83470Y-56066D03*
X83470Y-56460D03*
X83470Y-56854D03*
X83470Y-57248D03*
X83470Y-57641D03*
X83864Y-54885D03*
X83864Y-55279D03*
X83864Y-55673D03*
X83864Y-56066D03*
X83864Y-56460D03*
X83864Y-56854D03*
X83864Y-57248D03*
X83864Y-57641D03*
X84258Y-54885D03*
X84258Y-55279D03*
X84258Y-55673D03*
X84258Y-56066D03*
X84258Y-56460D03*
X84258Y-56854D03*
X84258Y-57248D03*
X84258Y-57641D03*
X84652Y-54885D03*
X84652Y-55279D03*
X84652Y-55673D03*
X84652Y-56066D03*
X84652Y-56460D03*
X84652Y-56854D03*
X84652Y-57248D03*
X84652Y-57641D03*
X85833Y-55279D03*
X85833Y-55673D03*
X85833Y-56066D03*
X85833Y-56460D03*
X85833Y-56854D03*
X85833Y-57248D03*
X85833Y-57641D03*
X85439Y-54885D03*
X85439Y-55279D03*
X85439Y-55673D03*
X85439Y-56066D03*
X85439Y-56460D03*
X85439Y-56854D03*
X85439Y-57248D03*
X85439Y-57641D03*
X85045Y-54885D03*
X85045Y-55279D03*
X85045Y-55673D03*
X85045Y-56066D03*
X85045Y-56460D03*
X85045Y-56854D03*
X85045Y-57248D03*
X85045Y-57641D03*
X88195Y-60397D03*
X88195Y-60791D03*
X87801Y-60397D03*
X87801Y-60791D03*
X87407Y-60397D03*
X87407Y-60791D03*
X87014Y-60397D03*
X87014Y-60791D03*
X86620Y-60397D03*
X86620Y-60791D03*
X86226Y-60397D03*
X86226Y-60791D03*
X85833Y-60397D03*
X85833Y-60791D03*
X85439Y-60397D03*
X85439Y-60791D03*
X85045Y-60397D03*
X85045Y-60791D03*
X84652Y-60397D03*
X84652Y-60791D03*
X84258Y-60397D03*
X84258Y-60791D03*
X83864Y-60397D03*
X83864Y-60791D03*
X83470Y-60397D03*
X83470Y-60791D03*
X83077Y-60397D03*
X83077Y-60791D03*
X82683Y-60397D03*
X82683Y-60791D03*
X82289Y-60397D03*
X82289Y-60791D03*
X81896Y-60397D03*
X81896Y-60791D03*
X81502Y-60397D03*
X81502Y-60791D03*
X81108Y-60397D03*
X81108Y-60791D03*
X80715Y-60397D03*
X80715Y-60791D03*
G54D42*
X81786Y-46402D03*
X81786Y-46087D03*
X81786Y-45772D03*
X81786Y-44512D03*
X81786Y-44197D03*
X81786Y-43882D03*
X82101Y-46402D03*
X82416Y-46402D03*
X82731Y-46402D03*
X83045Y-46402D03*
X83360Y-46402D03*
X83675Y-46402D03*
X83990Y-46402D03*
X83990Y-46087D03*
X83990Y-45772D03*
X83991Y-44513D03*
X83991Y-44198D03*
X83991Y-43883D03*
X83676Y-43883D03*
X83361Y-43883D03*
X83046Y-43883D03*
X82732Y-43883D03*
X82417Y-43883D03*
X82102Y-43883D03*
X82731Y-45772D03*
X83045Y-45772D03*
X83046Y-44513D03*
X82732Y-44513D03*
X82417Y-44513D03*
X82416Y-45772D03*
X82416Y-46087D03*
X82731Y-46087D03*
X83045Y-46087D03*
X83360Y-46087D03*
X83675Y-46087D03*
X83675Y-45772D03*
X83360Y-45772D03*
X83361Y-44513D03*
X83676Y-44513D03*
X83676Y-44198D03*
X83361Y-44198D03*
X83046Y-44198D03*
X82732Y-44198D03*
X82417Y-44198D03*
X82102Y-44198D03*
X82102Y-44513D03*
X82101Y-45772D03*
X82101Y-46087D03*
X86196Y-46402D03*
X86196Y-43882D03*
X84306Y-46402D03*
X84306Y-46087D03*
X84306Y-45772D03*
X84306Y-44512D03*
X84306Y-44197D03*
X84306Y-43882D03*
X84621Y-46402D03*
X84621Y-46087D03*
X84621Y-45772D03*
X84621Y-44512D03*
X84621Y-44197D03*
X84621Y-43882D03*
X84936Y-46402D03*
X84936Y-46087D03*
X84936Y-45772D03*
X84936Y-44512D03*
X84936Y-44197D03*
X84936Y-43882D03*
X85251Y-46402D03*
X85251Y-46087D03*
X85251Y-45772D03*
X85251Y-44512D03*
X85251Y-44197D03*
X85251Y-43882D03*
X85566Y-46402D03*
X85566Y-46087D03*
X85566Y-45772D03*
X85566Y-44512D03*
X85566Y-44197D03*
X85566Y-43882D03*
X85881Y-46402D03*
X85881Y-46087D03*
X85881Y-45772D03*
X85881Y-44512D03*
X85881Y-44197D03*
X85881Y-43882D03*
X86196Y-46087D03*
X86196Y-45772D03*
X86196Y-44512D03*
X86196Y-44197D03*
X86511Y-46402D03*
X86511Y-46087D03*
X86511Y-45772D03*
X86511Y-44512D03*
X86511Y-44197D03*
X86511Y-43882D03*
G54D31*
X78150Y-69250D03*
X78750Y-69250D03*
G54D12*
X74385Y-24620D03*
G54D13*
X74385Y-23620D03*
X75385Y-24620D03*
X75385Y-23620D03*
X76385Y-24620D03*
X76385Y-23620D03*
X77385Y-24620D03*
X77385Y-23620D03*
X78385Y-24620D03*
X78385Y-23620D03*
X79385Y-24620D03*
X79385Y-23620D03*
X80385Y-24620D03*
X80385Y-23620D03*
G54D38*
X87424Y-47480D03*
X87424Y-47126D03*
G54D37*
X84984Y-48107D03*
X84630Y-48107D03*
X89373Y-54650D03*
X89727Y-54650D03*
G54D14*
X82202Y-63559D03*
X82202Y-62959D03*
G54D31*
X80954Y-64468D03*
X81554Y-64468D03*
X79735Y-64468D03*
X80335Y-64468D03*
X74766Y-53901D03*
X74166Y-53901D03*
G54D14*
X83900Y-62950D03*
X83900Y-63550D03*
X83100Y-62950D03*
X83100Y-63550D03*
G54D31*
X47750Y-36600D03*
X48350Y-36600D03*
G54D43*
X93162Y-42586D03*
X93912Y-42586D03*
G54D44*
X51932Y-40523D03*
X51932Y-41273D03*
G54D43*
X62276Y-29992D03*
X61526Y-29992D03*
G54D31*
X55482Y-39112D03*
X54882Y-39112D03*
X82600Y-77200D03*
X82000Y-77200D03*
X52551Y-35090D03*
X53151Y-35090D03*
G54D14*
X99137Y-82117D03*
X99137Y-82717D03*
G54D31*
X109795Y-45276D03*
X109195Y-45276D03*
G54D14*
X67615Y-39265D03*
X67615Y-38665D03*
G54D31*
X54851Y-39890D03*
X55451Y-39890D03*
X52551Y-35890D03*
X53151Y-35890D03*
X50675Y-36100D03*
X50075Y-36100D03*
G54D14*
X76968Y-26496D03*
X76968Y-27096D03*
X69098Y-39618D03*
X69098Y-40218D03*
G54D31*
X50075Y-36900D03*
X50675Y-36900D03*
G54D38*
X95737Y-42763D03*
X95737Y-42409D03*
X71290Y-83353D03*
X71290Y-83707D03*
X66130Y-83727D03*
X66130Y-83373D03*
G54D31*
X75050Y-81150D03*
X75650Y-81150D03*
X66050Y-81150D03*
X66650Y-81150D03*
X66050Y-79350D03*
X66650Y-79350D03*
X66050Y-80250D03*
X66650Y-80250D03*
X75050Y-79350D03*
X75650Y-79350D03*
X75050Y-80250D03*
X75650Y-80250D03*
X59687Y-25210D03*
X60287Y-25210D03*
G54D14*
X103800Y-53000D03*
X103800Y-52400D03*
X102700Y-53000D03*
X102700Y-52400D03*
G54D45*
X89288Y-38026D03*
X87288Y-38026D03*
G54D46*
X65336Y-52843D03*
X65336Y-54843D03*
G54D15*
X69132Y-85688D03*
X69329Y-85688D03*
X69526Y-85688D03*
X69723Y-85688D03*
X69920Y-85688D03*
X70116Y-85688D03*
X70313Y-85688D03*
X70510Y-85688D03*
X70707Y-85688D03*
X70904Y-85688D03*
X68935Y-85688D03*
X68738Y-85688D03*
X68542Y-85688D03*
X68345Y-85688D03*
X68148Y-85688D03*
X67951Y-85688D03*
X67754Y-85688D03*
X67557Y-85688D03*
X67361Y-85688D03*
G54D47*
X66160Y-86200D03*
X71987Y-86200D03*
G54D48*
X65924Y-88546D03*
X72223Y-88546D03*
G54D15*
X59932Y-85688D03*
X60129Y-85688D03*
X60326Y-85688D03*
X60523Y-85688D03*
X60720Y-85688D03*
X60916Y-85688D03*
X61113Y-85688D03*
X61310Y-85688D03*
X61507Y-85688D03*
X61704Y-85688D03*
X59735Y-85688D03*
X59538Y-85688D03*
X59342Y-85688D03*
X59145Y-85688D03*
X58948Y-85688D03*
X58751Y-85688D03*
X58554Y-85688D03*
X58357Y-85688D03*
X58161Y-85688D03*
G54D47*
X56960Y-86200D03*
X62787Y-86200D03*
G54D48*
X56724Y-88546D03*
X63023Y-88546D03*
G54D15*
X50732Y-85688D03*
X50929Y-85688D03*
X51126Y-85688D03*
X51323Y-85688D03*
X51520Y-85688D03*
X51716Y-85688D03*
X51913Y-85688D03*
X52110Y-85688D03*
X52307Y-85688D03*
X52504Y-85688D03*
X50535Y-85688D03*
X50338Y-85688D03*
X50142Y-85688D03*
X49945Y-85688D03*
X49748Y-85688D03*
X49551Y-85688D03*
X49354Y-85688D03*
X49157Y-85688D03*
X48961Y-85688D03*
G54D47*
X47760Y-86200D03*
X53587Y-86200D03*
G54D48*
X47524Y-88546D03*
X53823Y-88546D03*
G54D15*
X78332Y-85688D03*
X78529Y-85688D03*
X78726Y-85688D03*
X78923Y-85688D03*
X79120Y-85688D03*
X79316Y-85688D03*
X79513Y-85688D03*
X79710Y-85688D03*
X79907Y-85688D03*
X80104Y-85688D03*
X78135Y-85688D03*
X77938Y-85688D03*
X77742Y-85688D03*
X77545Y-85688D03*
X77348Y-85688D03*
X77151Y-85688D03*
X76954Y-85688D03*
X76757Y-85688D03*
X76561Y-85688D03*
G54D47*
X75360Y-86200D03*
X81187Y-86200D03*
G54D48*
X75124Y-88546D03*
X81423Y-88546D03*
G54D14*
X57251Y-38990D03*
X57251Y-39590D03*
G54D31*
X58250Y-37309D03*
X58850Y-37309D03*
X52550Y-34309D03*
X53150Y-34309D03*
G54D14*
X56451Y-38990D03*
X56451Y-39590D03*
G54D31*
X58351Y-38690D03*
X58951Y-38690D03*
X52551Y-37490D03*
X53151Y-37490D03*
X52550Y-36709D03*
X53150Y-36709D03*
G54D49*
X48850Y-32790D03*
G54D50*
X48850Y-35231D03*
X49850Y-35231D03*
X48350Y-35231D03*
X49350Y-35231D03*
X47850Y-35231D03*
G54D44*
X49325Y-37625D03*
X49325Y-38375D03*
X48350Y-37625D03*
X48350Y-38375D03*
G54D51*
X52701Y-28010D03*
X58800Y-28010D03*
G54D52*
X53500Y-26809D03*
X58000Y-26809D03*
G54D53*
X56498Y-29309D03*
X57998Y-30309D03*
X56998Y-30309D03*
X55998Y-30309D03*
X54998Y-30309D03*
X55498Y-29309D03*
X54498Y-29309D03*
X57498Y-29309D03*
G54D54*
X58361Y-25211D03*
X57361Y-25211D03*
X54140Y-25211D03*
X53140Y-25211D03*
G54D53*
X53498Y-29309D03*
X53998Y-30309D03*
G54D31*
X52551Y-38290D03*
X53151Y-38290D03*
G54D44*
X47332Y-40523D03*
X47332Y-41273D03*
X48332Y-40523D03*
X48332Y-41273D03*
X50932Y-40523D03*
X50932Y-41273D03*
X52932Y-40523D03*
X52932Y-41273D03*
G54D43*
X62276Y-26392D03*
X61526Y-26392D03*
X62276Y-27392D03*
X61526Y-27392D03*
X62276Y-30992D03*
X61526Y-30992D03*
X62276Y-31992D03*
X61526Y-31992D03*
G54D44*
X47672Y-30043D03*
X47672Y-30793D03*
X50272Y-30043D03*
X50272Y-30793D03*
X62301Y-28317D03*
X62301Y-29067D03*
G54D43*
X49257Y-40498D03*
X50007Y-40498D03*
X48597Y-30018D03*
X49347Y-30018D03*
G54D14*
X59941Y-53553D03*
X59941Y-52953D03*
G54D31*
X54170Y-60310D03*
X53570Y-60310D03*
X52070Y-59510D03*
X51470Y-59510D03*
X52370Y-61110D03*
X52970Y-61110D03*
X97337Y-44086D03*
X97937Y-44086D03*
X56870Y-60310D03*
X56270Y-60310D03*
X59541Y-50753D03*
X58941Y-50753D03*
X58941Y-52153D03*
X59541Y-52153D03*
X88188Y-31926D03*
X88788Y-31926D03*
G54D14*
X91188Y-31426D03*
X91188Y-30826D03*
X90388Y-30826D03*
X90388Y-31426D03*
G54D38*
X95237Y-42763D03*
X95237Y-42409D03*
X94737Y-42409D03*
X94737Y-42763D03*
G54D34*
X60447Y-35605D03*
X60447Y-37605D03*
G54D55*
X71941Y-40308D03*
X71941Y-40112D03*
X71941Y-39915D03*
X71941Y-39718D03*
X71941Y-39521D03*
X71941Y-39324D03*
X71941Y-39127D03*
X71941Y-38931D03*
G54D56*
X71685Y-38675D03*
X71488Y-38675D03*
X71292Y-38675D03*
X71095Y-38675D03*
X70898Y-38675D03*
X70701Y-38675D03*
X70504Y-38675D03*
X70307Y-38675D03*
G54D55*
X70051Y-38931D03*
X70051Y-39127D03*
X70051Y-39324D03*
X70051Y-39521D03*
X70051Y-39718D03*
X70051Y-39915D03*
X70051Y-40112D03*
X70051Y-40308D03*
G54D56*
X70307Y-40564D03*
X70504Y-40564D03*
X70701Y-40564D03*
X70898Y-40564D03*
X71095Y-40564D03*
X71292Y-40564D03*
X71488Y-40564D03*
X71685Y-40564D03*
G54D57*
X70657Y-39280D03*
X70657Y-39959D03*
X71336Y-39280D03*
X71336Y-39959D03*
G54D31*
X58270Y-63110D03*
X57670Y-63110D03*
G54D58*
X55170Y-64210D03*
X56370Y-64210D03*
X55170Y-65810D03*
X56370Y-65810D03*
G54D59*
X50870Y-66610D03*
X50870Y-65410D03*
G54D43*
X50495Y-60310D03*
X51245Y-60310D03*
X52845Y-60310D03*
X52095Y-60310D03*
G54D60*
X54095Y-61125D03*
X54095Y-61322D03*
X54095Y-61519D03*
X54095Y-61716D03*
X54095Y-61912D03*
X54095Y-62110D03*
X54095Y-62308D03*
X54095Y-62505D03*
X54095Y-62701D03*
X54095Y-62898D03*
X54095Y-63095D03*
X56044Y-63095D03*
X56044Y-62898D03*
X56044Y-62701D03*
X56044Y-62505D03*
X56044Y-62308D03*
X56044Y-62109D03*
X56044Y-61912D03*
X56044Y-61716D03*
X56044Y-61519D03*
X56044Y-61322D03*
X56044Y-61125D03*
G54D61*
X55070Y-62110D03*
G54D62*
X63083Y-51085D03*
X63083Y-51341D03*
X63083Y-51597D03*
X63083Y-51853D03*
X63083Y-52109D03*
X63083Y-52365D03*
X63083Y-52621D03*
X60799Y-52621D03*
X60799Y-52365D03*
X60799Y-52109D03*
X60799Y-51853D03*
X60799Y-51597D03*
X60799Y-51341D03*
X60799Y-51085D03*
G54D63*
X61941Y-51853D03*
G54D64*
X90656Y-35268D03*
X90400Y-35268D03*
X90144Y-35268D03*
X89888Y-35268D03*
X89632Y-35268D03*
X89376Y-35268D03*
X89120Y-35268D03*
X89120Y-32984D03*
X89376Y-32984D03*
X89632Y-32984D03*
X89888Y-32984D03*
X90144Y-32984D03*
X90400Y-32984D03*
X90656Y-32984D03*
G54D65*
X89888Y-34126D03*
G54D55*
X94775Y-44286D03*
X96098Y-44286D03*
X94775Y-44089D03*
X94775Y-43892D03*
X94775Y-44483D03*
X94775Y-44680D03*
X96098Y-44483D03*
X96098Y-44680D03*
X96098Y-44089D03*
X96098Y-43892D03*
G54D66*
X95437Y-44286D03*
G54D67*
X107958Y-43426D03*
X107958Y-43926D03*
X107958Y-44426D03*
X107958Y-44926D03*
X105832Y-44926D03*
X105832Y-44426D03*
X105832Y-43926D03*
X105832Y-43426D03*
G54D68*
X106895Y-44176D03*
G54D31*
X108995Y-46276D03*
X109595Y-46276D03*
X107695Y-46276D03*
X108295Y-46276D03*
G54D58*
X103195Y-43376D03*
X104395Y-43376D03*
G54D14*
X109895Y-44476D03*
X109895Y-43876D03*
X109095Y-43876D03*
X109095Y-44476D03*
G54D31*
X105295Y-42576D03*
X105895Y-42576D03*
G54D59*
X100395Y-38976D03*
X100395Y-37776D03*
X101895Y-38976D03*
X101895Y-37776D03*
X103395Y-38976D03*
X103395Y-37776D03*
G54D58*
X112350Y-47000D03*
X111150Y-47000D03*
G54D31*
X106395Y-45876D03*
X106995Y-45876D03*
G54D58*
X112350Y-48600D03*
X111150Y-48600D03*
X103195Y-46176D03*
X104395Y-46176D03*
X103195Y-44776D03*
X104395Y-44776D03*
G54D31*
X106395Y-46676D03*
X106995Y-46676D03*
G54D14*
X105495Y-46076D03*
X105495Y-46676D03*
G54D69*
X108495Y-36676D03*
X105267Y-36676D03*
G54D59*
X93888Y-34126D03*
X93888Y-35326D03*
G54D70*
X61341Y-55053D03*
X63141Y-55053D03*
G54D59*
X92288Y-35326D03*
X92288Y-34126D03*
G54D31*
X64341Y-49953D03*
X64941Y-49953D03*
G54D43*
X65316Y-51153D03*
X64566Y-51153D03*
G54D44*
X91088Y-38401D03*
X91088Y-37651D03*
G54D43*
X93162Y-43486D03*
X93912Y-43486D03*
G54D14*
X91988Y-36226D03*
X91988Y-36826D03*
X89588Y-31426D03*
X89588Y-30826D03*
G54D58*
X61941Y-47953D03*
X63141Y-47953D03*
X61941Y-49453D03*
X63141Y-49453D03*
G54D43*
X93162Y-44486D03*
X93912Y-44486D03*
G54D71*
X87188Y-33626D03*
X87188Y-35426D03*
G54D43*
X93162Y-45286D03*
X93912Y-45286D03*
X98112Y-43286D03*
X97362Y-43286D03*
G54D44*
X97137Y-46261D03*
X97137Y-45511D03*
G54D31*
X58941Y-51453D03*
X59541Y-51453D03*
G54D45*
X52370Y-63210D03*
X50370Y-63210D03*
G54D14*
X68376Y-40222D03*
X68376Y-39622D03*
X71296Y-41620D03*
X71296Y-42220D03*
X70496Y-41620D03*
X70496Y-42220D03*
G54D15*
X93283Y-83913D03*
X93479Y-83913D03*
X93676Y-83913D03*
X93873Y-83913D03*
X94070Y-83913D03*
X94267Y-83913D03*
X94464Y-83913D03*
X94660Y-83913D03*
X94857Y-83913D03*
X95054Y-83913D03*
X93086Y-83913D03*
X92889Y-83913D03*
X92692Y-83913D03*
X92495Y-83913D03*
X92298Y-83913D03*
X92101Y-83913D03*
X91905Y-83913D03*
X91708Y-83913D03*
G54D16*
X90034Y-84937D03*
X96531Y-84937D03*
G54D17*
X90034Y-87606D03*
X96531Y-87606D03*
G54D18*
X93283Y-87960D03*
G54D15*
X95251Y-83913D03*
X95448Y-83913D03*
G54D36*
X89882Y-66500D03*
X92417Y-66500D03*
X89882Y-66000D03*
X89882Y-65500D03*
X89882Y-65000D03*
X92417Y-66000D03*
X92417Y-65500D03*
X92417Y-65000D03*
G54D72*
X96530Y-33659D03*
X96530Y-36021D03*
G54D73*
X98602Y-23793D03*
X100602Y-23793D03*
G54D74*
X106478Y-27943D03*
X106478Y-25581D03*
X104628Y-26762D03*
X94182Y-27895D03*
X94182Y-25533D03*
X92332Y-26714D03*
G54D38*
X75832Y-83727D03*
X75832Y-83373D03*
G54D37*
X97122Y-71520D03*
X97476Y-71520D03*
G54D38*
X76332Y-83727D03*
X76332Y-83373D03*
X76832Y-83727D03*
X76832Y-83373D03*
X66632Y-83727D03*
X66632Y-83373D03*
X67132Y-83727D03*
X67132Y-83373D03*
X67632Y-83727D03*
X67632Y-83373D03*
X57432Y-83727D03*
X57432Y-83373D03*
X57932Y-83727D03*
X57932Y-83373D03*
X58432Y-83727D03*
X58432Y-83373D03*
X56932Y-83727D03*
X56932Y-83373D03*
X47732Y-83727D03*
X47732Y-83373D03*
X49232Y-83727D03*
X49232Y-83373D03*
X48732Y-83727D03*
X48732Y-83373D03*
X48232Y-83727D03*
X48232Y-83373D03*
X65630Y-83737D03*
X65630Y-83383D03*
X74830Y-83727D03*
X74830Y-83373D03*
X75330Y-83727D03*
X75330Y-83373D03*
G54D14*
X76150Y-26496D03*
X76150Y-27096D03*
G54D75*
X110123Y-51013D03*
X110123Y-66820D03*
G54D76*
X109631Y-71407D03*
G54D77*
X108843Y-71013D03*
X109631Y-70620D03*
X108843Y-70226D03*
X109631Y-69832D03*
X108843Y-69438D03*
X109631Y-69045D03*
X108843Y-68651D03*
X109631Y-68257D03*
X108843Y-67864D03*
X109631Y-67470D03*
X108843Y-66289D03*
X109631Y-65895D03*
X108843Y-65501D03*
X109631Y-65108D03*
X108843Y-64714D03*
X109631Y-64320D03*
X108843Y-63927D03*
X109631Y-63533D03*
X108843Y-63139D03*
X109631Y-62746D03*
X108843Y-62352D03*
X109631Y-61958D03*
X108843Y-61564D03*
X109631Y-61171D03*
X108843Y-60777D03*
X109631Y-60383D03*
X108843Y-59990D03*
X109631Y-59596D03*
X108843Y-59202D03*
X109631Y-58809D03*
X108843Y-58415D03*
X109631Y-58021D03*
X108843Y-57627D03*
X109631Y-57234D03*
X108843Y-56840D03*
X109631Y-56446D03*
X108843Y-56053D03*
X109631Y-55659D03*
X108843Y-55265D03*
X109631Y-54872D03*
X108843Y-54478D03*
X109631Y-54084D03*
X108843Y-53690D03*
X109631Y-53297D03*
X108843Y-52903D03*
X109631Y-52509D03*
X108843Y-52116D03*
X110615Y-71407D03*
X111402Y-71013D03*
X110615Y-70620D03*
X111402Y-70226D03*
X110615Y-69832D03*
X111402Y-69438D03*
X110615Y-69045D03*
X111402Y-68651D03*
X110615Y-68257D03*
X111402Y-67864D03*
X110615Y-67470D03*
X111402Y-66289D03*
X110615Y-65895D03*
X111402Y-65501D03*
X110615Y-65108D03*
X111402Y-64714D03*
X110615Y-64320D03*
X111402Y-63927D03*
X110615Y-63533D03*
X111402Y-63139D03*
X110615Y-62746D03*
X111402Y-62352D03*
X110615Y-61958D03*
X111402Y-61564D03*
X110615Y-61171D03*
X111402Y-60777D03*
X110615Y-60383D03*
X111402Y-59990D03*
X110615Y-59596D03*
X111402Y-59202D03*
X110615Y-58809D03*
X111402Y-58415D03*
X110615Y-58021D03*
X111402Y-57627D03*
X110615Y-57234D03*
X111402Y-56840D03*
X110615Y-56446D03*
X111402Y-56053D03*
X110615Y-55659D03*
X111402Y-55265D03*
X110615Y-54872D03*
X111402Y-54478D03*
X110615Y-54084D03*
X111402Y-53690D03*
X110615Y-53297D03*
X111402Y-52903D03*
X110615Y-52509D03*
X111402Y-52116D03*
X109631Y-51722D03*
X110615Y-51722D03*
G54D78*
X68733Y-35215D03*
X71096Y-35215D03*
X68733Y-35715D03*
X71096Y-35715D03*
X68733Y-36215D03*
X71096Y-36215D03*
X68733Y-36715D03*
X71096Y-36715D03*
G54D79*
X65450Y-74313D03*
G54D80*
X65450Y-75917D03*
X66040Y-75917D03*
X64859Y-75917D03*
G54D14*
X101300Y-52400D03*
X101300Y-53000D03*
G54D31*
X96215Y-37985D03*
X96815Y-37985D03*
G54D14*
X95465Y-58062D03*
X95465Y-58662D03*
G54D38*
X89400Y-56627D03*
X89400Y-56273D03*
X89850Y-56627D03*
X89850Y-56273D03*
G54D37*
X90133Y-58200D03*
X90487Y-58200D03*
X90143Y-57540D03*
X90497Y-57540D03*
G54D38*
X91250Y-56277D03*
X91250Y-55923D03*
X90800Y-56277D03*
X90800Y-55923D03*
G54D12*
X101772Y-50488D03*
G54D13*
X101772Y-49488D03*
X102772Y-50488D03*
X102772Y-49488D03*
X103772Y-50488D03*
X103772Y-49488D03*
X104772Y-50488D03*
X104772Y-49488D03*
X105772Y-50488D03*
X105772Y-49488D03*
G54D12*
X68890Y-23340D03*
G54D13*
X68890Y-24340D03*
X68890Y-25340D03*
X68890Y-26340D03*
X68890Y-27340D03*
G54D12*
X86441Y-81277D03*
G54D13*
X85441Y-81277D03*
X84441Y-81277D03*
X83441Y-81277D03*
X82441Y-81277D03*
G54D12*
X75172Y-49040D03*
G54D13*
X75172Y-48040D03*
X75172Y-47040D03*
X75172Y-46040D03*
X75172Y-45040D03*
G54D12*
X94331Y-67307D03*
G54D13*
X94331Y-66307D03*
X94331Y-65307D03*
G54D12*
X91969Y-68071D03*
G54D13*
X92969Y-68071D03*
G54D39*
X96907Y-38944D03*
X96081Y-38944D03*
G54D40*
X91820Y-73106D03*
X91820Y-73606D03*
G54D81*
X99640Y-79362D03*
X99640Y-80858D03*
X93100Y-78602D03*
X93100Y-80098D03*
G54D82*
X50242Y-70090D03*
X51738Y-70090D03*
G54D79*
X55950Y-79813D03*
G54D80*
X55950Y-81417D03*
X56540Y-81417D03*
X55359Y-81417D03*
G54D79*
X47750Y-79813D03*
G54D80*
X47750Y-81417D03*
X48340Y-81417D03*
X47159Y-81417D03*
G54D38*
X80490Y-83373D03*
X80490Y-83727D03*
G54D83*
X88668Y-81590D03*
X89258Y-81590D03*
G54D84*
X96300Y-31456D03*
X96300Y-30056D03*
G54D38*
X62089Y-83373D03*
X62089Y-83727D03*
X52886Y-83373D03*
X52886Y-83727D03*
G54D85*
X98450Y-49900D03*
G54D86*
X99453Y-48896D03*
X99453Y-50903D03*
X97446Y-50903D03*
X97446Y-48896D03*
G54D85*
X93900Y-49900D03*
G54D86*
X94903Y-48896D03*
X94903Y-50903D03*
X92896Y-50903D03*
X92896Y-48896D03*
G54D87*
X77656Y-65916D03*
X77656Y-67916D03*
X79309Y-67916D03*
X79309Y-65916D03*
G54D14*
X76300Y-67310D03*
X76300Y-67910D03*
G54D88*
X94400Y-59188D03*
X92400Y-59188D03*
X92400Y-57535D03*
X94400Y-57535D03*
X93400Y-59188D03*
X93400Y-57535D03*
G54D31*
X51446Y-25216D03*
X50846Y-25216D03*
X82600Y-76500D03*
X82000Y-76500D03*
G54D89*
X51237Y-73800D03*
X59100Y-77500D03*
X52086Y-72746D03*
X72850Y-80300D03*
X72850Y-81350D03*
X63950Y-79900D03*
X63950Y-80900D03*
X58100Y-77500D03*
X94400Y-71750D03*
X94400Y-70500D03*
X94400Y-69200D03*
G54D90*
X52702Y-53636D03*
X50195Y-53636D03*
G54D27*
X62289Y-80011D03*
X62092Y-80011D03*
X61895Y-80011D03*
X61698Y-80011D03*
X61501Y-80011D03*
X61305Y-80011D03*
X61108Y-80011D03*
X60911Y-80011D03*
X60714Y-80011D03*
X60517Y-80011D03*
X60320Y-80011D03*
X60123Y-80011D03*
X59927Y-80011D03*
X59730Y-80011D03*
X59533Y-80011D03*
X59336Y-80011D03*
X59139Y-80011D03*
X58942Y-80011D03*
X58746Y-80011D03*
X59533Y-82255D03*
X59336Y-82255D03*
X59139Y-82255D03*
X58942Y-82255D03*
X59730Y-82255D03*
X59927Y-82255D03*
X60123Y-82255D03*
X60320Y-82255D03*
X60517Y-82255D03*
X60714Y-82255D03*
X60911Y-82255D03*
X61108Y-82255D03*
X61305Y-82255D03*
X61501Y-82255D03*
X61698Y-82255D03*
X58746Y-82255D03*
X61895Y-82255D03*
X62092Y-82255D03*
X62289Y-82255D03*
X71489Y-80011D03*
X71292Y-80011D03*
X71095Y-80011D03*
X70898Y-80011D03*
X70701Y-80011D03*
X70505Y-80011D03*
X70308Y-80011D03*
X70111Y-80011D03*
X69914Y-80011D03*
X69717Y-80011D03*
X69520Y-80011D03*
X69323Y-80011D03*
X69127Y-80011D03*
X68930Y-80011D03*
X68733Y-80011D03*
X68536Y-80011D03*
X68339Y-80011D03*
X68142Y-80011D03*
X67946Y-80011D03*
X68733Y-82255D03*
X68536Y-82255D03*
X68339Y-82255D03*
X68142Y-82255D03*
X68930Y-82255D03*
X69127Y-82255D03*
X69323Y-82255D03*
X69520Y-82255D03*
X69717Y-82255D03*
X69914Y-82255D03*
X70111Y-82255D03*
X70308Y-82255D03*
X70505Y-82255D03*
X70701Y-82255D03*
X70898Y-82255D03*
X67946Y-82255D03*
X71095Y-82255D03*
X71292Y-82255D03*
X71489Y-82255D03*
X80689Y-80011D03*
X80492Y-80011D03*
X80295Y-80011D03*
X80098Y-80011D03*
X79901Y-80011D03*
X79705Y-80011D03*
X79508Y-80011D03*
X79311Y-80011D03*
X79114Y-80011D03*
X78917Y-80011D03*
X78720Y-80011D03*
X78523Y-80011D03*
X78327Y-80011D03*
X78130Y-80011D03*
X77933Y-80011D03*
X77736Y-80011D03*
X77539Y-80011D03*
X77342Y-80011D03*
X77146Y-80011D03*
X77933Y-82255D03*
X77736Y-82255D03*
X77539Y-82255D03*
X77342Y-82255D03*
X78130Y-82255D03*
X78327Y-82255D03*
X78523Y-82255D03*
X78720Y-82255D03*
X78917Y-82255D03*
X79114Y-82255D03*
X79311Y-82255D03*
X79508Y-82255D03*
X79705Y-82255D03*
X79901Y-82255D03*
X80098Y-82255D03*
X77146Y-82255D03*
X80295Y-82255D03*
X80492Y-82255D03*
X80689Y-82255D03*
G54D91*
X79550Y-74057D03*
X79550Y-72442D03*
X81050Y-74057D03*
X81050Y-72442D03*
G54D14*
X90300Y-82650D03*
X90300Y-82050D03*
X98438Y-82117D03*
X98438Y-82717D03*
X91700Y-79200D03*
X91700Y-78600D03*
X98256Y-79971D03*
X98256Y-79371D03*
G54D84*
X85080Y-28460D03*
X85080Y-29860D03*
X86670Y-28460D03*
X86670Y-29860D03*
G54D14*
X91000Y-82650D03*
X91000Y-82050D03*
G54D38*
X95395Y-81248D03*
X95395Y-81602D03*
X100957Y-81248D03*
X100957Y-81602D03*
X101357Y-81248D03*
X101357Y-81602D03*
X92045Y-81248D03*
X92045Y-81602D03*
X92445Y-81248D03*
X92445Y-81602D03*
X92995Y-81248D03*
X92995Y-81602D03*
X93395Y-81248D03*
X93395Y-81602D03*
X93795Y-81248D03*
X93795Y-81602D03*
X94195Y-81248D03*
X94195Y-81602D03*
X94595Y-81248D03*
X94595Y-81602D03*
X94995Y-81248D03*
X94995Y-81602D03*
X95795Y-81248D03*
X95795Y-81602D03*
X101962Y-81248D03*
X101962Y-81602D03*
X102362Y-81248D03*
X102362Y-81602D03*
X102762Y-81248D03*
X102762Y-81602D03*
X103162Y-81248D03*
X103162Y-81602D03*
X103562Y-81248D03*
X103562Y-81602D03*
X103962Y-81248D03*
X103962Y-81602D03*
X104362Y-81248D03*
X104362Y-81602D03*
X104762Y-81248D03*
X104762Y-81602D03*
G54D81*
X83260Y-28362D03*
X83260Y-29858D03*
G54D92*
X88856Y-25708D03*
X87206Y-25708D03*
X85556Y-25708D03*
X85556Y-23908D03*
X87206Y-23908D03*
G54D93*
X88856Y-23908D03*
G54D89*
X73560Y-76460D03*
X74380Y-77020D03*
X68540Y-77830D03*
X67670Y-78750D03*
X52101Y-73814D03*
X51300Y-72760D03*
X58750Y-78480D03*
X59340Y-78910D03*
G54D12*
X99110Y-70522D03*
G54D13*
X99110Y-71522D03*
X99110Y-72522D03*
G54D12*
X81887Y-79205D03*
G54D13*
X82887Y-79205D03*
X83887Y-79205D03*
G54D19*
X48820Y-76301D03*
G54D94*
X68750Y-52300D03*
X72250Y-74900D03*
X90650Y-49805D03*
X92497Y-63412D03*
M02*
