G04 (created by PCBNEW (2013-07-07 BZR 4022)-stable) date 19/05/2015 04:41:07 PM*
%MOIN*%
G04 Gerber Fmt 3.4, Leading zero omitted, Abs format*
%FSLAX34Y34*%
G01*
G70*
G90*
G04 APERTURE LIST*
%ADD10C,0.00590551*%
%ADD11C,0.0905512*%
%ADD12R,0.0984252X0.11811*%
%ADD13O,0.0570866X0.0472441*%
%ADD14C,0.06*%
%ADD15C,0.11811*%
%ADD16C,0.056*%
%ADD17R,0.06X0.06*%
%ADD18O,0.0708661X0.137795*%
%ADD19O,0.0708661X0.0925197*%
%ADD20C,0.102362*%
%ADD21C,0.139764*%
%ADD22C,0.0751968*%
%ADD23C,0.0787402*%
%ADD24O,0.0511811X0.0905512*%
%ADD25O,0.0511811X0.0748031*%
%ADD26O,0.08X0.16*%
%ADD27R,0.1378X0.1378*%
%ADD28R,0.0472441X0.0472441*%
%ADD29C,0.0472441*%
%ADD30C,0.0866142*%
%ADD31R,0.0866142X0.0866142*%
%ADD32C,0.0393701*%
%ADD33C,0.018*%
%ADD34C,0.0318*%
%ADD35C,0.022*%
%ADD36C,0.005*%
G04 APERTURE END LIST*
G54D10*
G54D11*
X106149Y-31384D03*
X104003Y-31384D03*
X101916Y-31384D03*
X99830Y-31384D03*
G54D12*
X67317Y-23057D03*
X64482Y-23057D03*
G54D13*
X66884Y-24189D03*
X64915Y-24189D03*
G54D14*
X85730Y-83460D03*
X84730Y-83460D03*
X84730Y-84247D03*
X85730Y-84247D03*
G54D15*
X87592Y-85310D03*
X82868Y-85310D03*
G54D16*
X93660Y-76033D03*
X93660Y-74033D03*
G54D17*
X75568Y-24607D03*
G54D14*
X75568Y-23607D03*
X76568Y-24607D03*
X76568Y-23607D03*
X77568Y-24607D03*
X77568Y-23607D03*
X78568Y-24607D03*
X78568Y-23607D03*
X79568Y-24607D03*
X79568Y-23607D03*
X80568Y-24607D03*
X80568Y-23607D03*
X81568Y-24607D03*
X81568Y-23607D03*
G54D18*
X66160Y-86200D03*
X71987Y-86200D03*
G54D19*
X65924Y-88546D03*
X72223Y-88546D03*
G54D18*
X56960Y-86200D03*
X62787Y-86200D03*
G54D19*
X56724Y-88546D03*
X63023Y-88546D03*
G54D18*
X47760Y-86200D03*
X53587Y-86200D03*
G54D19*
X47524Y-88546D03*
X53823Y-88546D03*
G54D18*
X75360Y-86200D03*
X81187Y-86200D03*
G54D19*
X75124Y-88546D03*
X81423Y-88546D03*
G54D20*
X52701Y-28010D03*
X58800Y-28010D03*
G54D21*
X53500Y-26809D03*
X58000Y-26809D03*
G54D22*
X56498Y-29309D03*
X57998Y-30309D03*
X56998Y-30309D03*
X55998Y-30309D03*
X54998Y-30309D03*
X55498Y-29309D03*
X54498Y-29309D03*
X57498Y-29309D03*
G54D23*
X58361Y-25211D03*
X57361Y-25211D03*
X54140Y-25211D03*
X53140Y-25211D03*
G54D22*
X53498Y-29309D03*
X53998Y-30309D03*
G54D16*
X60447Y-35605D03*
X60447Y-37605D03*
G54D24*
X91489Y-85012D03*
X97986Y-85012D03*
G54D25*
X91489Y-87681D03*
X97986Y-87681D03*
G54D24*
X101261Y-85012D03*
X107758Y-85012D03*
G54D25*
X101261Y-87681D03*
X107758Y-87681D03*
G54D26*
X95075Y-23785D03*
X97075Y-23785D03*
G54D27*
X104014Y-27921D03*
X104014Y-25559D03*
X102164Y-26740D03*
X88780Y-27861D03*
X88780Y-25499D03*
X86930Y-26680D03*
G54D28*
X109631Y-71407D03*
G54D29*
X108843Y-71013D03*
X109631Y-70620D03*
X108843Y-70226D03*
X109631Y-69832D03*
X108843Y-69438D03*
X109631Y-69045D03*
X108843Y-68651D03*
X109631Y-68257D03*
X108843Y-67864D03*
X109631Y-67470D03*
X108843Y-66289D03*
X109631Y-65895D03*
X108843Y-65501D03*
X109631Y-65108D03*
X108843Y-64714D03*
X109631Y-64320D03*
X108843Y-63927D03*
X109631Y-63533D03*
X108843Y-63139D03*
X109631Y-62746D03*
X108843Y-62352D03*
X109631Y-61958D03*
X108843Y-61564D03*
X109631Y-61171D03*
X108843Y-60777D03*
X109631Y-60383D03*
X108843Y-59990D03*
X109631Y-59596D03*
X108843Y-59202D03*
X109631Y-58809D03*
X108843Y-58415D03*
X109631Y-58021D03*
X108843Y-57627D03*
X109631Y-57234D03*
X108843Y-56840D03*
X109631Y-56446D03*
X108843Y-56053D03*
X109631Y-55659D03*
X108843Y-55265D03*
X109631Y-54872D03*
X108843Y-54478D03*
X109631Y-54084D03*
X108843Y-53690D03*
X109631Y-53297D03*
X108843Y-52903D03*
X109631Y-52509D03*
X108843Y-52116D03*
X110615Y-71407D03*
X111402Y-71013D03*
X110615Y-70620D03*
X111402Y-70226D03*
X110615Y-69832D03*
X111402Y-69438D03*
X110615Y-69045D03*
X111402Y-68651D03*
X110615Y-68257D03*
X111402Y-67864D03*
X110615Y-67470D03*
X111402Y-66289D03*
X110615Y-65895D03*
X111402Y-65501D03*
X110615Y-65108D03*
X111402Y-64714D03*
X110615Y-64320D03*
X111402Y-63927D03*
X110615Y-63533D03*
X111402Y-63139D03*
X110615Y-62746D03*
X111402Y-62352D03*
X110615Y-61958D03*
X111402Y-61564D03*
X110615Y-61171D03*
X111402Y-60777D03*
X110615Y-60383D03*
X111402Y-59990D03*
X110615Y-59596D03*
X111402Y-59202D03*
X110615Y-58809D03*
X111402Y-58415D03*
X110615Y-58021D03*
X111402Y-57627D03*
X110615Y-57234D03*
X111402Y-56840D03*
X110615Y-56446D03*
X111402Y-56053D03*
X110615Y-55659D03*
X111402Y-55265D03*
X110615Y-54872D03*
X111402Y-54478D03*
X110615Y-54084D03*
X111402Y-53690D03*
X110615Y-53297D03*
X111402Y-52903D03*
X110615Y-52509D03*
X111402Y-52116D03*
X109631Y-51722D03*
X110615Y-51722D03*
G54D17*
X101772Y-50488D03*
G54D14*
X101772Y-49488D03*
X102772Y-50488D03*
X102772Y-49488D03*
X103772Y-50488D03*
X103772Y-49488D03*
X104772Y-50488D03*
X104772Y-49488D03*
X105772Y-50488D03*
X105772Y-49488D03*
G54D17*
X68890Y-23340D03*
G54D14*
X68890Y-24340D03*
X68890Y-25340D03*
X68890Y-26340D03*
X68890Y-27340D03*
G54D17*
X89130Y-88558D03*
G54D14*
X89130Y-87558D03*
X89130Y-86558D03*
X89130Y-85558D03*
X89130Y-84558D03*
G54D17*
X75172Y-49040D03*
G54D14*
X75172Y-48040D03*
X75172Y-47040D03*
X75172Y-46040D03*
X75172Y-45040D03*
G54D17*
X94331Y-67307D03*
G54D14*
X94331Y-66307D03*
X94331Y-65307D03*
G54D17*
X91969Y-68071D03*
G54D14*
X92969Y-68071D03*
G54D30*
X98450Y-49900D03*
G54D31*
X99453Y-48896D03*
X99453Y-50903D03*
X97446Y-50903D03*
X97446Y-48896D03*
G54D30*
X93900Y-49900D03*
G54D31*
X94903Y-48896D03*
X94903Y-50903D03*
X92896Y-50903D03*
X92896Y-48896D03*
G54D32*
X57350Y-68300D03*
X59100Y-77500D03*
X56250Y-68600D03*
X72850Y-80300D03*
X72850Y-81350D03*
X63950Y-79900D03*
X63950Y-80900D03*
X58100Y-77500D03*
X94400Y-71750D03*
X94400Y-70500D03*
X94400Y-69200D03*
G54D33*
X86298Y-45211D03*
X84816Y-52744D03*
X86041Y-44962D03*
X84651Y-52297D03*
X85077Y-44374D03*
X85245Y-53516D03*
X86653Y-52256D03*
X86429Y-43482D03*
X85730Y-43706D03*
X86409Y-52318D03*
X84846Y-54307D03*
X87303Y-46601D03*
X86919Y-44568D03*
X85645Y-53902D03*
X84445Y-53892D03*
X86029Y-45575D03*
X85697Y-45961D03*
X83675Y-54332D03*
X85641Y-53105D03*
X86031Y-44047D03*
X85723Y-46242D03*
X83627Y-53113D03*
X86039Y-44711D03*
X84029Y-53508D03*
X86350Y-46243D03*
X84460Y-54298D03*
X86049Y-53108D03*
X86823Y-43948D03*
X86951Y-45058D03*
X85548Y-52099D03*
X84810Y-53100D03*
X85407Y-45928D03*
X85434Y-44330D03*
X85359Y-51962D03*
X85428Y-45580D03*
X85276Y-52300D03*
X84779Y-45929D03*
X83657Y-53502D03*
X84775Y-44035D03*
X86419Y-52706D03*
X84743Y-44718D03*
X84435Y-53112D03*
X84441Y-44718D03*
X84475Y-53516D03*
X83046Y-45533D03*
X82485Y-53120D03*
X83346Y-44758D03*
X82464Y-52303D03*
X81701Y-53096D03*
X82266Y-44044D03*
X82161Y-46666D03*
X81603Y-52195D03*
X80928Y-53095D03*
X81605Y-44658D03*
X80907Y-52372D03*
X81459Y-46102D03*
X81505Y-44410D03*
X80511Y-52698D03*
X81487Y-45796D03*
X80442Y-52300D03*
X83205Y-46240D03*
X82890Y-52762D03*
X83505Y-44344D03*
X82902Y-52360D03*
X84073Y-53122D03*
X83841Y-45919D03*
X84075Y-52352D03*
X84144Y-44350D03*
X83625Y-52270D03*
X83833Y-46243D03*
X84083Y-44674D03*
X83731Y-51552D03*
X82890Y-44354D03*
X82491Y-52729D03*
X82263Y-45926D03*
X81882Y-52189D03*
X83261Y-53512D03*
X82996Y-44701D03*
X83567Y-45604D03*
X83669Y-52020D03*
X83265Y-53140D03*
X83517Y-45926D03*
X84990Y-46696D03*
X84048Y-54307D03*
X83665Y-53926D03*
X84430Y-45551D03*
X86443Y-53473D03*
X86352Y-45931D03*
X82899Y-53521D03*
X82413Y-45466D03*
X81354Y-52219D03*
X82249Y-44364D03*
X82584Y-44698D03*
X81305Y-52724D03*
X84939Y-45472D03*
X85638Y-52726D03*
X82090Y-56267D03*
X103526Y-83358D03*
X82488Y-56266D03*
X103919Y-83357D03*
X104312Y-83356D03*
X80133Y-55099D03*
X79719Y-55099D03*
X104117Y-83042D03*
X87586Y-55066D03*
X106282Y-83359D03*
X105691Y-83040D03*
X87571Y-55508D03*
X105101Y-83359D03*
X87604Y-57452D03*
X104510Y-83041D03*
X87622Y-58267D03*
X106675Y-83359D03*
X87216Y-55066D03*
X106085Y-83040D03*
X87163Y-55529D03*
X87207Y-57450D03*
X105494Y-83356D03*
X104904Y-83040D03*
X87205Y-58268D03*
X81699Y-58231D03*
X93755Y-83041D03*
X94148Y-83040D03*
X82076Y-58217D03*
X83640Y-57062D03*
X81310Y-60197D03*
X94541Y-83039D03*
X79594Y-59821D03*
X94345Y-83353D03*
X96510Y-83041D03*
X88511Y-54492D03*
X95919Y-83349D03*
X88455Y-55433D03*
X88421Y-57742D03*
X95329Y-83043D03*
X88481Y-58752D03*
X94738Y-83350D03*
X87976Y-54702D03*
X96904Y-83042D03*
X88803Y-55436D03*
X96314Y-83350D03*
X95722Y-83041D03*
X88006Y-57497D03*
X95132Y-83346D03*
X88717Y-58678D03*
X57727Y-36916D03*
X62276Y-32357D03*
X55678Y-34446D03*
X53908Y-38485D03*
X81305Y-55494D03*
X55673Y-38470D03*
X81301Y-54668D03*
X55669Y-39892D03*
X82094Y-55087D03*
X81705Y-55094D03*
X55698Y-39112D03*
X53367Y-38292D03*
X80139Y-56668D03*
X53366Y-34312D03*
X81688Y-55471D03*
X53367Y-35091D03*
X82488Y-55483D03*
X53366Y-35891D03*
X82484Y-55086D03*
X80935Y-54310D03*
X53366Y-36710D03*
X53366Y-37491D03*
X80527Y-54310D03*
X54233Y-37161D03*
X79735Y-56670D03*
X80919Y-55100D03*
X54990Y-38379D03*
X54143Y-37403D03*
X80927Y-55500D03*
X54469Y-37616D03*
X80539Y-55100D03*
X80125Y-54295D03*
X54720Y-38118D03*
X54734Y-38367D03*
X79734Y-54299D03*
X57228Y-37003D03*
X50638Y-30044D03*
X56203Y-35152D03*
X55095Y-34704D03*
X55298Y-38394D03*
X56655Y-37790D03*
X57069Y-37476D03*
X52336Y-35891D03*
X54233Y-36058D03*
X52335Y-37491D03*
G54D34*
X51931Y-40191D03*
G54D33*
X52336Y-36710D03*
X52337Y-35091D03*
X54070Y-37004D03*
X90809Y-60687D03*
X86030Y-54688D03*
X90465Y-65500D03*
X90316Y-60682D03*
X90465Y-65000D03*
X86063Y-57828D03*
X86427Y-57414D03*
X85641Y-55492D03*
X86027Y-55868D03*
X86461Y-58242D03*
X86391Y-58584D03*
X86025Y-56635D03*
X85659Y-56680D03*
X87121Y-59774D03*
X86861Y-59406D03*
X87207Y-59436D03*
X87161Y-59022D03*
X88492Y-59226D03*
X87999Y-59438D03*
X86057Y-58234D03*
X85621Y-57812D03*
X86021Y-57090D03*
X85639Y-57468D03*
X86796Y-54672D03*
X86786Y-54267D03*
X88790Y-53933D03*
X87607Y-53496D03*
X88821Y-52972D03*
X87951Y-53101D03*
X88409Y-60217D03*
X87966Y-60172D03*
X86447Y-59018D03*
X86027Y-58642D03*
X88000Y-58625D03*
X87609Y-58674D03*
X85659Y-56286D03*
X85261Y-56270D03*
X86811Y-53877D03*
X87171Y-53907D03*
X88518Y-54098D03*
X87571Y-54272D03*
X88447Y-53312D03*
X87991Y-53507D03*
X88920Y-59855D03*
X87606Y-59432D03*
X86031Y-55084D03*
X86401Y-55042D03*
X86436Y-55502D03*
X86026Y-55432D03*
X87218Y-53500D03*
X86387Y-56683D03*
X89980Y-57540D03*
X86817Y-57051D03*
X89970Y-58200D03*
X91250Y-56445D03*
X87259Y-56242D03*
X90800Y-56445D03*
X87586Y-56281D03*
X87221Y-53117D03*
X85622Y-55097D03*
X99636Y-54010D03*
X85229Y-55068D03*
X85243Y-55475D03*
X86438Y-53896D03*
X83665Y-54686D03*
X83667Y-55081D03*
X80518Y-53114D03*
G54D35*
X75002Y-53901D03*
G54D33*
X90123Y-71066D03*
X82882Y-60193D03*
X87227Y-61711D03*
G54D35*
X81254Y-74680D03*
G54D33*
X82815Y-76500D03*
X83705Y-70810D03*
X83670Y-58628D03*
X83705Y-71066D03*
X83275Y-58232D03*
X82521Y-58213D03*
X83705Y-71322D03*
X84029Y-59380D03*
X83705Y-70042D03*
X83665Y-59022D03*
X83705Y-70298D03*
X82881Y-58626D03*
X83706Y-76441D03*
X88924Y-69018D03*
X87603Y-60200D03*
X87604Y-60987D03*
X88668Y-69018D03*
X86380Y-60598D03*
X85085Y-77798D03*
X85341Y-77797D03*
X86407Y-61006D03*
X86826Y-60198D03*
X88284Y-77316D03*
X88291Y-77068D03*
X86754Y-61046D03*
X85204Y-59806D03*
X88924Y-77798D03*
X85632Y-60197D03*
X88981Y-77544D03*
X84451Y-57841D03*
X88412Y-69018D03*
X84850Y-58231D03*
X88156Y-69018D03*
X86363Y-69019D03*
X87211Y-60594D03*
X87219Y-61018D03*
X86107Y-69019D03*
X85851Y-69019D03*
X86026Y-59798D03*
X86433Y-60190D03*
X85595Y-69015D03*
X85639Y-59422D03*
X83705Y-77464D03*
X84829Y-77797D03*
X85659Y-59789D03*
X82486Y-59414D03*
X85597Y-77797D03*
X83705Y-74137D03*
X86041Y-59042D03*
X86418Y-59806D03*
X83705Y-74393D03*
X85251Y-58638D03*
X83230Y-74954D03*
X83705Y-74905D03*
X85617Y-58988D03*
X88136Y-61915D03*
X83482Y-75161D03*
X87952Y-62084D03*
X83704Y-75417D03*
X84846Y-58632D03*
X83705Y-75672D03*
X83705Y-75928D03*
X84846Y-59019D03*
X83705Y-71578D03*
X81702Y-60211D03*
X81921Y-61100D03*
X83705Y-71834D03*
X81672Y-60601D03*
X83705Y-72090D03*
X81293Y-61012D03*
X83705Y-72346D03*
X80917Y-60202D03*
X83705Y-72601D03*
X83705Y-72857D03*
X80926Y-61006D03*
X83705Y-73113D03*
X80909Y-60614D03*
X83705Y-73369D03*
X80526Y-61042D03*
X89691Y-69018D03*
X84828Y-59377D03*
X82881Y-59807D03*
X90814Y-76953D03*
X90815Y-76697D03*
X82487Y-59812D03*
X84060Y-58624D03*
X90814Y-76441D03*
X90815Y-76185D03*
X83332Y-57854D03*
X81711Y-59857D03*
X90815Y-75929D03*
X82093Y-59807D03*
X90815Y-75673D03*
X86619Y-69019D03*
X83274Y-59018D03*
X83257Y-59375D03*
X87131Y-69019D03*
X86032Y-60188D03*
X90123Y-71834D03*
X82882Y-59020D03*
X86875Y-69019D03*
X82093Y-59019D03*
X87387Y-69019D03*
X89436Y-69018D03*
X84480Y-59388D03*
X103328Y-83049D03*
X81307Y-56262D03*
X93042Y-55976D03*
X93558Y-83357D03*
X81693Y-56261D03*
X92636Y-56503D03*
X80220Y-62645D03*
X80518Y-59807D03*
X77295Y-53110D03*
X89358Y-80289D03*
X80523Y-53530D03*
X82083Y-54691D03*
X81729Y-54328D03*
X50865Y-45850D03*
X76639Y-53754D03*
X50865Y-46550D03*
X76400Y-53768D03*
X50865Y-47250D03*
X79689Y-53894D03*
X50865Y-44450D03*
X50865Y-45150D03*
X80517Y-53926D03*
X80519Y-60200D03*
X75761Y-60815D03*
X80151Y-53128D03*
X77067Y-53281D03*
X72643Y-59599D03*
X75564Y-53900D03*
X78143Y-60913D03*
X82487Y-57432D03*
X82111Y-57817D03*
X76004Y-60614D03*
X80914Y-57840D03*
X72693Y-40057D03*
X80915Y-57447D03*
X72189Y-39719D03*
X72297Y-39522D03*
X80520Y-59448D03*
X80914Y-59017D03*
X72190Y-39324D03*
X80124Y-57840D03*
X72299Y-39128D03*
X79085Y-58243D03*
X71686Y-38428D03*
X71489Y-38323D03*
X80535Y-58612D03*
X70899Y-38427D03*
X80912Y-58228D03*
X80886Y-57025D03*
X71489Y-40812D03*
X72188Y-40112D03*
X81306Y-57444D03*
X70505Y-40917D03*
X80518Y-57445D03*
X70702Y-40812D03*
X81306Y-59018D03*
X80904Y-59448D03*
X73163Y-56122D03*
X71095Y-40812D03*
X77788Y-63509D03*
X90061Y-80289D03*
X84445Y-62530D03*
X82881Y-58234D03*
X76968Y-27311D03*
X87961Y-80289D03*
X89723Y-60847D03*
X76150Y-26881D03*
X89456Y-61176D03*
X87260Y-80289D03*
X87198Y-60190D03*
X83495Y-62560D03*
X82485Y-58625D03*
X81703Y-59016D03*
X82289Y-62446D03*
X47160Y-81069D03*
X55360Y-81069D03*
X76083Y-83727D03*
X66883Y-83728D03*
X74123Y-83727D03*
X57683Y-83727D03*
X48483Y-83727D03*
X64859Y-78577D03*
X64933Y-83727D03*
X64859Y-75569D03*
X85113Y-61607D03*
X78524Y-79297D03*
X78918Y-79316D03*
X85221Y-60169D03*
X79115Y-79626D03*
X85508Y-61191D03*
X79508Y-79626D03*
X85635Y-60591D03*
X79705Y-79325D03*
X84454Y-59806D03*
X80099Y-79331D03*
X84849Y-59807D03*
X77138Y-78874D03*
X84435Y-58642D03*
X84062Y-59807D03*
X77933Y-79626D03*
X78327Y-79626D03*
X84048Y-60172D03*
X81303Y-59803D03*
X77070Y-79616D03*
X84445Y-59005D03*
X77114Y-79113D03*
X82487Y-59019D03*
X75861Y-79354D03*
X69324Y-79354D03*
X81712Y-62012D03*
X69718Y-79347D03*
X81930Y-62206D03*
X69914Y-79626D03*
X83471Y-61089D03*
X70308Y-79626D03*
X83260Y-60211D03*
X70506Y-79300D03*
X83078Y-61123D03*
X70899Y-79312D03*
X83274Y-61254D03*
X68536Y-79408D03*
X82287Y-61090D03*
X84067Y-61081D03*
X68734Y-79625D03*
X84450Y-60190D03*
X69127Y-79625D03*
X67947Y-79625D03*
X82459Y-60203D03*
X68340Y-79627D03*
X82093Y-60580D03*
X68142Y-79414D03*
X82460Y-60568D03*
X50924Y-79359D03*
X80516Y-56655D03*
X51318Y-79343D03*
X80914Y-56657D03*
X51515Y-79625D03*
X79731Y-55880D03*
X51910Y-79625D03*
X80147Y-55878D03*
X52106Y-79349D03*
X79733Y-55478D03*
X52499Y-79342D03*
X80912Y-55871D03*
X78697Y-55249D03*
X80948Y-56229D03*
X50137Y-79478D03*
X79719Y-56264D03*
X50334Y-79629D03*
X80525Y-56270D03*
X50727Y-79623D03*
X72371Y-54787D03*
X79669Y-54672D03*
X49546Y-79633D03*
X49940Y-79629D03*
X78314Y-55092D03*
X80507Y-54666D03*
X73418Y-54865D03*
X80512Y-55854D03*
X49743Y-79478D03*
X79731Y-57834D03*
X60124Y-79348D03*
X80517Y-57848D03*
X60518Y-79354D03*
X79740Y-58634D03*
X60715Y-79625D03*
X61109Y-79625D03*
X80136Y-58619D03*
X81700Y-57445D03*
X61305Y-79344D03*
X61699Y-79343D03*
X81701Y-57837D03*
X62668Y-78420D03*
X79318Y-59658D03*
X59533Y-79628D03*
X81715Y-57043D03*
X59928Y-79625D03*
X82111Y-57042D03*
X78977Y-59481D03*
X62456Y-77946D03*
X59142Y-79488D03*
X62453Y-78263D03*
X77102Y-61876D03*
X80516Y-59021D03*
X58948Y-79663D03*
X79231Y-59006D03*
X76844Y-61878D03*
X62663Y-78106D03*
G54D34*
X96882Y-30050D03*
X105271Y-37790D03*
X105279Y-35536D03*
X101095Y-36436D03*
X100450Y-35611D03*
X102250Y-36151D03*
X103750Y-35641D03*
X101866Y-37112D03*
X100459Y-37056D03*
X103406Y-37049D03*
X106497Y-35471D03*
X106488Y-37739D03*
X106470Y-36664D03*
X92210Y-26684D03*
X92429Y-28050D03*
X111150Y-31850D03*
X104384Y-46924D03*
X105500Y-47038D03*
X104845Y-44776D03*
X104871Y-43377D03*
X109550Y-31800D03*
G54D33*
X83277Y-59804D03*
X77656Y-65462D03*
G54D35*
X81048Y-71818D03*
G54D33*
X77768Y-26882D03*
X88942Y-61353D03*
X85160Y-80289D03*
X85677Y-58614D03*
X78568Y-27311D03*
X88640Y-61012D03*
X86424Y-59413D03*
X86560Y-80289D03*
G54D35*
X65644Y-24615D03*
G54D33*
X69752Y-40112D03*
X66412Y-24597D03*
X67615Y-38450D03*
X68733Y-35471D03*
X69696Y-39325D03*
X69798Y-39128D03*
X79502Y-59451D03*
X82486Y-53901D03*
X51123Y-80387D03*
X80296Y-81867D03*
X80296Y-82643D03*
X79902Y-81867D03*
X79902Y-82644D03*
X79311Y-81868D03*
X79311Y-82643D03*
X78721Y-81870D03*
X78721Y-82632D03*
X78130Y-82643D03*
X78130Y-81875D03*
X78721Y-79624D03*
X78721Y-80399D03*
X79902Y-79624D03*
X80296Y-80400D03*
X79902Y-80399D03*
X70702Y-79624D03*
X70701Y-80396D03*
X105297Y-83137D03*
X105888Y-83316D03*
X104707Y-83319D03*
X93472Y-83028D03*
X78726Y-85057D03*
X79317Y-85057D03*
X79907Y-85057D03*
X79907Y-86320D03*
X79317Y-86320D03*
X78726Y-86320D03*
X78136Y-86320D03*
X78136Y-85057D03*
X76955Y-85056D03*
X68372Y-86630D03*
X68936Y-86319D03*
X69527Y-86320D03*
X70117Y-86320D03*
X70708Y-86320D03*
X70708Y-85057D03*
X70117Y-85057D03*
X69527Y-85057D03*
X68936Y-85057D03*
X67754Y-85057D03*
X61508Y-85056D03*
X61508Y-86320D03*
X60917Y-85057D03*
X60917Y-86319D03*
X60326Y-86320D03*
X60326Y-85057D03*
X59736Y-85057D03*
X59736Y-86320D03*
X58555Y-85057D03*
X58554Y-86320D03*
X49355Y-85057D03*
X49355Y-86319D03*
X50536Y-86319D03*
X51126Y-86320D03*
X51717Y-86320D03*
X52307Y-86320D03*
X52308Y-85057D03*
X51717Y-85057D03*
X51127Y-85057D03*
X50536Y-85057D03*
X93360Y-84622D03*
X104707Y-84620D03*
X103723Y-84620D03*
X103132Y-84620D03*
X105888Y-84620D03*
X106479Y-84621D03*
X105298Y-84620D03*
X87613Y-54701D03*
X82881Y-57055D03*
X86865Y-58279D03*
X86445Y-57762D03*
X87621Y-56638D03*
X49615Y-53636D03*
X93983Y-81800D03*
X102118Y-82485D03*
X103722Y-83144D03*
X103157Y-83197D03*
X96116Y-83126D03*
X94935Y-83165D03*
G54D35*
X71224Y-79492D03*
G54D33*
X82261Y-75942D03*
G54D35*
X95385Y-74368D03*
X95377Y-76370D03*
G54D34*
X48850Y-31850D03*
X47650Y-31850D03*
X47650Y-32650D03*
X47650Y-33350D03*
G54D33*
X48850Y-32208D03*
G54D34*
X46850Y-33950D03*
X46850Y-34950D03*
X46850Y-35750D03*
X47250Y-36150D03*
X47250Y-35350D03*
X47250Y-34450D03*
X48850Y-33750D03*
X50050Y-32050D03*
X50850Y-32050D03*
X50850Y-32750D03*
X50850Y-33550D03*
X50850Y-34350D03*
X50850Y-35050D03*
G54D33*
X49623Y-32790D03*
G54D34*
X50050Y-34250D03*
X50050Y-33550D03*
X50050Y-32950D03*
G54D35*
X92400Y-56593D03*
G54D33*
X77428Y-56292D03*
X74492Y-60625D03*
X72642Y-61823D03*
X66133Y-83947D03*
X65631Y-83910D03*
G54D35*
X90836Y-74649D03*
X84416Y-76187D03*
G54D33*
X84451Y-55867D03*
G54D35*
X90486Y-66000D03*
X93019Y-65000D03*
X93021Y-66499D03*
X93021Y-66001D03*
X53735Y-58911D03*
X58066Y-60410D03*
X58881Y-60410D03*
X58006Y-61910D03*
X58270Y-63473D03*
X49352Y-46485D03*
X48541Y-46484D03*
X47887Y-48090D03*
X52840Y-47033D03*
X52839Y-44789D03*
X47499Y-42815D03*
X51932Y-41559D03*
X50932Y-41558D03*
X48331Y-41558D03*
X47332Y-41559D03*
X49325Y-38660D03*
X48350Y-38660D03*
X50910Y-36100D03*
X50272Y-31078D03*
X61241Y-26392D03*
X61242Y-27392D03*
X61242Y-29992D03*
X61242Y-30992D03*
X61244Y-31992D03*
X59176Y-50753D03*
X87804Y-31727D03*
X69098Y-39382D03*
X68376Y-40457D03*
G54D33*
X89730Y-55300D03*
G54D35*
X83027Y-64228D03*
X80646Y-63960D03*
X79310Y-65442D03*
X78499Y-65771D03*
X84932Y-68844D03*
X85528Y-69868D03*
X87469Y-68666D03*
X89180Y-70759D03*
X87901Y-70758D03*
X84226Y-69397D03*
X85493Y-70554D03*
X89076Y-75424D03*
X89075Y-73624D03*
X89080Y-72594D03*
G54D34*
X92211Y-24266D03*
X111149Y-29791D03*
X109550Y-29790D03*
X101350Y-33641D03*
X102850Y-33640D03*
G54D33*
X68407Y-36215D03*
X69060Y-36215D03*
X65157Y-49954D03*
X95755Y-38944D03*
X91989Y-37042D03*
X105400Y-48787D03*
X104911Y-51598D03*
X101667Y-82373D03*
X93951Y-83326D03*
X94935Y-84619D03*
X93950Y-84619D03*
X96707Y-83357D03*
X95526Y-83358D03*
X96706Y-84620D03*
X96116Y-84620D03*
X95525Y-84620D03*
X87202Y-82385D03*
X89260Y-81838D03*
X80490Y-83896D03*
X77579Y-86634D03*
X75333Y-83895D03*
X74834Y-83895D03*
X69521Y-79628D03*
X71096Y-81876D03*
X71096Y-82635D03*
X70702Y-82636D03*
X70112Y-82634D03*
X69523Y-82631D03*
X68930Y-82639D03*
X71290Y-83876D03*
X56932Y-83895D03*
X61895Y-79631D03*
X61896Y-80382D03*
X61895Y-81885D03*
X61895Y-82634D03*
X61502Y-82634D03*
X60911Y-82635D03*
X60321Y-82628D03*
X59730Y-82636D03*
X62089Y-83895D03*
X51121Y-79637D03*
X52302Y-79623D03*
X52696Y-80391D03*
X52696Y-82629D03*
X52302Y-82631D03*
X51713Y-82632D03*
X51122Y-82635D03*
X50531Y-82640D03*
X52700Y-81874D03*
X52886Y-83895D03*
X47733Y-83895D03*
X92976Y-71373D03*
X92975Y-72074D03*
X90815Y-72346D03*
X90815Y-72858D03*
X83706Y-73626D03*
X85458Y-73874D03*
X85666Y-76522D03*
X86076Y-76536D03*
X88156Y-77795D03*
X90967Y-77527D03*
X89966Y-78532D03*
X90959Y-78648D03*
G54D35*
X56650Y-34075D03*
X55075Y-33946D03*
X58951Y-39118D03*
X58852Y-37641D03*
X57883Y-37822D03*
G54D33*
X54605Y-39112D03*
X52336Y-34311D03*
X52335Y-38291D03*
X55388Y-35992D03*
G54D35*
X55650Y-36609D03*
G54D33*
X56108Y-35965D03*
X62494Y-37605D03*
X62484Y-35606D03*
X48111Y-32790D03*
X48850Y-35721D03*
X47672Y-31059D03*
X50631Y-25216D03*
X73209Y-41066D03*
X70812Y-42219D03*
X71297Y-42434D03*
X71853Y-41901D03*
X70657Y-39959D03*
X71004Y-39608D03*
X70657Y-39280D03*
X71336Y-39280D03*
X71336Y-39959D03*
G54D34*
X102661Y-46177D03*
G54D35*
X59445Y-53022D03*
G54D34*
X106889Y-43039D03*
X106680Y-40780D03*
X106733Y-42085D03*
X107687Y-46910D03*
X107470Y-45629D03*
X107243Y-45274D03*
X106583Y-44614D03*
X107228Y-44641D03*
X106580Y-43762D03*
X106895Y-44176D03*
X107207Y-43762D03*
G54D33*
X69761Y-35479D03*
X70391Y-35213D03*
X88460Y-57030D03*
X80913Y-59812D03*
X81317Y-57838D03*
X81309Y-58636D03*
X81309Y-55891D03*
X79312Y-80411D03*
X78130Y-80414D03*
X70112Y-80413D03*
X68926Y-80411D03*
X81699Y-54687D03*
X82876Y-59407D03*
X83311Y-58667D03*
X84089Y-59046D03*
X80127Y-59020D03*
X80905Y-54674D03*
X81309Y-53513D03*
X86793Y-53113D03*
G54D35*
X79611Y-60692D03*
G54D33*
X80119Y-57466D03*
X84454Y-56264D03*
X84854Y-56651D03*
X85243Y-58237D03*
X86446Y-54707D03*
X86457Y-56318D03*
X86806Y-60589D03*
X86425Y-57068D03*
X82093Y-60205D03*
X84857Y-55862D03*
X87221Y-55852D03*
G54D34*
X61421Y-46973D03*
X61011Y-47443D03*
X60981Y-48573D03*
X61021Y-49433D03*
X61941Y-50343D03*
X61847Y-53463D03*
X62169Y-54128D03*
X62190Y-55913D03*
X62197Y-55031D03*
X55166Y-66699D03*
X53605Y-66419D03*
X53479Y-65355D03*
X54242Y-65054D03*
X54340Y-65880D03*
X54284Y-66874D03*
X53038Y-66832D03*
X51750Y-67060D03*
X91378Y-34146D03*
G54D35*
X92837Y-46086D03*
X96437Y-46286D03*
G54D33*
X86040Y-59425D03*
G54D34*
X105513Y-39212D03*
X106549Y-39205D03*
X103197Y-42586D03*
X102653Y-44770D03*
X103625Y-41256D03*
X102575Y-41276D03*
X100885Y-41186D03*
X100395Y-39806D03*
X101895Y-40306D03*
X103415Y-40126D03*
X104625Y-40756D03*
X93911Y-34693D03*
X94170Y-33220D03*
X93096Y-33249D03*
X92228Y-33312D03*
X88563Y-33871D03*
X88178Y-34494D03*
X86519Y-34508D03*
X87198Y-34417D03*
X89226Y-34387D03*
X89208Y-33888D03*
X90558Y-34374D03*
X89888Y-34126D03*
X90527Y-33892D03*
X54578Y-60749D03*
X55740Y-60728D03*
X55159Y-64928D03*
X54663Y-61310D03*
X55446Y-61319D03*
X55474Y-62842D03*
X55070Y-62110D03*
X54774Y-62856D03*
X61916Y-51269D03*
X61941Y-51853D03*
X61952Y-52502D03*
X97737Y-45096D03*
X98202Y-44736D03*
X98187Y-45606D03*
X98052Y-46176D03*
X96343Y-43261D03*
X96819Y-42939D03*
X95972Y-46362D03*
X96182Y-45844D03*
X96203Y-45305D03*
X95412Y-46488D03*
X95517Y-46012D03*
X95489Y-45501D03*
X95437Y-44280D03*
X95441Y-44752D03*
X95465Y-43846D03*
G54D35*
X92837Y-45286D03*
X92837Y-44486D03*
X92837Y-42586D03*
X92837Y-43486D03*
X91188Y-31026D03*
X56344Y-36959D03*
X55417Y-37363D03*
G54D33*
X50527Y-81878D03*
X51116Y-81875D03*
X51707Y-81876D03*
X52301Y-81873D03*
X50533Y-80391D03*
X51713Y-80395D03*
X52304Y-80385D03*
X61504Y-80381D03*
X60913Y-80381D03*
X60322Y-80379D03*
X59732Y-80376D03*
X61504Y-81875D03*
X60909Y-81879D03*
X60319Y-81881D03*
X59728Y-81892D03*
X68927Y-81883D03*
X69519Y-81878D03*
X70109Y-81884D03*
X70703Y-81879D03*
X69523Y-80398D03*
G54D35*
X77571Y-58678D03*
G54D33*
X89026Y-52762D03*
X81566Y-47140D03*
X81939Y-46784D03*
X84032Y-53888D03*
X83205Y-41272D03*
X83616Y-41263D03*
X84027Y-41260D03*
X84420Y-41257D03*
X84882Y-41399D03*
X85325Y-41260D03*
X85693Y-41260D03*
X86109Y-41250D03*
X87120Y-41275D03*
X87516Y-41281D03*
X88356Y-41281D03*
X87906Y-41287D03*
X83596Y-52753D03*
X80157Y-55522D03*
X79418Y-52483D03*
X79185Y-57855D03*
X82883Y-44048D03*
X83279Y-55870D03*
X87999Y-55432D03*
X83272Y-57449D03*
X84456Y-57050D03*
X84848Y-57050D03*
X79165Y-54050D03*
X80125Y-53906D03*
X87621Y-58992D03*
X87951Y-53927D03*
X83661Y-55861D03*
X84847Y-57836D03*
X89584Y-43487D03*
X89571Y-43882D03*
X89593Y-44302D03*
X89566Y-44707D03*
X89616Y-46588D03*
X89613Y-46192D03*
X89607Y-45787D03*
X89593Y-45418D03*
X86903Y-43482D03*
X86841Y-46579D03*
X89593Y-47494D03*
X86637Y-41278D03*
X85884Y-46999D03*
X85377Y-46276D03*
X85991Y-43432D03*
X83671Y-43631D03*
X83513Y-44038D03*
X83397Y-42578D03*
X85235Y-43580D03*
X84149Y-44038D03*
X84150Y-45928D03*
X82258Y-42448D03*
X80901Y-43046D03*
X81792Y-43639D03*
X82104Y-43681D03*
X81955Y-45348D03*
X81088Y-45787D03*
X82587Y-47023D03*
X82794Y-42475D03*
X88482Y-60730D03*
X85954Y-53935D03*
X85242Y-54688D03*
X85197Y-53117D03*
X82092Y-53102D03*
X83650Y-60214D03*
X89613Y-51719D03*
X84922Y-42560D03*
X85276Y-60608D03*
X84462Y-44354D03*
X85213Y-46630D03*
X73450Y-61008D03*
X73534Y-60115D03*
X86435Y-55852D03*
X53282Y-53636D03*
X71096Y-56317D03*
X82489Y-54691D03*
X56223Y-33006D03*
X56648Y-33008D03*
X57251Y-38776D03*
X58136Y-38690D03*
X90816Y-71578D03*
G54D35*
X89376Y-32062D03*
X89780Y-32476D03*
X56036Y-60310D03*
X53717Y-61519D03*
X56592Y-61913D03*
X56870Y-60645D03*
X57335Y-61010D03*
X59271Y-61243D03*
X90048Y-32272D03*
X60308Y-51568D03*
X60076Y-52365D03*
X60341Y-51953D03*
X53070Y-61537D03*
X53268Y-60689D03*
X58470Y-61243D03*
G54D34*
X96530Y-34212D03*
X94628Y-29460D03*
X94628Y-28645D03*
G54D35*
X106145Y-42576D03*
X107845Y-42576D03*
X52752Y-62239D03*
G54D33*
X76758Y-86322D03*
X67558Y-86316D03*
X55950Y-80239D03*
X47750Y-80239D03*
X65450Y-74750D03*
X93160Y-82172D03*
X102935Y-82170D03*
G54D35*
X59141Y-53553D03*
X56002Y-59610D03*
G54D34*
X57462Y-65586D03*
X57357Y-66531D03*
G54D33*
X71423Y-35214D03*
G54D34*
X57059Y-64187D03*
X57347Y-64570D03*
G54D35*
X57133Y-63712D03*
X88189Y-31155D03*
G54D34*
X93883Y-36230D03*
X92930Y-36219D03*
X63147Y-47112D03*
X64031Y-47043D03*
X64391Y-49013D03*
X64101Y-48643D03*
X64201Y-47533D03*
X57020Y-62970D03*
G54D35*
X56857Y-62503D03*
G54D33*
X66248Y-75917D03*
X48547Y-81418D03*
X56748Y-81418D03*
G54D34*
X56944Y-65803D03*
X91363Y-35369D03*
X91195Y-36209D03*
X93085Y-35327D03*
X63968Y-50789D03*
X63660Y-50530D03*
X63905Y-49949D03*
X63828Y-49438D03*
G54D33*
X87586Y-55872D03*
G54D34*
X66227Y-54707D03*
X66241Y-55960D03*
X65331Y-55932D03*
X64561Y-55960D03*
X64008Y-55554D03*
X64008Y-54399D03*
X64365Y-54833D03*
G54D33*
X87960Y-57090D03*
X89373Y-55258D03*
X88889Y-58186D03*
X83273Y-56658D03*
X82879Y-56658D03*
X82875Y-57448D03*
X86831Y-55452D03*
X86811Y-56662D03*
X86824Y-57446D03*
X83667Y-55476D03*
X84061Y-55869D03*
X84849Y-56262D03*
X84060Y-57842D03*
X83269Y-55486D03*
X84081Y-56254D03*
X83670Y-57440D03*
X82489Y-57839D03*
G54D35*
X63831Y-56047D03*
X63133Y-56069D03*
G54D33*
X84848Y-55081D03*
X83251Y-56272D03*
X85242Y-56657D03*
X84848Y-55476D03*
X84456Y-56655D03*
X84062Y-57050D03*
X85245Y-57841D03*
X84455Y-57445D03*
G54D34*
X87290Y-38893D03*
G54D33*
X81174Y-46693D03*
X86019Y-53500D03*
G54D34*
X86612Y-36993D03*
X86769Y-36471D03*
X87206Y-36147D03*
X86333Y-37996D03*
X87719Y-36142D03*
X87714Y-36813D03*
X87273Y-37155D03*
G54D35*
X94197Y-43486D03*
X93913Y-43049D03*
X86268Y-36180D03*
X86244Y-35418D03*
G54D33*
X84841Y-42996D03*
X81715Y-53906D03*
X84828Y-53909D03*
X80901Y-52720D03*
X87603Y-53116D03*
X86037Y-52722D03*
X84036Y-54679D03*
X83292Y-53920D03*
X82851Y-53088D03*
X84079Y-52758D03*
X86616Y-42732D03*
G54D35*
X85713Y-47290D03*
X86103Y-47365D03*
G54D33*
X83397Y-42911D03*
X83595Y-44755D03*
X84126Y-46228D03*
X83346Y-47044D03*
X84528Y-47041D03*
X80589Y-43744D03*
X81696Y-42821D03*
X81093Y-46450D03*
X82788Y-42820D03*
X82449Y-47242D03*
X82083Y-56648D03*
X80125Y-59806D03*
X81302Y-60590D03*
X79602Y-80636D03*
X79012Y-80618D03*
X78420Y-80608D03*
X77558Y-80730D03*
X70414Y-80628D03*
X69824Y-80634D03*
X69211Y-80607D03*
G54D35*
X62070Y-79341D03*
G54D33*
X80364Y-78884D03*
X79652Y-78580D03*
X78962Y-78584D03*
X78467Y-78578D03*
X70932Y-78599D03*
X70474Y-78598D03*
X69759Y-78644D03*
X69286Y-78646D03*
G54D35*
X56858Y-39591D03*
G54D33*
X103254Y-51588D03*
G54D35*
X71293Y-80417D03*
G54D33*
X81999Y-77516D03*
G54D35*
X76380Y-56292D03*
G54D33*
X58640Y-83727D03*
X75178Y-59603D03*
G54D35*
X67633Y-83916D03*
X52871Y-79557D03*
X80453Y-79584D03*
X98173Y-44087D03*
X48586Y-36600D03*
X48346Y-37335D03*
X48332Y-40242D03*
X47333Y-40240D03*
X48542Y-45618D03*
X49351Y-45618D03*
X51650Y-47250D03*
X51650Y-45850D03*
X51486Y-44450D03*
X84436Y-64180D03*
G54D34*
X51225Y-70090D03*
G54D33*
X94945Y-58780D03*
X91820Y-73888D03*
X77041Y-83727D03*
X62975Y-77241D03*
X62135Y-77409D03*
X62828Y-79446D03*
X49925Y-80934D03*
X49600Y-78443D03*
X50745Y-78666D03*
X49441Y-83727D03*
X92976Y-69973D03*
X92976Y-70673D03*
X90640Y-77842D03*
X75050Y-80838D03*
X74836Y-80251D03*
X75050Y-79786D03*
X68340Y-80774D03*
X65836Y-79350D03*
X65835Y-80250D03*
X65835Y-81150D03*
X54757Y-38668D03*
X62541Y-27392D03*
X60503Y-25211D03*
X62542Y-26392D03*
X62277Y-26028D03*
X72184Y-40468D03*
X69719Y-39717D03*
X71854Y-40878D03*
X78829Y-54301D03*
G54D35*
X74428Y-59451D03*
X71687Y-60706D03*
X75350Y-63526D03*
G54D34*
X78221Y-67915D03*
G54D35*
X79811Y-65017D03*
G54D33*
X84454Y-55475D03*
X85251Y-55862D03*
X85645Y-57044D03*
X81303Y-54322D03*
G54D34*
X52257Y-70090D03*
X51738Y-69380D03*
X51739Y-70798D03*
G54D33*
X83644Y-59379D03*
X86816Y-59806D03*
X87613Y-60636D03*
X86049Y-60605D03*
X84455Y-60593D03*
X84089Y-58270D03*
X85040Y-69734D03*
G54D35*
X90465Y-66500D03*
G54D33*
X82883Y-60596D03*
X82094Y-59414D03*
X81693Y-58638D03*
X87997Y-59880D03*
X85853Y-77797D03*
X84399Y-70554D03*
X85221Y-59047D03*
X86011Y-56252D03*
X85636Y-58234D03*
X82515Y-54314D03*
X82483Y-57047D03*
X81299Y-55096D03*
X82095Y-55478D03*
X78511Y-52442D03*
X79741Y-53126D03*
X80121Y-54671D03*
X80909Y-53901D03*
X84454Y-58231D03*
X86801Y-59022D03*
X85991Y-57442D03*
X86436Y-54289D03*
X87597Y-53908D03*
X80126Y-58229D03*
X81703Y-56648D03*
X83272Y-55086D03*
X82477Y-55862D03*
X80127Y-56266D03*
X83668Y-58234D03*
X84430Y-73881D03*
X87900Y-69710D03*
X89179Y-69710D03*
X90123Y-72601D03*
X90123Y-73625D03*
X90123Y-75417D03*
X84397Y-76952D03*
G54D35*
X100462Y-80272D03*
X91122Y-80604D03*
G54D34*
X49726Y-70090D03*
X50326Y-64190D03*
X50123Y-65880D03*
X51665Y-65934D03*
X50870Y-64361D03*
X50218Y-64721D03*
G54D35*
X49510Y-62240D03*
X50340Y-62280D03*
X94337Y-44886D03*
X94437Y-45386D03*
X94537Y-45586D03*
G54D33*
X90011Y-47792D03*
X90011Y-47292D03*
X89911Y-46392D03*
X89911Y-45992D03*
X89911Y-45592D03*
X89911Y-44892D03*
X89911Y-44492D03*
X89911Y-44092D03*
X89911Y-43692D03*
X89911Y-43192D03*
X89111Y-41892D03*
X89411Y-41992D03*
X89411Y-42392D03*
X88811Y-42392D03*
X88811Y-42792D03*
X89711Y-42792D03*
X89711Y-42092D03*
X89711Y-41592D03*
X89111Y-41592D03*
X89631Y-46940D03*
X83202Y-41618D03*
X87109Y-41606D03*
X87527Y-41612D03*
X87913Y-41616D03*
X88356Y-41602D03*
X89187Y-43495D03*
X89193Y-43876D03*
X89199Y-44298D03*
X89203Y-44687D03*
X89569Y-45144D03*
X86637Y-41758D03*
X85321Y-41610D03*
X85715Y-41602D03*
X86109Y-41599D03*
X83610Y-41617D03*
X84003Y-41608D03*
X84411Y-41614D03*
X84864Y-41764D03*
X84457Y-55084D03*
X85255Y-54316D03*
X89238Y-52402D03*
X82880Y-55476D03*
X84055Y-55470D03*
X83715Y-46940D03*
X84957Y-43582D03*
G54D36*
X83640Y-57062D02*
X83293Y-57062D01*
X83293Y-57062D02*
X83070Y-57285D01*
X83070Y-57285D02*
X83070Y-57546D01*
X83070Y-57546D02*
X82960Y-57656D01*
X82960Y-57656D02*
X81606Y-57656D01*
X81606Y-57656D02*
X81504Y-57758D01*
X81504Y-57758D02*
X81504Y-60003D01*
X81504Y-60003D02*
X81310Y-60197D01*
X81896Y-54818D02*
X81896Y-55544D01*
X79263Y-53511D02*
X79475Y-53299D01*
X79475Y-53299D02*
X81009Y-53299D01*
X81009Y-53299D02*
X81084Y-53374D01*
X81084Y-53374D02*
X81084Y-53627D01*
X81084Y-53627D02*
X81521Y-54064D01*
X81521Y-54064D02*
X81806Y-54064D01*
X81806Y-54064D02*
X81896Y-54154D01*
X81896Y-54154D02*
X81896Y-54818D01*
X53908Y-38485D02*
X53908Y-39233D01*
X73108Y-53511D02*
X79101Y-53511D01*
X64196Y-44598D02*
X73108Y-53511D01*
X64196Y-42737D02*
X64196Y-44598D01*
X63167Y-41708D02*
X64196Y-42737D01*
X56383Y-41708D02*
X63167Y-41708D01*
X53908Y-39233D02*
X56383Y-41708D01*
X79101Y-53511D02*
X79263Y-53511D01*
X81896Y-55544D02*
X81768Y-55672D01*
X81768Y-55672D02*
X81483Y-55672D01*
X81483Y-55672D02*
X81305Y-55494D01*
X53782Y-34896D02*
X53867Y-34896D01*
X75065Y-55597D02*
X79303Y-55597D01*
X79303Y-55597D02*
X79468Y-55432D01*
X79468Y-55432D02*
X79468Y-54232D01*
X64105Y-44636D02*
X64105Y-42775D01*
X64105Y-42775D02*
X63130Y-41800D01*
X56346Y-41800D02*
X53729Y-39183D01*
X63130Y-41800D02*
X56346Y-41800D01*
X64105Y-44636D02*
X75065Y-55597D01*
X81375Y-54118D02*
X79582Y-54118D01*
X79582Y-54118D02*
X79468Y-54232D01*
X81497Y-54240D02*
X81375Y-54118D01*
X53729Y-34949D02*
X53729Y-39183D01*
X53782Y-34896D02*
X53729Y-34949D01*
X53867Y-34896D02*
X53911Y-34852D01*
X53788Y-34734D02*
X53860Y-34734D01*
X53911Y-34785D02*
X53911Y-34852D01*
X53860Y-34734D02*
X53911Y-34785D01*
X53366Y-34312D02*
X53552Y-34312D01*
X53552Y-34312D02*
X53729Y-34489D01*
X53729Y-34675D02*
X53788Y-34734D01*
X53729Y-34489D02*
X53729Y-34675D01*
X81374Y-54117D02*
X81497Y-54240D01*
X81497Y-54240D02*
X81497Y-55279D01*
X81497Y-55279D02*
X81688Y-55471D01*
X55467Y-42164D02*
X57411Y-42164D01*
X57411Y-42164D02*
X57789Y-42542D01*
X55467Y-42164D02*
X52752Y-39449D01*
X53367Y-35091D02*
X53018Y-35091D01*
X53018Y-35091D02*
X52752Y-35357D01*
X52752Y-35357D02*
X52752Y-39449D01*
X82315Y-55968D02*
X82315Y-55803D01*
X81890Y-56334D02*
X81890Y-56231D01*
X81890Y-56231D02*
X82025Y-56096D01*
X82025Y-56096D02*
X82188Y-56096D01*
X82188Y-56096D02*
X82315Y-55968D01*
X82315Y-55803D02*
X82442Y-55677D01*
X82488Y-55483D02*
X82568Y-55562D01*
X82568Y-55562D02*
X82568Y-55640D01*
X82568Y-55640D02*
X82531Y-55677D01*
X82531Y-55677D02*
X82442Y-55677D01*
X81784Y-56440D02*
X81890Y-56334D01*
X63738Y-44784D02*
X74915Y-55962D01*
X78778Y-55962D02*
X79654Y-56838D01*
X78778Y-55962D02*
X74915Y-55962D01*
X57789Y-42542D02*
X63355Y-42542D01*
X63355Y-42542D02*
X63738Y-42925D01*
X63738Y-42925D02*
X63738Y-44784D01*
X80238Y-56838D02*
X80345Y-56731D01*
X80345Y-56731D02*
X80345Y-56554D01*
X80345Y-56554D02*
X80459Y-56440D01*
X80459Y-56440D02*
X81784Y-56440D01*
X79654Y-56838D02*
X80238Y-56838D01*
X79659Y-56445D02*
X80201Y-56445D01*
X80422Y-56064D02*
X81830Y-56064D01*
X80310Y-56176D02*
X80422Y-56064D01*
X80310Y-56336D02*
X80310Y-56176D01*
X80201Y-56445D02*
X80310Y-56336D01*
X81830Y-56064D02*
X81882Y-56012D01*
X81882Y-55840D02*
X81882Y-56012D01*
X81882Y-56012D02*
X81830Y-56064D01*
X82484Y-55086D02*
X82359Y-55086D01*
X82048Y-55674D02*
X81882Y-55840D01*
X82176Y-55674D02*
X82048Y-55674D01*
X82282Y-55568D02*
X82176Y-55674D01*
X82282Y-55164D02*
X82282Y-55568D01*
X82359Y-55086D02*
X82282Y-55164D01*
X55509Y-42073D02*
X52844Y-39407D01*
X58320Y-42274D02*
X57956Y-42274D01*
X79659Y-56445D02*
X79085Y-55871D01*
X74953Y-55871D02*
X79085Y-55871D01*
X52998Y-35891D02*
X52844Y-36046D01*
X52844Y-36046D02*
X52844Y-39407D01*
X57959Y-42451D02*
X63394Y-42451D01*
X63394Y-42451D02*
X63831Y-42888D01*
X63831Y-42888D02*
X63831Y-44749D01*
X53366Y-35891D02*
X52998Y-35891D01*
X55509Y-42073D02*
X58318Y-42073D01*
X58318Y-42073D02*
X58376Y-42131D01*
X58376Y-42131D02*
X58376Y-42218D01*
X58376Y-42218D02*
X58320Y-42274D01*
X57956Y-42274D02*
X57902Y-42328D01*
X57902Y-42328D02*
X57902Y-42394D01*
X57902Y-42394D02*
X57959Y-42451D01*
X63831Y-44749D02*
X74953Y-55871D01*
X58579Y-42190D02*
X59974Y-42190D01*
X58577Y-42360D02*
X63432Y-42360D01*
X63922Y-42850D02*
X63922Y-44711D01*
X63432Y-42360D02*
X63922Y-42850D01*
X79344Y-55780D02*
X74991Y-55780D01*
X81116Y-55576D02*
X81116Y-54490D01*
X81116Y-54490D02*
X80935Y-54310D01*
X79344Y-55780D02*
X79616Y-56052D01*
X58579Y-42190D02*
X58536Y-42233D01*
X58536Y-42233D02*
X58536Y-42319D01*
X58536Y-42319D02*
X58577Y-42360D01*
X63922Y-44711D02*
X74991Y-55780D01*
X80256Y-56052D02*
X80333Y-55976D01*
X80333Y-55976D02*
X80333Y-55801D01*
X80333Y-55801D02*
X80447Y-55687D01*
X80447Y-55687D02*
X81005Y-55687D01*
X81005Y-55687D02*
X81116Y-55576D01*
X79616Y-56052D02*
X80256Y-56052D01*
X60026Y-42038D02*
X59970Y-41982D01*
X60026Y-42138D02*
X60026Y-42038D01*
X59974Y-42190D02*
X60026Y-42138D01*
X53366Y-36710D02*
X53063Y-36710D01*
X53063Y-36710D02*
X52938Y-36835D01*
X55547Y-41982D02*
X59970Y-41982D01*
X52938Y-39373D02*
X52938Y-36835D01*
X52938Y-39373D02*
X55547Y-41982D01*
X63105Y-42074D02*
X60485Y-42074D01*
X63092Y-41891D02*
X63157Y-41955D01*
X63157Y-42022D02*
X63105Y-42074D01*
X63157Y-41955D02*
X63157Y-42022D01*
X53030Y-37660D02*
X53198Y-37491D01*
X53030Y-39331D02*
X53030Y-37660D01*
X55590Y-41891D02*
X53030Y-39331D01*
X63092Y-41891D02*
X55590Y-41891D01*
X53366Y-37491D02*
X53198Y-37491D01*
X60435Y-42215D02*
X60481Y-42261D01*
X60435Y-42124D02*
X60435Y-42215D01*
X60485Y-42074D02*
X60435Y-42124D01*
X79220Y-55689D02*
X79764Y-55689D01*
X80516Y-55345D02*
X80706Y-55155D01*
X80108Y-55345D02*
X80516Y-55345D01*
X79764Y-55689D02*
X80108Y-55345D01*
X75029Y-55689D02*
X64013Y-44673D01*
X64013Y-44673D02*
X64013Y-42812D01*
X80706Y-55155D02*
X80706Y-54488D01*
X80706Y-54488D02*
X80527Y-54310D01*
X75029Y-55689D02*
X79220Y-55689D01*
X63462Y-42261D02*
X64013Y-42812D01*
X63462Y-42261D02*
X60481Y-42261D01*
X98563Y-53752D02*
X105584Y-53752D01*
X85553Y-56841D02*
X85433Y-56961D01*
X85433Y-56961D02*
X85433Y-57505D01*
X85433Y-57505D02*
X85564Y-57636D01*
X85564Y-57636D02*
X85673Y-57636D01*
X85673Y-57636D02*
X85865Y-57828D01*
X85865Y-57828D02*
X86063Y-57828D01*
X105830Y-53998D02*
X105584Y-53752D01*
X105830Y-53998D02*
X105830Y-56333D01*
X97794Y-56841D02*
X98226Y-56409D01*
X85553Y-56841D02*
X97794Y-56841D01*
X98226Y-54089D02*
X98563Y-53752D01*
X98226Y-56409D02*
X98226Y-54089D01*
X106497Y-57002D02*
X107769Y-57002D01*
X105830Y-56335D02*
X106497Y-57002D01*
X108149Y-58508D02*
X108843Y-59202D01*
X108149Y-57382D02*
X108149Y-58508D01*
X107769Y-57002D02*
X108149Y-57382D01*
X98730Y-54007D02*
X99120Y-54007D01*
X98681Y-53893D02*
X98681Y-53958D01*
X98681Y-53958D02*
X98730Y-54007D01*
X109631Y-59596D02*
X108755Y-59596D01*
X108057Y-58545D02*
X108057Y-57452D01*
X108477Y-58965D02*
X108057Y-58545D01*
X108477Y-59318D02*
X108477Y-58965D01*
X108755Y-59596D02*
X108477Y-59318D01*
X106461Y-57095D02*
X107700Y-57095D01*
X107700Y-57095D02*
X108057Y-57452D01*
X98730Y-53843D02*
X105546Y-53843D01*
X105546Y-53843D02*
X105738Y-54035D01*
X106461Y-57095D02*
X105738Y-56372D01*
X105738Y-54035D02*
X105738Y-56372D01*
X98730Y-53843D02*
X98681Y-53893D01*
X88864Y-56934D02*
X97834Y-56934D01*
X97834Y-56934D02*
X98317Y-56451D01*
X86576Y-57266D02*
X88532Y-57266D01*
X86427Y-57414D02*
X86576Y-57266D01*
X88864Y-56934D02*
X88532Y-57266D01*
X98317Y-56451D02*
X98317Y-54552D01*
X98317Y-54223D02*
X98384Y-54156D01*
X98317Y-54552D02*
X98317Y-54223D01*
X98384Y-54156D02*
X99118Y-54156D01*
X99120Y-54007D02*
X99163Y-54050D01*
X99163Y-54050D02*
X99163Y-54111D01*
X99163Y-54111D02*
X99118Y-54156D01*
X104810Y-57335D02*
X107589Y-60113D01*
X99967Y-57335D02*
X104810Y-57335D01*
X110491Y-59990D02*
X110139Y-60342D01*
X111402Y-59990D02*
X110491Y-59990D01*
X110139Y-62848D02*
X110139Y-60342D01*
X109924Y-63064D02*
X109502Y-63064D01*
X109502Y-63064D02*
X109122Y-62684D01*
X109122Y-62684D02*
X108364Y-62684D01*
X108364Y-62684D02*
X107589Y-61909D01*
X110139Y-62848D02*
X109924Y-63064D01*
X107589Y-61909D02*
X107589Y-60113D01*
X98837Y-58465D02*
X88777Y-58465D01*
X86684Y-58465D02*
X88777Y-58465D01*
X86684Y-58465D02*
X86461Y-58242D01*
X98837Y-58465D02*
X99967Y-57335D01*
X100291Y-57633D02*
X100006Y-57633D01*
X89212Y-58556D02*
X88837Y-58932D01*
X98874Y-58556D02*
X89212Y-58556D01*
X86639Y-58832D02*
X88314Y-58832D01*
X88314Y-58832D02*
X88414Y-58932D01*
X86391Y-58584D02*
X86639Y-58832D01*
X88837Y-58932D02*
X88414Y-58932D01*
X100296Y-57841D02*
X99589Y-57841D01*
X99589Y-57841D02*
X98874Y-58556D01*
X100291Y-57633D02*
X100352Y-57694D01*
X100352Y-57694D02*
X100352Y-57785D01*
X100352Y-57785D02*
X100296Y-57841D01*
X99942Y-57488D02*
X99942Y-57569D01*
X99942Y-57569D02*
X100006Y-57633D01*
X110231Y-62886D02*
X109961Y-63155D01*
X104772Y-57426D02*
X100004Y-57426D01*
X107497Y-60151D02*
X104772Y-57426D01*
X107497Y-61946D02*
X107497Y-60151D01*
X108326Y-62775D02*
X107497Y-61946D01*
X109084Y-62775D02*
X108326Y-62775D01*
X109464Y-63155D02*
X109084Y-62775D01*
X109961Y-63155D02*
X109464Y-63155D01*
X110231Y-60768D02*
X110615Y-60383D01*
X110231Y-62886D02*
X110231Y-60768D01*
X100004Y-57426D02*
X99942Y-57488D01*
X86216Y-54154D02*
X86270Y-54100D01*
X85831Y-56440D02*
X85831Y-54539D01*
X85831Y-54539D02*
X86216Y-54154D01*
X86025Y-56635D02*
X85831Y-56440D01*
X107665Y-51851D02*
X90213Y-51851D01*
X88282Y-53136D02*
X88929Y-53136D01*
X88134Y-53284D02*
X88282Y-53136D01*
X88929Y-53136D02*
X89387Y-52677D01*
X89387Y-52677D02*
X90213Y-51851D01*
X108983Y-53341D02*
X108033Y-53341D01*
X108033Y-53341D02*
X107882Y-53190D01*
X111035Y-53271D02*
X111402Y-52903D01*
X111035Y-53536D02*
X111035Y-53271D01*
X110831Y-53740D02*
X111035Y-53536D01*
X109382Y-53740D02*
X110831Y-53740D01*
X108983Y-53341D02*
X109382Y-53740D01*
X107665Y-51851D02*
X107716Y-51801D01*
X107716Y-51801D02*
X107716Y-51692D01*
X107716Y-51692D02*
X107757Y-51651D01*
X107882Y-51691D02*
X107842Y-51651D01*
X107842Y-51651D02*
X107757Y-51651D01*
X107882Y-53190D02*
X107882Y-51691D01*
X86270Y-54098D02*
X86270Y-53421D01*
X86270Y-53421D02*
X86407Y-53284D01*
X86407Y-53284D02*
X88134Y-53284D01*
X86124Y-54116D02*
X86178Y-54062D01*
X86641Y-52921D02*
X88476Y-52921D01*
X86178Y-53383D02*
X86641Y-52921D01*
X86178Y-54062D02*
X86178Y-53383D01*
X107974Y-53136D02*
X107974Y-51204D01*
X107623Y-51707D02*
X107623Y-51203D01*
X107974Y-51204D02*
X107891Y-51121D01*
X107891Y-51121D02*
X107705Y-51121D01*
X107570Y-51760D02*
X107623Y-51707D01*
X88476Y-52921D02*
X88797Y-52599D01*
X89336Y-52599D02*
X90176Y-51760D01*
X88797Y-52599D02*
X89336Y-52599D01*
X90176Y-51760D02*
X107570Y-51760D01*
X107623Y-51203D02*
X107705Y-51121D01*
X110263Y-53648D02*
X110615Y-53297D01*
X109419Y-53648D02*
X110263Y-53648D01*
X109020Y-53249D02*
X109419Y-53648D01*
X108087Y-53249D02*
X107974Y-53136D01*
X109020Y-53249D02*
X108087Y-53249D01*
X85659Y-56680D02*
X85659Y-56548D01*
X85458Y-54783D02*
X86124Y-54116D01*
X85458Y-56347D02*
X85458Y-54783D01*
X85659Y-56548D02*
X85458Y-56347D01*
X87386Y-60261D02*
X87386Y-59746D01*
X106795Y-65180D02*
X106731Y-65245D01*
X87794Y-60372D02*
X87945Y-60523D01*
X87497Y-60372D02*
X87794Y-60372D01*
X87386Y-60261D02*
X87497Y-60372D01*
X107236Y-64984D02*
X107298Y-65045D01*
X107298Y-65120D02*
X107237Y-65180D01*
X107298Y-65045D02*
X107298Y-65120D01*
X106576Y-64597D02*
X105544Y-64597D01*
X106580Y-64328D02*
X103453Y-64328D01*
X103453Y-64328D02*
X99648Y-60523D01*
X99648Y-60523D02*
X87945Y-60523D01*
X106657Y-64404D02*
X106657Y-64516D01*
X106657Y-64516D02*
X106576Y-64597D01*
X106580Y-64328D02*
X106657Y-64404D01*
X105546Y-64984D02*
X107236Y-64984D01*
X105436Y-64874D02*
X105546Y-64984D01*
X105436Y-64704D02*
X105436Y-64874D01*
X105544Y-64597D02*
X105436Y-64704D01*
X87207Y-59436D02*
X87207Y-59567D01*
X87207Y-59567D02*
X87386Y-59746D01*
X107237Y-65180D02*
X106795Y-65180D01*
X106782Y-65370D02*
X106731Y-65319D01*
X106731Y-65319D02*
X106731Y-65245D01*
X107712Y-68308D02*
X108843Y-69438D01*
X107712Y-68308D02*
X107712Y-65460D01*
X107622Y-65370D02*
X107712Y-65460D01*
X107622Y-65370D02*
X106782Y-65370D01*
X107274Y-64893D02*
X105584Y-64893D01*
X107274Y-64893D02*
X107804Y-65423D01*
X109066Y-69045D02*
X108578Y-69045D01*
X109631Y-69832D02*
X109274Y-69475D01*
X109274Y-69253D02*
X109066Y-69045D01*
X109274Y-69475D02*
X109274Y-69253D01*
X108578Y-69045D02*
X107804Y-68270D01*
X107804Y-68270D02*
X107804Y-65423D01*
X105584Y-64893D02*
X105528Y-64836D01*
X106613Y-64688D02*
X105584Y-64688D01*
X105528Y-64745D02*
X105528Y-64836D01*
X105584Y-64688D02*
X105528Y-64745D01*
X106617Y-64236D02*
X106748Y-64367D01*
X106748Y-64553D02*
X106613Y-64688D01*
X106748Y-64367D02*
X106748Y-64553D01*
X87770Y-60207D02*
X87991Y-60429D01*
X87161Y-59022D02*
X87366Y-59226D01*
X87366Y-59226D02*
X87366Y-59564D01*
X87770Y-59968D02*
X87770Y-60207D01*
X87366Y-59564D02*
X87770Y-59968D01*
X99683Y-60429D02*
X103490Y-64236D01*
X106617Y-64236D02*
X103490Y-64236D01*
X87991Y-60429D02*
X99683Y-60429D01*
X88492Y-59226D02*
X103169Y-59226D01*
X103167Y-59043D02*
X103218Y-59094D01*
X103218Y-59094D02*
X103218Y-59178D01*
X103218Y-59178D02*
X103169Y-59226D01*
X104789Y-58047D02*
X100619Y-58047D01*
X107134Y-60391D02*
X104789Y-58047D01*
X107134Y-62191D02*
X107134Y-60391D01*
X108434Y-63491D02*
X107134Y-62191D01*
X108578Y-64320D02*
X108434Y-64176D01*
X108434Y-64176D02*
X108434Y-63491D01*
X108578Y-64320D02*
X109631Y-64320D01*
X100427Y-58239D02*
X100619Y-58047D01*
X100427Y-58846D02*
X100427Y-58239D01*
X100624Y-59043D02*
X100427Y-58846D01*
X100624Y-59043D02*
X103167Y-59043D01*
X103241Y-58952D02*
X100664Y-58952D01*
X87999Y-59438D02*
X88542Y-59438D01*
X88663Y-59317D02*
X88542Y-59438D01*
X103326Y-59037D02*
X103241Y-58952D01*
X103326Y-59254D02*
X103326Y-59037D01*
X103263Y-59317D02*
X103326Y-59254D01*
X100656Y-58138D02*
X100518Y-58276D01*
X108342Y-64213D02*
X108342Y-63528D01*
X108342Y-63528D02*
X107042Y-62228D01*
X107042Y-62228D02*
X107042Y-60429D01*
X107042Y-60429D02*
X104751Y-58138D01*
X104751Y-58138D02*
X100656Y-58138D01*
X108342Y-64213D02*
X108843Y-64714D01*
X100518Y-58806D02*
X100664Y-58952D01*
X100518Y-58276D02*
X100518Y-58806D01*
X103263Y-59317D02*
X88663Y-59317D01*
X99273Y-55254D02*
X99211Y-55316D01*
X98947Y-55644D02*
X98861Y-55730D01*
X99916Y-55644D02*
X98947Y-55644D01*
X99972Y-55588D02*
X99916Y-55644D01*
X99972Y-55511D02*
X99972Y-55588D01*
X99912Y-55451D02*
X99972Y-55511D01*
X99273Y-55451D02*
X99912Y-55451D01*
X99211Y-55390D02*
X99273Y-55451D01*
X99211Y-55316D02*
X99211Y-55390D01*
X108018Y-59269D02*
X105348Y-56599D01*
X98861Y-57592D02*
X98440Y-58013D01*
X98861Y-55730D02*
X98861Y-57592D01*
X105139Y-55254D02*
X99273Y-55254D01*
X105348Y-55463D02*
X105139Y-55254D01*
X105348Y-56599D02*
X105348Y-55463D01*
X108843Y-62352D02*
X108018Y-61527D01*
X108018Y-61527D02*
X108018Y-59269D01*
X86057Y-58234D02*
X86240Y-58234D01*
X86461Y-58013D02*
X98440Y-58013D01*
X86240Y-58234D02*
X86461Y-58013D01*
X99182Y-55163D02*
X105180Y-55163D01*
X98770Y-55575D02*
X99182Y-55163D01*
X109087Y-61975D02*
X108595Y-61975D01*
X105180Y-55163D02*
X105440Y-55423D01*
X105440Y-56562D02*
X105440Y-55423D01*
X109631Y-62746D02*
X109216Y-62330D01*
X109216Y-62104D02*
X109216Y-62330D01*
X109087Y-61975D02*
X109216Y-62104D01*
X108110Y-61410D02*
X108110Y-59232D01*
X108110Y-59232D02*
X105440Y-56562D01*
X108595Y-61975D02*
X108110Y-61489D01*
X108110Y-61489D02*
X108110Y-61410D01*
X85827Y-58018D02*
X86328Y-58018D01*
X85621Y-57812D02*
X85827Y-58018D01*
X86328Y-58018D02*
X86424Y-57922D01*
X86424Y-57922D02*
X98402Y-57922D01*
X98770Y-57554D02*
X98402Y-57922D01*
X98770Y-57554D02*
X98770Y-55575D01*
X97418Y-53378D02*
X97418Y-54423D01*
X96825Y-54867D02*
X97093Y-54867D01*
X96415Y-54864D02*
X96514Y-54764D01*
X96514Y-54764D02*
X96514Y-53375D01*
X96514Y-53375D02*
X96585Y-53304D01*
X96585Y-53304D02*
X96665Y-53304D01*
X96665Y-53304D02*
X96737Y-53376D01*
X96737Y-53376D02*
X96737Y-54779D01*
X96737Y-54779D02*
X96825Y-54867D01*
X86988Y-54864D02*
X86796Y-54672D01*
X86988Y-54864D02*
X96415Y-54864D01*
X97344Y-53304D02*
X97418Y-53378D01*
X97262Y-53304D02*
X97344Y-53304D01*
X97186Y-53380D02*
X97262Y-53304D01*
X97186Y-54774D02*
X97186Y-53380D01*
X97093Y-54867D02*
X97186Y-54774D01*
X97718Y-54510D02*
X97806Y-54422D01*
X97505Y-54510D02*
X97718Y-54510D01*
X97418Y-54423D02*
X97505Y-54510D01*
X97806Y-54422D02*
X97806Y-53402D01*
X97806Y-53402D02*
X97904Y-53304D01*
X108536Y-56533D02*
X106639Y-56533D01*
X105910Y-53304D02*
X97904Y-53304D01*
X106237Y-53631D02*
X105910Y-53304D01*
X106237Y-56131D02*
X106237Y-53631D01*
X106639Y-56533D02*
X106237Y-56131D01*
X108536Y-56533D02*
X108843Y-56840D01*
X97715Y-53350D02*
X97715Y-53799D01*
X97852Y-53213D02*
X97715Y-53350D01*
X109631Y-57234D02*
X109216Y-56819D01*
X109216Y-56588D02*
X109216Y-56819D01*
X109070Y-56442D02*
X109216Y-56588D01*
X109067Y-56442D02*
X109070Y-56442D01*
X106677Y-56442D02*
X106329Y-56094D01*
X106329Y-56094D02*
X106329Y-53588D01*
X106329Y-53588D02*
X105954Y-53213D01*
X109067Y-56442D02*
X106677Y-56442D01*
X105954Y-53213D02*
X97852Y-53213D01*
X97560Y-53853D02*
X97509Y-53802D01*
X97661Y-53853D02*
X97560Y-53853D01*
X97715Y-53799D02*
X97661Y-53853D01*
X96321Y-54772D02*
X96423Y-54671D01*
X96423Y-54671D02*
X96423Y-53337D01*
X96423Y-53337D02*
X96547Y-53213D01*
X96547Y-53213D02*
X96702Y-53213D01*
X96702Y-53213D02*
X96828Y-53338D01*
X96828Y-53338D02*
X96828Y-54693D01*
X96828Y-54693D02*
X96911Y-54775D01*
X96911Y-54775D02*
X97014Y-54775D01*
X97014Y-54775D02*
X97095Y-54695D01*
X97095Y-54695D02*
X97095Y-53335D01*
X97095Y-53335D02*
X97216Y-53213D01*
X87041Y-54522D02*
X88177Y-54522D01*
X88177Y-54522D02*
X88427Y-54772D01*
X86786Y-54267D02*
X87041Y-54522D01*
X88427Y-54772D02*
X96321Y-54772D01*
X97389Y-53213D02*
X97509Y-53333D01*
X97216Y-53213D02*
X97389Y-53213D01*
X97509Y-53333D02*
X97509Y-53802D01*
X108843Y-55265D02*
X108532Y-54955D01*
X108532Y-54955D02*
X107520Y-54955D01*
X107244Y-54679D02*
X107520Y-54955D01*
X91673Y-53819D02*
X91673Y-53340D01*
X91516Y-53886D02*
X91606Y-53886D01*
X91606Y-53886D02*
X91673Y-53819D01*
X90485Y-53933D02*
X90613Y-53805D01*
X90613Y-53805D02*
X90613Y-52529D01*
X90613Y-52529D02*
X90677Y-52465D01*
X90677Y-52465D02*
X90764Y-52465D01*
X90764Y-52465D02*
X90830Y-52531D01*
X90830Y-52531D02*
X90830Y-53805D01*
X90830Y-53805D02*
X90958Y-53933D01*
X88790Y-53933D02*
X90485Y-53933D01*
X91128Y-53933D02*
X91244Y-53816D01*
X91244Y-53816D02*
X91244Y-52525D01*
X91244Y-52525D02*
X91306Y-52464D01*
X91306Y-52464D02*
X91387Y-52464D01*
X91387Y-52464D02*
X91449Y-52526D01*
X91449Y-52526D02*
X91449Y-53819D01*
X90958Y-53933D02*
X91128Y-53933D01*
X91449Y-53819D02*
X91516Y-53886D01*
X91673Y-53340D02*
X91731Y-53282D01*
X91731Y-53282D02*
X91813Y-53282D01*
X92286Y-53815D02*
X92286Y-53350D01*
X94251Y-53933D02*
X94386Y-53798D01*
X94386Y-53798D02*
X94386Y-52571D01*
X94386Y-52571D02*
X94482Y-52475D01*
X94482Y-52475D02*
X107078Y-52475D01*
X107078Y-52475D02*
X107244Y-52641D01*
X107244Y-52641D02*
X107244Y-54679D01*
X92737Y-53933D02*
X94251Y-53933D01*
X92286Y-53815D02*
X92404Y-53933D01*
X92404Y-53933D02*
X92737Y-53933D01*
X92286Y-53350D02*
X92219Y-53283D01*
X92077Y-53818D02*
X92077Y-53348D01*
X92077Y-53348D02*
X92142Y-53283D01*
X91873Y-53812D02*
X91873Y-53342D01*
X92219Y-53283D02*
X92142Y-53283D01*
X91873Y-53812D02*
X91942Y-53881D01*
X91942Y-53881D02*
X92014Y-53881D01*
X92014Y-53881D02*
X92077Y-53818D01*
X91873Y-53342D02*
X91813Y-53282D01*
X109289Y-55062D02*
X109289Y-55317D01*
X109631Y-55659D02*
X109289Y-55317D01*
X107564Y-54864D02*
X107336Y-54635D01*
X107336Y-54635D02*
X107336Y-52603D01*
X107336Y-52603D02*
X107117Y-52384D01*
X107117Y-52384D02*
X94445Y-52384D01*
X94445Y-52384D02*
X94286Y-52543D01*
X109091Y-54864D02*
X107564Y-54864D01*
X109091Y-54864D02*
X109289Y-55062D01*
X87607Y-53496D02*
X87738Y-53496D01*
X87738Y-53496D02*
X87943Y-53701D01*
X92688Y-52466D02*
X92688Y-53753D01*
X92595Y-52373D02*
X92688Y-52466D01*
X92776Y-53841D02*
X92688Y-53753D01*
X94286Y-53769D02*
X94286Y-52543D01*
X94213Y-53841D02*
X94286Y-53769D01*
X94213Y-53841D02*
X92776Y-53841D01*
X91079Y-53841D02*
X91153Y-53767D01*
X91153Y-53767D02*
X91153Y-52486D01*
X91153Y-52486D02*
X91267Y-52373D01*
X88954Y-53841D02*
X90447Y-53841D01*
X90921Y-53767D02*
X90995Y-53841D01*
X90921Y-52490D02*
X90921Y-53767D01*
X90805Y-52374D02*
X90921Y-52490D01*
X90639Y-52374D02*
X90805Y-52374D01*
X90522Y-52491D02*
X90639Y-52374D01*
X90522Y-53767D02*
X90522Y-52491D01*
X90447Y-53841D02*
X90522Y-53767D01*
X88813Y-53701D02*
X88954Y-53841D01*
X87943Y-53701D02*
X88813Y-53701D01*
X90995Y-53841D02*
X91079Y-53841D01*
X91267Y-52373D02*
X92595Y-52373D01*
X95931Y-52866D02*
X95931Y-53873D01*
X107089Y-55649D02*
X109014Y-55649D01*
X109014Y-55649D02*
X109395Y-56030D01*
X109395Y-56030D02*
X111380Y-56030D01*
X111402Y-56053D02*
X111380Y-56030D01*
X96042Y-52756D02*
X106653Y-52756D01*
X106653Y-52756D02*
X106859Y-52961D01*
X106859Y-52961D02*
X106859Y-55419D01*
X106859Y-55419D02*
X107089Y-55649D01*
X95931Y-52866D02*
X96042Y-52756D01*
X95866Y-53938D02*
X95757Y-53938D01*
X95931Y-53873D02*
X95866Y-53938D01*
X95757Y-53938D02*
X95702Y-53883D01*
X95435Y-52756D02*
X95588Y-52756D01*
X95702Y-52870D02*
X95702Y-53883D01*
X95588Y-52756D02*
X95702Y-52870D01*
X95311Y-54048D02*
X95311Y-52880D01*
X94928Y-52756D02*
X95063Y-52890D01*
X95063Y-52890D02*
X95063Y-54048D01*
X95063Y-54048D02*
X95139Y-54124D01*
X95139Y-54124D02*
X95235Y-54124D01*
X95235Y-54124D02*
X95311Y-54048D01*
X94754Y-52756D02*
X94928Y-52756D01*
X95311Y-52880D02*
X95435Y-52756D01*
X88601Y-54181D02*
X94477Y-54181D01*
X94622Y-52888D02*
X94754Y-52756D01*
X94622Y-54036D02*
X94622Y-52888D01*
X94477Y-54181D02*
X94622Y-54036D01*
X88518Y-54098D02*
X88601Y-54181D01*
X96022Y-52922D02*
X96097Y-52847D01*
X109358Y-56122D02*
X110290Y-56122D01*
X108977Y-55741D02*
X109358Y-56122D01*
X107052Y-55741D02*
X106767Y-55456D01*
X106767Y-55456D02*
X106767Y-52999D01*
X106767Y-52999D02*
X106615Y-52847D01*
X108977Y-55741D02*
X107052Y-55741D01*
X110290Y-56122D02*
X110615Y-56446D01*
X96022Y-53912D02*
X96022Y-52922D01*
X96097Y-52847D02*
X106615Y-52847D01*
X95611Y-53924D02*
X95611Y-52999D01*
X95101Y-54219D02*
X95268Y-54219D01*
X95268Y-54219D02*
X95402Y-54085D01*
X94795Y-52847D02*
X94891Y-52847D01*
X94972Y-52928D02*
X94972Y-54090D01*
X94891Y-52847D02*
X94972Y-52928D01*
X94713Y-54084D02*
X94525Y-54272D01*
X94713Y-52929D02*
X94713Y-54084D01*
X94795Y-52847D02*
X94713Y-52929D01*
X94525Y-54272D02*
X87571Y-54272D01*
X94972Y-54090D02*
X95101Y-54219D01*
X95611Y-53924D02*
X95716Y-54029D01*
X95716Y-54029D02*
X95905Y-54029D01*
X95905Y-54029D02*
X96022Y-53912D01*
X95402Y-52991D02*
X95457Y-52937D01*
X95402Y-54085D02*
X95402Y-52991D01*
X95548Y-52937D02*
X95457Y-52937D01*
X95611Y-52999D02*
X95548Y-52937D01*
X88447Y-53312D02*
X88551Y-53416D01*
X89908Y-53201D02*
X89982Y-53201D01*
X89861Y-53248D02*
X89908Y-53201D01*
X89861Y-53364D02*
X89809Y-53416D01*
X89861Y-53364D02*
X89861Y-53248D01*
X107819Y-54061D02*
X109007Y-54061D01*
X109395Y-54449D02*
X111374Y-54449D01*
X109007Y-54061D02*
X109395Y-54449D01*
X88551Y-53416D02*
X89809Y-53416D01*
X90029Y-53248D02*
X89982Y-53201D01*
X90202Y-53340D02*
X90146Y-53397D01*
X90202Y-52261D02*
X90202Y-53340D01*
X93329Y-53416D02*
X93329Y-52151D01*
X93013Y-52069D02*
X93107Y-52163D01*
X93107Y-52163D02*
X93107Y-53415D01*
X93107Y-53415D02*
X93173Y-53480D01*
X93173Y-53480D02*
X93264Y-53480D01*
X93264Y-53480D02*
X93329Y-53416D01*
X90395Y-52069D02*
X93013Y-52069D01*
X93329Y-52151D02*
X93411Y-52069D01*
X90395Y-52069D02*
X90202Y-52261D01*
X90079Y-53397D02*
X90029Y-53347D01*
X90146Y-53397D02*
X90079Y-53397D01*
X90029Y-53347D02*
X90029Y-53248D01*
X107681Y-53923D02*
X107819Y-54061D01*
X93923Y-53415D02*
X93923Y-52153D01*
X93626Y-52069D02*
X93703Y-52146D01*
X93703Y-52146D02*
X93703Y-53412D01*
X93703Y-53412D02*
X93768Y-53477D01*
X93768Y-53477D02*
X93860Y-53477D01*
X93860Y-53477D02*
X93923Y-53415D01*
X93411Y-52069D02*
X93626Y-52069D01*
X93923Y-52153D02*
X94007Y-52069D01*
X107486Y-52069D02*
X94007Y-52069D01*
X107681Y-52264D02*
X107486Y-52069D01*
X107681Y-53923D02*
X107681Y-52264D01*
X107816Y-54153D02*
X107887Y-54153D01*
X107887Y-54153D02*
X108970Y-54153D01*
X108970Y-54153D02*
X109358Y-54541D01*
X109358Y-54541D02*
X110284Y-54541D01*
X110615Y-54872D02*
X110284Y-54541D01*
X87991Y-53507D02*
X90166Y-53507D01*
X90294Y-52298D02*
X90432Y-52160D01*
X90294Y-53380D02*
X90294Y-52298D01*
X90166Y-53507D02*
X90294Y-53380D01*
X92946Y-52160D02*
X93016Y-52230D01*
X93016Y-52230D02*
X93016Y-53452D01*
X93016Y-53452D02*
X93135Y-53572D01*
X93135Y-53572D02*
X93302Y-53572D01*
X93302Y-53572D02*
X93420Y-53453D01*
X93420Y-53453D02*
X93420Y-52212D01*
X93420Y-52212D02*
X93473Y-52160D01*
X90432Y-52160D02*
X92946Y-52160D01*
X93560Y-52160D02*
X93612Y-52212D01*
X93612Y-52212D02*
X93612Y-53450D01*
X93473Y-52160D02*
X93560Y-52160D01*
X107589Y-54347D02*
X107589Y-52301D01*
X107765Y-54347D02*
X107765Y-54204D01*
X107765Y-54204D02*
X107816Y-54153D01*
X107718Y-54394D02*
X107765Y-54347D01*
X93731Y-53569D02*
X93908Y-53569D01*
X107448Y-52160D02*
X107589Y-52301D01*
X94069Y-52160D02*
X107448Y-52160D01*
X93612Y-53450D02*
X93731Y-53569D01*
X94014Y-52215D02*
X94069Y-52160D01*
X94014Y-53462D02*
X94014Y-52215D01*
X93908Y-53569D02*
X94014Y-53462D01*
X107589Y-54347D02*
X107636Y-54394D01*
X107636Y-54394D02*
X107718Y-54394D01*
X108252Y-67070D02*
X108691Y-67070D01*
X108754Y-67207D02*
X108695Y-67266D01*
X108754Y-67133D02*
X108754Y-67207D01*
X108691Y-67070D02*
X108754Y-67133D01*
X108154Y-67996D02*
X108154Y-67370D01*
X108258Y-67266D02*
X108695Y-67266D01*
X108154Y-67370D02*
X108258Y-67266D01*
X108252Y-67070D02*
X108154Y-66972D01*
X108154Y-64084D02*
X108027Y-64211D01*
X108154Y-63829D02*
X108154Y-64084D01*
X108046Y-64412D02*
X108154Y-64520D01*
X88920Y-59855D02*
X88992Y-59927D01*
X105948Y-59927D02*
X106644Y-60623D01*
X88992Y-59927D02*
X105948Y-59927D01*
X108154Y-66972D02*
X108154Y-64520D01*
X108154Y-63828D02*
X106644Y-62318D01*
X106644Y-60623D02*
X106644Y-62318D01*
X107520Y-64412D02*
X108046Y-64412D01*
X107461Y-64353D02*
X107520Y-64412D01*
X107461Y-64264D02*
X107461Y-64353D01*
X107514Y-64211D02*
X107461Y-64264D01*
X108027Y-64211D02*
X107514Y-64211D01*
X110615Y-67470D02*
X110206Y-67879D01*
X109007Y-68239D02*
X109367Y-67879D01*
X110206Y-67879D02*
X109367Y-67879D01*
X108396Y-68239D02*
X108154Y-67997D01*
X109007Y-68239D02*
X108396Y-68239D01*
X108062Y-64568D02*
X108062Y-68045D01*
X107461Y-64503D02*
X107997Y-64503D01*
X107997Y-64503D02*
X108062Y-64568D01*
X108062Y-68045D02*
X108347Y-68330D01*
X108347Y-68330D02*
X109132Y-68330D01*
X110615Y-68257D02*
X110223Y-68650D01*
X109132Y-68330D02*
X109451Y-68650D01*
X110223Y-68650D02*
X109451Y-68650D01*
X107456Y-64120D02*
X107370Y-64206D01*
X107370Y-64206D02*
X107370Y-64412D01*
X107370Y-64412D02*
X107461Y-64503D01*
X108062Y-63865D02*
X108062Y-64047D01*
X108062Y-64047D02*
X107990Y-64120D01*
X105911Y-60019D02*
X88814Y-60019D01*
X106552Y-60660D02*
X105911Y-60019D01*
X106552Y-62355D02*
X106552Y-60660D01*
X108062Y-63865D02*
X106552Y-62355D01*
X87974Y-59657D02*
X87749Y-59432D01*
X87606Y-59432D02*
X87749Y-59432D01*
X87974Y-59657D02*
X88452Y-59657D01*
X88452Y-59657D02*
X88814Y-60019D01*
X107990Y-64120D02*
X107456Y-64120D01*
X85439Y-57781D02*
X85056Y-57398D01*
X85439Y-57781D02*
X85439Y-57967D01*
X85439Y-57967D02*
X85505Y-58033D01*
X85505Y-58033D02*
X85712Y-58033D01*
X85712Y-58033D02*
X85832Y-58153D01*
X85832Y-58153D02*
X85832Y-58317D01*
X85832Y-58317D02*
X85941Y-58426D01*
X85941Y-58426D02*
X86152Y-58426D01*
X86152Y-58426D02*
X86216Y-58490D01*
X86216Y-58490D02*
X86216Y-58724D01*
X86216Y-58724D02*
X86328Y-58836D01*
X86328Y-58836D02*
X86512Y-58836D01*
X86512Y-58836D02*
X86618Y-58942D01*
X86618Y-60688D02*
X86742Y-60812D01*
X86618Y-58942D02*
X86618Y-60688D01*
X86742Y-60812D02*
X87743Y-60812D01*
X88611Y-61680D02*
X98540Y-61680D01*
X106634Y-69774D02*
X98540Y-61680D01*
X87743Y-60812D02*
X88611Y-61680D01*
X83841Y-54862D02*
X83665Y-54686D01*
X84958Y-54862D02*
X83841Y-54862D01*
X85056Y-54960D02*
X84958Y-54862D01*
X85056Y-57398D02*
X85056Y-54960D01*
X110615Y-69832D02*
X110286Y-70162D01*
X109129Y-69775D02*
X106635Y-69775D01*
X109516Y-70162D02*
X109129Y-69775D01*
X110286Y-70162D02*
X109516Y-70162D01*
X84949Y-57615D02*
X84666Y-57332D01*
X106596Y-69866D02*
X109091Y-69866D01*
X109091Y-69866D02*
X109478Y-70253D01*
X109478Y-70253D02*
X110731Y-70253D01*
X110731Y-70253D02*
X111402Y-69582D01*
X111402Y-69438D02*
X111402Y-69582D01*
X88056Y-61267D02*
X88560Y-61771D01*
X88560Y-61771D02*
X98501Y-61771D01*
X88056Y-61267D02*
X86413Y-61267D01*
X86221Y-58905D02*
X86156Y-58840D01*
X86221Y-61075D02*
X86221Y-58905D01*
X86413Y-61267D02*
X86221Y-61075D01*
X85944Y-58840D02*
X86156Y-58840D01*
X85856Y-58752D02*
X85944Y-58840D01*
X85856Y-58513D02*
X85856Y-58752D01*
X85769Y-58426D02*
X85856Y-58513D01*
X85544Y-58426D02*
X85769Y-58426D01*
X85451Y-58333D02*
X85544Y-58426D01*
X85451Y-58162D02*
X85451Y-58333D01*
X85349Y-58060D02*
X85451Y-58162D01*
X85187Y-58060D02*
X85349Y-58060D01*
X85082Y-57955D02*
X85187Y-58060D01*
X85082Y-57748D02*
X85082Y-57955D01*
X84949Y-57615D02*
X85082Y-57748D01*
X98501Y-61771D02*
X106596Y-69866D01*
X83874Y-55288D02*
X83667Y-55081D01*
X84540Y-55288D02*
X83874Y-55288D01*
X84666Y-55414D02*
X84540Y-55288D01*
X84666Y-57332D02*
X84666Y-55414D01*
X82882Y-60193D02*
X82709Y-60367D01*
X82709Y-60788D02*
X82746Y-60825D01*
X82709Y-60367D02*
X82709Y-60788D01*
X82653Y-68038D02*
X82653Y-63948D01*
X82746Y-63483D02*
X82746Y-63856D01*
X82746Y-63483D02*
X82746Y-60825D01*
X83039Y-70577D02*
X83936Y-70577D01*
X82653Y-70191D02*
X83039Y-70577D01*
X82653Y-68038D02*
X82653Y-70191D01*
X90123Y-71066D02*
X84425Y-71066D01*
X84425Y-71066D02*
X83936Y-70577D01*
X82746Y-63856D02*
X82653Y-63948D01*
X82655Y-60001D02*
X82655Y-60252D01*
X82618Y-60840D02*
X82655Y-60877D01*
X82618Y-60290D02*
X82618Y-60840D01*
X82655Y-60252D02*
X82618Y-60290D01*
X83210Y-58835D02*
X83079Y-58966D01*
X83142Y-70810D02*
X83705Y-70810D01*
X82562Y-70230D02*
X82562Y-68174D01*
X83142Y-70810D02*
X82562Y-70230D01*
X82562Y-68174D02*
X82562Y-68076D01*
X82655Y-63668D02*
X82655Y-60877D01*
X82655Y-63818D02*
X82655Y-63668D01*
X82562Y-63910D02*
X82655Y-63818D01*
X82562Y-63910D02*
X82562Y-68076D01*
X82655Y-60001D02*
X82655Y-59317D01*
X82966Y-59213D02*
X83079Y-59100D01*
X82759Y-59213D02*
X82966Y-59213D01*
X83079Y-58966D02*
X83079Y-59100D01*
X82655Y-59317D02*
X82655Y-59316D01*
X82655Y-59316D02*
X82759Y-59213D01*
X83670Y-58628D02*
X83670Y-58658D01*
X83492Y-58835D02*
X83492Y-58835D01*
X83670Y-58658D02*
X83492Y-58835D01*
X83492Y-58835D02*
X83492Y-58835D01*
X83492Y-58835D02*
X83210Y-58835D01*
X82267Y-59375D02*
X82421Y-59221D01*
X82471Y-63873D02*
X82471Y-68113D01*
X83705Y-71066D02*
X83260Y-71066D01*
X82471Y-70277D02*
X82471Y-68588D01*
X83260Y-71066D02*
X82471Y-70277D01*
X82471Y-68588D02*
X82471Y-68113D01*
X82590Y-59221D02*
X82421Y-59221D01*
X82687Y-59124D02*
X82590Y-59221D01*
X82687Y-58539D02*
X82687Y-58654D01*
X82687Y-58654D02*
X82687Y-59124D01*
X82267Y-60361D02*
X82267Y-59375D01*
X82267Y-60657D02*
X82267Y-60361D01*
X82806Y-58420D02*
X82687Y-58539D01*
X83087Y-58420D02*
X82806Y-58420D01*
X83087Y-58420D02*
X83275Y-58232D01*
X82564Y-60954D02*
X82564Y-63705D01*
X82471Y-63873D02*
X82564Y-63781D01*
X82564Y-63781D02*
X82564Y-63705D01*
X82564Y-60954D02*
X82267Y-60657D01*
X82368Y-60890D02*
X82473Y-60995D01*
X82473Y-61350D02*
X82473Y-60995D01*
X82473Y-63743D02*
X82473Y-61350D01*
X82379Y-63837D02*
X82473Y-63743D01*
X82041Y-59214D02*
X81935Y-59320D01*
X82070Y-60890D02*
X82368Y-60890D01*
X81935Y-60754D02*
X82070Y-60890D01*
X81935Y-59320D02*
X81935Y-60754D01*
X82521Y-58213D02*
X82313Y-58421D01*
X82244Y-59214D02*
X82041Y-59214D01*
X82313Y-59145D02*
X82244Y-59214D01*
X82313Y-58421D02*
X82313Y-59145D01*
X83373Y-71322D02*
X83705Y-71322D01*
X82379Y-70328D02*
X82379Y-68468D01*
X83373Y-71322D02*
X82379Y-70328D01*
X82379Y-68468D02*
X82379Y-68149D01*
X82379Y-68149D02*
X82379Y-63837D01*
X82836Y-67962D02*
X82836Y-64030D01*
X84029Y-59380D02*
X84029Y-59614D01*
X83877Y-59766D02*
X84029Y-59614D01*
X83877Y-60773D02*
X83877Y-59766D01*
X83673Y-60977D02*
X83877Y-60773D01*
X82836Y-64030D02*
X83673Y-63194D01*
X83673Y-63194D02*
X83673Y-60977D01*
X83705Y-70042D02*
X82981Y-70042D01*
X82981Y-70042D02*
X82836Y-69897D01*
X82836Y-69897D02*
X82836Y-67962D01*
X83705Y-70042D02*
X83291Y-70042D01*
X82745Y-63986D02*
X82745Y-68000D01*
X82745Y-63986D02*
X82854Y-63877D01*
X82854Y-63877D02*
X82854Y-63609D01*
X83076Y-60398D02*
X83076Y-60805D01*
X83076Y-60805D02*
X82854Y-61027D01*
X82854Y-63609D02*
X82854Y-61027D01*
X83489Y-59198D02*
X83163Y-59198D01*
X83163Y-59198D02*
X83076Y-59285D01*
X83076Y-59285D02*
X83076Y-60398D01*
X83665Y-59022D02*
X83489Y-59198D01*
X83705Y-70298D02*
X83021Y-70298D01*
X83021Y-70298D02*
X82745Y-70022D01*
X82745Y-70022D02*
X82745Y-68000D01*
X83705Y-70298D02*
X83410Y-70298D01*
X81702Y-60211D02*
X81702Y-60404D01*
X81836Y-60784D02*
X82128Y-61076D01*
X81836Y-60538D02*
X81836Y-60784D01*
X81702Y-60404D02*
X81836Y-60538D01*
X82287Y-63687D02*
X82287Y-68187D01*
X82287Y-68711D02*
X82287Y-68187D01*
X82287Y-70365D02*
X82287Y-68711D01*
X83500Y-71578D02*
X83705Y-71578D01*
X82287Y-70365D02*
X83500Y-71578D01*
X82287Y-63687D02*
X82128Y-63527D01*
X82128Y-63527D02*
X82128Y-61076D01*
X82196Y-68224D02*
X82196Y-63724D01*
X81519Y-63046D02*
X81519Y-61503D01*
X81519Y-61503D02*
X81921Y-61100D01*
X82196Y-63724D02*
X81519Y-63046D01*
X83550Y-71834D02*
X82196Y-70480D01*
X83550Y-71834D02*
X83705Y-71834D01*
X82196Y-70480D02*
X82196Y-68711D01*
X82196Y-68711D02*
X82196Y-68224D01*
X82105Y-63762D02*
X82105Y-68262D01*
X81428Y-63084D02*
X81428Y-61228D01*
X81428Y-61228D02*
X81672Y-60983D01*
X81672Y-60983D02*
X81672Y-60601D01*
X82105Y-63762D02*
X81428Y-63084D01*
X82105Y-68730D02*
X82105Y-68262D01*
X83401Y-72090D02*
X82105Y-70794D01*
X82105Y-70794D02*
X82105Y-68730D01*
X83401Y-72090D02*
X83705Y-72090D01*
X82014Y-68300D02*
X82014Y-63800D01*
X81181Y-62966D02*
X81181Y-61125D01*
X81293Y-61012D02*
X81181Y-61125D01*
X82014Y-63800D02*
X81181Y-62966D01*
X82014Y-68300D02*
X82014Y-68776D01*
X83705Y-72346D02*
X83369Y-72346D01*
X83369Y-72346D02*
X82014Y-70991D01*
X82014Y-70991D02*
X82014Y-68776D01*
X82014Y-68776D02*
X82014Y-68775D01*
X81923Y-63837D02*
X81923Y-68337D01*
X80917Y-60391D02*
X80917Y-60202D01*
X81090Y-60564D02*
X80917Y-60391D01*
X81090Y-63003D02*
X81090Y-60564D01*
X81923Y-63837D02*
X81090Y-63003D01*
X83314Y-72601D02*
X83705Y-72601D01*
X81923Y-71210D02*
X81923Y-68789D01*
X83314Y-72601D02*
X81923Y-71210D01*
X81923Y-68789D02*
X81923Y-68337D01*
X81832Y-68375D02*
X81832Y-63875D01*
X80821Y-62863D02*
X80821Y-61111D01*
X80926Y-61006D02*
X80821Y-61111D01*
X81832Y-63875D02*
X80821Y-62863D01*
X83237Y-72857D02*
X81832Y-71452D01*
X81832Y-71452D02*
X81832Y-68801D01*
X83237Y-72857D02*
X83705Y-72857D01*
X81832Y-68801D02*
X81832Y-68375D01*
X81741Y-63913D02*
X81741Y-68413D01*
X80730Y-62901D02*
X81741Y-63913D01*
X81741Y-68843D02*
X81741Y-68413D01*
X83093Y-73113D02*
X81741Y-71761D01*
X81741Y-71761D02*
X81741Y-68843D01*
X83093Y-73113D02*
X83705Y-73113D01*
X80909Y-60614D02*
X80730Y-60794D01*
X80730Y-60794D02*
X80730Y-62901D01*
X81650Y-68450D02*
X81650Y-63950D01*
X80526Y-61042D02*
X80526Y-62826D01*
X81650Y-63950D02*
X80526Y-62826D01*
X81650Y-68886D02*
X81650Y-68450D01*
X83153Y-73369D02*
X81650Y-71866D01*
X81650Y-71866D02*
X81650Y-68886D01*
X83153Y-73369D02*
X83705Y-73369D01*
X85325Y-69512D02*
X87062Y-69512D01*
X89530Y-68857D02*
X89350Y-68857D01*
X89350Y-68857D02*
X89263Y-68944D01*
X89263Y-68944D02*
X89263Y-69152D01*
X89263Y-69152D02*
X89110Y-69305D01*
X89110Y-69305D02*
X87269Y-69305D01*
X87269Y-69305D02*
X87062Y-69512D01*
X89691Y-69018D02*
X89530Y-68857D01*
X84650Y-59555D02*
X84650Y-60819D01*
X84828Y-59377D02*
X84650Y-59555D01*
X83731Y-64530D02*
X84650Y-63612D01*
X84650Y-63612D02*
X84650Y-60819D01*
X85325Y-69512D02*
X83731Y-67918D01*
X83731Y-67918D02*
X83731Y-64530D01*
X85445Y-68164D02*
X86271Y-68164D01*
X85445Y-68164D02*
X85355Y-68074D01*
X85355Y-61562D02*
X85355Y-68074D01*
X86327Y-68308D02*
X86276Y-68359D01*
X86327Y-68220D02*
X86327Y-68308D01*
X86271Y-68164D02*
X86327Y-68220D01*
X85355Y-69105D02*
X85355Y-68442D01*
X86550Y-69318D02*
X85568Y-69318D01*
X85568Y-69318D02*
X85355Y-69105D01*
X85355Y-68442D02*
X85438Y-68359D01*
X86276Y-68359D02*
X85438Y-68359D01*
X86619Y-69019D02*
X86619Y-69249D01*
X86619Y-69249D02*
X86551Y-69318D01*
X85366Y-59436D02*
X85013Y-59083D01*
X85167Y-59986D02*
X85019Y-60134D01*
X85280Y-59986D02*
X85167Y-59986D01*
X85366Y-59899D02*
X85280Y-59986D01*
X85366Y-59436D02*
X85366Y-59899D01*
X85013Y-58960D02*
X85013Y-59083D01*
X84877Y-58824D02*
X85013Y-58960D01*
X83439Y-59018D02*
X83633Y-58824D01*
X85019Y-61225D02*
X85019Y-60134D01*
X84877Y-58824D02*
X83633Y-58824D01*
X83274Y-59018D02*
X83439Y-59018D01*
X85355Y-61561D02*
X85019Y-61225D01*
X85198Y-67743D02*
X84452Y-67743D01*
X85263Y-62127D02*
X84922Y-61786D01*
X85263Y-67677D02*
X85263Y-62127D01*
X84930Y-59208D02*
X83965Y-59208D01*
X83965Y-59208D02*
X83864Y-59309D01*
X84930Y-59208D02*
X85035Y-59313D01*
X85035Y-59973D02*
X85035Y-59313D01*
X85035Y-59973D02*
X84922Y-60086D01*
X83257Y-59375D02*
X83428Y-59546D01*
X83428Y-59546D02*
X83764Y-59546D01*
X83764Y-59546D02*
X83864Y-59446D01*
X83864Y-59446D02*
X83864Y-59309D01*
X84922Y-61786D02*
X84922Y-60086D01*
X85198Y-67743D02*
X85263Y-67677D01*
X84451Y-67918D02*
X84404Y-67871D01*
X85263Y-69143D02*
X85263Y-67998D01*
X85263Y-67998D02*
X85183Y-67918D01*
X86963Y-69409D02*
X85529Y-69409D01*
X87131Y-69241D02*
X87131Y-69019D01*
X87131Y-69241D02*
X86963Y-69409D01*
X85529Y-69409D02*
X85263Y-69143D01*
X85183Y-67918D02*
X84451Y-67918D01*
X84404Y-67791D02*
X84404Y-67871D01*
X84452Y-67743D02*
X84404Y-67791D01*
X86875Y-69019D02*
X86875Y-68777D01*
X86875Y-68777D02*
X86811Y-68713D01*
X86811Y-68713D02*
X85830Y-68713D01*
X83315Y-58427D02*
X84916Y-58427D01*
X85040Y-58551D02*
X85040Y-58753D01*
X84916Y-58427D02*
X85040Y-58551D01*
X85832Y-68526D02*
X85779Y-68579D01*
X85142Y-58855D02*
X85040Y-58753D01*
X85373Y-58855D02*
X85142Y-58855D01*
X85458Y-58940D02*
X85373Y-58855D01*
X85744Y-61431D02*
X85744Y-61012D01*
X82922Y-59020D02*
X82985Y-58957D01*
X82882Y-59020D02*
X82922Y-59020D01*
X82985Y-58757D02*
X83315Y-58427D01*
X82985Y-58957D02*
X82985Y-58757D01*
X86796Y-68402D02*
X85744Y-67351D01*
X85744Y-67351D02*
X85744Y-61431D01*
X86745Y-68526D02*
X86796Y-68475D01*
X86796Y-68475D02*
X86796Y-68402D01*
X85744Y-61012D02*
X85458Y-60726D01*
X85458Y-60726D02*
X85458Y-58940D01*
X86745Y-68526D02*
X85832Y-68526D01*
X85779Y-68579D02*
X85779Y-68662D01*
X85830Y-68713D02*
X85779Y-68662D01*
X85118Y-58444D02*
X85343Y-58444D01*
X87387Y-68865D02*
X85836Y-67314D01*
X85836Y-67314D02*
X85836Y-59321D01*
X85836Y-58892D02*
X85724Y-58780D01*
X85724Y-58780D02*
X85586Y-58780D01*
X85586Y-58780D02*
X85454Y-58648D01*
X85118Y-58444D02*
X85040Y-58366D01*
X85040Y-58366D02*
X85040Y-58179D01*
X85836Y-59321D02*
X85836Y-58892D01*
X82456Y-58048D02*
X84909Y-58048D01*
X84909Y-58048D02*
X85040Y-58179D01*
X82221Y-58890D02*
X82093Y-59019D01*
X82221Y-58890D02*
X82221Y-58282D01*
X82221Y-58282D02*
X82456Y-58048D01*
X85454Y-58555D02*
X85454Y-58648D01*
X85343Y-58444D02*
X85454Y-58555D01*
X87387Y-68865D02*
X87387Y-69019D01*
X87387Y-68865D02*
X87387Y-69019D01*
X83640Y-67955D02*
X83640Y-64488D01*
X89263Y-69396D02*
X87311Y-69396D01*
X87311Y-69396D02*
X87104Y-69603D01*
X87104Y-69603D02*
X85288Y-69603D01*
X85288Y-69603D02*
X83640Y-67955D01*
X89330Y-69329D02*
X89263Y-69396D01*
X84231Y-63898D02*
X84231Y-60648D01*
X83640Y-64488D02*
X84231Y-63898D01*
X89436Y-69224D02*
X89436Y-69018D01*
X89326Y-69334D02*
X89330Y-69329D01*
X89330Y-69329D02*
X89436Y-69224D01*
X84480Y-59388D02*
X84231Y-59637D01*
X84231Y-59637D02*
X84231Y-60648D01*
X80519Y-60200D02*
X79357Y-60200D01*
X79357Y-60200D02*
X78335Y-61222D01*
X76168Y-61222D02*
X75761Y-60815D01*
X78335Y-61222D02*
X76168Y-61222D01*
X72961Y-42401D02*
X72961Y-39839D01*
X72722Y-42500D02*
X72722Y-42568D01*
X72774Y-42448D02*
X72722Y-42500D01*
X72297Y-39522D02*
X72644Y-39522D01*
X72644Y-39522D02*
X72961Y-39839D01*
X72914Y-42448D02*
X72961Y-42401D01*
X72914Y-42448D02*
X72774Y-42448D01*
X72779Y-42625D02*
X72722Y-42568D01*
X72961Y-42673D02*
X72913Y-42625D01*
X72961Y-42673D02*
X72961Y-48745D01*
X81378Y-52934D02*
X77149Y-52934D01*
X77149Y-52934D02*
X72961Y-48745D01*
X80300Y-59360D02*
X80300Y-57083D01*
X82244Y-56854D02*
X82691Y-56407D01*
X80300Y-57083D02*
X80529Y-56854D01*
X80520Y-59448D02*
X80388Y-59448D01*
X80388Y-59448D02*
X80300Y-59360D01*
X82552Y-53684D02*
X81822Y-53684D01*
X81512Y-53374D02*
X81512Y-53068D01*
X81822Y-53684D02*
X81512Y-53374D01*
X82691Y-53823D02*
X82552Y-53684D01*
X82691Y-56407D02*
X82691Y-53823D01*
X80529Y-56854D02*
X82244Y-56854D01*
X81512Y-53068D02*
X81378Y-52934D01*
X72913Y-42625D02*
X72779Y-42625D01*
X73052Y-48708D02*
X73052Y-39798D01*
X73052Y-48708D02*
X77187Y-52843D01*
X80698Y-58952D02*
X80698Y-57365D01*
X82286Y-57145D02*
X82196Y-57235D01*
X82286Y-56971D02*
X82286Y-57145D01*
X82409Y-56848D02*
X82286Y-56971D01*
X80698Y-57365D02*
X80828Y-57235D01*
X80914Y-59017D02*
X80763Y-59017D01*
X80763Y-59017D02*
X80698Y-58952D01*
X82946Y-56848D02*
X83054Y-56740D01*
X82588Y-53592D02*
X82164Y-53592D01*
X82782Y-53785D02*
X82782Y-55011D01*
X82782Y-55011D02*
X83054Y-55283D01*
X82588Y-53592D02*
X82782Y-53785D01*
X83054Y-55283D02*
X83054Y-56740D01*
X82164Y-53592D02*
X81886Y-53314D01*
X81886Y-53314D02*
X81886Y-52761D01*
X81886Y-52761D02*
X81659Y-52534D01*
X81659Y-52534D02*
X79955Y-52534D01*
X82946Y-56848D02*
X82409Y-56848D01*
X80828Y-57235D02*
X82196Y-57235D01*
X79955Y-52534D02*
X79646Y-52843D01*
X72578Y-39324D02*
X72190Y-39324D01*
X72578Y-39324D02*
X73052Y-39798D01*
X77187Y-52843D02*
X79646Y-52843D01*
X80729Y-59623D02*
X80069Y-59623D01*
X80069Y-59623D02*
X79706Y-59260D01*
X80904Y-59448D02*
X80729Y-59623D01*
X76301Y-59260D02*
X79706Y-59260D01*
X73163Y-56122D02*
X76301Y-59260D01*
M02*
