G04 (created by PCBNEW (2013-07-07 BZR 4022)-stable) date 19/05/2015 04:41:07 PM*
%MOIN*%
G04 Gerber Fmt 3.4, Leading zero omitted, Abs format*
%FSLAX34Y34*%
G01*
G70*
G90*
G04 APERTURE LIST*
%ADD10C,0.00590551*%
%ADD11C,0.0905512*%
%ADD12R,0.0984252X0.11811*%
%ADD13O,0.0570866X0.0472441*%
%ADD14C,0.06*%
%ADD15C,0.11811*%
%ADD16C,0.056*%
%ADD17R,0.06X0.06*%
%ADD18O,0.0708661X0.137795*%
%ADD19O,0.0708661X0.0925197*%
%ADD20C,0.102362*%
%ADD21C,0.139764*%
%ADD22C,0.0751968*%
%ADD23C,0.0787402*%
%ADD24O,0.0511811X0.0905512*%
%ADD25O,0.0511811X0.0748031*%
%ADD26O,0.08X0.16*%
%ADD27R,0.1378X0.1378*%
%ADD28R,0.0472441X0.0472441*%
%ADD29C,0.0472441*%
%ADD30C,0.0866142*%
%ADD31R,0.0866142X0.0866142*%
%ADD32C,0.0393701*%
%ADD33C,0.018*%
%ADD34C,0.0318*%
%ADD35C,0.022*%
%ADD36C,0.005*%
G04 APERTURE END LIST*
G54D10*
G54D11*
X106149Y-31384D03*
X104003Y-31384D03*
X101916Y-31384D03*
X99830Y-31384D03*
G54D12*
X67317Y-23057D03*
X64482Y-23057D03*
G54D13*
X66884Y-24189D03*
X64915Y-24189D03*
G54D14*
X85730Y-83460D03*
X84730Y-83460D03*
X84730Y-84247D03*
X85730Y-84247D03*
G54D15*
X87592Y-85310D03*
X82868Y-85310D03*
G54D16*
X93660Y-76033D03*
X93660Y-74033D03*
G54D17*
X75568Y-24607D03*
G54D14*
X75568Y-23607D03*
X76568Y-24607D03*
X76568Y-23607D03*
X77568Y-24607D03*
X77568Y-23607D03*
X78568Y-24607D03*
X78568Y-23607D03*
X79568Y-24607D03*
X79568Y-23607D03*
X80568Y-24607D03*
X80568Y-23607D03*
X81568Y-24607D03*
X81568Y-23607D03*
G54D18*
X66160Y-86200D03*
X71987Y-86200D03*
G54D19*
X65924Y-88546D03*
X72223Y-88546D03*
G54D18*
X56960Y-86200D03*
X62787Y-86200D03*
G54D19*
X56724Y-88546D03*
X63023Y-88546D03*
G54D18*
X47760Y-86200D03*
X53587Y-86200D03*
G54D19*
X47524Y-88546D03*
X53823Y-88546D03*
G54D18*
X75360Y-86200D03*
X81187Y-86200D03*
G54D19*
X75124Y-88546D03*
X81423Y-88546D03*
G54D20*
X52701Y-28010D03*
X58800Y-28010D03*
G54D21*
X53500Y-26809D03*
X58000Y-26809D03*
G54D22*
X56498Y-29309D03*
X57998Y-30309D03*
X56998Y-30309D03*
X55998Y-30309D03*
X54998Y-30309D03*
X55498Y-29309D03*
X54498Y-29309D03*
X57498Y-29309D03*
G54D23*
X58361Y-25211D03*
X57361Y-25211D03*
X54140Y-25211D03*
X53140Y-25211D03*
G54D22*
X53498Y-29309D03*
X53998Y-30309D03*
G54D16*
X60447Y-35605D03*
X60447Y-37605D03*
G54D24*
X91489Y-85012D03*
X97986Y-85012D03*
G54D25*
X91489Y-87681D03*
X97986Y-87681D03*
G54D24*
X101261Y-85012D03*
X107758Y-85012D03*
G54D25*
X101261Y-87681D03*
X107758Y-87681D03*
G54D26*
X95075Y-23785D03*
X97075Y-23785D03*
G54D27*
X104014Y-27921D03*
X104014Y-25559D03*
X102164Y-26740D03*
X88780Y-27861D03*
X88780Y-25499D03*
X86930Y-26680D03*
G54D28*
X109631Y-71407D03*
G54D29*
X108843Y-71013D03*
X109631Y-70620D03*
X108843Y-70226D03*
X109631Y-69832D03*
X108843Y-69438D03*
X109631Y-69045D03*
X108843Y-68651D03*
X109631Y-68257D03*
X108843Y-67864D03*
X109631Y-67470D03*
X108843Y-66289D03*
X109631Y-65895D03*
X108843Y-65501D03*
X109631Y-65108D03*
X108843Y-64714D03*
X109631Y-64320D03*
X108843Y-63927D03*
X109631Y-63533D03*
X108843Y-63139D03*
X109631Y-62746D03*
X108843Y-62352D03*
X109631Y-61958D03*
X108843Y-61564D03*
X109631Y-61171D03*
X108843Y-60777D03*
X109631Y-60383D03*
X108843Y-59990D03*
X109631Y-59596D03*
X108843Y-59202D03*
X109631Y-58809D03*
X108843Y-58415D03*
X109631Y-58021D03*
X108843Y-57627D03*
X109631Y-57234D03*
X108843Y-56840D03*
X109631Y-56446D03*
X108843Y-56053D03*
X109631Y-55659D03*
X108843Y-55265D03*
X109631Y-54872D03*
X108843Y-54478D03*
X109631Y-54084D03*
X108843Y-53690D03*
X109631Y-53297D03*
X108843Y-52903D03*
X109631Y-52509D03*
X108843Y-52116D03*
X110615Y-71407D03*
X111402Y-71013D03*
X110615Y-70620D03*
X111402Y-70226D03*
X110615Y-69832D03*
X111402Y-69438D03*
X110615Y-69045D03*
X111402Y-68651D03*
X110615Y-68257D03*
X111402Y-67864D03*
X110615Y-67470D03*
X111402Y-66289D03*
X110615Y-65895D03*
X111402Y-65501D03*
X110615Y-65108D03*
X111402Y-64714D03*
X110615Y-64320D03*
X111402Y-63927D03*
X110615Y-63533D03*
X111402Y-63139D03*
X110615Y-62746D03*
X111402Y-62352D03*
X110615Y-61958D03*
X111402Y-61564D03*
X110615Y-61171D03*
X111402Y-60777D03*
X110615Y-60383D03*
X111402Y-59990D03*
X110615Y-59596D03*
X111402Y-59202D03*
X110615Y-58809D03*
X111402Y-58415D03*
X110615Y-58021D03*
X111402Y-57627D03*
X110615Y-57234D03*
X111402Y-56840D03*
X110615Y-56446D03*
X111402Y-56053D03*
X110615Y-55659D03*
X111402Y-55265D03*
X110615Y-54872D03*
X111402Y-54478D03*
X110615Y-54084D03*
X111402Y-53690D03*
X110615Y-53297D03*
X111402Y-52903D03*
X110615Y-52509D03*
X111402Y-52116D03*
X109631Y-51722D03*
X110615Y-51722D03*
G54D17*
X101772Y-50488D03*
G54D14*
X101772Y-49488D03*
X102772Y-50488D03*
X102772Y-49488D03*
X103772Y-50488D03*
X103772Y-49488D03*
X104772Y-50488D03*
X104772Y-49488D03*
X105772Y-50488D03*
X105772Y-49488D03*
G54D17*
X68890Y-23340D03*
G54D14*
X68890Y-24340D03*
X68890Y-25340D03*
X68890Y-26340D03*
X68890Y-27340D03*
G54D17*
X89130Y-88558D03*
G54D14*
X89130Y-87558D03*
X89130Y-86558D03*
X89130Y-85558D03*
X89130Y-84558D03*
G54D17*
X75172Y-49040D03*
G54D14*
X75172Y-48040D03*
X75172Y-47040D03*
X75172Y-46040D03*
X75172Y-45040D03*
G54D17*
X94331Y-67307D03*
G54D14*
X94331Y-66307D03*
X94331Y-65307D03*
G54D17*
X91969Y-68071D03*
G54D14*
X92969Y-68071D03*
G54D30*
X98450Y-49900D03*
G54D31*
X99453Y-48896D03*
X99453Y-50903D03*
X97446Y-50903D03*
X97446Y-48896D03*
G54D30*
X93900Y-49900D03*
G54D31*
X94903Y-48896D03*
X94903Y-50903D03*
X92896Y-50903D03*
X92896Y-48896D03*
G54D32*
X57350Y-68300D03*
X59100Y-77500D03*
X56250Y-68600D03*
X72850Y-80300D03*
X72850Y-81350D03*
X63950Y-79900D03*
X63950Y-80900D03*
X58100Y-77500D03*
X94400Y-71750D03*
X94400Y-70500D03*
X94400Y-69200D03*
G54D33*
X86298Y-45211D03*
X84816Y-52744D03*
X86041Y-44962D03*
X84651Y-52297D03*
X85077Y-44374D03*
X85245Y-53516D03*
X86653Y-52256D03*
X86429Y-43482D03*
X85730Y-43706D03*
X86409Y-52318D03*
X84846Y-54307D03*
X87303Y-46601D03*
X86919Y-44568D03*
X85645Y-53902D03*
X84445Y-53892D03*
X86029Y-45575D03*
X85697Y-45961D03*
X83675Y-54332D03*
X85641Y-53105D03*
X86031Y-44047D03*
X85723Y-46242D03*
X83627Y-53113D03*
X86039Y-44711D03*
X84029Y-53508D03*
X86350Y-46243D03*
X84460Y-54298D03*
X86049Y-53108D03*
X86823Y-43948D03*
X86951Y-45058D03*
X85548Y-52099D03*
X84810Y-53100D03*
X85407Y-45928D03*
X85434Y-44330D03*
X85359Y-51962D03*
X85428Y-45580D03*
X85276Y-52300D03*
X84779Y-45929D03*
X83657Y-53502D03*
X84775Y-44035D03*
X86419Y-52706D03*
X84743Y-44718D03*
X84435Y-53112D03*
X84441Y-44718D03*
X84475Y-53516D03*
X83046Y-45533D03*
X82485Y-53120D03*
X83346Y-44758D03*
X82464Y-52303D03*
X81701Y-53096D03*
X82266Y-44044D03*
X82161Y-46666D03*
X81603Y-52195D03*
X80928Y-53095D03*
X81605Y-44658D03*
X80907Y-52372D03*
X81459Y-46102D03*
X81505Y-44410D03*
X80511Y-52698D03*
X81487Y-45796D03*
X80442Y-52300D03*
X83205Y-46240D03*
X82890Y-52762D03*
X83505Y-44344D03*
X82902Y-52360D03*
X84073Y-53122D03*
X83841Y-45919D03*
X84075Y-52352D03*
X84144Y-44350D03*
X83625Y-52270D03*
X83833Y-46243D03*
X84083Y-44674D03*
X83731Y-51552D03*
X82890Y-44354D03*
X82491Y-52729D03*
X82263Y-45926D03*
X81882Y-52189D03*
X83261Y-53512D03*
X82996Y-44701D03*
X83567Y-45604D03*
X83669Y-52020D03*
X83265Y-53140D03*
X83517Y-45926D03*
X84990Y-46696D03*
X84048Y-54307D03*
X83665Y-53926D03*
X84430Y-45551D03*
X86443Y-53473D03*
X86352Y-45931D03*
X82899Y-53521D03*
X82413Y-45466D03*
X81354Y-52219D03*
X82249Y-44364D03*
X82584Y-44698D03*
X81305Y-52724D03*
X84939Y-45472D03*
X85638Y-52726D03*
X82090Y-56267D03*
X103526Y-83358D03*
X82488Y-56266D03*
X103919Y-83357D03*
X104312Y-83356D03*
X80133Y-55099D03*
X79719Y-55099D03*
X104117Y-83042D03*
X87586Y-55066D03*
X106282Y-83359D03*
X105691Y-83040D03*
X87571Y-55508D03*
X105101Y-83359D03*
X87604Y-57452D03*
X104510Y-83041D03*
X87622Y-58267D03*
X106675Y-83359D03*
X87216Y-55066D03*
X106085Y-83040D03*
X87163Y-55529D03*
X87207Y-57450D03*
X105494Y-83356D03*
X104904Y-83040D03*
X87205Y-58268D03*
X81699Y-58231D03*
X93755Y-83041D03*
X94148Y-83040D03*
X82076Y-58217D03*
X83640Y-57062D03*
X81310Y-60197D03*
X94541Y-83039D03*
X79594Y-59821D03*
X94345Y-83353D03*
X96510Y-83041D03*
X88511Y-54492D03*
X95919Y-83349D03*
X88455Y-55433D03*
X88421Y-57742D03*
X95329Y-83043D03*
X88481Y-58752D03*
X94738Y-83350D03*
X87976Y-54702D03*
X96904Y-83042D03*
X88803Y-55436D03*
X96314Y-83350D03*
X95722Y-83041D03*
X88006Y-57497D03*
X95132Y-83346D03*
X88717Y-58678D03*
X57727Y-36916D03*
X62276Y-32357D03*
X55678Y-34446D03*
X53908Y-38485D03*
X81305Y-55494D03*
X55673Y-38470D03*
X81301Y-54668D03*
X55669Y-39892D03*
X82094Y-55087D03*
X81705Y-55094D03*
X55698Y-39112D03*
X53367Y-38292D03*
X80139Y-56668D03*
X53366Y-34312D03*
X81688Y-55471D03*
X53367Y-35091D03*
X82488Y-55483D03*
X53366Y-35891D03*
X82484Y-55086D03*
X80935Y-54310D03*
X53366Y-36710D03*
X53366Y-37491D03*
X80527Y-54310D03*
X54233Y-37161D03*
X79735Y-56670D03*
X80919Y-55100D03*
X54990Y-38379D03*
X54143Y-37403D03*
X80927Y-55500D03*
X54469Y-37616D03*
X80539Y-55100D03*
X80125Y-54295D03*
X54720Y-38118D03*
X54734Y-38367D03*
X79734Y-54299D03*
X57228Y-37003D03*
X50638Y-30044D03*
X56203Y-35152D03*
X55095Y-34704D03*
X55298Y-38394D03*
X56655Y-37790D03*
X57069Y-37476D03*
X52336Y-35891D03*
X54233Y-36058D03*
X52335Y-37491D03*
G54D34*
X51931Y-40191D03*
G54D33*
X52336Y-36710D03*
X52337Y-35091D03*
X54070Y-37004D03*
X90809Y-60687D03*
X86030Y-54688D03*
X90465Y-65500D03*
X90316Y-60682D03*
X90465Y-65000D03*
X86063Y-57828D03*
X86427Y-57414D03*
X85641Y-55492D03*
X86027Y-55868D03*
X86461Y-58242D03*
X86391Y-58584D03*
X86025Y-56635D03*
X85659Y-56680D03*
X87121Y-59774D03*
X86861Y-59406D03*
X87207Y-59436D03*
X87161Y-59022D03*
X88492Y-59226D03*
X87999Y-59438D03*
X86057Y-58234D03*
X85621Y-57812D03*
X86021Y-57090D03*
X85639Y-57468D03*
X86796Y-54672D03*
X86786Y-54267D03*
X88790Y-53933D03*
X87607Y-53496D03*
X88821Y-52972D03*
X87951Y-53101D03*
X88409Y-60217D03*
X87966Y-60172D03*
X86447Y-59018D03*
X86027Y-58642D03*
X88000Y-58625D03*
X87609Y-58674D03*
X85659Y-56286D03*
X85261Y-56270D03*
X86811Y-53877D03*
X87171Y-53907D03*
X88518Y-54098D03*
X87571Y-54272D03*
X88447Y-53312D03*
X87991Y-53507D03*
X88920Y-59855D03*
X87606Y-59432D03*
X86031Y-55084D03*
X86401Y-55042D03*
X86436Y-55502D03*
X86026Y-55432D03*
X87218Y-53500D03*
X86387Y-56683D03*
X89980Y-57540D03*
X86817Y-57051D03*
X89970Y-58200D03*
X91250Y-56445D03*
X87259Y-56242D03*
X90800Y-56445D03*
X87586Y-56281D03*
X87221Y-53117D03*
X85622Y-55097D03*
X99636Y-54010D03*
X85229Y-55068D03*
X85243Y-55475D03*
X86438Y-53896D03*
X83665Y-54686D03*
X83667Y-55081D03*
X80518Y-53114D03*
G54D35*
X75002Y-53901D03*
G54D33*
X90123Y-71066D03*
X82882Y-60193D03*
X87227Y-61711D03*
G54D35*
X81254Y-74680D03*
G54D33*
X82815Y-76500D03*
X83705Y-70810D03*
X83670Y-58628D03*
X83705Y-71066D03*
X83275Y-58232D03*
X82521Y-58213D03*
X83705Y-71322D03*
X84029Y-59380D03*
X83705Y-70042D03*
X83665Y-59022D03*
X83705Y-70298D03*
X82881Y-58626D03*
X83706Y-76441D03*
X88924Y-69018D03*
X87603Y-60200D03*
X87604Y-60987D03*
X88668Y-69018D03*
X86380Y-60598D03*
X85085Y-77798D03*
X85341Y-77797D03*
X86407Y-61006D03*
X86826Y-60198D03*
X88284Y-77316D03*
X88291Y-77068D03*
X86754Y-61046D03*
X85204Y-59806D03*
X88924Y-77798D03*
X85632Y-60197D03*
X88981Y-77544D03*
X84451Y-57841D03*
X88412Y-69018D03*
X84850Y-58231D03*
X88156Y-69018D03*
X86363Y-69019D03*
X87211Y-60594D03*
X87219Y-61018D03*
X86107Y-69019D03*
X85851Y-69019D03*
X86026Y-59798D03*
X86433Y-60190D03*
X85595Y-69015D03*
X85639Y-59422D03*
X83705Y-77464D03*
X84829Y-77797D03*
X85659Y-59789D03*
X82486Y-59414D03*
X85597Y-77797D03*
X83705Y-74137D03*
X86041Y-59042D03*
X86418Y-59806D03*
X83705Y-74393D03*
X85251Y-58638D03*
X83230Y-74954D03*
X83705Y-74905D03*
X85617Y-58988D03*
X88136Y-61915D03*
X83482Y-75161D03*
X87952Y-62084D03*
X83704Y-75417D03*
X84846Y-58632D03*
X83705Y-75672D03*
X83705Y-75928D03*
X84846Y-59019D03*
X83705Y-71578D03*
X81702Y-60211D03*
X81921Y-61100D03*
X83705Y-71834D03*
X81672Y-60601D03*
X83705Y-72090D03*
X81293Y-61012D03*
X83705Y-72346D03*
X80917Y-60202D03*
X83705Y-72601D03*
X83705Y-72857D03*
X80926Y-61006D03*
X83705Y-73113D03*
X80909Y-60614D03*
X83705Y-73369D03*
X80526Y-61042D03*
X89691Y-69018D03*
X84828Y-59377D03*
X82881Y-59807D03*
X90814Y-76953D03*
X90815Y-76697D03*
X82487Y-59812D03*
X84060Y-58624D03*
X90814Y-76441D03*
X90815Y-76185D03*
X83332Y-57854D03*
X81711Y-59857D03*
X90815Y-75929D03*
X82093Y-59807D03*
X90815Y-75673D03*
X86619Y-69019D03*
X83274Y-59018D03*
X83257Y-59375D03*
X87131Y-69019D03*
X86032Y-60188D03*
X90123Y-71834D03*
X82882Y-59020D03*
X86875Y-69019D03*
X82093Y-59019D03*
X87387Y-69019D03*
X89436Y-69018D03*
X84480Y-59388D03*
X103328Y-83049D03*
X81307Y-56262D03*
X93042Y-55976D03*
X93558Y-83357D03*
X81693Y-56261D03*
X92636Y-56503D03*
X80220Y-62645D03*
X80518Y-59807D03*
X77295Y-53110D03*
X89358Y-80289D03*
X80523Y-53530D03*
X82083Y-54691D03*
X81729Y-54328D03*
X50865Y-45850D03*
X76639Y-53754D03*
X50865Y-46550D03*
X76400Y-53768D03*
X50865Y-47250D03*
X79689Y-53894D03*
X50865Y-44450D03*
X50865Y-45150D03*
X80517Y-53926D03*
X80519Y-60200D03*
X75761Y-60815D03*
X80151Y-53128D03*
X77067Y-53281D03*
X72643Y-59599D03*
X75564Y-53900D03*
X78143Y-60913D03*
X82487Y-57432D03*
X82111Y-57817D03*
X76004Y-60614D03*
X80914Y-57840D03*
X72693Y-40057D03*
X80915Y-57447D03*
X72189Y-39719D03*
X72297Y-39522D03*
X80520Y-59448D03*
X80914Y-59017D03*
X72190Y-39324D03*
X80124Y-57840D03*
X72299Y-39128D03*
X79085Y-58243D03*
X71686Y-38428D03*
X71489Y-38323D03*
X80535Y-58612D03*
X70899Y-38427D03*
X80912Y-58228D03*
X80886Y-57025D03*
X71489Y-40812D03*
X72188Y-40112D03*
X81306Y-57444D03*
X70505Y-40917D03*
X80518Y-57445D03*
X70702Y-40812D03*
X81306Y-59018D03*
X80904Y-59448D03*
X73163Y-56122D03*
X71095Y-40812D03*
X77788Y-63509D03*
X90061Y-80289D03*
X84445Y-62530D03*
X82881Y-58234D03*
X76968Y-27311D03*
X87961Y-80289D03*
X89723Y-60847D03*
X76150Y-26881D03*
X89456Y-61176D03*
X87260Y-80289D03*
X87198Y-60190D03*
X83495Y-62560D03*
X82485Y-58625D03*
X81703Y-59016D03*
X82289Y-62446D03*
X47160Y-81069D03*
X55360Y-81069D03*
X76083Y-83727D03*
X66883Y-83728D03*
X74123Y-83727D03*
X57683Y-83727D03*
X48483Y-83727D03*
X64859Y-78577D03*
X64933Y-83727D03*
X64859Y-75569D03*
X85113Y-61607D03*
X78524Y-79297D03*
X78918Y-79316D03*
X85221Y-60169D03*
X79115Y-79626D03*
X85508Y-61191D03*
X79508Y-79626D03*
X85635Y-60591D03*
X79705Y-79325D03*
X84454Y-59806D03*
X80099Y-79331D03*
X84849Y-59807D03*
X77138Y-78874D03*
X84435Y-58642D03*
X84062Y-59807D03*
X77933Y-79626D03*
X78327Y-79626D03*
X84048Y-60172D03*
X81303Y-59803D03*
X77070Y-79616D03*
X84445Y-59005D03*
X77114Y-79113D03*
X82487Y-59019D03*
X75861Y-79354D03*
X69324Y-79354D03*
X81712Y-62012D03*
X69718Y-79347D03*
X81930Y-62206D03*
X69914Y-79626D03*
X83471Y-61089D03*
X70308Y-79626D03*
X83260Y-60211D03*
X70506Y-79300D03*
X83078Y-61123D03*
X70899Y-79312D03*
X83274Y-61254D03*
X68536Y-79408D03*
X82287Y-61090D03*
X84067Y-61081D03*
X68734Y-79625D03*
X84450Y-60190D03*
X69127Y-79625D03*
X67947Y-79625D03*
X82459Y-60203D03*
X68340Y-79627D03*
X82093Y-60580D03*
X68142Y-79414D03*
X82460Y-60568D03*
X50924Y-79359D03*
X80516Y-56655D03*
X51318Y-79343D03*
X80914Y-56657D03*
X51515Y-79625D03*
X79731Y-55880D03*
X51910Y-79625D03*
X80147Y-55878D03*
X52106Y-79349D03*
X79733Y-55478D03*
X52499Y-79342D03*
X80912Y-55871D03*
X78697Y-55249D03*
X80948Y-56229D03*
X50137Y-79478D03*
X79719Y-56264D03*
X50334Y-79629D03*
X80525Y-56270D03*
X50727Y-79623D03*
X72371Y-54787D03*
X79669Y-54672D03*
X49546Y-79633D03*
X49940Y-79629D03*
X78314Y-55092D03*
X80507Y-54666D03*
X73418Y-54865D03*
X80512Y-55854D03*
X49743Y-79478D03*
X79731Y-57834D03*
X60124Y-79348D03*
X80517Y-57848D03*
X60518Y-79354D03*
X79740Y-58634D03*
X60715Y-79625D03*
X61109Y-79625D03*
X80136Y-58619D03*
X81700Y-57445D03*
X61305Y-79344D03*
X61699Y-79343D03*
X81701Y-57837D03*
X62668Y-78420D03*
X79318Y-59658D03*
X59533Y-79628D03*
X81715Y-57043D03*
X59928Y-79625D03*
X82111Y-57042D03*
X78977Y-59481D03*
X62456Y-77946D03*
X59142Y-79488D03*
X62453Y-78263D03*
X77102Y-61876D03*
X80516Y-59021D03*
X58948Y-79663D03*
X79231Y-59006D03*
X76844Y-61878D03*
X62663Y-78106D03*
G54D34*
X96882Y-30050D03*
X105271Y-37790D03*
X105279Y-35536D03*
X101095Y-36436D03*
X100450Y-35611D03*
X102250Y-36151D03*
X103750Y-35641D03*
X101866Y-37112D03*
X100459Y-37056D03*
X103406Y-37049D03*
X106497Y-35471D03*
X106488Y-37739D03*
X106470Y-36664D03*
X92210Y-26684D03*
X92429Y-28050D03*
X111150Y-31850D03*
X104384Y-46924D03*
X105500Y-47038D03*
X104845Y-44776D03*
X104871Y-43377D03*
X109550Y-31800D03*
G54D33*
X83277Y-59804D03*
X77656Y-65462D03*
G54D35*
X81048Y-71818D03*
G54D33*
X77768Y-26882D03*
X88942Y-61353D03*
X85160Y-80289D03*
X85677Y-58614D03*
X78568Y-27311D03*
X88640Y-61012D03*
X86424Y-59413D03*
X86560Y-80289D03*
G54D35*
X65644Y-24615D03*
G54D33*
X69752Y-40112D03*
X66412Y-24597D03*
X67615Y-38450D03*
X68733Y-35471D03*
X69696Y-39325D03*
X69798Y-39128D03*
X79502Y-59451D03*
X82486Y-53901D03*
X51123Y-80387D03*
X80296Y-81867D03*
X80296Y-82643D03*
X79902Y-81867D03*
X79902Y-82644D03*
X79311Y-81868D03*
X79311Y-82643D03*
X78721Y-81870D03*
X78721Y-82632D03*
X78130Y-82643D03*
X78130Y-81875D03*
X78721Y-79624D03*
X78721Y-80399D03*
X79902Y-79624D03*
X80296Y-80400D03*
X79902Y-80399D03*
X70702Y-79624D03*
X70701Y-80396D03*
X105297Y-83137D03*
X105888Y-83316D03*
X104707Y-83319D03*
X93472Y-83028D03*
X78726Y-85057D03*
X79317Y-85057D03*
X79907Y-85057D03*
X79907Y-86320D03*
X79317Y-86320D03*
X78726Y-86320D03*
X78136Y-86320D03*
X78136Y-85057D03*
X76955Y-85056D03*
X68372Y-86630D03*
X68936Y-86319D03*
X69527Y-86320D03*
X70117Y-86320D03*
X70708Y-86320D03*
X70708Y-85057D03*
X70117Y-85057D03*
X69527Y-85057D03*
X68936Y-85057D03*
X67754Y-85057D03*
X61508Y-85056D03*
X61508Y-86320D03*
X60917Y-85057D03*
X60917Y-86319D03*
X60326Y-86320D03*
X60326Y-85057D03*
X59736Y-85057D03*
X59736Y-86320D03*
X58555Y-85057D03*
X58554Y-86320D03*
X49355Y-85057D03*
X49355Y-86319D03*
X50536Y-86319D03*
X51126Y-86320D03*
X51717Y-86320D03*
X52307Y-86320D03*
X52308Y-85057D03*
X51717Y-85057D03*
X51127Y-85057D03*
X50536Y-85057D03*
X93360Y-84622D03*
X104707Y-84620D03*
X103723Y-84620D03*
X103132Y-84620D03*
X105888Y-84620D03*
X106479Y-84621D03*
X105298Y-84620D03*
X87613Y-54701D03*
X82881Y-57055D03*
X86865Y-58279D03*
X86445Y-57762D03*
X87621Y-56638D03*
X49615Y-53636D03*
X93983Y-81800D03*
X102118Y-82485D03*
X103722Y-83144D03*
X103157Y-83197D03*
X96116Y-83126D03*
X94935Y-83165D03*
G54D35*
X71224Y-79492D03*
G54D33*
X82261Y-75942D03*
G54D35*
X95385Y-74368D03*
X95377Y-76370D03*
G54D34*
X48850Y-31850D03*
X47650Y-31850D03*
X47650Y-32650D03*
X47650Y-33350D03*
G54D33*
X48850Y-32208D03*
G54D34*
X46850Y-33950D03*
X46850Y-34950D03*
X46850Y-35750D03*
X47250Y-36150D03*
X47250Y-35350D03*
X47250Y-34450D03*
X48850Y-33750D03*
X50050Y-32050D03*
X50850Y-32050D03*
X50850Y-32750D03*
X50850Y-33550D03*
X50850Y-34350D03*
X50850Y-35050D03*
G54D33*
X49623Y-32790D03*
G54D34*
X50050Y-34250D03*
X50050Y-33550D03*
X50050Y-32950D03*
G54D35*
X92400Y-56593D03*
G54D33*
X77428Y-56292D03*
X74492Y-60625D03*
X72642Y-61823D03*
X66133Y-83947D03*
X65631Y-83910D03*
G54D35*
X90836Y-74649D03*
X84416Y-76187D03*
G54D33*
X84451Y-55867D03*
G54D35*
X90486Y-66000D03*
X93019Y-65000D03*
X93021Y-66499D03*
X93021Y-66001D03*
X53735Y-58911D03*
X58066Y-60410D03*
X58881Y-60410D03*
X58006Y-61910D03*
X58270Y-63473D03*
X49352Y-46485D03*
X48541Y-46484D03*
X47887Y-48090D03*
X52840Y-47033D03*
X52839Y-44789D03*
X47499Y-42815D03*
X51932Y-41559D03*
X50932Y-41558D03*
X48331Y-41558D03*
X47332Y-41559D03*
X49325Y-38660D03*
X48350Y-38660D03*
X50910Y-36100D03*
X50272Y-31078D03*
X61241Y-26392D03*
X61242Y-27392D03*
X61242Y-29992D03*
X61242Y-30992D03*
X61244Y-31992D03*
X59176Y-50753D03*
X87804Y-31727D03*
X69098Y-39382D03*
X68376Y-40457D03*
G54D33*
X89730Y-55300D03*
G54D35*
X83027Y-64228D03*
X80646Y-63960D03*
X79310Y-65442D03*
X78499Y-65771D03*
X84932Y-68844D03*
X85528Y-69868D03*
X87469Y-68666D03*
X89180Y-70759D03*
X87901Y-70758D03*
X84226Y-69397D03*
X85493Y-70554D03*
X89076Y-75424D03*
X89075Y-73624D03*
X89080Y-72594D03*
G54D34*
X92211Y-24266D03*
X111149Y-29791D03*
X109550Y-29790D03*
X101350Y-33641D03*
X102850Y-33640D03*
G54D33*
X68407Y-36215D03*
X69060Y-36215D03*
X65157Y-49954D03*
X95755Y-38944D03*
X91989Y-37042D03*
X105400Y-48787D03*
X104911Y-51598D03*
X101667Y-82373D03*
X93951Y-83326D03*
X94935Y-84619D03*
X93950Y-84619D03*
X96707Y-83357D03*
X95526Y-83358D03*
X96706Y-84620D03*
X96116Y-84620D03*
X95525Y-84620D03*
X87202Y-82385D03*
X89260Y-81838D03*
X80490Y-83896D03*
X77579Y-86634D03*
X75333Y-83895D03*
X74834Y-83895D03*
X69521Y-79628D03*
X71096Y-81876D03*
X71096Y-82635D03*
X70702Y-82636D03*
X70112Y-82634D03*
X69523Y-82631D03*
X68930Y-82639D03*
X71290Y-83876D03*
X56932Y-83895D03*
X61895Y-79631D03*
X61896Y-80382D03*
X61895Y-81885D03*
X61895Y-82634D03*
X61502Y-82634D03*
X60911Y-82635D03*
X60321Y-82628D03*
X59730Y-82636D03*
X62089Y-83895D03*
X51121Y-79637D03*
X52302Y-79623D03*
X52696Y-80391D03*
X52696Y-82629D03*
X52302Y-82631D03*
X51713Y-82632D03*
X51122Y-82635D03*
X50531Y-82640D03*
X52700Y-81874D03*
X52886Y-83895D03*
X47733Y-83895D03*
X92976Y-71373D03*
X92975Y-72074D03*
X90815Y-72346D03*
X90815Y-72858D03*
X83706Y-73626D03*
X85458Y-73874D03*
X85666Y-76522D03*
X86076Y-76536D03*
X88156Y-77795D03*
X90967Y-77527D03*
X89966Y-78532D03*
X90959Y-78648D03*
G54D35*
X56650Y-34075D03*
X55075Y-33946D03*
X58951Y-39118D03*
X58852Y-37641D03*
X57883Y-37822D03*
G54D33*
X54605Y-39112D03*
X52336Y-34311D03*
X52335Y-38291D03*
X55388Y-35992D03*
G54D35*
X55650Y-36609D03*
G54D33*
X56108Y-35965D03*
X62494Y-37605D03*
X62484Y-35606D03*
X48111Y-32790D03*
X48850Y-35721D03*
X47672Y-31059D03*
X50631Y-25216D03*
X73209Y-41066D03*
X70812Y-42219D03*
X71297Y-42434D03*
X71853Y-41901D03*
X70657Y-39959D03*
X71004Y-39608D03*
X70657Y-39280D03*
X71336Y-39280D03*
X71336Y-39959D03*
G54D34*
X102661Y-46177D03*
G54D35*
X59445Y-53022D03*
G54D34*
X106889Y-43039D03*
X106680Y-40780D03*
X106733Y-42085D03*
X107687Y-46910D03*
X107470Y-45629D03*
X107243Y-45274D03*
X106583Y-44614D03*
X107228Y-44641D03*
X106580Y-43762D03*
X106895Y-44176D03*
X107207Y-43762D03*
G54D33*
X69761Y-35479D03*
X70391Y-35213D03*
X88460Y-57030D03*
X80913Y-59812D03*
X81317Y-57838D03*
X81309Y-58636D03*
X81309Y-55891D03*
X79312Y-80411D03*
X78130Y-80414D03*
X70112Y-80413D03*
X68926Y-80411D03*
X81699Y-54687D03*
X82876Y-59407D03*
X83311Y-58667D03*
X84089Y-59046D03*
X80127Y-59020D03*
X80905Y-54674D03*
X81309Y-53513D03*
X86793Y-53113D03*
G54D35*
X79611Y-60692D03*
G54D33*
X80119Y-57466D03*
X84454Y-56264D03*
X84854Y-56651D03*
X85243Y-58237D03*
X86446Y-54707D03*
X86457Y-56318D03*
X86806Y-60589D03*
X86425Y-57068D03*
X82093Y-60205D03*
X84857Y-55862D03*
X87221Y-55852D03*
G54D34*
X61421Y-46973D03*
X61011Y-47443D03*
X60981Y-48573D03*
X61021Y-49433D03*
X61941Y-50343D03*
X61847Y-53463D03*
X62169Y-54128D03*
X62190Y-55913D03*
X62197Y-55031D03*
X55166Y-66699D03*
X53605Y-66419D03*
X53479Y-65355D03*
X54242Y-65054D03*
X54340Y-65880D03*
X54284Y-66874D03*
X53038Y-66832D03*
X51750Y-67060D03*
X91378Y-34146D03*
G54D35*
X92837Y-46086D03*
X96437Y-46286D03*
G54D33*
X86040Y-59425D03*
G54D34*
X105513Y-39212D03*
X106549Y-39205D03*
X103197Y-42586D03*
X102653Y-44770D03*
X103625Y-41256D03*
X102575Y-41276D03*
X100885Y-41186D03*
X100395Y-39806D03*
X101895Y-40306D03*
X103415Y-40126D03*
X104625Y-40756D03*
X93911Y-34693D03*
X94170Y-33220D03*
X93096Y-33249D03*
X92228Y-33312D03*
X88563Y-33871D03*
X88178Y-34494D03*
X86519Y-34508D03*
X87198Y-34417D03*
X89226Y-34387D03*
X89208Y-33888D03*
X90558Y-34374D03*
X89888Y-34126D03*
X90527Y-33892D03*
X54578Y-60749D03*
X55740Y-60728D03*
X55159Y-64928D03*
X54663Y-61310D03*
X55446Y-61319D03*
X55474Y-62842D03*
X55070Y-62110D03*
X54774Y-62856D03*
X61916Y-51269D03*
X61941Y-51853D03*
X61952Y-52502D03*
X97737Y-45096D03*
X98202Y-44736D03*
X98187Y-45606D03*
X98052Y-46176D03*
X96343Y-43261D03*
X96819Y-42939D03*
X95972Y-46362D03*
X96182Y-45844D03*
X96203Y-45305D03*
X95412Y-46488D03*
X95517Y-46012D03*
X95489Y-45501D03*
X95437Y-44280D03*
X95441Y-44752D03*
X95465Y-43846D03*
G54D35*
X92837Y-45286D03*
X92837Y-44486D03*
X92837Y-42586D03*
X92837Y-43486D03*
X91188Y-31026D03*
X56344Y-36959D03*
X55417Y-37363D03*
G54D33*
X50527Y-81878D03*
X51116Y-81875D03*
X51707Y-81876D03*
X52301Y-81873D03*
X50533Y-80391D03*
X51713Y-80395D03*
X52304Y-80385D03*
X61504Y-80381D03*
X60913Y-80381D03*
X60322Y-80379D03*
X59732Y-80376D03*
X61504Y-81875D03*
X60909Y-81879D03*
X60319Y-81881D03*
X59728Y-81892D03*
X68927Y-81883D03*
X69519Y-81878D03*
X70109Y-81884D03*
X70703Y-81879D03*
X69523Y-80398D03*
G54D35*
X77571Y-58678D03*
G54D33*
X89026Y-52762D03*
X81566Y-47140D03*
X81939Y-46784D03*
X84032Y-53888D03*
X83205Y-41272D03*
X83616Y-41263D03*
X84027Y-41260D03*
X84420Y-41257D03*
X84882Y-41399D03*
X85325Y-41260D03*
X85693Y-41260D03*
X86109Y-41250D03*
X87120Y-41275D03*
X87516Y-41281D03*
X88356Y-41281D03*
X87906Y-41287D03*
X83596Y-52753D03*
X80157Y-55522D03*
X79418Y-52483D03*
X79185Y-57855D03*
X82883Y-44048D03*
X83279Y-55870D03*
X87999Y-55432D03*
X83272Y-57449D03*
X84456Y-57050D03*
X84848Y-57050D03*
X79165Y-54050D03*
X80125Y-53906D03*
X87621Y-58992D03*
X87951Y-53927D03*
X83661Y-55861D03*
X84847Y-57836D03*
X89584Y-43487D03*
X89571Y-43882D03*
X89593Y-44302D03*
X89566Y-44707D03*
X89616Y-46588D03*
X89613Y-46192D03*
X89607Y-45787D03*
X89593Y-45418D03*
X86903Y-43482D03*
X86841Y-46579D03*
X89593Y-47494D03*
X86637Y-41278D03*
X85884Y-46999D03*
X85377Y-46276D03*
X85991Y-43432D03*
X83671Y-43631D03*
X83513Y-44038D03*
X83397Y-42578D03*
X85235Y-43580D03*
X84149Y-44038D03*
X84150Y-45928D03*
X82258Y-42448D03*
X80901Y-43046D03*
X81792Y-43639D03*
X82104Y-43681D03*
X81955Y-45348D03*
X81088Y-45787D03*
X82587Y-47023D03*
X82794Y-42475D03*
X88482Y-60730D03*
X85954Y-53935D03*
X85242Y-54688D03*
X85197Y-53117D03*
X82092Y-53102D03*
X83650Y-60214D03*
X89613Y-51719D03*
X84922Y-42560D03*
X85276Y-60608D03*
X84462Y-44354D03*
X85213Y-46630D03*
X73450Y-61008D03*
X73534Y-60115D03*
X86435Y-55852D03*
X53282Y-53636D03*
X71096Y-56317D03*
X82489Y-54691D03*
X56223Y-33006D03*
X56648Y-33008D03*
X57251Y-38776D03*
X58136Y-38690D03*
X90816Y-71578D03*
G54D35*
X89376Y-32062D03*
X89780Y-32476D03*
X56036Y-60310D03*
X53717Y-61519D03*
X56592Y-61913D03*
X56870Y-60645D03*
X57335Y-61010D03*
X59271Y-61243D03*
X90048Y-32272D03*
X60308Y-51568D03*
X60076Y-52365D03*
X60341Y-51953D03*
X53070Y-61537D03*
X53268Y-60689D03*
X58470Y-61243D03*
G54D34*
X96530Y-34212D03*
X94628Y-29460D03*
X94628Y-28645D03*
G54D35*
X106145Y-42576D03*
X107845Y-42576D03*
X52752Y-62239D03*
G54D33*
X76758Y-86322D03*
X67558Y-86316D03*
X55950Y-80239D03*
X47750Y-80239D03*
X65450Y-74750D03*
X93160Y-82172D03*
X102935Y-82170D03*
G54D35*
X59141Y-53553D03*
X56002Y-59610D03*
G54D34*
X57462Y-65586D03*
X57357Y-66531D03*
G54D33*
X71423Y-35214D03*
G54D34*
X57059Y-64187D03*
X57347Y-64570D03*
G54D35*
X57133Y-63712D03*
X88189Y-31155D03*
G54D34*
X93883Y-36230D03*
X92930Y-36219D03*
X63147Y-47112D03*
X64031Y-47043D03*
X64391Y-49013D03*
X64101Y-48643D03*
X64201Y-47533D03*
X57020Y-62970D03*
G54D35*
X56857Y-62503D03*
G54D33*
X66248Y-75917D03*
X48547Y-81418D03*
X56748Y-81418D03*
G54D34*
X56944Y-65803D03*
X91363Y-35369D03*
X91195Y-36209D03*
X93085Y-35327D03*
X63968Y-50789D03*
X63660Y-50530D03*
X63905Y-49949D03*
X63828Y-49438D03*
G54D33*
X87586Y-55872D03*
G54D34*
X66227Y-54707D03*
X66241Y-55960D03*
X65331Y-55932D03*
X64561Y-55960D03*
X64008Y-55554D03*
X64008Y-54399D03*
X64365Y-54833D03*
G54D33*
X87960Y-57090D03*
X89373Y-55258D03*
X88889Y-58186D03*
X83273Y-56658D03*
X82879Y-56658D03*
X82875Y-57448D03*
X86831Y-55452D03*
X86811Y-56662D03*
X86824Y-57446D03*
X83667Y-55476D03*
X84061Y-55869D03*
X84849Y-56262D03*
X84060Y-57842D03*
X83269Y-55486D03*
X84081Y-56254D03*
X83670Y-57440D03*
X82489Y-57839D03*
G54D35*
X63831Y-56047D03*
X63133Y-56069D03*
G54D33*
X84848Y-55081D03*
X83251Y-56272D03*
X85242Y-56657D03*
X84848Y-55476D03*
X84456Y-56655D03*
X84062Y-57050D03*
X85245Y-57841D03*
X84455Y-57445D03*
G54D34*
X87290Y-38893D03*
G54D33*
X81174Y-46693D03*
X86019Y-53500D03*
G54D34*
X86612Y-36993D03*
X86769Y-36471D03*
X87206Y-36147D03*
X86333Y-37996D03*
X87719Y-36142D03*
X87714Y-36813D03*
X87273Y-37155D03*
G54D35*
X94197Y-43486D03*
X93913Y-43049D03*
X86268Y-36180D03*
X86244Y-35418D03*
G54D33*
X84841Y-42996D03*
X81715Y-53906D03*
X84828Y-53909D03*
X80901Y-52720D03*
X87603Y-53116D03*
X86037Y-52722D03*
X84036Y-54679D03*
X83292Y-53920D03*
X82851Y-53088D03*
X84079Y-52758D03*
X86616Y-42732D03*
G54D35*
X85713Y-47290D03*
X86103Y-47365D03*
G54D33*
X83397Y-42911D03*
X83595Y-44755D03*
X84126Y-46228D03*
X83346Y-47044D03*
X84528Y-47041D03*
X80589Y-43744D03*
X81696Y-42821D03*
X81093Y-46450D03*
X82788Y-42820D03*
X82449Y-47242D03*
X82083Y-56648D03*
X80125Y-59806D03*
X81302Y-60590D03*
X79602Y-80636D03*
X79012Y-80618D03*
X78420Y-80608D03*
X77558Y-80730D03*
X70414Y-80628D03*
X69824Y-80634D03*
X69211Y-80607D03*
G54D35*
X62070Y-79341D03*
G54D33*
X80364Y-78884D03*
X79652Y-78580D03*
X78962Y-78584D03*
X78467Y-78578D03*
X70932Y-78599D03*
X70474Y-78598D03*
X69759Y-78644D03*
X69286Y-78646D03*
G54D35*
X56858Y-39591D03*
G54D33*
X103254Y-51588D03*
G54D35*
X71293Y-80417D03*
G54D33*
X81999Y-77516D03*
G54D35*
X76380Y-56292D03*
G54D33*
X58640Y-83727D03*
X75178Y-59603D03*
G54D35*
X67633Y-83916D03*
X52871Y-79557D03*
X80453Y-79584D03*
X98173Y-44087D03*
X48586Y-36600D03*
X48346Y-37335D03*
X48332Y-40242D03*
X47333Y-40240D03*
X48542Y-45618D03*
X49351Y-45618D03*
X51650Y-47250D03*
X51650Y-45850D03*
X51486Y-44450D03*
X84436Y-64180D03*
G54D34*
X51225Y-70090D03*
G54D33*
X94945Y-58780D03*
X91820Y-73888D03*
X77041Y-83727D03*
X62975Y-77241D03*
X62135Y-77409D03*
X62828Y-79446D03*
X49925Y-80934D03*
X49600Y-78443D03*
X50745Y-78666D03*
X49441Y-83727D03*
X92976Y-69973D03*
X92976Y-70673D03*
X90640Y-77842D03*
X75050Y-80838D03*
X74836Y-80251D03*
X75050Y-79786D03*
X68340Y-80774D03*
X65836Y-79350D03*
X65835Y-80250D03*
X65835Y-81150D03*
X54757Y-38668D03*
X62541Y-27392D03*
X60503Y-25211D03*
X62542Y-26392D03*
X62277Y-26028D03*
X72184Y-40468D03*
X69719Y-39717D03*
X71854Y-40878D03*
X78829Y-54301D03*
G54D35*
X74428Y-59451D03*
X71687Y-60706D03*
X75350Y-63526D03*
G54D34*
X78221Y-67915D03*
G54D35*
X79811Y-65017D03*
G54D33*
X84454Y-55475D03*
X85251Y-55862D03*
X85645Y-57044D03*
X81303Y-54322D03*
G54D34*
X52257Y-70090D03*
X51738Y-69380D03*
X51739Y-70798D03*
G54D33*
X83644Y-59379D03*
X86816Y-59806D03*
X87613Y-60636D03*
X86049Y-60605D03*
X84455Y-60593D03*
X84089Y-58270D03*
X85040Y-69734D03*
G54D35*
X90465Y-66500D03*
G54D33*
X82883Y-60596D03*
X82094Y-59414D03*
X81693Y-58638D03*
X87997Y-59880D03*
X85853Y-77797D03*
X84399Y-70554D03*
X85221Y-59047D03*
X86011Y-56252D03*
X85636Y-58234D03*
X82515Y-54314D03*
X82483Y-57047D03*
X81299Y-55096D03*
X82095Y-55478D03*
X78511Y-52442D03*
X79741Y-53126D03*
X80121Y-54671D03*
X80909Y-53901D03*
X84454Y-58231D03*
X86801Y-59022D03*
X85991Y-57442D03*
X86436Y-54289D03*
X87597Y-53908D03*
X80126Y-58229D03*
X81703Y-56648D03*
X83272Y-55086D03*
X82477Y-55862D03*
X80127Y-56266D03*
X83668Y-58234D03*
X84430Y-73881D03*
X87900Y-69710D03*
X89179Y-69710D03*
X90123Y-72601D03*
X90123Y-73625D03*
X90123Y-75417D03*
X84397Y-76952D03*
G54D35*
X100462Y-80272D03*
X91122Y-80604D03*
G54D34*
X49726Y-70090D03*
X50326Y-64190D03*
X50123Y-65880D03*
X51665Y-65934D03*
X50870Y-64361D03*
X50218Y-64721D03*
G54D35*
X49510Y-62240D03*
X50340Y-62280D03*
X94337Y-44886D03*
X94437Y-45386D03*
X94537Y-45586D03*
G54D33*
X90011Y-47792D03*
X90011Y-47292D03*
X89911Y-46392D03*
X89911Y-45992D03*
X89911Y-45592D03*
X89911Y-44892D03*
X89911Y-44492D03*
X89911Y-44092D03*
X89911Y-43692D03*
X89911Y-43192D03*
X89111Y-41892D03*
X89411Y-41992D03*
X89411Y-42392D03*
X88811Y-42392D03*
X88811Y-42792D03*
X89711Y-42792D03*
X89711Y-42092D03*
X89711Y-41592D03*
X89111Y-41592D03*
X89631Y-46940D03*
X83202Y-41618D03*
X87109Y-41606D03*
X87527Y-41612D03*
X87913Y-41616D03*
X88356Y-41602D03*
X89187Y-43495D03*
X89193Y-43876D03*
X89199Y-44298D03*
X89203Y-44687D03*
X89569Y-45144D03*
X86637Y-41758D03*
X85321Y-41610D03*
X85715Y-41602D03*
X86109Y-41599D03*
X83610Y-41617D03*
X84003Y-41608D03*
X84411Y-41614D03*
X84864Y-41764D03*
X84457Y-55084D03*
X85255Y-54316D03*
X89238Y-52402D03*
X82880Y-55476D03*
X84055Y-55470D03*
X83715Y-46940D03*
X84957Y-43582D03*
G54D36*
X88347Y-52730D02*
X87523Y-52730D01*
X88270Y-46821D02*
X88270Y-47323D01*
X88099Y-46925D02*
X88099Y-46781D01*
X87820Y-46502D02*
X88067Y-46749D01*
X87703Y-46385D02*
X86720Y-46385D01*
X86720Y-46385D02*
X86694Y-46411D01*
X86694Y-46411D02*
X86229Y-46411D01*
X86229Y-46411D02*
X85892Y-46074D01*
X85892Y-46074D02*
X85892Y-45720D01*
X85892Y-45720D02*
X85755Y-45583D01*
X85755Y-45583D02*
X85755Y-44987D01*
X85730Y-44962D02*
X85755Y-44987D01*
X87820Y-46502D02*
X87703Y-46385D01*
X88098Y-47197D02*
X88098Y-46925D01*
X88098Y-46925D02*
X88099Y-46925D01*
X88099Y-46781D02*
X88067Y-46749D01*
X88270Y-47323D02*
X88210Y-47383D01*
X88210Y-47383D02*
X88139Y-47383D01*
X88139Y-47383D02*
X88098Y-47342D01*
X88098Y-47342D02*
X88098Y-47197D01*
X88599Y-46570D02*
X88599Y-46712D01*
X88639Y-46530D02*
X88599Y-46570D01*
X88729Y-46530D02*
X88639Y-46530D01*
X88771Y-46572D02*
X88729Y-46530D01*
X88449Y-47547D02*
X88449Y-46793D01*
X88771Y-47510D02*
X88771Y-46918D01*
X88771Y-52306D02*
X88347Y-52730D01*
X88771Y-47510D02*
X88771Y-52306D01*
X88771Y-46918D02*
X88771Y-46670D01*
X88560Y-47575D02*
X88477Y-47575D01*
X88477Y-47575D02*
X88449Y-47547D01*
X88599Y-47536D02*
X88560Y-47575D01*
X88599Y-46712D02*
X88599Y-47536D01*
X88771Y-46670D02*
X88771Y-46572D01*
X88270Y-46631D02*
X88333Y-46568D01*
X88333Y-46568D02*
X88406Y-46568D01*
X88406Y-46568D02*
X88450Y-46612D01*
X88450Y-46612D02*
X88450Y-46793D01*
X88450Y-46793D02*
X88449Y-46793D01*
X88270Y-46821D02*
X88270Y-46631D01*
X87523Y-52730D02*
X87356Y-52897D01*
X86411Y-52720D02*
X86565Y-52720D01*
X86565Y-52720D02*
X86741Y-52897D01*
X86741Y-52897D02*
X87356Y-52897D01*
X85503Y-44734D02*
X85730Y-44961D01*
X85186Y-44734D02*
X85503Y-44734D01*
X84866Y-44414D02*
X85186Y-44734D01*
X84866Y-44126D02*
X84866Y-44414D01*
X84775Y-44035D02*
X84866Y-44126D01*
X85269Y-47469D02*
X85269Y-47250D01*
X85110Y-45260D02*
X85110Y-45709D01*
X85110Y-45709D02*
X85053Y-45766D01*
X85053Y-45766D02*
X85053Y-46112D01*
X85053Y-46112D02*
X84795Y-46370D01*
X84795Y-46370D02*
X84795Y-46776D01*
X84795Y-46776D02*
X85269Y-47250D01*
X85110Y-45260D02*
X85110Y-45178D01*
X84741Y-44722D02*
X85110Y-45091D01*
X85110Y-45178D02*
X85110Y-45091D01*
X87229Y-52165D02*
X87204Y-52140D01*
X87229Y-52351D02*
X87229Y-52165D01*
X87344Y-52467D02*
X87229Y-52351D01*
X88198Y-52467D02*
X88411Y-52254D01*
X88045Y-52467D02*
X88198Y-52467D01*
X88411Y-51949D02*
X88411Y-52254D01*
X85269Y-47469D02*
X85467Y-47667D01*
X85467Y-47667D02*
X86278Y-47667D01*
X86278Y-47667D02*
X86453Y-47491D01*
X86453Y-47491D02*
X86453Y-47223D01*
X86453Y-47223D02*
X86570Y-47106D01*
X86570Y-47106D02*
X87357Y-47106D01*
X87357Y-47106D02*
X88411Y-48160D01*
X88411Y-48160D02*
X88411Y-51949D01*
X86698Y-51635D02*
X84561Y-51635D01*
X87204Y-52140D02*
X86698Y-51635D01*
X88045Y-52467D02*
X87344Y-52467D01*
X84415Y-53099D02*
X84430Y-53114D01*
X84415Y-52480D02*
X84415Y-53099D01*
X84415Y-52480D02*
X84415Y-52326D01*
X84408Y-51787D02*
X84408Y-51920D01*
X84408Y-51920D02*
X84463Y-51975D01*
X84463Y-51975D02*
X84545Y-51975D01*
X84545Y-51975D02*
X84605Y-52035D01*
X84605Y-52035D02*
X84605Y-52102D01*
X84605Y-52102D02*
X84415Y-52292D01*
X84415Y-52292D02*
X84415Y-52326D01*
X84561Y-51635D02*
X84408Y-51787D01*
X84693Y-46597D02*
X84693Y-46814D01*
X85157Y-47278D02*
X85157Y-47499D01*
X84435Y-44712D02*
X84435Y-44725D01*
X84435Y-44806D02*
X84435Y-44725D01*
X84751Y-45122D02*
X84435Y-44806D01*
X84751Y-45182D02*
X84751Y-45531D01*
X84751Y-45531D02*
X84953Y-45733D01*
X84953Y-45733D02*
X84953Y-46062D01*
X84953Y-46062D02*
X84693Y-46322D01*
X84693Y-46322D02*
X84693Y-46597D01*
X84751Y-45182D02*
X84751Y-45122D01*
X88121Y-52103D02*
X88062Y-52162D01*
X87366Y-52162D02*
X87291Y-52087D01*
X88062Y-52162D02*
X87366Y-52162D01*
X88311Y-51913D02*
X88311Y-51787D01*
X88121Y-52103D02*
X88311Y-51913D01*
X85157Y-47499D02*
X85242Y-47584D01*
X84228Y-51826D02*
X84228Y-51982D01*
X84228Y-51826D02*
X84519Y-51535D01*
X84519Y-51535D02*
X86739Y-51535D01*
X86739Y-51535D02*
X87291Y-52087D01*
X85425Y-47767D02*
X85242Y-47584D01*
X86319Y-47767D02*
X85425Y-47767D01*
X86553Y-47533D02*
X86371Y-47715D01*
X86371Y-47715D02*
X86319Y-47767D01*
X86553Y-47278D02*
X86553Y-47533D01*
X86625Y-47206D02*
X86553Y-47278D01*
X87315Y-47206D02*
X86625Y-47206D01*
X88311Y-48202D02*
X87315Y-47206D01*
X88311Y-51787D02*
X88311Y-48202D01*
X84693Y-46814D02*
X85157Y-47278D01*
X84315Y-52069D02*
X84228Y-51982D01*
X84228Y-51982D02*
X84228Y-51982D01*
X84315Y-52870D02*
X84315Y-52069D01*
X84255Y-52930D02*
X84315Y-52870D01*
X84255Y-53296D02*
X84255Y-52930D01*
X84475Y-53516D02*
X84255Y-53296D01*
X83142Y-46687D02*
X83142Y-46842D01*
X83046Y-45533D02*
X83097Y-45482D01*
X83097Y-45482D02*
X83221Y-45482D01*
X83221Y-45482D02*
X83283Y-45544D01*
X83283Y-45544D02*
X83283Y-45734D01*
X83283Y-45734D02*
X82918Y-46099D01*
X82918Y-46099D02*
X82918Y-46463D01*
X82918Y-46463D02*
X83097Y-46642D01*
X83097Y-46642D02*
X83142Y-46687D01*
X83324Y-48107D02*
X83350Y-48133D01*
X83234Y-48107D02*
X83324Y-48107D01*
X83199Y-48142D02*
X83234Y-48107D01*
X82434Y-51002D02*
X82360Y-51002D01*
X83457Y-47932D02*
X83495Y-47894D01*
X83142Y-46842D02*
X83071Y-46913D01*
X83071Y-46913D02*
X83071Y-47165D01*
X83071Y-47165D02*
X83495Y-47589D01*
X83495Y-47589D02*
X83495Y-47896D01*
X83049Y-50032D02*
X83049Y-48070D01*
X83049Y-48070D02*
X83155Y-47964D01*
X83155Y-47964D02*
X83425Y-47964D01*
X83425Y-47964D02*
X83457Y-47932D01*
X82466Y-50675D02*
X83049Y-50092D01*
X83049Y-50092D02*
X83049Y-50032D01*
X82468Y-50968D02*
X82434Y-51002D01*
X82597Y-50748D02*
X82468Y-50877D01*
X82593Y-50752D02*
X82597Y-50748D01*
X83199Y-50146D02*
X82593Y-50752D01*
X82468Y-50877D02*
X82468Y-50968D01*
X82314Y-50827D02*
X82314Y-50956D01*
X82314Y-50956D02*
X82360Y-51002D01*
X82466Y-50675D02*
X82314Y-50827D01*
X83199Y-50146D02*
X83199Y-48142D01*
X83673Y-48337D02*
X83673Y-48180D01*
X82483Y-53004D02*
X82701Y-52786D01*
X82483Y-53118D02*
X82483Y-53004D01*
X83351Y-48242D02*
X83351Y-48134D01*
X82593Y-51782D02*
X82593Y-50951D01*
X82593Y-50951D02*
X83346Y-50198D01*
X83346Y-50198D02*
X83346Y-49120D01*
X83346Y-49120D02*
X83448Y-49018D01*
X83448Y-49018D02*
X83593Y-49018D01*
X83593Y-49018D02*
X83673Y-48938D01*
X83673Y-48938D02*
X83673Y-48337D01*
X83517Y-48253D02*
X83517Y-48794D01*
X83517Y-48794D02*
X83467Y-48844D01*
X83467Y-48844D02*
X83387Y-48844D01*
X83387Y-48844D02*
X83351Y-48808D01*
X83351Y-48808D02*
X83351Y-48242D01*
X83673Y-48180D02*
X83634Y-48141D01*
X83634Y-48141D02*
X83552Y-48141D01*
X83552Y-48141D02*
X83517Y-48176D01*
X82593Y-51991D02*
X82593Y-51782D01*
X82638Y-52036D02*
X82593Y-51991D01*
X82701Y-52336D02*
X82638Y-52273D01*
X82701Y-52786D02*
X82701Y-52336D01*
X82638Y-52273D02*
X82638Y-52036D01*
X83517Y-48176D02*
X83517Y-48253D01*
X82969Y-47254D02*
X82969Y-46727D01*
X82607Y-49754D02*
X82607Y-47855D01*
X82607Y-47855D02*
X82948Y-47514D01*
X82607Y-50000D02*
X82607Y-49754D01*
X83346Y-44968D02*
X83226Y-45088D01*
X82806Y-45508D02*
X82806Y-46564D01*
X83226Y-45088D02*
X82806Y-45508D01*
X83346Y-44755D02*
X83346Y-44968D01*
X83043Y-47419D02*
X83043Y-47328D01*
X83043Y-47328D02*
X82969Y-47254D01*
X82948Y-47514D02*
X83043Y-47419D01*
X82969Y-46727D02*
X82806Y-46564D01*
X81921Y-51142D02*
X82204Y-51425D01*
X82276Y-51425D02*
X82312Y-51389D01*
X82204Y-51425D02*
X82276Y-51425D01*
X82056Y-50725D02*
X82056Y-50838D01*
X82749Y-50032D02*
X82056Y-50725D01*
X83071Y-47608D02*
X83135Y-47544D01*
X82749Y-47930D02*
X82749Y-49904D01*
X83071Y-47608D02*
X82749Y-47930D01*
X83135Y-47544D02*
X83214Y-47544D01*
X82749Y-49904D02*
X82749Y-50032D01*
X82056Y-50833D02*
X82056Y-51064D01*
X82056Y-51070D02*
X82313Y-51327D01*
X82313Y-51327D02*
X82313Y-51387D01*
X81921Y-51142D02*
X81921Y-50830D01*
X81921Y-50830D02*
X81921Y-50686D01*
X81921Y-50686D02*
X82605Y-50002D01*
X83253Y-47582D02*
X83215Y-47544D01*
X83134Y-47763D02*
X83253Y-47644D01*
X82422Y-51284D02*
X82164Y-51026D01*
X82164Y-51026D02*
X82164Y-50765D01*
X82164Y-50765D02*
X82899Y-50030D01*
X82899Y-50030D02*
X82899Y-47998D01*
X82899Y-47998D02*
X83134Y-47763D01*
X82422Y-51742D02*
X82422Y-51284D01*
X83253Y-47644D02*
X83253Y-47582D01*
X82422Y-52042D02*
X82422Y-51726D01*
X82422Y-52261D02*
X82422Y-52042D01*
X82464Y-52303D02*
X82422Y-52261D01*
X82069Y-44196D02*
X82069Y-43997D01*
X82174Y-43952D02*
X82266Y-44044D01*
X82114Y-43952D02*
X82174Y-43952D01*
X82069Y-43997D02*
X82114Y-43952D01*
X82069Y-44556D02*
X82069Y-44489D01*
X82069Y-44196D02*
X82069Y-44489D01*
X78777Y-49688D02*
X78777Y-49804D01*
X78940Y-49960D02*
X78940Y-49699D01*
X78815Y-49650D02*
X78777Y-49688D01*
X78891Y-49650D02*
X78815Y-49650D01*
X78940Y-49699D02*
X78891Y-49650D01*
X78777Y-49804D02*
X78777Y-51190D01*
X78777Y-51190D02*
X78978Y-51391D01*
X78978Y-51391D02*
X79214Y-51391D01*
X78972Y-47125D02*
X78972Y-49007D01*
X79126Y-49161D02*
X79126Y-50539D01*
X78972Y-49007D02*
X79126Y-49161D01*
X79126Y-51138D02*
X79074Y-51190D01*
X79074Y-51190D02*
X79011Y-51190D01*
X79011Y-51190D02*
X78940Y-51119D01*
X78940Y-51119D02*
X78940Y-49960D01*
X79126Y-50539D02*
X79126Y-51138D01*
X79214Y-51391D02*
X79678Y-51854D01*
X81701Y-53096D02*
X81519Y-52914D01*
X81519Y-52914D02*
X81219Y-52914D01*
X81079Y-52774D02*
X81079Y-52330D01*
X81219Y-52914D02*
X81079Y-52774D01*
X81079Y-52230D02*
X81007Y-52158D01*
X81007Y-52158D02*
X80732Y-52158D01*
X80732Y-52158D02*
X80583Y-52009D01*
X81079Y-52330D02*
X81079Y-52230D01*
X80429Y-51854D02*
X80092Y-51854D01*
X80583Y-52009D02*
X80429Y-51854D01*
X80092Y-51854D02*
X79678Y-51854D01*
X80677Y-46751D02*
X80607Y-46681D01*
X78972Y-46894D02*
X78972Y-47125D01*
X79185Y-46681D02*
X78972Y-46894D01*
X80607Y-46681D02*
X79185Y-46681D01*
X81240Y-46867D02*
X80793Y-46867D01*
X80793Y-46867D02*
X80677Y-46751D01*
X81665Y-46214D02*
X81665Y-46442D01*
X81665Y-46442D02*
X81240Y-46867D01*
X81665Y-45590D02*
X81665Y-44960D01*
X81665Y-44960D02*
X82069Y-44556D01*
X81665Y-45590D02*
X81665Y-46214D01*
X82161Y-46666D02*
X82161Y-46900D01*
X81561Y-47500D02*
X81115Y-47500D01*
X82143Y-46918D02*
X81561Y-47500D01*
X81115Y-47500D02*
X80991Y-47624D01*
X80991Y-47625D02*
X80991Y-47920D01*
X80991Y-47624D02*
X80991Y-47625D01*
X82161Y-46900D02*
X82143Y-46918D01*
X80523Y-48253D02*
X80523Y-48183D01*
X80802Y-47793D02*
X80802Y-47922D01*
X80848Y-47968D02*
X80943Y-47968D01*
X80802Y-47922D02*
X80848Y-47968D01*
X80943Y-47968D02*
X80991Y-47920D01*
X80601Y-47984D02*
X80524Y-47984D01*
X80313Y-48011D02*
X80296Y-48028D01*
X80313Y-47590D02*
X80313Y-48011D01*
X80367Y-47536D02*
X80313Y-47590D01*
X80433Y-47536D02*
X80367Y-47536D01*
X80481Y-47584D02*
X80433Y-47536D01*
X80481Y-47941D02*
X80481Y-47584D01*
X80524Y-47984D02*
X80481Y-47941D01*
X80202Y-51547D02*
X79941Y-51286D01*
X80556Y-51547D02*
X80202Y-51547D01*
X80811Y-51802D02*
X80556Y-51547D01*
X81495Y-51802D02*
X80811Y-51802D01*
X81591Y-51898D02*
X81495Y-51802D01*
X81591Y-52156D02*
X81591Y-51898D01*
X80523Y-48253D02*
X80523Y-49286D01*
X80523Y-49286D02*
X79941Y-49868D01*
X79941Y-49868D02*
X79941Y-51274D01*
X79941Y-51274D02*
X79941Y-51286D01*
X80523Y-48183D02*
X80476Y-48136D01*
X80476Y-48136D02*
X80421Y-48136D01*
X80421Y-48136D02*
X80373Y-48184D01*
X80373Y-48184D02*
X80373Y-49209D01*
X80373Y-49209D02*
X79781Y-49801D01*
X79781Y-49801D02*
X79781Y-51102D01*
X79781Y-51102D02*
X79726Y-51157D01*
X79726Y-51157D02*
X79650Y-51157D01*
X79650Y-51157D02*
X79602Y-51109D01*
X79602Y-51109D02*
X79602Y-49752D01*
X79602Y-49752D02*
X80211Y-49143D01*
X80211Y-49143D02*
X80211Y-48113D01*
X80211Y-48113D02*
X80296Y-48028D01*
X80656Y-47929D02*
X80655Y-47929D01*
X80601Y-47984D02*
X80656Y-47929D01*
X80802Y-47660D02*
X80802Y-47528D01*
X80802Y-47528D02*
X80759Y-47485D01*
X80759Y-47485D02*
X80720Y-47485D01*
X80720Y-47485D02*
X80655Y-47550D01*
X80655Y-47550D02*
X80655Y-47929D01*
X80991Y-47920D02*
X80943Y-47968D01*
X80802Y-47793D02*
X80802Y-47660D01*
X81591Y-52156D02*
X81609Y-52174D01*
X80295Y-44923D02*
X78901Y-44923D01*
X80368Y-44696D02*
X80674Y-44696D01*
X80684Y-44923D02*
X80295Y-44923D01*
X80743Y-44864D02*
X80684Y-44923D01*
X80743Y-44765D02*
X80743Y-44864D01*
X80674Y-44696D02*
X80743Y-44765D01*
X78315Y-45713D02*
X78315Y-45713D01*
X78315Y-45671D02*
X78315Y-45713D01*
X78658Y-45328D02*
X78315Y-45671D01*
X78658Y-44913D02*
X78658Y-45328D01*
X78875Y-44696D02*
X78658Y-44913D01*
X80368Y-44696D02*
X78875Y-44696D01*
X79683Y-52519D02*
X79747Y-52519D01*
X80640Y-52519D02*
X79747Y-52519D01*
X80715Y-52594D02*
X80640Y-52519D01*
X80715Y-52874D02*
X80715Y-52657D01*
X80715Y-52657D02*
X80715Y-52594D01*
X78315Y-45713D02*
X78315Y-46672D01*
X78315Y-46672D02*
X78506Y-46863D01*
X78506Y-46863D02*
X78506Y-49157D01*
X78506Y-49157D02*
X78324Y-49339D01*
X78324Y-49339D02*
X78324Y-51412D01*
X78324Y-51412D02*
X78774Y-51862D01*
X78774Y-51862D02*
X79026Y-51862D01*
X79026Y-51862D02*
X79683Y-52519D01*
X80928Y-53087D02*
X80715Y-52874D01*
X78901Y-44923D02*
X78838Y-44986D01*
X81148Y-45115D02*
X81610Y-44653D01*
X81148Y-45115D02*
X79112Y-45115D01*
X78917Y-45115D02*
X78838Y-45036D01*
X78838Y-45036D02*
X78838Y-44986D01*
X79112Y-45115D02*
X78917Y-45115D01*
X78999Y-46643D02*
X78822Y-46820D01*
X80346Y-51958D02*
X79601Y-51958D01*
X80907Y-52372D02*
X80760Y-52372D01*
X80760Y-52372D02*
X80499Y-52111D01*
X80499Y-52111D02*
X80346Y-51958D01*
X78916Y-51541D02*
X79152Y-51541D01*
X78627Y-51252D02*
X78916Y-51541D01*
X78627Y-49621D02*
X78627Y-51252D01*
X78822Y-49426D02*
X78627Y-49621D01*
X78822Y-46820D02*
X78822Y-49426D01*
X79152Y-51541D02*
X79429Y-51818D01*
X79569Y-51958D02*
X79601Y-51958D01*
X79601Y-51958D02*
X79601Y-51958D01*
X79429Y-51818D02*
X79569Y-51958D01*
X80723Y-45856D02*
X80673Y-45806D01*
X80673Y-45806D02*
X79187Y-45806D01*
X79187Y-45806D02*
X78999Y-45994D01*
X78999Y-45994D02*
X78999Y-46643D01*
X79480Y-46002D02*
X79241Y-46002D01*
X79260Y-46366D02*
X80653Y-46366D01*
X80653Y-46366D02*
X80715Y-46304D01*
X80715Y-46304D02*
X80715Y-46242D01*
X80715Y-46242D02*
X80661Y-46188D01*
X80661Y-46188D02*
X79330Y-46188D01*
X81129Y-46102D02*
X80706Y-46525D01*
X80706Y-46525D02*
X79403Y-46525D01*
X81129Y-46102D02*
X81450Y-46102D01*
X79210Y-46366D02*
X79168Y-46408D01*
X79168Y-46408D02*
X79168Y-46476D01*
X79168Y-46476D02*
X79217Y-46525D01*
X79260Y-46366D02*
X79210Y-46366D01*
X79241Y-46188D02*
X79194Y-46141D01*
X79480Y-46002D02*
X80645Y-46002D01*
X79403Y-46525D02*
X79217Y-46525D01*
X79330Y-46188D02*
X79241Y-46188D01*
X79241Y-46002D02*
X79194Y-46049D01*
X79194Y-46141D02*
X79194Y-46049D01*
X80679Y-46002D02*
X80645Y-46002D01*
X80723Y-45958D02*
X80679Y-46002D01*
X80723Y-45958D02*
X80723Y-45856D01*
X80637Y-44537D02*
X78817Y-44537D01*
X80530Y-52717D02*
X79759Y-52717D01*
X78151Y-45760D02*
X78151Y-51475D01*
X78151Y-51475D02*
X79393Y-52717D01*
X79393Y-52717D02*
X79759Y-52717D01*
X78151Y-45583D02*
X78492Y-45242D01*
X78492Y-45242D02*
X78492Y-44860D01*
X78492Y-44860D02*
X78816Y-44536D01*
X78151Y-45760D02*
X78151Y-45583D01*
X81484Y-44414D02*
X81505Y-44410D01*
X81272Y-44414D02*
X81484Y-44414D01*
X80962Y-44104D02*
X81272Y-44414D01*
X78847Y-44104D02*
X80962Y-44104D01*
X78775Y-44176D02*
X78847Y-44104D01*
X78775Y-44261D02*
X78775Y-44176D01*
X78847Y-44333D02*
X78775Y-44261D01*
X80044Y-44333D02*
X78847Y-44333D01*
X80044Y-44333D02*
X80623Y-44333D01*
X80623Y-44333D02*
X80691Y-44401D01*
X80691Y-44401D02*
X80691Y-44483D01*
X80691Y-44483D02*
X80637Y-44537D01*
X78656Y-49228D02*
X78477Y-49407D01*
X81425Y-45796D02*
X81412Y-45783D01*
X80065Y-45647D02*
X80712Y-45647D01*
X79975Y-45442D02*
X79975Y-45444D01*
X80737Y-45442D02*
X79975Y-45442D01*
X80779Y-45484D02*
X80737Y-45442D01*
X80779Y-45580D02*
X80779Y-45484D01*
X80712Y-45647D02*
X80779Y-45580D01*
X80409Y-52296D02*
X80442Y-52296D01*
X79444Y-52068D02*
X79348Y-51972D01*
X80181Y-52068D02*
X79444Y-52068D01*
X80409Y-52296D02*
X80181Y-52068D01*
X78663Y-45830D02*
X78660Y-45833D01*
X78521Y-46515D02*
X78465Y-46459D01*
X78609Y-46515D02*
X78521Y-46515D01*
X78660Y-46464D02*
X78609Y-46515D01*
X78660Y-45833D02*
X78660Y-46464D01*
X78465Y-46459D02*
X78465Y-46046D01*
X79975Y-45444D02*
X79049Y-45444D01*
X79049Y-45444D02*
X78663Y-45830D01*
X78465Y-46046D02*
X78465Y-45773D01*
X78465Y-45773D02*
X78973Y-45265D01*
X78973Y-45265D02*
X80894Y-45265D01*
X80894Y-45265D02*
X81412Y-45783D01*
X79117Y-45647D02*
X80065Y-45647D01*
X78838Y-45926D02*
X79117Y-45647D01*
X78838Y-46565D02*
X78838Y-45926D01*
X78656Y-46747D02*
X78838Y-46565D01*
X78656Y-49228D02*
X78656Y-46747D01*
X78477Y-49582D02*
X78477Y-49407D01*
X79348Y-51972D02*
X79088Y-51712D01*
X79088Y-51712D02*
X78836Y-51712D01*
X78836Y-51712D02*
X78477Y-51353D01*
X78477Y-51353D02*
X78477Y-49582D01*
X81487Y-45796D02*
X81425Y-45796D01*
X83314Y-46496D02*
X83474Y-46496D01*
X85314Y-49978D02*
X84410Y-49978D01*
X86823Y-49894D02*
X86823Y-49752D01*
X83201Y-46244D02*
X83201Y-46384D01*
X83201Y-46384D02*
X83314Y-46496D01*
X83529Y-46658D02*
X83529Y-47044D01*
X83529Y-47044D02*
X83802Y-47317D01*
X83802Y-47317D02*
X83802Y-47546D01*
X83802Y-47875D02*
X83937Y-48010D01*
X83802Y-47546D02*
X83802Y-47875D01*
X83547Y-50436D02*
X82935Y-51048D01*
X82884Y-52710D02*
X82884Y-52756D01*
X82884Y-52710D02*
X83085Y-52509D01*
X83085Y-52509D02*
X83085Y-52090D01*
X83085Y-52090D02*
X83025Y-52030D01*
X82935Y-51940D02*
X83025Y-52030D01*
X86629Y-50411D02*
X83572Y-50411D01*
X83572Y-50411D02*
X83547Y-50436D01*
X82935Y-51048D02*
X82935Y-51940D01*
X86716Y-49645D02*
X86823Y-49752D01*
X85314Y-49978D02*
X86739Y-49978D01*
X86739Y-49978D02*
X86823Y-49894D01*
X84771Y-49446D02*
X84771Y-49516D01*
X84900Y-49645D02*
X86641Y-49645D01*
X84771Y-49516D02*
X84900Y-49645D01*
X83937Y-48010D02*
X84877Y-48950D01*
X84771Y-49259D02*
X84771Y-49446D01*
X84877Y-49153D02*
X84771Y-49259D01*
X84877Y-49113D02*
X84877Y-49153D01*
X84877Y-48950D02*
X84877Y-49113D01*
X86629Y-50411D02*
X86747Y-50411D01*
X86754Y-50188D02*
X84999Y-50188D01*
X86823Y-50257D02*
X86754Y-50188D01*
X86823Y-50335D02*
X86823Y-50257D01*
X86747Y-50411D02*
X86823Y-50335D01*
X84410Y-49978D02*
X84353Y-50035D01*
X84353Y-50035D02*
X84353Y-50137D01*
X84353Y-50137D02*
X84404Y-50188D01*
X86641Y-49645D02*
X86716Y-49645D01*
X84999Y-50188D02*
X84404Y-50188D01*
X83529Y-46552D02*
X83529Y-46658D01*
X83474Y-46496D02*
X83529Y-46552D01*
X84621Y-49006D02*
X84621Y-48847D01*
X84474Y-48836D02*
X84474Y-49135D01*
X84504Y-48806D02*
X84474Y-48836D01*
X84580Y-48806D02*
X84504Y-48806D01*
X84621Y-48847D02*
X84580Y-48806D01*
X84474Y-49135D02*
X84474Y-49559D01*
X83219Y-47169D02*
X83175Y-47125D01*
X83175Y-47125D02*
X83175Y-46966D01*
X83033Y-46165D02*
X83145Y-46053D01*
X83033Y-46368D02*
X83033Y-46165D01*
X83369Y-46704D02*
X83033Y-46368D01*
X83369Y-46772D02*
X83369Y-46704D01*
X83175Y-46966D02*
X83369Y-46772D01*
X83790Y-50240D02*
X83769Y-50261D01*
X82902Y-52360D02*
X82773Y-52231D01*
X82773Y-52231D02*
X82773Y-51966D01*
X82773Y-51966D02*
X82773Y-51478D01*
X82773Y-50990D02*
X83355Y-50408D01*
X82773Y-51478D02*
X82773Y-50990D01*
X83496Y-49518D02*
X83496Y-50139D01*
X83769Y-50261D02*
X83710Y-50261D01*
X83673Y-50224D02*
X83673Y-49474D01*
X83710Y-50261D02*
X83673Y-50224D01*
X84191Y-50050D02*
X84191Y-50129D01*
X83823Y-50207D02*
X83790Y-50240D01*
X83823Y-48532D02*
X83823Y-50207D01*
X83883Y-48472D02*
X83823Y-48532D01*
X83961Y-48472D02*
X83883Y-48472D01*
X84030Y-48541D02*
X83961Y-48472D01*
X84030Y-50128D02*
X84030Y-48541D01*
X84084Y-50182D02*
X84030Y-50128D01*
X84138Y-50182D02*
X84084Y-50182D01*
X84191Y-50129D02*
X84138Y-50182D01*
X84621Y-49720D02*
X84621Y-49006D01*
X84559Y-49782D02*
X84621Y-49720D01*
X84331Y-49782D02*
X84559Y-49782D01*
X84191Y-49922D02*
X84331Y-49782D01*
X84191Y-50050D02*
X84191Y-49922D01*
X83673Y-49290D02*
X83673Y-49474D01*
X83496Y-49518D02*
X83496Y-49314D01*
X83355Y-50408D02*
X83496Y-50267D01*
X83496Y-50267D02*
X83496Y-50139D01*
X83496Y-49218D02*
X83540Y-49174D01*
X83540Y-49174D02*
X83629Y-49174D01*
X83629Y-49174D02*
X83673Y-49218D01*
X83673Y-49218D02*
X83673Y-49290D01*
X83496Y-49314D02*
X83496Y-49218D01*
X83645Y-47595D02*
X83645Y-47900D01*
X83219Y-47169D02*
X83645Y-47595D01*
X84474Y-49559D02*
X84421Y-49612D01*
X84421Y-49612D02*
X84359Y-49612D01*
X84359Y-49612D02*
X84313Y-49566D01*
X84313Y-49566D02*
X84313Y-48598D01*
X84313Y-48598D02*
X83645Y-47930D01*
X83645Y-47930D02*
X83645Y-47900D01*
X83145Y-46053D02*
X83385Y-45813D01*
X83385Y-45813D02*
X83385Y-45734D01*
X83385Y-45304D02*
X83385Y-45734D01*
X83792Y-44897D02*
X83385Y-45304D01*
X83792Y-44631D02*
X83792Y-44897D01*
X83505Y-44344D02*
X83792Y-44631D01*
X87075Y-48934D02*
X85345Y-48934D01*
X87123Y-48982D02*
X87123Y-49242D01*
X83362Y-51169D02*
X83214Y-51317D01*
X83331Y-51888D02*
X83331Y-52277D01*
X83214Y-51771D02*
X83331Y-51888D01*
X83214Y-51317D02*
X83214Y-51771D01*
X83820Y-50711D02*
X83362Y-51169D01*
X86998Y-50711D02*
X83820Y-50711D01*
X87123Y-50586D02*
X86998Y-50711D01*
X87123Y-49242D02*
X87123Y-50586D01*
X87075Y-48934D02*
X87123Y-48982D01*
X84073Y-53122D02*
X83873Y-52922D01*
X83873Y-52922D02*
X83437Y-52922D01*
X83437Y-52922D02*
X83331Y-52816D01*
X83331Y-52816D02*
X83331Y-52277D01*
X85345Y-48934D02*
X85305Y-48894D01*
X85361Y-48736D02*
X87109Y-48736D01*
X84009Y-46684D02*
X84009Y-47580D01*
X83640Y-46315D02*
X84009Y-46684D01*
X83640Y-46120D02*
X83640Y-46315D01*
X83640Y-46120D02*
X83841Y-45919D01*
X87142Y-48588D02*
X87142Y-48703D01*
X87142Y-48588D02*
X87096Y-48542D01*
X85305Y-48792D02*
X85305Y-48894D01*
X85361Y-48736D02*
X85305Y-48792D01*
X87142Y-48703D02*
X87109Y-48736D01*
X84009Y-47580D02*
X84971Y-48542D01*
X84971Y-48542D02*
X87096Y-48542D01*
X84562Y-51369D02*
X84266Y-51369D01*
X86402Y-47942D02*
X85415Y-47942D01*
X87166Y-47659D02*
X86918Y-47659D01*
X86865Y-47545D02*
X86898Y-47512D01*
X86865Y-47606D02*
X86865Y-47545D01*
X86918Y-47659D02*
X86865Y-47606D01*
X86784Y-47368D02*
X87191Y-47368D01*
X86730Y-47422D02*
X86784Y-47368D01*
X86730Y-47614D02*
X86730Y-47422D01*
X86402Y-47942D02*
X86730Y-47614D01*
X87540Y-47659D02*
X87565Y-47684D01*
X87166Y-47659D02*
X87540Y-47659D01*
X86823Y-51369D02*
X84562Y-51369D01*
X87509Y-52055D02*
X86823Y-51369D01*
X88020Y-52055D02*
X87509Y-52055D01*
X88131Y-51944D02*
X88020Y-52055D01*
X88131Y-48250D02*
X88131Y-51944D01*
X87565Y-47684D02*
X88131Y-48250D01*
X83964Y-51671D02*
X84227Y-51408D01*
X83964Y-51775D02*
X83964Y-51992D01*
X84075Y-52352D02*
X83964Y-52241D01*
X83964Y-52241D02*
X83964Y-51992D01*
X83964Y-51775D02*
X83964Y-51671D01*
X87262Y-47512D02*
X87309Y-47465D01*
X87309Y-47465D02*
X87309Y-47401D01*
X87309Y-47401D02*
X87276Y-47368D01*
X87276Y-47368D02*
X87191Y-47368D01*
X84756Y-47098D02*
X84987Y-47329D01*
X84987Y-47329D02*
X84987Y-47514D01*
X84569Y-46525D02*
X84569Y-46836D01*
X84756Y-47023D02*
X84756Y-47098D01*
X84569Y-46836D02*
X84756Y-47023D01*
X84569Y-45863D02*
X84569Y-46525D01*
X84636Y-45796D02*
X84569Y-45863D01*
X84636Y-45206D02*
X84636Y-45796D01*
X84255Y-44825D02*
X84636Y-45206D01*
X84255Y-44461D02*
X84255Y-44825D01*
X84144Y-44350D02*
X84255Y-44461D01*
X84987Y-47514D02*
X85415Y-47942D01*
X87262Y-47512D02*
X86898Y-47512D01*
X84266Y-51369D02*
X84227Y-51408D01*
X87543Y-48553D02*
X87241Y-48251D01*
X87613Y-50264D02*
X87529Y-50264D01*
X87273Y-49056D02*
X87273Y-48923D01*
X83453Y-52098D02*
X83453Y-51839D01*
X83625Y-52270D02*
X83453Y-52098D01*
X83453Y-51798D02*
X83365Y-51710D01*
X83365Y-51710D02*
X83365Y-51666D01*
X87273Y-49056D02*
X87273Y-50686D01*
X86982Y-50867D02*
X87092Y-50867D01*
X87092Y-50867D02*
X87175Y-50784D01*
X86982Y-50867D02*
X83876Y-50867D01*
X83876Y-50867D02*
X83365Y-51378D01*
X83365Y-51378D02*
X83365Y-51666D01*
X87273Y-50686D02*
X87175Y-50784D01*
X87273Y-48923D02*
X87324Y-48872D01*
X83453Y-51839D02*
X83453Y-51798D01*
X87471Y-49078D02*
X87471Y-48926D01*
X87471Y-50040D02*
X87471Y-50206D01*
X87471Y-48926D02*
X87417Y-48872D01*
X87471Y-50206D02*
X87529Y-50264D01*
X87621Y-48553D02*
X87543Y-48553D01*
X87673Y-48501D02*
X87621Y-48553D01*
X87673Y-48434D02*
X87673Y-48501D01*
X87351Y-48112D02*
X87673Y-48434D01*
X86972Y-48112D02*
X87351Y-48112D01*
X86692Y-48392D02*
X86972Y-48112D01*
X85096Y-48392D02*
X86692Y-48392D01*
X85096Y-48392D02*
X84165Y-47461D01*
X87309Y-48540D02*
X87673Y-48904D01*
X87673Y-48904D02*
X87673Y-49549D01*
X87673Y-50204D02*
X87613Y-50264D01*
X87471Y-50040D02*
X87471Y-49078D01*
X87673Y-49549D02*
X87673Y-50204D01*
X87417Y-48872D02*
X87324Y-48872D01*
X87309Y-48540D02*
X87135Y-48366D01*
X87135Y-48286D02*
X87135Y-48366D01*
X87170Y-48251D02*
X87135Y-48286D01*
X87241Y-48251D02*
X87170Y-48251D01*
X84117Y-46967D02*
X84117Y-47413D01*
X84117Y-47413D02*
X84165Y-47461D01*
X84165Y-47461D02*
X84165Y-47461D01*
X84117Y-46527D02*
X84117Y-46967D01*
X83833Y-46243D02*
X84117Y-46527D01*
X87263Y-51596D02*
X87262Y-51596D01*
X87711Y-51210D02*
X87711Y-51464D01*
X87753Y-51168D02*
X87711Y-51210D01*
X87805Y-51168D02*
X87753Y-51168D01*
X87850Y-51213D02*
X87805Y-51168D01*
X87850Y-51645D02*
X87850Y-51476D01*
X87678Y-51596D02*
X87263Y-51596D01*
X87711Y-51563D02*
X87678Y-51596D01*
X87711Y-51464D02*
X87711Y-51563D01*
X87850Y-51476D02*
X87850Y-51213D01*
X87262Y-51596D02*
X86885Y-51219D01*
X87871Y-51892D02*
X87569Y-51892D01*
X87973Y-51671D02*
X87973Y-48304D01*
X87973Y-48304D02*
X87481Y-47812D01*
X87481Y-47812D02*
X86830Y-47812D01*
X86830Y-47812D02*
X86550Y-48092D01*
X86550Y-48092D02*
X85265Y-48092D01*
X84553Y-47380D02*
X85265Y-48092D01*
X87507Y-51830D02*
X87507Y-51764D01*
X87507Y-51764D02*
X87567Y-51704D01*
X87567Y-51704D02*
X87730Y-51704D01*
X87791Y-51704D02*
X87850Y-51645D01*
X87791Y-51704D02*
X87730Y-51704D01*
X87973Y-51790D02*
X87871Y-51892D01*
X87973Y-51671D02*
X87973Y-51790D01*
X87569Y-51892D02*
X87507Y-51830D01*
X84467Y-45914D02*
X84467Y-45828D01*
X84219Y-45580D02*
X84219Y-45458D01*
X84467Y-45828D02*
X84219Y-45580D01*
X83966Y-51219D02*
X86885Y-51219D01*
X83727Y-51548D02*
X83727Y-51458D01*
X83727Y-51458D02*
X83966Y-51219D01*
X86885Y-51219D02*
X86863Y-51219D01*
X86886Y-51219D02*
X86863Y-51219D01*
X84342Y-47078D02*
X84342Y-47169D01*
X84342Y-46963D02*
X84342Y-47078D01*
X84342Y-47169D02*
X84553Y-47380D01*
X84467Y-46358D02*
X84467Y-46440D01*
X84342Y-46565D02*
X84342Y-46963D01*
X84467Y-46440D02*
X84342Y-46565D01*
X84219Y-44936D02*
X84219Y-45458D01*
X84141Y-44858D02*
X84219Y-44936D01*
X84141Y-44732D02*
X84141Y-44858D01*
X84083Y-44674D02*
X84141Y-44732D01*
X84467Y-45914D02*
X84467Y-46358D01*
X82294Y-47856D02*
X82294Y-47652D01*
X82147Y-47641D02*
X82147Y-47833D01*
X82173Y-47615D02*
X82147Y-47641D01*
X82257Y-47615D02*
X82173Y-47615D01*
X82294Y-47652D02*
X82257Y-47615D01*
X82290Y-52528D02*
X82290Y-52211D01*
X82205Y-51648D02*
X82290Y-51733D01*
X82290Y-51733D02*
X82290Y-51776D01*
X82290Y-52211D02*
X82290Y-51776D01*
X82457Y-47996D02*
X82457Y-49926D01*
X82457Y-49926D02*
X81771Y-50612D01*
X81771Y-50612D02*
X81771Y-51022D01*
X81771Y-51022D02*
X81723Y-51070D01*
X81723Y-51070D02*
X81677Y-51070D01*
X81677Y-51070D02*
X81625Y-51018D01*
X81625Y-51018D02*
X81625Y-50540D01*
X81625Y-50540D02*
X82294Y-49871D01*
X82294Y-49871D02*
X82294Y-47856D01*
X82147Y-47833D02*
X82147Y-49800D01*
X82147Y-49800D02*
X81465Y-50482D01*
X81465Y-50482D02*
X81465Y-51094D01*
X81465Y-51094D02*
X81605Y-51234D01*
X81605Y-51234D02*
X81791Y-51234D01*
X81791Y-51234D02*
X82205Y-51648D01*
X82519Y-47589D02*
X82457Y-47651D01*
X82457Y-47651D02*
X82457Y-47996D01*
X82867Y-47241D02*
X82519Y-47589D01*
X82867Y-46780D02*
X82867Y-47241D01*
X82698Y-46546D02*
X82698Y-46611D01*
X82698Y-46611D02*
X82867Y-46780D01*
X82698Y-45453D02*
X82698Y-46546D01*
X83171Y-44980D02*
X82698Y-45453D01*
X83171Y-44389D02*
X83171Y-44980D01*
X83103Y-44321D02*
X83171Y-44389D01*
X82923Y-44321D02*
X83103Y-44321D01*
X82890Y-44354D02*
X82923Y-44321D01*
X82491Y-52729D02*
X82290Y-52528D01*
X81602Y-48087D02*
X81210Y-48087D01*
X81530Y-47917D02*
X81213Y-47917D01*
X80676Y-51491D02*
X80869Y-51684D01*
X80869Y-51684D02*
X81584Y-51684D01*
X81584Y-51684D02*
X81696Y-51796D01*
X81696Y-51796D02*
X81696Y-51964D01*
X81696Y-51964D02*
X81885Y-52153D01*
X81885Y-52153D02*
X81885Y-52204D01*
X81885Y-52192D02*
X81885Y-52204D01*
X80683Y-48458D02*
X80683Y-49342D01*
X80683Y-49342D02*
X80091Y-49934D01*
X80091Y-49934D02*
X80091Y-51274D01*
X80091Y-51274D02*
X80244Y-51427D01*
X80244Y-51427D02*
X80607Y-51427D01*
X80607Y-51427D02*
X80676Y-51496D01*
X80676Y-51496D02*
X80676Y-51491D01*
X80874Y-49366D02*
X80874Y-48466D01*
X80253Y-49987D02*
X80874Y-49366D01*
X80253Y-51130D02*
X80253Y-49987D01*
X80401Y-50033D02*
X80401Y-51051D01*
X81031Y-49403D02*
X80401Y-50033D01*
X81031Y-48377D02*
X81031Y-49403D01*
X81151Y-48257D02*
X81031Y-48377D01*
X80683Y-48213D02*
X80757Y-48139D01*
X80757Y-48139D02*
X80811Y-48139D01*
X80811Y-48139D02*
X80874Y-48202D01*
X80874Y-48202D02*
X80874Y-48466D01*
X80683Y-48458D02*
X80683Y-48213D01*
X81521Y-47771D02*
X81563Y-47813D01*
X81563Y-47884D02*
X81563Y-47813D01*
X81530Y-47917D02*
X81563Y-47884D01*
X82374Y-46429D02*
X82374Y-46718D01*
X82203Y-46258D02*
X82374Y-46429D01*
X82203Y-45977D02*
X82203Y-46258D01*
X82203Y-45977D02*
X82257Y-45923D01*
X82374Y-46838D02*
X81636Y-47576D01*
X82374Y-46718D02*
X82374Y-46838D01*
X81391Y-47613D02*
X81599Y-47613D01*
X81599Y-47613D02*
X81636Y-47576D01*
X81602Y-48087D02*
X81642Y-48127D01*
X81642Y-48127D02*
X81642Y-48215D01*
X81642Y-48215D02*
X81600Y-48257D01*
X81600Y-48257D02*
X81151Y-48257D01*
X81210Y-48087D02*
X81159Y-48036D01*
X81159Y-48036D02*
X81159Y-47971D01*
X81159Y-47971D02*
X81213Y-47917D01*
X80401Y-51218D02*
X80360Y-51259D01*
X80360Y-51259D02*
X80297Y-51259D01*
X80297Y-51259D02*
X80253Y-51215D01*
X80253Y-51215D02*
X80253Y-51130D01*
X80401Y-51051D02*
X80401Y-51218D01*
X81214Y-47613D02*
X81174Y-47653D01*
X81174Y-47653D02*
X81174Y-47740D01*
X81391Y-47613D02*
X81214Y-47613D01*
X81205Y-47771D02*
X81174Y-47740D01*
X81521Y-47771D02*
X81205Y-47771D01*
X82273Y-53036D02*
X82273Y-53280D01*
X83261Y-53512D02*
X83079Y-53330D01*
X83079Y-53330D02*
X82323Y-53330D01*
X82323Y-53330D02*
X82273Y-53280D01*
X82273Y-52672D02*
X82181Y-52580D01*
X82181Y-52580D02*
X82181Y-52183D01*
X82273Y-53036D02*
X82273Y-52672D01*
X82047Y-51856D02*
X82047Y-51766D01*
X82181Y-51990D02*
X82047Y-51856D01*
X82181Y-52183D02*
X82181Y-51990D01*
X81597Y-51384D02*
X81729Y-51384D01*
X81729Y-51384D02*
X82047Y-51702D01*
X82047Y-51702D02*
X82047Y-51766D01*
X81189Y-51384D02*
X81015Y-51210D01*
X81597Y-51384D02*
X81189Y-51384D01*
X81646Y-49120D02*
X81646Y-48642D01*
X81846Y-48640D02*
X81846Y-48739D01*
X81792Y-48586D02*
X81846Y-48640D01*
X81702Y-48586D02*
X81792Y-48586D01*
X81646Y-48642D02*
X81702Y-48586D01*
X81315Y-51077D02*
X81315Y-51122D01*
X81204Y-51171D02*
X81204Y-51170D01*
X81315Y-51122D02*
X81266Y-51171D01*
X81204Y-51170D02*
X81204Y-51170D01*
X81204Y-51170D02*
X81266Y-51170D01*
X81167Y-50902D02*
X81167Y-51133D01*
X81167Y-51133D02*
X81204Y-51170D01*
X81167Y-50902D02*
X81167Y-50348D01*
X81167Y-50348D02*
X81846Y-49669D01*
X81846Y-49669D02*
X81846Y-48739D01*
X81646Y-49120D02*
X81646Y-49657D01*
X81646Y-49657D02*
X81016Y-50287D01*
X81016Y-50287D02*
X81016Y-51207D01*
X81315Y-50868D02*
X81315Y-51077D01*
X81997Y-47729D02*
X81997Y-49731D01*
X81315Y-50413D02*
X81315Y-50868D01*
X81997Y-49731D02*
X81315Y-50413D01*
X81204Y-51170D02*
X81204Y-51170D01*
X82325Y-47420D02*
X82139Y-47420D01*
X81997Y-47562D02*
X81997Y-47729D01*
X82139Y-47420D02*
X81997Y-47562D01*
X82759Y-47015D02*
X82759Y-47176D01*
X82515Y-47420D02*
X82325Y-47420D01*
X82759Y-47176D02*
X82515Y-47420D01*
X82584Y-46519D02*
X82584Y-46648D01*
X82759Y-46823D02*
X82759Y-47015D01*
X82584Y-46648D02*
X82759Y-46823D01*
X82995Y-44702D02*
X82995Y-44971D01*
X82584Y-45382D02*
X82584Y-46519D01*
X82995Y-44971D02*
X82584Y-45382D01*
X84234Y-47280D02*
X84234Y-47029D01*
X85516Y-48242D02*
X85196Y-48242D01*
X84234Y-47280D02*
X85196Y-48242D01*
X83563Y-45586D02*
X83563Y-45338D01*
X84064Y-45197D02*
X84064Y-45514D01*
X83943Y-45076D02*
X84064Y-45197D01*
X83825Y-45076D02*
X83943Y-45076D01*
X83563Y-45338D02*
X83825Y-45076D01*
X83563Y-45586D02*
X83563Y-45600D01*
X84064Y-45603D02*
X84064Y-45514D01*
X84365Y-46367D02*
X84234Y-46498D01*
X84234Y-47029D02*
X84234Y-46498D01*
X84365Y-45904D02*
X84064Y-45603D01*
X84365Y-45904D02*
X84365Y-46367D01*
X87433Y-50752D02*
X87433Y-50713D01*
X86597Y-51025D02*
X87160Y-51025D01*
X87160Y-51025D02*
X87433Y-50752D01*
X83948Y-51025D02*
X84544Y-51025D01*
X83529Y-51444D02*
X83948Y-51025D01*
X85516Y-48242D02*
X86625Y-48242D01*
X87433Y-50471D02*
X87433Y-50713D01*
X87487Y-50417D02*
X87433Y-50471D01*
X87563Y-50417D02*
X87487Y-50417D01*
X87627Y-50481D02*
X87563Y-50417D01*
X87627Y-50790D02*
X87627Y-50481D01*
X87334Y-51083D02*
X87627Y-50790D01*
X87334Y-51380D02*
X87334Y-51083D01*
X87400Y-51446D02*
X87334Y-51380D01*
X87483Y-51446D02*
X87400Y-51446D01*
X87561Y-51368D02*
X87483Y-51446D01*
X87561Y-51095D02*
X87561Y-51368D01*
X87823Y-50833D02*
X87561Y-51095D01*
X87823Y-48372D02*
X87823Y-50833D01*
X87413Y-47962D02*
X87823Y-48372D01*
X86905Y-47962D02*
X87413Y-47962D01*
X86625Y-48242D02*
X86905Y-47962D01*
X86632Y-51025D02*
X86597Y-51025D01*
X86597Y-51025D02*
X84544Y-51025D01*
X85516Y-48242D02*
X85516Y-48242D01*
X83675Y-52014D02*
X83675Y-51816D01*
X83525Y-51666D02*
X83525Y-51444D01*
X83675Y-51816D02*
X83525Y-51666D01*
X83907Y-47671D02*
X83907Y-47719D01*
X84755Y-48567D02*
X84880Y-48692D01*
X85000Y-48692D02*
X85000Y-48692D01*
X84880Y-48692D02*
X85000Y-48692D01*
X85123Y-49495D02*
X84962Y-49495D01*
X85123Y-49495D02*
X85223Y-49495D01*
X85098Y-49307D02*
X85017Y-49307D01*
X85134Y-49271D02*
X85098Y-49307D01*
X85000Y-48692D02*
X85093Y-48692D01*
X85134Y-48733D02*
X85134Y-48904D01*
X85093Y-48692D02*
X85134Y-48733D01*
X84755Y-48567D02*
X83925Y-47737D01*
X84962Y-49495D02*
X84921Y-49454D01*
X84921Y-49454D02*
X84921Y-49347D01*
X84921Y-49347D02*
X84961Y-49307D01*
X84961Y-49307D02*
X85017Y-49307D01*
X83525Y-45934D02*
X83525Y-46360D01*
X83525Y-46360D02*
X83739Y-46574D01*
X83907Y-46742D02*
X83907Y-47671D01*
X83739Y-46574D02*
X83907Y-46742D01*
X86709Y-49495D02*
X85548Y-49495D01*
X85548Y-49495D02*
X85223Y-49495D01*
X86707Y-49495D02*
X86709Y-49495D01*
X86812Y-49495D02*
X86866Y-49441D01*
X86707Y-49495D02*
X86812Y-49495D01*
X85134Y-48904D02*
X85134Y-49271D01*
X83907Y-47719D02*
X83925Y-47737D01*
X83265Y-53140D02*
X83208Y-53083D01*
X83208Y-53083D02*
X83208Y-52069D01*
X83208Y-51923D02*
X83101Y-51816D01*
X83101Y-51816D02*
X83101Y-51163D01*
X83101Y-51163D02*
X83277Y-50987D01*
X83208Y-52069D02*
X83208Y-51923D01*
X85313Y-49276D02*
X85435Y-49276D01*
X85271Y-49234D02*
X85313Y-49276D01*
X85271Y-49116D02*
X85271Y-49234D01*
X85303Y-49084D02*
X85271Y-49116D01*
X86705Y-49276D02*
X86813Y-49276D01*
X85435Y-49276D02*
X86705Y-49276D01*
X83277Y-50987D02*
X83703Y-50561D01*
X86928Y-49084D02*
X85617Y-49084D01*
X86973Y-49129D02*
X86928Y-49084D01*
X86973Y-50410D02*
X86973Y-49129D01*
X86822Y-50561D02*
X86973Y-50410D01*
X83703Y-50561D02*
X86822Y-50561D01*
X86813Y-49276D02*
X86865Y-49328D01*
X86865Y-49328D02*
X86865Y-49441D01*
X85617Y-49084D02*
X85303Y-49084D01*
X86559Y-46705D02*
X86103Y-46705D01*
X87946Y-47049D02*
X87946Y-47006D01*
X87946Y-47006D02*
X87844Y-46904D01*
X85449Y-53407D02*
X85449Y-52527D01*
X85449Y-52527D02*
X85885Y-52091D01*
X84312Y-53701D02*
X85276Y-53701D01*
X84237Y-53776D02*
X84312Y-53701D01*
X84237Y-54118D02*
X84237Y-53776D01*
X84048Y-54307D02*
X84237Y-54118D01*
X85449Y-53569D02*
X85317Y-53701D01*
X85317Y-53701D02*
X85276Y-53701D01*
X85449Y-53407D02*
X85449Y-53569D01*
X88621Y-48100D02*
X88621Y-52203D01*
X88621Y-52203D02*
X88257Y-52567D01*
X88257Y-52567D02*
X88120Y-52567D01*
X88120Y-52567D02*
X87294Y-52567D01*
X87294Y-52567D02*
X86685Y-51958D01*
X86685Y-51958D02*
X86018Y-51958D01*
X86018Y-51958D02*
X85885Y-52091D01*
X87946Y-47357D02*
X88182Y-47593D01*
X87946Y-47049D02*
X87946Y-47357D01*
X88621Y-47795D02*
X88551Y-47725D01*
X88551Y-47725D02*
X88314Y-47725D01*
X88314Y-47725D02*
X88182Y-47593D01*
X88621Y-48100D02*
X88621Y-47795D01*
X87676Y-46693D02*
X87676Y-46736D01*
X87626Y-46643D02*
X87676Y-46693D01*
X87552Y-46643D02*
X87626Y-46643D01*
X87515Y-46680D02*
X87552Y-46643D01*
X87515Y-46824D02*
X87515Y-46680D01*
X87436Y-46903D02*
X87515Y-46824D01*
X85676Y-46862D02*
X85983Y-46555D01*
X84990Y-46696D02*
X85156Y-46862D01*
X85156Y-46862D02*
X85506Y-46862D01*
X85506Y-46862D02*
X85676Y-46862D01*
X87844Y-46904D02*
X87676Y-46736D01*
X86559Y-46705D02*
X86616Y-46648D01*
X86616Y-46648D02*
X86616Y-46564D01*
X86616Y-46564D02*
X86565Y-46513D01*
X86565Y-46513D02*
X86025Y-46513D01*
X86025Y-46513D02*
X85983Y-46555D01*
X86106Y-46903D02*
X86049Y-46846D01*
X86049Y-46846D02*
X86049Y-46759D01*
X86049Y-46759D02*
X86103Y-46705D01*
X87436Y-46903D02*
X86106Y-46903D01*
X86443Y-53473D02*
X86443Y-53590D01*
X87029Y-53444D02*
X87153Y-53320D01*
X87029Y-53582D02*
X87029Y-53444D01*
X86925Y-53686D02*
X87029Y-53582D01*
X86539Y-53686D02*
X86925Y-53686D01*
X86443Y-53590D02*
X86539Y-53686D01*
X89100Y-51926D02*
X89100Y-52031D01*
X89298Y-51788D02*
X89298Y-49838D01*
X89298Y-49838D02*
X89031Y-49571D01*
X89031Y-49571D02*
X89031Y-46477D01*
X88997Y-46443D02*
X89031Y-46477D01*
X89298Y-52047D02*
X89241Y-52104D01*
X89241Y-52104D02*
X89173Y-52104D01*
X89298Y-51788D02*
X89298Y-52047D01*
X89100Y-52031D02*
X89173Y-52104D01*
X89100Y-49923D02*
X89100Y-50286D01*
X88923Y-52019D02*
X88923Y-52503D01*
X88923Y-52503D02*
X88106Y-53320D01*
X88923Y-52019D02*
X88923Y-50318D01*
X88061Y-53320D02*
X87153Y-53320D01*
X88106Y-53320D02*
X88061Y-53320D01*
X89100Y-50286D02*
X89100Y-51926D01*
X88923Y-49926D02*
X88964Y-49885D01*
X88964Y-49885D02*
X89062Y-49885D01*
X89062Y-49885D02*
X89100Y-49923D01*
X88923Y-50318D02*
X88923Y-49926D01*
X86347Y-45931D02*
X86347Y-45850D01*
X86844Y-45931D02*
X86906Y-45931D01*
X86665Y-45752D02*
X86844Y-45931D01*
X86445Y-45752D02*
X86665Y-45752D01*
X86347Y-45850D02*
X86445Y-45752D01*
X86906Y-45931D02*
X88485Y-45931D01*
X88485Y-45931D02*
X88997Y-46443D01*
X88997Y-46443D02*
X89001Y-46447D01*
X82476Y-46883D02*
X81835Y-47524D01*
X81882Y-52746D02*
X81882Y-53575D01*
X82077Y-52090D02*
X81849Y-51862D01*
X81849Y-51862D02*
X81849Y-51770D01*
X82077Y-52551D02*
X82077Y-52267D01*
X81882Y-52746D02*
X82077Y-52551D01*
X82077Y-52267D02*
X82077Y-52090D01*
X82883Y-53518D02*
X82767Y-53634D01*
X81882Y-53575D02*
X81941Y-53634D01*
X81181Y-48809D02*
X81181Y-48511D01*
X81342Y-48530D02*
X81342Y-48602D01*
X81291Y-48479D02*
X81342Y-48530D01*
X81213Y-48479D02*
X81291Y-48479D01*
X81181Y-48511D02*
X81213Y-48479D01*
X81181Y-48980D02*
X81181Y-48809D01*
X81342Y-48602D02*
X81342Y-48734D01*
X80725Y-51044D02*
X80725Y-50145D01*
X80725Y-50145D02*
X81342Y-49528D01*
X81342Y-49528D02*
X81342Y-48779D01*
X81342Y-48779D02*
X81342Y-48734D01*
X80859Y-51098D02*
X80811Y-51146D01*
X80811Y-51146D02*
X80766Y-51146D01*
X80766Y-51146D02*
X80725Y-51105D01*
X80725Y-51105D02*
X80725Y-51044D01*
X81849Y-51716D02*
X81849Y-51770D01*
X81667Y-51534D02*
X81849Y-51716D01*
X80931Y-51534D02*
X81667Y-51534D01*
X80551Y-51154D02*
X80931Y-51534D01*
X80551Y-50095D02*
X80551Y-51154D01*
X81181Y-49465D02*
X80551Y-50095D01*
X81181Y-48980D02*
X81181Y-49465D01*
X80859Y-50232D02*
X80859Y-51029D01*
X81496Y-49595D02*
X80859Y-50232D01*
X81496Y-48570D02*
X81496Y-49595D01*
X81835Y-48231D02*
X81496Y-48570D01*
X82476Y-46883D02*
X82476Y-46776D01*
X80859Y-51029D02*
X80859Y-51098D01*
X82767Y-53634D02*
X81941Y-53634D01*
X81835Y-47524D02*
X81835Y-48231D01*
X82337Y-45722D02*
X82476Y-45861D01*
X82476Y-45861D02*
X82476Y-46776D01*
X82259Y-45644D02*
X82337Y-45722D01*
X82259Y-45478D02*
X82259Y-45644D01*
X82301Y-45436D02*
X82259Y-45478D01*
X82383Y-45436D02*
X82301Y-45436D01*
X82413Y-45466D02*
X82383Y-45436D01*
X81273Y-47330D02*
X81004Y-47330D01*
X80052Y-51649D02*
X79713Y-51310D01*
X80511Y-51649D02*
X80052Y-51649D01*
X80766Y-51904D02*
X80511Y-51649D01*
X81276Y-51904D02*
X80766Y-51904D01*
X81345Y-51973D02*
X81276Y-51904D01*
X81354Y-52219D02*
X81345Y-52210D01*
X81345Y-52210D02*
X81345Y-51973D01*
X80403Y-47179D02*
X80486Y-47179D01*
X80308Y-47179D02*
X80403Y-47179D01*
X80019Y-47668D02*
X80019Y-47468D01*
X80019Y-47468D02*
X80226Y-47261D01*
X81004Y-47330D02*
X80357Y-47330D01*
X80019Y-47791D02*
X80019Y-47668D01*
X79881Y-47929D02*
X80019Y-47791D01*
X79881Y-48986D02*
X79881Y-47929D01*
X79625Y-49242D02*
X79881Y-48986D01*
X79625Y-49322D02*
X79625Y-49242D01*
X79671Y-49368D02*
X79625Y-49322D01*
X79774Y-49368D02*
X79671Y-49368D01*
X80040Y-49102D02*
X79774Y-49368D01*
X80040Y-48058D02*
X80040Y-49102D01*
X80163Y-47935D02*
X80040Y-48058D01*
X80163Y-47524D02*
X80163Y-47935D01*
X80357Y-47330D02*
X80163Y-47524D01*
X80226Y-47261D02*
X80308Y-47179D01*
X79698Y-47847D02*
X79698Y-48909D01*
X79698Y-48909D02*
X79450Y-49157D01*
X79450Y-49157D02*
X79450Y-49801D01*
X79450Y-49801D02*
X79452Y-49803D01*
X79452Y-49803D02*
X79452Y-51184D01*
X79452Y-51184D02*
X79578Y-51310D01*
X79578Y-51310D02*
X79713Y-51310D01*
X80097Y-47174D02*
X79872Y-47399D01*
X79872Y-47399D02*
X79872Y-47673D01*
X79872Y-47673D02*
X79698Y-47847D01*
X80247Y-47024D02*
X80418Y-47024D01*
X80097Y-47174D02*
X80247Y-47024D01*
X80486Y-47179D02*
X80526Y-47139D01*
X80526Y-47139D02*
X80526Y-47054D01*
X80526Y-47054D02*
X80496Y-47024D01*
X80496Y-47024D02*
X80418Y-47024D01*
X81331Y-47139D02*
X81331Y-47272D01*
X81331Y-47272D02*
X81273Y-47330D01*
X82249Y-44364D02*
X82303Y-44310D01*
X82303Y-44310D02*
X82539Y-44310D01*
X82539Y-44310D02*
X82813Y-44584D01*
X82813Y-44584D02*
X82813Y-44832D01*
X82813Y-44832D02*
X82376Y-45269D01*
X82376Y-45269D02*
X82272Y-45269D01*
X82272Y-45269D02*
X82078Y-45463D01*
X82078Y-45463D02*
X82078Y-46309D01*
X82078Y-46392D02*
X81549Y-46921D01*
X82078Y-46309D02*
X82078Y-46392D01*
X81549Y-46921D02*
X81331Y-47139D01*
X81281Y-46970D02*
X80678Y-46970D01*
X79569Y-46969D02*
X79569Y-47596D01*
X80191Y-46868D02*
X80087Y-46972D01*
X79429Y-47516D02*
X79429Y-46968D01*
X79531Y-46931D02*
X79569Y-46969D01*
X79466Y-46931D02*
X79531Y-46931D01*
X79429Y-46968D02*
X79466Y-46931D01*
X80087Y-46972D02*
X79721Y-47338D01*
X81783Y-45638D02*
X81783Y-46308D01*
X82584Y-44698D02*
X82584Y-44721D01*
X81783Y-45168D02*
X82065Y-44886D01*
X82065Y-44886D02*
X82485Y-44886D01*
X81783Y-45638D02*
X81783Y-45168D01*
X81783Y-46468D02*
X81281Y-46970D01*
X81783Y-46308D02*
X81783Y-46468D01*
X80678Y-46970D02*
X80575Y-46868D01*
X80575Y-46868D02*
X80191Y-46868D01*
X82550Y-44886D02*
X82485Y-44886D01*
X82584Y-44852D02*
X82550Y-44886D01*
X82584Y-44721D02*
X82584Y-44852D01*
X79721Y-47598D02*
X79677Y-47642D01*
X79677Y-47642D02*
X79615Y-47642D01*
X79615Y-47642D02*
X79569Y-47596D01*
X79429Y-47516D02*
X79429Y-47712D01*
X79429Y-47712D02*
X79467Y-47750D01*
X79721Y-47338D02*
X79721Y-47598D01*
X79291Y-49112D02*
X79122Y-48943D01*
X81183Y-52156D02*
X81183Y-52510D01*
X80471Y-51752D02*
X79788Y-51752D01*
X79468Y-48736D02*
X79468Y-48874D01*
X79468Y-48874D02*
X79419Y-48923D01*
X79270Y-48681D02*
X79271Y-48681D01*
X79270Y-48863D02*
X79270Y-48681D01*
X79330Y-48923D02*
X79270Y-48863D01*
X79419Y-48923D02*
X79330Y-48923D01*
X79122Y-48819D02*
X79122Y-48943D01*
X79291Y-49234D02*
X79291Y-49112D01*
X79291Y-49234D02*
X79291Y-51256D01*
X79122Y-48819D02*
X79122Y-47013D01*
X79122Y-47013D02*
X79171Y-46964D01*
X79171Y-46964D02*
X79225Y-46964D01*
X79225Y-46964D02*
X79271Y-47010D01*
X79271Y-47010D02*
X79271Y-48681D01*
X79468Y-48736D02*
X79468Y-47750D01*
X81183Y-52156D02*
X81063Y-52036D01*
X80754Y-52036D02*
X80471Y-51752D01*
X81318Y-52645D02*
X81318Y-52737D01*
X81318Y-52645D02*
X81183Y-52510D01*
X79788Y-51752D02*
X79291Y-51256D01*
X81063Y-52036D02*
X80754Y-52036D01*
X85837Y-58323D02*
X85837Y-57757D01*
X85837Y-57757D02*
X85718Y-57638D01*
X82090Y-56267D02*
X82696Y-56872D01*
X103526Y-83094D02*
X103526Y-83358D01*
X82816Y-57638D02*
X82696Y-57518D01*
X85718Y-57638D02*
X82816Y-57638D01*
X85925Y-58411D02*
X85837Y-58323D01*
X86636Y-59140D02*
X86636Y-58908D01*
X86711Y-59215D02*
X86636Y-59140D01*
X86748Y-59215D02*
X86711Y-59215D01*
X87281Y-59215D02*
X87428Y-59362D01*
X87428Y-59362D02*
X87428Y-59534D01*
X87428Y-59534D02*
X87520Y-59626D01*
X86748Y-59215D02*
X87281Y-59215D01*
X86114Y-58411D02*
X86222Y-58519D01*
X86222Y-58519D02*
X86222Y-58702D01*
X86222Y-58702D02*
X86323Y-58803D01*
X86323Y-58803D02*
X86531Y-58803D01*
X86531Y-58803D02*
X86636Y-58908D01*
X85925Y-58411D02*
X86114Y-58411D01*
X103526Y-83094D02*
X103681Y-82938D01*
X90434Y-59626D02*
X100274Y-69466D01*
X87520Y-59626D02*
X90434Y-59626D01*
X100274Y-78922D02*
X100274Y-69466D01*
X103681Y-82330D02*
X100274Y-78922D01*
X103681Y-82938D02*
X103681Y-82330D01*
X82696Y-57518D02*
X82696Y-56872D01*
X90482Y-59534D02*
X90207Y-59534D01*
X89978Y-59436D02*
X89879Y-59534D01*
X90109Y-59436D02*
X89978Y-59436D01*
X90207Y-59534D02*
X90109Y-59436D01*
X83078Y-56555D02*
X83078Y-57175D01*
X82672Y-56450D02*
X82488Y-56266D01*
X88352Y-59534D02*
X89879Y-59534D01*
X86236Y-57908D02*
X86236Y-58316D01*
X83078Y-57175D02*
X83156Y-57253D01*
X83156Y-57253D02*
X86121Y-57253D01*
X86121Y-57253D02*
X86236Y-57368D01*
X86236Y-57368D02*
X86236Y-57908D01*
X87312Y-58832D02*
X87428Y-58948D01*
X87428Y-58948D02*
X87428Y-59168D01*
X87428Y-59168D02*
X87518Y-59258D01*
X87518Y-59258D02*
X88076Y-59258D01*
X88076Y-59258D02*
X88352Y-59534D01*
X86236Y-58316D02*
X86330Y-58410D01*
X86330Y-58410D02*
X86512Y-58410D01*
X86512Y-58410D02*
X86630Y-58528D01*
X86630Y-58528D02*
X86630Y-58728D01*
X86630Y-58728D02*
X86734Y-58832D01*
X86734Y-58832D02*
X87312Y-58832D01*
X83078Y-56555D02*
X82973Y-56450D01*
X82672Y-56450D02*
X82973Y-56450D01*
X100370Y-69422D02*
X100370Y-78890D01*
X103919Y-83088D02*
X103773Y-82942D01*
X90482Y-59534D02*
X100370Y-69422D01*
X103773Y-82293D02*
X103773Y-82942D01*
X100370Y-78890D02*
X103773Y-82293D01*
X103919Y-83357D02*
X103919Y-83088D01*
X104312Y-83356D02*
X104312Y-82761D01*
X104312Y-82761D02*
X104210Y-82659D01*
X104210Y-82659D02*
X104210Y-81889D01*
X104210Y-81889D02*
X101113Y-78792D01*
X87824Y-58777D02*
X88016Y-58969D01*
X88016Y-58969D02*
X90689Y-58969D01*
X90689Y-58969D02*
X101113Y-69393D01*
X101113Y-74053D02*
X101113Y-69393D01*
X101113Y-78792D02*
X101113Y-74053D01*
X87030Y-58340D02*
X87156Y-58466D01*
X87156Y-58466D02*
X87734Y-58466D01*
X87734Y-58466D02*
X87824Y-58556D01*
X87824Y-58556D02*
X87824Y-58777D01*
X82914Y-55274D02*
X83361Y-55274D01*
X86944Y-56494D02*
X87030Y-56580D01*
X86354Y-56494D02*
X86944Y-56494D01*
X86303Y-56443D02*
X86354Y-56494D01*
X83618Y-56443D02*
X86303Y-56443D01*
X83486Y-56311D02*
X83618Y-56443D01*
X83486Y-55399D02*
X83486Y-56311D01*
X83361Y-55274D02*
X83486Y-55399D01*
X81350Y-55274D02*
X82914Y-55274D01*
X80308Y-55274D02*
X81350Y-55274D01*
X80133Y-55099D02*
X80308Y-55274D01*
X87030Y-56580D02*
X87030Y-58340D01*
X83467Y-56460D02*
X83174Y-56460D01*
X82898Y-55853D02*
X82726Y-55681D01*
X82898Y-56184D02*
X82898Y-55853D01*
X83174Y-56460D02*
X82898Y-56184D01*
X82513Y-55681D02*
X82726Y-55681D01*
X79985Y-55365D02*
X80429Y-55365D01*
X80429Y-55365D02*
X80745Y-55681D01*
X80745Y-55681D02*
X82513Y-55681D01*
X79719Y-55099D02*
X79985Y-55365D01*
X104117Y-83042D02*
X104117Y-81925D01*
X90650Y-59061D02*
X101022Y-69433D01*
X101022Y-74078D02*
X101022Y-69433D01*
X101022Y-78830D02*
X101022Y-74078D01*
X83467Y-56460D02*
X83564Y-56557D01*
X83564Y-56557D02*
X83564Y-56758D01*
X83564Y-56758D02*
X83663Y-56857D01*
X83663Y-56857D02*
X86495Y-56857D01*
X86495Y-56857D02*
X86616Y-56978D01*
X86616Y-56978D02*
X86616Y-57832D01*
X86616Y-57832D02*
X86618Y-57834D01*
X86618Y-58378D02*
X86721Y-58481D01*
X86721Y-58481D02*
X86721Y-58672D01*
X86721Y-58672D02*
X86789Y-58740D01*
X86789Y-58740D02*
X87351Y-58740D01*
X87351Y-58740D02*
X87445Y-58834D01*
X87445Y-58834D02*
X87752Y-58834D01*
X87752Y-58834D02*
X87979Y-59061D01*
X86618Y-57834D02*
X86618Y-58378D01*
X87979Y-59061D02*
X90650Y-59061D01*
X104117Y-81925D02*
X101022Y-78830D01*
X106282Y-83359D02*
X106282Y-83112D01*
X91099Y-55434D02*
X91099Y-55136D01*
X87586Y-55066D02*
X90707Y-55066D01*
X90707Y-55066D02*
X90829Y-55066D01*
X90905Y-55142D02*
X90829Y-55066D01*
X91099Y-55434D02*
X91039Y-55494D01*
X90905Y-55438D02*
X90961Y-55494D01*
X90961Y-55494D02*
X91039Y-55494D01*
X90905Y-55438D02*
X90905Y-55142D01*
X91099Y-55136D02*
X91168Y-55066D01*
X92502Y-55066D02*
X106432Y-68996D01*
X106432Y-68996D02*
X106432Y-82962D01*
X91168Y-55066D02*
X92502Y-55066D01*
X106282Y-83112D02*
X106432Y-82962D01*
X105918Y-81984D02*
X106099Y-81984D01*
X106132Y-82435D02*
X106132Y-82352D01*
X105911Y-82315D02*
X106095Y-82315D01*
X105911Y-82315D02*
X105842Y-82246D01*
X105842Y-82246D02*
X105842Y-82060D01*
X105842Y-82060D02*
X105918Y-81984D01*
X106095Y-82315D02*
X106132Y-82352D01*
X106096Y-82470D02*
X106132Y-82435D01*
X105842Y-82540D02*
X105912Y-82470D01*
X105842Y-82750D02*
X105842Y-82540D01*
X105691Y-82902D02*
X105842Y-82750D01*
X105691Y-83040D02*
X105691Y-82902D01*
X105912Y-82470D02*
X106096Y-82470D01*
X106096Y-81847D02*
X106136Y-81887D01*
X105624Y-81178D02*
X105624Y-81099D01*
X105672Y-81051D02*
X105624Y-81099D01*
X105793Y-81051D02*
X105842Y-81001D01*
X87848Y-55508D02*
X88102Y-55762D01*
X87571Y-55508D02*
X87848Y-55508D01*
X92261Y-55762D02*
X88102Y-55762D01*
X105842Y-69343D02*
X92261Y-55762D01*
X105842Y-81001D02*
X105842Y-69343D01*
X105793Y-81051D02*
X105672Y-81051D01*
X105668Y-81222D02*
X105624Y-81178D01*
X105619Y-81450D02*
X105658Y-81412D01*
X105663Y-81579D02*
X105619Y-81535D01*
X105842Y-81769D02*
X105842Y-81632D01*
X105920Y-81847D02*
X105842Y-81769D01*
X105842Y-81632D02*
X105789Y-81579D01*
X105789Y-81579D02*
X105663Y-81579D01*
X105786Y-81412D02*
X105658Y-81412D01*
X105792Y-81222D02*
X105842Y-81272D01*
X105842Y-81355D02*
X105842Y-81272D01*
X105786Y-81412D02*
X105842Y-81355D01*
X105619Y-81535D02*
X105619Y-81450D01*
X105792Y-81222D02*
X105668Y-81222D01*
X105920Y-81847D02*
X106096Y-81847D01*
X106136Y-81948D02*
X106136Y-81887D01*
X106099Y-81984D02*
X106136Y-81948D01*
X105101Y-83359D02*
X105101Y-83103D01*
X105101Y-83103D02*
X105258Y-82945D01*
X104167Y-77853D02*
X105179Y-77853D01*
X105188Y-77234D02*
X104737Y-77234D01*
X104167Y-77853D02*
X104059Y-77745D01*
X104059Y-77745D02*
X104059Y-77591D01*
X104059Y-77591D02*
X104165Y-77485D01*
X104165Y-77485D02*
X105181Y-77485D01*
X105181Y-77485D02*
X105258Y-77408D01*
X105258Y-77932D02*
X105179Y-77853D01*
X105258Y-78333D02*
X105258Y-82943D01*
X105258Y-78333D02*
X105258Y-77932D01*
X105258Y-77304D02*
X105188Y-77234D01*
X104737Y-77234D02*
X104698Y-77195D01*
X104736Y-77064D02*
X104698Y-77102D01*
X104698Y-77195D02*
X104698Y-77102D01*
X105186Y-77064D02*
X104736Y-77064D01*
X87796Y-57452D02*
X87952Y-57297D01*
X105258Y-69768D02*
X105258Y-76991D01*
X92787Y-57297D02*
X105258Y-69768D01*
X87952Y-57297D02*
X92787Y-57297D01*
X87604Y-57452D02*
X87796Y-57452D01*
X105186Y-77064D02*
X105258Y-76991D01*
X105258Y-77408D02*
X105258Y-77304D01*
X102966Y-78710D02*
X104287Y-78710D01*
X104287Y-78710D02*
X104663Y-79086D01*
X104663Y-79086D02*
X104663Y-82722D01*
X104510Y-83041D02*
X104510Y-82875D01*
X102746Y-78490D02*
X102966Y-78710D01*
X104510Y-82875D02*
X104663Y-82722D01*
X102372Y-75091D02*
X102328Y-75047D01*
X102328Y-75047D02*
X102328Y-74957D01*
X102671Y-74907D02*
X102378Y-74907D01*
X88855Y-58516D02*
X88606Y-58267D01*
X88855Y-58516D02*
X92635Y-58516D01*
X102746Y-68627D02*
X102746Y-74831D01*
X92635Y-58516D02*
X102746Y-68627D01*
X102671Y-74907D02*
X102746Y-74831D01*
X102378Y-74907D02*
X102328Y-74957D01*
X104362Y-76148D02*
X104430Y-76216D01*
X104430Y-76216D02*
X104430Y-76310D01*
X102894Y-76148D02*
X102746Y-76000D01*
X102894Y-76148D02*
X104362Y-76148D01*
X102746Y-75170D02*
X102667Y-75091D01*
X102667Y-75091D02*
X102372Y-75091D01*
X102746Y-76000D02*
X102746Y-75170D01*
X102909Y-76379D02*
X104361Y-76379D01*
X102746Y-78490D02*
X102746Y-76542D01*
X102746Y-76542D02*
X102909Y-76379D01*
X88606Y-58267D02*
X87622Y-58267D01*
X104430Y-76310D02*
X104361Y-76379D01*
X106675Y-83359D02*
X106675Y-83118D01*
X87642Y-54876D02*
X87536Y-54876D01*
X87536Y-54876D02*
X87345Y-55066D01*
X87345Y-55066D02*
X87216Y-55066D01*
X106524Y-82967D02*
X106524Y-68959D01*
X106675Y-83118D02*
X106524Y-82967D01*
X92540Y-54975D02*
X87741Y-54975D01*
X106524Y-68959D02*
X92540Y-54975D01*
X87741Y-54975D02*
X87642Y-54876D01*
X105971Y-82224D02*
X106132Y-82224D01*
X105934Y-82187D02*
X105934Y-82109D01*
X105934Y-82604D02*
X105976Y-82562D01*
X105971Y-82224D02*
X105934Y-82187D01*
X105934Y-82742D02*
X105934Y-82604D01*
X105934Y-82109D02*
X105967Y-82076D01*
X106085Y-82893D02*
X105934Y-82742D01*
X106085Y-83040D02*
X106085Y-82893D01*
X106139Y-82076D02*
X105967Y-82076D01*
X106140Y-81756D02*
X106227Y-81843D01*
X106227Y-81843D02*
X106227Y-81987D01*
X106227Y-81987D02*
X106139Y-82076D01*
X105976Y-81756D02*
X105934Y-81714D01*
X105934Y-69304D02*
X92301Y-55671D01*
X92301Y-55671D02*
X88464Y-55671D01*
X88053Y-55260D02*
X87433Y-55260D01*
X87163Y-55529D02*
X87433Y-55260D01*
X88053Y-55260D02*
X88464Y-55671D01*
X105934Y-81714D02*
X105934Y-69304D01*
X105976Y-81756D02*
X106140Y-81756D01*
X106133Y-82562D02*
X105976Y-82562D01*
X106223Y-82472D02*
X106133Y-82562D01*
X106223Y-82314D02*
X106223Y-82472D01*
X106132Y-82224D02*
X106223Y-82314D01*
X105494Y-83356D02*
X105494Y-83087D01*
X104203Y-77577D02*
X105219Y-77577D01*
X104151Y-77708D02*
X104151Y-77629D01*
X105219Y-77577D02*
X105350Y-77446D01*
X105350Y-77446D02*
X105350Y-69730D01*
X88409Y-57205D02*
X88136Y-56932D01*
X88136Y-56932D02*
X87548Y-56932D01*
X87363Y-57450D02*
X87436Y-57378D01*
X87436Y-57378D02*
X87436Y-57044D01*
X87207Y-57450D02*
X87363Y-57450D01*
X87548Y-56932D02*
X87436Y-57044D01*
X92825Y-57205D02*
X88409Y-57205D01*
X105350Y-69730D02*
X92825Y-57205D01*
X104203Y-77577D02*
X104151Y-77629D01*
X104204Y-77761D02*
X104151Y-77708D01*
X105494Y-83087D02*
X105350Y-82943D01*
X105350Y-82943D02*
X105350Y-77967D01*
X105350Y-77967D02*
X105350Y-77895D01*
X105350Y-77895D02*
X105216Y-77761D01*
X104204Y-77761D02*
X105216Y-77761D01*
X104370Y-78619D02*
X104754Y-79003D01*
X103003Y-78619D02*
X104370Y-78619D01*
X104754Y-79003D02*
X104754Y-82724D01*
X104904Y-83040D02*
X104904Y-82874D01*
X104904Y-82874D02*
X104754Y-82724D01*
X102931Y-76056D02*
X104399Y-76056D01*
X104522Y-76348D02*
X104399Y-76471D01*
X104522Y-76179D02*
X104522Y-76348D01*
X104399Y-76056D02*
X104522Y-76179D01*
X102947Y-76471D02*
X104399Y-76471D01*
X102837Y-75822D02*
X102837Y-75962D01*
X102837Y-75822D02*
X102837Y-68589D01*
X92673Y-58425D02*
X88893Y-58425D01*
X87205Y-58268D02*
X87385Y-58268D01*
X87544Y-58110D02*
X88578Y-58110D01*
X87385Y-58268D02*
X87544Y-58110D01*
X88893Y-58425D02*
X88578Y-58110D01*
X102837Y-68589D02*
X92673Y-58425D01*
X102837Y-75962D02*
X102931Y-76056D01*
X102837Y-76580D02*
X102947Y-76471D01*
X102837Y-78453D02*
X103003Y-78619D01*
X102837Y-78453D02*
X102837Y-76580D01*
X81301Y-54668D02*
X81126Y-54492D01*
X79529Y-54105D02*
X79145Y-54489D01*
X81044Y-54105D02*
X79529Y-54105D01*
X81126Y-54187D02*
X81044Y-54105D01*
X81126Y-54492D02*
X81126Y-54187D01*
X64640Y-44370D02*
X64640Y-42475D01*
X64640Y-44370D02*
X74758Y-54489D01*
X74758Y-54489D02*
X79145Y-54489D01*
X55673Y-38753D02*
X55888Y-38968D01*
X55888Y-38968D02*
X55888Y-39910D01*
X55673Y-38470D02*
X55673Y-38753D01*
X55888Y-40320D02*
X55888Y-39910D01*
X56248Y-40680D02*
X55888Y-40320D01*
X62845Y-40680D02*
X56248Y-40680D01*
X64640Y-42475D02*
X62845Y-40680D01*
X55560Y-40120D02*
X55560Y-40001D01*
X55797Y-40358D02*
X55560Y-40120D01*
X64593Y-44452D02*
X74720Y-54580D01*
X79134Y-54580D02*
X74720Y-54580D01*
X64547Y-44406D02*
X64593Y-44452D01*
X64547Y-42510D02*
X64547Y-44406D01*
X62807Y-40771D02*
X64547Y-42510D01*
X56210Y-40771D02*
X62807Y-40771D01*
X55797Y-40358D02*
X56210Y-40771D01*
X55560Y-40001D02*
X55669Y-39892D01*
X82094Y-55087D02*
X81855Y-54847D01*
X79134Y-54580D02*
X79187Y-54580D01*
X79291Y-54477D02*
X79187Y-54580D01*
X80960Y-54477D02*
X79291Y-54477D01*
X81084Y-54601D02*
X80960Y-54477D01*
X81084Y-54701D02*
X81084Y-54601D01*
X81230Y-54847D02*
X81084Y-54701D01*
X81855Y-54847D02*
X81230Y-54847D01*
X79134Y-54580D02*
X79132Y-54580D01*
X55469Y-39369D02*
X55469Y-39212D01*
X55568Y-39112D02*
X55698Y-39112D01*
X55469Y-39212D02*
X55568Y-39112D01*
X81089Y-54836D02*
X81192Y-54939D01*
X79211Y-54671D02*
X79096Y-54671D01*
X79376Y-54836D02*
X79211Y-54671D01*
X81089Y-54836D02*
X79376Y-54836D01*
X74682Y-54671D02*
X64555Y-44543D01*
X79096Y-54671D02*
X74682Y-54671D01*
X55469Y-39369D02*
X55469Y-40171D01*
X55469Y-40171D02*
X56160Y-40862D01*
X56160Y-40862D02*
X62768Y-40862D01*
X62768Y-40862D02*
X64455Y-42549D01*
X64455Y-42549D02*
X64455Y-44444D01*
X64455Y-44444D02*
X64555Y-44543D01*
X81550Y-54939D02*
X81705Y-55094D01*
X81192Y-54939D02*
X81550Y-54939D01*
X57415Y-41140D02*
X62734Y-41140D01*
X63137Y-41365D02*
X64364Y-42592D01*
X64364Y-44481D02*
X64518Y-44635D01*
X64364Y-42592D02*
X64364Y-44481D01*
X64518Y-44635D02*
X74647Y-54764D01*
X74647Y-54764D02*
X79050Y-54764D01*
X80746Y-54927D02*
X79338Y-54927D01*
X79338Y-54927D02*
X79175Y-54764D01*
X79175Y-54764D02*
X79050Y-54764D01*
X80919Y-55100D02*
X80746Y-54927D01*
X57415Y-41365D02*
X63137Y-41365D01*
X57347Y-41297D02*
X57415Y-41365D01*
X57415Y-41140D02*
X57347Y-41208D01*
X62725Y-40953D02*
X56122Y-40953D01*
X56122Y-40953D02*
X54990Y-39821D01*
X54990Y-39821D02*
X54990Y-38379D01*
X62785Y-41013D02*
X62785Y-41089D01*
X62785Y-41089D02*
X62734Y-41140D01*
X62725Y-40953D02*
X62785Y-41013D01*
X57347Y-41208D02*
X57347Y-41297D01*
X94979Y-54708D02*
X94926Y-54655D01*
X88313Y-54655D02*
X88145Y-54487D01*
X94926Y-54655D02*
X88313Y-54655D01*
X111402Y-66289D02*
X110534Y-66289D01*
X110534Y-66289D02*
X110099Y-65854D01*
X86208Y-55261D02*
X86031Y-55084D01*
X86633Y-55261D02*
X86208Y-55261D01*
X87407Y-54487D02*
X86633Y-55261D01*
X88145Y-54487D02*
X87407Y-54487D01*
X103895Y-63624D02*
X94979Y-54708D01*
X109162Y-63624D02*
X103895Y-63624D01*
X109442Y-63904D02*
X109162Y-63624D01*
X109880Y-63904D02*
X109442Y-63904D01*
X110099Y-64123D02*
X109880Y-63904D01*
X110099Y-65854D02*
X110099Y-64123D01*
X86401Y-55042D02*
X86543Y-55042D01*
X86604Y-54982D02*
X86543Y-55042D01*
X103933Y-63533D02*
X109631Y-63533D01*
X103854Y-63454D02*
X103854Y-63374D01*
X103854Y-63374D02*
X103935Y-63293D01*
X103933Y-63533D02*
X103854Y-63454D01*
X94963Y-54563D02*
X103387Y-62987D01*
X88855Y-54563D02*
X88586Y-54294D01*
X94963Y-54563D02*
X88855Y-54563D01*
X88432Y-54294D02*
X87978Y-54294D01*
X88432Y-54294D02*
X88586Y-54294D01*
X87978Y-54294D02*
X87782Y-54098D01*
X87782Y-54098D02*
X87380Y-54098D01*
X87380Y-54098D02*
X86998Y-54480D01*
X86998Y-54480D02*
X86726Y-54480D01*
X86726Y-54480D02*
X86604Y-54602D01*
X86604Y-54602D02*
X86604Y-54982D01*
X103389Y-62987D02*
X105698Y-62987D01*
X105698Y-62987D02*
X105774Y-63063D01*
X105774Y-63063D02*
X105774Y-63206D01*
X105687Y-63293D02*
X105774Y-63206D01*
X103935Y-63293D02*
X105687Y-63293D01*
X90877Y-68766D02*
X89176Y-68766D01*
X89176Y-68766D02*
X88924Y-69018D01*
X90881Y-67818D02*
X90940Y-67759D01*
X90940Y-67759D02*
X90940Y-67662D01*
X90940Y-67662D02*
X90884Y-67606D01*
X90941Y-68702D02*
X90941Y-68570D01*
X90877Y-68766D02*
X90941Y-68702D01*
X88996Y-68502D02*
X90873Y-68502D01*
X90871Y-68034D02*
X90941Y-68104D01*
X90941Y-68104D02*
X90941Y-68197D01*
X88996Y-68262D02*
X90876Y-68262D01*
X88934Y-68324D02*
X88996Y-68262D01*
X88934Y-68440D02*
X88934Y-68324D01*
X88996Y-68502D02*
X88934Y-68440D01*
X90876Y-68262D02*
X90941Y-68197D01*
X89089Y-67879D02*
X89150Y-67818D01*
X89089Y-67974D02*
X89089Y-67879D01*
X89149Y-68034D02*
X89089Y-67974D01*
X89149Y-68034D02*
X90871Y-68034D01*
X90873Y-68502D02*
X90941Y-68570D01*
X89150Y-67818D02*
X90881Y-67818D01*
X90208Y-67184D02*
X90140Y-67116D01*
X90878Y-67184D02*
X90208Y-67184D01*
X90938Y-67244D02*
X90878Y-67184D01*
X90938Y-67356D02*
X90938Y-67244D01*
X90871Y-67423D02*
X90938Y-67356D01*
X90187Y-67423D02*
X90871Y-67423D01*
X90140Y-67470D02*
X90187Y-67423D01*
X90140Y-67557D02*
X90140Y-67470D01*
X90189Y-67606D02*
X90140Y-67557D01*
X87976Y-62660D02*
X89928Y-62660D01*
X89928Y-62660D02*
X90140Y-62872D01*
X90140Y-62872D02*
X90140Y-66667D01*
X87603Y-60200D02*
X87774Y-60371D01*
X87774Y-60371D02*
X87774Y-62457D01*
X87774Y-62457D02*
X87976Y-62660D01*
X90189Y-67606D02*
X90884Y-67606D01*
X90140Y-67010D02*
X90202Y-66948D01*
X90202Y-66948D02*
X90869Y-66948D01*
X90869Y-66948D02*
X90936Y-66881D01*
X90936Y-66881D02*
X90936Y-66789D01*
X90936Y-66789D02*
X90875Y-66728D01*
X90875Y-66728D02*
X90201Y-66728D01*
X90201Y-66728D02*
X90140Y-66667D01*
X90140Y-67116D02*
X90140Y-67010D01*
X88756Y-67767D02*
X88923Y-67767D01*
X89970Y-67502D02*
X88756Y-67502D01*
X90038Y-67434D02*
X89970Y-67502D01*
X90038Y-67328D02*
X90038Y-67434D01*
X89961Y-67251D02*
X90038Y-67328D01*
X88750Y-67251D02*
X89961Y-67251D01*
X88668Y-67169D02*
X88750Y-67251D01*
X88668Y-67080D02*
X88668Y-67169D01*
X88668Y-66597D02*
X88751Y-66514D01*
X88712Y-65679D02*
X88668Y-65723D01*
X88668Y-65723D02*
X88668Y-65804D01*
X88668Y-65804D02*
X88717Y-65853D01*
X88717Y-65853D02*
X89975Y-65853D01*
X89975Y-65853D02*
X90041Y-65919D01*
X90041Y-65919D02*
X90041Y-66006D01*
X90041Y-66006D02*
X89981Y-66066D01*
X89981Y-66066D02*
X88733Y-66066D01*
X88733Y-66066D02*
X88668Y-66131D01*
X89216Y-65208D02*
X89965Y-65208D01*
X89149Y-65387D02*
X89211Y-65449D01*
X89211Y-65449D02*
X89979Y-65449D01*
X89979Y-65449D02*
X90044Y-65513D01*
X90044Y-65513D02*
X90044Y-65619D01*
X90044Y-65619D02*
X89984Y-65679D01*
X87939Y-62751D02*
X89887Y-62751D01*
X89887Y-62751D02*
X90048Y-62912D01*
X87604Y-60987D02*
X87604Y-62416D01*
X87604Y-62416D02*
X87939Y-62751D01*
X89149Y-65275D02*
X89216Y-65208D01*
X89149Y-65275D02*
X89149Y-65387D01*
X89965Y-65208D02*
X90048Y-65125D01*
X90048Y-62912D02*
X90048Y-65125D01*
X89984Y-65679D02*
X88712Y-65679D01*
X88668Y-66219D02*
X88727Y-66278D01*
X88727Y-66278D02*
X89962Y-66278D01*
X89962Y-66278D02*
X90041Y-66357D01*
X90041Y-66357D02*
X90041Y-66444D01*
X90041Y-66444D02*
X89971Y-66514D01*
X89971Y-66514D02*
X88751Y-66514D01*
X88668Y-66131D02*
X88668Y-66219D01*
X88668Y-66597D02*
X88668Y-66688D01*
X88668Y-66688D02*
X88744Y-66764D01*
X88744Y-66764D02*
X89965Y-66764D01*
X89965Y-66764D02*
X90038Y-66836D01*
X90038Y-66836D02*
X90038Y-66933D01*
X90038Y-66933D02*
X89971Y-67000D01*
X89971Y-67000D02*
X88748Y-67000D01*
X88668Y-67080D02*
X88748Y-67000D01*
X88668Y-67679D02*
X88756Y-67767D01*
X88668Y-67590D02*
X88668Y-67679D01*
X88756Y-67502D02*
X88668Y-67590D01*
X88989Y-67919D02*
X88918Y-67990D01*
X88989Y-67833D02*
X88989Y-67919D01*
X88923Y-67767D02*
X88989Y-67833D01*
X88753Y-67990D02*
X88918Y-67990D01*
X88753Y-67990D02*
X88668Y-68075D01*
X88668Y-69018D02*
X88668Y-68075D01*
X86604Y-63184D02*
X87460Y-63184D01*
X86611Y-62653D02*
X86955Y-62653D01*
X86611Y-62653D02*
X86508Y-62550D01*
X86508Y-62550D02*
X86508Y-61973D01*
X86380Y-60793D02*
X86380Y-60598D01*
X86238Y-60936D02*
X86380Y-60793D01*
X86238Y-61146D02*
X86238Y-60936D01*
X86508Y-61416D02*
X86238Y-61146D01*
X86508Y-61973D02*
X86508Y-61416D01*
X86955Y-62653D02*
X87008Y-62706D01*
X86957Y-62824D02*
X87008Y-62773D01*
X87454Y-63021D02*
X86617Y-63021D01*
X86604Y-63184D02*
X86558Y-63230D01*
X86558Y-63230D02*
X86558Y-63325D01*
X87503Y-63070D02*
X87454Y-63021D01*
X87503Y-63141D02*
X87503Y-63070D01*
X87460Y-63184D02*
X87503Y-63141D01*
X86605Y-63372D02*
X86558Y-63325D01*
X87816Y-63500D02*
X87816Y-63429D01*
X87816Y-63429D02*
X87759Y-63372D01*
X86996Y-63556D02*
X86884Y-63668D01*
X87760Y-63556D02*
X86996Y-63556D01*
X87843Y-69326D02*
X87843Y-64921D01*
X87843Y-64921D02*
X87712Y-64790D01*
X87712Y-64790D02*
X86982Y-64790D01*
X86982Y-64790D02*
X86884Y-64692D01*
X86884Y-64692D02*
X86884Y-63668D01*
X87843Y-69326D02*
X85085Y-72085D01*
X85085Y-72085D02*
X85085Y-77798D01*
X87760Y-63556D02*
X87816Y-63500D01*
X87759Y-63372D02*
X86605Y-63372D01*
X86558Y-62879D02*
X86613Y-62824D01*
X86558Y-62962D02*
X86558Y-62879D01*
X86617Y-63021D02*
X86558Y-62962D01*
X86613Y-62824D02*
X86957Y-62824D01*
X87008Y-62706D02*
X87008Y-62773D01*
X87034Y-63652D02*
X87825Y-63652D01*
X87825Y-63652D02*
X87935Y-63542D01*
X87033Y-64699D02*
X87815Y-64699D01*
X87815Y-64699D02*
X87935Y-64819D01*
X85341Y-71958D02*
X85176Y-72122D01*
X87935Y-69364D02*
X87935Y-64819D01*
X87935Y-69364D02*
X85341Y-71958D01*
X85176Y-77632D02*
X85341Y-77797D01*
X85176Y-72122D02*
X85176Y-77632D01*
X86983Y-63703D02*
X86983Y-63808D01*
X87030Y-63855D02*
X86983Y-63808D01*
X87033Y-64699D02*
X86983Y-64649D01*
X87881Y-64477D02*
X87033Y-64477D01*
X87882Y-64266D02*
X87935Y-64319D01*
X87935Y-64423D02*
X87881Y-64477D01*
X87935Y-64319D02*
X87935Y-64423D01*
X87882Y-64266D02*
X87038Y-64266D01*
X86984Y-64212D02*
X87038Y-64266D01*
X87876Y-64061D02*
X87032Y-64061D01*
X87870Y-63855D02*
X87935Y-63920D01*
X87935Y-63920D02*
X87935Y-64002D01*
X87935Y-64002D02*
X87876Y-64061D01*
X87032Y-64061D02*
X86984Y-64109D01*
X86984Y-64109D02*
X86984Y-64212D01*
X87033Y-64477D02*
X86983Y-64527D01*
X86983Y-64527D02*
X86983Y-64649D01*
X87870Y-63855D02*
X87030Y-63855D01*
X87034Y-63652D02*
X86983Y-63703D01*
X87935Y-63271D02*
X87935Y-63542D01*
X86407Y-61006D02*
X86600Y-61198D01*
X87935Y-63271D02*
X86600Y-61936D01*
X86600Y-61936D02*
X86600Y-61198D01*
X86228Y-59498D02*
X86228Y-58973D01*
X85527Y-58812D02*
X85440Y-58725D01*
X86067Y-58812D02*
X85527Y-58812D01*
X86228Y-58973D02*
X86067Y-58812D01*
X84451Y-57841D02*
X84609Y-57841D01*
X84609Y-57841D02*
X84796Y-58028D01*
X85289Y-58028D02*
X84796Y-58028D01*
X85440Y-58179D02*
X85289Y-58028D01*
X85440Y-58725D02*
X85440Y-58179D01*
X86331Y-59601D02*
X86228Y-59498D01*
X87307Y-59601D02*
X86331Y-59601D01*
X87434Y-59728D02*
X87307Y-59601D01*
X87434Y-59728D02*
X87434Y-62375D01*
X88491Y-65206D02*
X88958Y-65206D01*
X89017Y-65395D02*
X88961Y-65450D01*
X89017Y-65265D02*
X89017Y-65395D01*
X88958Y-65206D02*
X89017Y-65265D01*
X88484Y-65450D02*
X88961Y-65450D01*
X88484Y-65450D02*
X88412Y-65523D01*
X88412Y-69018D02*
X88412Y-65523D01*
X88412Y-65035D02*
X88412Y-65127D01*
X88412Y-65127D02*
X88491Y-65206D01*
X88412Y-64576D02*
X88412Y-64662D01*
X88495Y-64952D02*
X88412Y-65035D01*
X89886Y-64952D02*
X88495Y-64952D01*
X89945Y-64893D02*
X89886Y-64952D01*
X89945Y-64800D02*
X89945Y-64893D01*
X89883Y-64738D02*
X89945Y-64800D01*
X88488Y-64738D02*
X89883Y-64738D01*
X88412Y-64662D02*
X88488Y-64738D01*
X89869Y-64063D02*
X88610Y-64063D01*
X89869Y-64063D02*
X89957Y-63974D01*
X87434Y-62375D02*
X87901Y-62842D01*
X89957Y-62965D02*
X89957Y-63974D01*
X89835Y-62842D02*
X89957Y-62965D01*
X87901Y-62842D02*
X89835Y-62842D01*
X88487Y-64501D02*
X88412Y-64576D01*
X89880Y-64501D02*
X88487Y-64501D01*
X89947Y-64434D02*
X89880Y-64501D01*
X89947Y-64333D02*
X89947Y-64434D01*
X89876Y-64263D02*
X89947Y-64333D01*
X88608Y-64263D02*
X89876Y-64263D01*
X88547Y-64202D02*
X88608Y-64263D01*
X88547Y-64126D02*
X88547Y-64202D01*
X88610Y-64063D02*
X88547Y-64126D01*
X87433Y-62375D02*
X87434Y-62375D01*
X87434Y-62375D02*
X87434Y-62374D01*
X88156Y-69018D02*
X88156Y-64308D01*
X88390Y-64062D02*
X88429Y-64101D01*
X88429Y-64101D02*
X88429Y-64208D01*
X88145Y-63853D02*
X88079Y-63919D01*
X88079Y-63919D02*
X88079Y-63994D01*
X88079Y-63994D02*
X88147Y-64062D01*
X89866Y-63726D02*
X89866Y-63803D01*
X87003Y-62073D02*
X87003Y-60117D01*
X87863Y-62933D02*
X89694Y-62933D01*
X86097Y-59604D02*
X85977Y-59604D01*
X85140Y-59205D02*
X85041Y-59106D01*
X85737Y-59205D02*
X85140Y-59205D01*
X85839Y-59307D02*
X85737Y-59205D01*
X85839Y-59466D02*
X85839Y-59307D01*
X85977Y-59604D02*
X85839Y-59466D01*
X86223Y-59868D02*
X86334Y-59979D01*
X86223Y-59730D02*
X86223Y-59868D01*
X86097Y-59604D02*
X86223Y-59730D01*
X87003Y-60117D02*
X86865Y-59979D01*
X86865Y-59979D02*
X86334Y-59979D01*
X87003Y-62073D02*
X87863Y-62933D01*
X89797Y-62933D02*
X89846Y-62982D01*
X89846Y-62982D02*
X89846Y-63063D01*
X89846Y-63063D02*
X89796Y-63113D01*
X89796Y-63113D02*
X88128Y-63113D01*
X88128Y-63113D02*
X88076Y-63165D01*
X88076Y-63165D02*
X88076Y-63239D01*
X88076Y-63239D02*
X88126Y-63289D01*
X88126Y-63289D02*
X89813Y-63289D01*
X89813Y-63289D02*
X89866Y-63342D01*
X89694Y-62933D02*
X89797Y-62933D01*
X84969Y-58231D02*
X84850Y-58231D01*
X85041Y-58303D02*
X84969Y-58231D01*
X85041Y-59106D02*
X85041Y-58303D01*
X89866Y-63434D02*
X89814Y-63487D01*
X89814Y-63487D02*
X88140Y-63487D01*
X88140Y-63487D02*
X88079Y-63548D01*
X88079Y-63548D02*
X88079Y-63620D01*
X88079Y-63620D02*
X88138Y-63679D01*
X88138Y-63679D02*
X89819Y-63679D01*
X89819Y-63679D02*
X89866Y-63726D01*
X89866Y-63342D02*
X89866Y-63434D01*
X89866Y-63803D02*
X89817Y-63853D01*
X89817Y-63853D02*
X88145Y-63853D01*
X88429Y-64208D02*
X88387Y-64250D01*
X88156Y-64308D02*
X88214Y-64250D01*
X88214Y-64250D02*
X88387Y-64250D01*
X88147Y-64062D02*
X88390Y-64062D01*
X87614Y-66472D02*
X87429Y-66472D01*
X87609Y-65890D02*
X87661Y-65942D01*
X87661Y-65942D02*
X87661Y-66044D01*
X87661Y-66044D02*
X87610Y-66096D01*
X87610Y-66096D02*
X86758Y-66096D01*
X86758Y-66096D02*
X86702Y-66152D01*
X86702Y-66152D02*
X86702Y-66232D01*
X86702Y-66232D02*
X86756Y-66286D01*
X86756Y-66286D02*
X87611Y-66286D01*
X87611Y-66286D02*
X87661Y-66336D01*
X86326Y-61701D02*
X86326Y-63397D01*
X86326Y-61701D02*
X85461Y-60835D01*
X85639Y-59584D02*
X85639Y-59422D01*
X85461Y-59763D02*
X85639Y-59584D01*
X85461Y-60835D02*
X85461Y-59763D01*
X86851Y-65890D02*
X86701Y-65740D01*
X86701Y-65740D02*
X86701Y-63772D01*
X86701Y-63772D02*
X86326Y-63397D01*
X86851Y-65890D02*
X87609Y-65890D01*
X87661Y-66424D02*
X87614Y-66472D01*
X87661Y-66336D02*
X87661Y-66424D01*
X87389Y-66594D02*
X87431Y-66636D01*
X87389Y-66512D02*
X87389Y-66594D01*
X87429Y-66472D02*
X87389Y-66512D01*
X87614Y-66636D02*
X87661Y-66683D01*
X87431Y-66636D02*
X87614Y-66636D01*
X84653Y-77464D02*
X83705Y-77464D01*
X87661Y-69250D02*
X87661Y-66683D01*
X84880Y-77237D02*
X84653Y-77464D01*
X84880Y-72031D02*
X84880Y-77237D01*
X87661Y-69250D02*
X84880Y-72031D01*
X86417Y-63359D02*
X86417Y-61663D01*
X86889Y-65134D02*
X86836Y-65188D01*
X86836Y-65188D02*
X86836Y-65305D01*
X87704Y-65358D02*
X86889Y-65358D01*
X86892Y-65790D02*
X86835Y-65733D01*
X86835Y-65733D02*
X86835Y-65632D01*
X87702Y-65582D02*
X86885Y-65582D01*
X87704Y-65358D02*
X87752Y-65406D01*
X87752Y-65531D02*
X87702Y-65582D01*
X87752Y-65406D02*
X87752Y-65531D01*
X86885Y-65582D02*
X86835Y-65632D01*
X87752Y-69288D02*
X84972Y-72069D01*
X84972Y-72069D02*
X84972Y-77654D01*
X84829Y-77797D02*
X84972Y-77654D01*
X87690Y-65790D02*
X87752Y-65852D01*
X87752Y-69288D02*
X87752Y-65852D01*
X87690Y-65790D02*
X86892Y-65790D01*
X86889Y-65358D02*
X86836Y-65305D01*
X87681Y-64888D02*
X87752Y-64959D01*
X87752Y-64959D02*
X87752Y-65066D01*
X87752Y-65066D02*
X87684Y-65134D01*
X86792Y-63734D02*
X86417Y-63359D01*
X86792Y-64729D02*
X86792Y-63734D01*
X86951Y-64888D02*
X86792Y-64729D01*
X86417Y-61663D02*
X85845Y-61091D01*
X85845Y-61091D02*
X85845Y-59974D01*
X85845Y-59974D02*
X85659Y-59789D01*
X86951Y-64888D02*
X87681Y-64888D01*
X87684Y-65134D02*
X86889Y-65134D01*
X78143Y-60913D02*
X78143Y-59105D01*
X78405Y-58843D02*
X78631Y-58843D01*
X78143Y-59105D02*
X78405Y-58843D01*
X78631Y-58843D02*
X78992Y-58843D01*
X82125Y-57432D02*
X82487Y-57432D01*
X81887Y-57671D02*
X82125Y-57432D01*
X81887Y-58672D02*
X81887Y-57671D01*
X81716Y-58843D02*
X81887Y-58672D01*
X78992Y-58843D02*
X81716Y-58843D01*
X69324Y-79354D02*
X69324Y-79209D01*
X69324Y-79209D02*
X69474Y-79058D01*
X73214Y-65186D02*
X73172Y-65144D01*
X73172Y-65144D02*
X73172Y-65088D01*
X73432Y-65044D02*
X73216Y-65044D01*
X73478Y-62590D02*
X73702Y-62366D01*
X81492Y-62366D02*
X81712Y-62146D01*
X73702Y-62366D02*
X81492Y-62366D01*
X81712Y-62146D02*
X81712Y-62012D01*
X73478Y-64998D02*
X73478Y-62590D01*
X73432Y-65044D02*
X73478Y-64998D01*
X73216Y-65044D02*
X73172Y-65088D01*
X73427Y-65331D02*
X72198Y-65331D01*
X73427Y-65331D02*
X73473Y-65285D01*
X73473Y-65285D02*
X73473Y-65230D01*
X73473Y-65230D02*
X73429Y-65186D01*
X73418Y-65711D02*
X72189Y-65711D01*
X69746Y-66408D02*
X73406Y-66408D01*
X69619Y-66281D02*
X69619Y-66097D01*
X69619Y-66097D02*
X69746Y-65969D01*
X69474Y-66875D02*
X69707Y-66642D01*
X69707Y-66642D02*
X73406Y-66642D01*
X73406Y-66642D02*
X73480Y-66568D01*
X73480Y-66568D02*
X73480Y-66482D01*
X73480Y-66482D02*
X73406Y-66408D01*
X69746Y-66408D02*
X69619Y-66281D01*
X73400Y-65969D02*
X73478Y-65891D01*
X69746Y-65969D02*
X73400Y-65969D01*
X69474Y-79058D02*
X69474Y-66875D01*
X73478Y-65771D02*
X73418Y-65711D01*
X73478Y-65891D02*
X73478Y-65771D01*
X72095Y-65435D02*
X72198Y-65331D01*
X72095Y-65617D02*
X72095Y-65435D01*
X72189Y-65711D02*
X72095Y-65617D01*
X73429Y-65186D02*
X73214Y-65186D01*
X69718Y-79347D02*
X69718Y-79215D01*
X69718Y-79215D02*
X69565Y-79062D01*
X72186Y-65475D02*
X72186Y-65564D01*
X72186Y-65564D02*
X72241Y-65619D01*
X72241Y-65619D02*
X73455Y-65619D01*
X73471Y-65423D02*
X72238Y-65423D01*
X73471Y-65423D02*
X73571Y-65323D01*
X73571Y-62645D02*
X73758Y-62457D01*
X73758Y-62457D02*
X81529Y-62457D01*
X81529Y-62457D02*
X81780Y-62206D01*
X81780Y-62206D02*
X81930Y-62206D01*
X73571Y-65323D02*
X73571Y-62645D01*
X69788Y-66061D02*
X73454Y-66061D01*
X69716Y-66133D02*
X69788Y-66061D01*
X69716Y-66244D02*
X69716Y-66133D01*
X69788Y-66316D02*
X69716Y-66244D01*
X73443Y-66316D02*
X69788Y-66316D01*
X73571Y-66444D02*
X73443Y-66316D01*
X73571Y-66609D02*
X73571Y-66444D01*
X73447Y-66734D02*
X73571Y-66609D01*
X69744Y-66734D02*
X73447Y-66734D01*
X69565Y-66913D02*
X69744Y-66734D01*
X69565Y-79062D02*
X69565Y-66913D01*
X73454Y-66061D02*
X73571Y-65944D01*
X73571Y-65944D02*
X73571Y-65735D01*
X73571Y-65735D02*
X73455Y-65619D01*
X72238Y-65423D02*
X72186Y-65475D01*
X69914Y-79626D02*
X69914Y-79461D01*
X69914Y-79461D02*
X70056Y-79318D01*
X73890Y-67686D02*
X73816Y-67760D01*
X73816Y-67760D02*
X70162Y-67760D01*
X70162Y-67760D02*
X70055Y-67868D01*
X70055Y-67868D02*
X70055Y-68054D01*
X73890Y-68338D02*
X73890Y-68226D01*
X70145Y-68144D02*
X70055Y-68054D01*
X73808Y-68144D02*
X70145Y-68144D01*
X73890Y-68226D02*
X73808Y-68144D01*
X70056Y-79318D02*
X70056Y-68642D01*
X70056Y-68642D02*
X70272Y-68426D01*
X70272Y-68426D02*
X73802Y-68426D01*
X73802Y-68426D02*
X73890Y-68338D01*
X72885Y-67160D02*
X73809Y-67160D01*
X72885Y-67160D02*
X72806Y-67239D01*
X72806Y-67239D02*
X72806Y-67420D01*
X73890Y-63064D02*
X74121Y-62834D01*
X74121Y-62834D02*
X82423Y-62834D01*
X83471Y-60161D02*
X83360Y-60050D01*
X82819Y-62437D02*
X82819Y-60915D01*
X82819Y-60915D02*
X83066Y-60669D01*
X83066Y-60157D02*
X83173Y-60050D01*
X83173Y-60050D02*
X83360Y-60050D01*
X82819Y-62437D02*
X82423Y-62834D01*
X83471Y-61089D02*
X83471Y-60161D01*
X83066Y-60669D02*
X83066Y-60157D01*
X72886Y-67500D02*
X72806Y-67420D01*
X73890Y-67571D02*
X73819Y-67500D01*
X73890Y-67686D02*
X73890Y-67571D01*
X73819Y-67500D02*
X72886Y-67500D01*
X73809Y-67160D02*
X73890Y-67078D01*
X73890Y-67078D02*
X73890Y-63064D01*
X70308Y-79626D02*
X70308Y-79482D01*
X70308Y-79482D02*
X70148Y-79322D01*
X70234Y-68881D02*
X70977Y-68881D01*
X70978Y-68703D02*
X71018Y-68743D01*
X70255Y-68573D02*
X70255Y-68647D01*
X70255Y-68647D02*
X70311Y-68703D01*
X73856Y-67408D02*
X72941Y-67408D01*
X73982Y-67741D02*
X73982Y-67534D01*
X73982Y-67534D02*
X73856Y-67408D01*
X73982Y-68392D02*
X73982Y-68170D01*
X73871Y-67852D02*
X73982Y-67741D01*
X70203Y-67852D02*
X73871Y-67852D01*
X70147Y-67908D02*
X70203Y-67852D01*
X70147Y-67999D02*
X70147Y-67908D01*
X70200Y-68052D02*
X70147Y-67999D01*
X73864Y-68052D02*
X70200Y-68052D01*
X73982Y-68170D02*
X73864Y-68052D01*
X70310Y-68518D02*
X73856Y-68518D01*
X73856Y-68518D02*
X73982Y-68392D01*
X72948Y-67251D02*
X72897Y-67302D01*
X73982Y-67132D02*
X73982Y-63133D01*
X73982Y-63133D02*
X74189Y-62925D01*
X74189Y-62925D02*
X82460Y-62925D01*
X82911Y-62475D02*
X82911Y-60953D01*
X82911Y-62475D02*
X82460Y-62925D01*
X83260Y-60603D02*
X82911Y-60953D01*
X83260Y-60211D02*
X83260Y-60603D01*
X73862Y-67251D02*
X73982Y-67132D01*
X73862Y-67251D02*
X72948Y-67251D01*
X72897Y-67365D02*
X72897Y-67302D01*
X72941Y-67408D02*
X72897Y-67365D01*
X70310Y-68518D02*
X70255Y-68573D01*
X70148Y-68966D02*
X70148Y-79322D01*
X70234Y-68881D02*
X70148Y-68966D01*
X70311Y-68703D02*
X70978Y-68703D01*
X70977Y-68881D02*
X71018Y-68840D01*
X71018Y-68840D02*
X71018Y-68743D01*
X70506Y-79300D02*
X70506Y-79165D01*
X70506Y-79165D02*
X70647Y-79023D01*
X74195Y-68965D02*
X73973Y-68965D01*
X74268Y-68700D02*
X74268Y-63609D01*
X73973Y-68965D02*
X73924Y-68916D01*
X73924Y-68916D02*
X73924Y-68819D01*
X74204Y-68765D02*
X73978Y-68765D01*
X74624Y-63254D02*
X74268Y-63609D01*
X83078Y-61872D02*
X83078Y-62970D01*
X82794Y-63254D02*
X82482Y-63254D01*
X83078Y-62970D02*
X82794Y-63254D01*
X83078Y-61123D02*
X83078Y-61872D01*
X74624Y-63254D02*
X82482Y-63254D01*
X74204Y-68765D02*
X74268Y-68700D01*
X73978Y-68765D02*
X73924Y-68819D01*
X74180Y-69252D02*
X74268Y-69164D01*
X74268Y-69164D02*
X74268Y-69038D01*
X74268Y-69038D02*
X74195Y-68965D01*
X72880Y-70500D02*
X70794Y-70500D01*
X70669Y-70320D02*
X70586Y-70237D01*
X70586Y-70237D02*
X70586Y-70012D01*
X71079Y-69933D02*
X70665Y-69933D01*
X70696Y-69691D02*
X74192Y-69691D01*
X70584Y-69579D02*
X70696Y-69691D01*
X74183Y-69933D02*
X74262Y-69854D01*
X74262Y-69854D02*
X74262Y-69761D01*
X74262Y-69761D02*
X74192Y-69691D01*
X71079Y-69933D02*
X74183Y-69933D01*
X70701Y-69252D02*
X74180Y-69252D01*
X70584Y-69369D02*
X70701Y-69252D01*
X70584Y-69369D02*
X70584Y-69579D01*
X70665Y-69933D02*
X70586Y-70012D01*
X72880Y-70500D02*
X72936Y-70444D01*
X70647Y-79023D02*
X70647Y-77757D01*
X70647Y-77757D02*
X70647Y-70646D01*
X70794Y-70500D02*
X70647Y-70646D01*
X72936Y-70371D02*
X72936Y-70444D01*
X72885Y-70320D02*
X72936Y-70371D01*
X70669Y-70320D02*
X72885Y-70320D01*
X70899Y-79312D02*
X70899Y-79191D01*
X70899Y-79191D02*
X70738Y-79030D01*
X70832Y-70591D02*
X72943Y-70591D01*
X74360Y-69231D02*
X74360Y-63648D01*
X70726Y-70221D02*
X72937Y-70221D01*
X72943Y-70591D02*
X73028Y-70507D01*
X73028Y-70507D02*
X73028Y-70312D01*
X70738Y-70684D02*
X70832Y-70591D01*
X70738Y-79030D02*
X70738Y-77795D01*
X70738Y-70846D02*
X70738Y-77795D01*
X70738Y-70846D02*
X70738Y-70684D01*
X72937Y-70221D02*
X73028Y-70312D01*
X70726Y-70221D02*
X70677Y-70172D01*
X70723Y-70026D02*
X70677Y-70072D01*
X70752Y-69599D02*
X70676Y-69523D01*
X71129Y-70026D02*
X74218Y-70026D01*
X74353Y-69723D02*
X74229Y-69599D01*
X74353Y-69891D02*
X74353Y-69723D01*
X74218Y-70026D02*
X74353Y-69891D01*
X74229Y-69599D02*
X70752Y-69599D01*
X70739Y-69344D02*
X70676Y-69407D01*
X70676Y-69407D02*
X70676Y-69523D01*
X74247Y-69344D02*
X74360Y-69231D01*
X74662Y-63345D02*
X74360Y-63648D01*
X82519Y-63345D02*
X74662Y-63345D01*
X82831Y-63345D02*
X82519Y-63345D01*
X83274Y-62903D02*
X82831Y-63345D01*
X83274Y-61846D02*
X83274Y-62903D01*
X74247Y-69344D02*
X70739Y-69344D01*
X71129Y-70026D02*
X70723Y-70026D01*
X70677Y-70172D02*
X70677Y-70072D01*
X83274Y-61844D02*
X83274Y-61254D01*
X81951Y-61368D02*
X82010Y-61368D01*
X68536Y-62832D02*
X70000Y-61368D01*
X70000Y-61368D02*
X81951Y-61368D01*
X68536Y-79408D02*
X68536Y-62832D01*
X82010Y-61368D02*
X82287Y-61090D01*
X68998Y-63901D02*
X71941Y-63901D01*
X82344Y-61573D02*
X70228Y-61573D01*
X68998Y-63901D02*
X68877Y-63780D01*
X68877Y-62925D02*
X70228Y-61573D01*
X83160Y-59536D02*
X84426Y-59536D01*
X82344Y-61573D02*
X82633Y-61284D01*
X82652Y-60045D02*
X82633Y-60063D01*
X82652Y-59715D02*
X82652Y-60045D01*
X82775Y-59592D02*
X82652Y-59715D01*
X83105Y-59592D02*
X82775Y-59592D01*
X82633Y-60063D02*
X82633Y-61284D01*
X84426Y-59536D02*
X84650Y-59760D01*
X83105Y-59592D02*
X83160Y-59536D01*
X68877Y-63780D02*
X68877Y-62925D01*
X84650Y-60256D02*
X84650Y-59760D01*
X84067Y-60641D02*
X84306Y-60402D01*
X84306Y-60402D02*
X84504Y-60402D01*
X84504Y-60402D02*
X84650Y-60256D01*
X84067Y-61081D02*
X84067Y-60641D01*
X72002Y-64045D02*
X71949Y-64097D01*
X72002Y-63962D02*
X72002Y-64045D01*
X71941Y-63901D02*
X72002Y-63962D01*
X68877Y-64215D02*
X68877Y-79321D01*
X68995Y-64097D02*
X68877Y-64215D01*
X68995Y-64097D02*
X71949Y-64097D01*
X68734Y-79465D02*
X68877Y-79321D01*
X68734Y-79625D02*
X68734Y-79465D01*
X69127Y-79469D02*
X68968Y-79311D01*
X83198Y-59628D02*
X84202Y-59628D01*
X68968Y-63725D02*
X69052Y-63809D01*
X68968Y-62962D02*
X70266Y-61665D01*
X82725Y-61322D02*
X82382Y-61665D01*
X70979Y-61665D02*
X71070Y-61756D01*
X71070Y-61945D02*
X71140Y-62015D01*
X71140Y-62015D02*
X71208Y-62015D01*
X71070Y-61756D02*
X71070Y-61945D01*
X71278Y-61945D02*
X71208Y-62015D01*
X71700Y-61730D02*
X71700Y-61947D01*
X83113Y-59923D02*
X83113Y-59713D01*
X83011Y-60025D02*
X83113Y-59923D01*
X82821Y-60025D02*
X83011Y-60025D01*
X82725Y-60121D02*
X82821Y-60025D01*
X82382Y-61665D02*
X81683Y-61665D01*
X83113Y-59713D02*
X83198Y-59628D01*
X84252Y-59992D02*
X84450Y-60190D01*
X71765Y-61665D02*
X81683Y-61665D01*
X71700Y-61730D02*
X71765Y-61665D01*
X71640Y-62007D02*
X71560Y-62007D01*
X71700Y-61947D02*
X71640Y-62007D01*
X71498Y-61945D02*
X71498Y-61738D01*
X71278Y-61737D02*
X71339Y-61676D01*
X71436Y-61676D02*
X71339Y-61676D01*
X71498Y-61738D02*
X71436Y-61676D01*
X71498Y-61945D02*
X71560Y-62007D01*
X71278Y-61737D02*
X71278Y-61945D01*
X70979Y-61665D02*
X70266Y-61665D01*
X82725Y-61322D02*
X82725Y-60121D01*
X68968Y-62962D02*
X68968Y-63725D01*
X72391Y-63809D02*
X72505Y-63923D01*
X72505Y-63923D02*
X72505Y-64078D01*
X72505Y-64078D02*
X72394Y-64189D01*
X72394Y-64189D02*
X69042Y-64189D01*
X69052Y-63809D02*
X72391Y-63809D01*
X68968Y-64262D02*
X68968Y-79311D01*
X68968Y-64262D02*
X69042Y-64189D01*
X84252Y-59678D02*
X84252Y-59992D01*
X84202Y-59628D02*
X84252Y-59678D01*
X69127Y-79625D02*
X69127Y-79469D01*
X80716Y-60360D02*
X80716Y-60151D01*
X80716Y-60151D02*
X80845Y-60022D01*
X80664Y-60412D02*
X80716Y-60360D01*
X80845Y-60022D02*
X81629Y-60022D01*
X81629Y-60022D02*
X82137Y-60022D01*
X82137Y-60022D02*
X82318Y-60203D01*
X82318Y-60203D02*
X82459Y-60203D01*
X67947Y-79625D02*
X67946Y-63035D01*
X79981Y-61094D02*
X80664Y-60412D01*
X73911Y-61094D02*
X79981Y-61094D01*
X73640Y-60823D02*
X73911Y-61094D01*
X73301Y-60823D02*
X73640Y-60823D01*
X73029Y-61094D02*
X73301Y-60823D01*
X69886Y-61094D02*
X73029Y-61094D01*
X67946Y-63035D02*
X69886Y-61094D01*
X69962Y-61276D02*
X81396Y-61276D01*
X68340Y-62899D02*
X69962Y-61276D01*
X68340Y-79627D02*
X68340Y-62899D01*
X81396Y-61276D02*
X82093Y-60580D01*
X68143Y-62967D02*
X69924Y-61185D01*
X77692Y-61185D02*
X69924Y-61185D01*
X68142Y-79414D02*
X68143Y-62967D01*
X81251Y-60793D02*
X81365Y-60793D01*
X81567Y-60391D02*
X82283Y-60391D01*
X81472Y-60486D02*
X81567Y-60391D01*
X81472Y-60686D02*
X81472Y-60486D01*
X81365Y-60793D02*
X81472Y-60686D01*
X81251Y-60793D02*
X81116Y-60793D01*
X80260Y-60954D02*
X80421Y-60793D01*
X80028Y-61185D02*
X80260Y-60954D01*
X77692Y-61185D02*
X80024Y-61185D01*
X82283Y-60391D02*
X82460Y-60568D01*
X80421Y-60793D02*
X81116Y-60793D01*
X77692Y-61185D02*
X77692Y-61185D01*
X50924Y-79359D02*
X50924Y-79205D01*
X50924Y-79205D02*
X51079Y-79049D01*
X54429Y-73310D02*
X54274Y-73155D01*
X54429Y-73310D02*
X54496Y-73310D01*
X54496Y-73310D02*
X54596Y-73211D01*
X80171Y-56859D02*
X80375Y-56655D01*
X80516Y-56655D02*
X80375Y-56655D01*
X54596Y-73211D02*
X70948Y-56859D01*
X70948Y-56859D02*
X80171Y-56859D01*
X54213Y-73155D02*
X54155Y-73213D01*
X54274Y-73155D02*
X54213Y-73155D01*
X54307Y-73422D02*
X54155Y-73270D01*
X54188Y-73619D02*
X54307Y-73500D01*
X54343Y-73921D02*
X54188Y-73766D01*
X53913Y-73894D02*
X54059Y-73894D01*
X54059Y-73894D02*
X54212Y-74046D01*
X54212Y-74046D02*
X54282Y-74046D01*
X54282Y-74046D02*
X54343Y-73985D01*
X54343Y-73985D02*
X54343Y-73921D01*
X53786Y-74021D02*
X53913Y-73894D01*
X54188Y-73766D02*
X54188Y-73619D01*
X53366Y-74441D02*
X53518Y-74289D01*
X53786Y-74163D02*
X53786Y-74021D01*
X53942Y-74319D02*
X53786Y-74163D01*
X53942Y-74386D02*
X53942Y-74319D01*
X53888Y-74440D02*
X53942Y-74386D01*
X53810Y-74440D02*
X53888Y-74440D01*
X53658Y-74289D02*
X53810Y-74440D01*
X53518Y-74289D02*
X53658Y-74289D01*
X51079Y-76727D02*
X53112Y-74695D01*
X53366Y-74570D02*
X53366Y-74441D01*
X53520Y-74724D02*
X53366Y-74570D01*
X53520Y-74793D02*
X53520Y-74724D01*
X53463Y-74850D02*
X53520Y-74793D01*
X53383Y-74850D02*
X53463Y-74850D01*
X53383Y-74850D02*
X53228Y-74695D01*
X53112Y-74695D02*
X53228Y-74695D01*
X51079Y-76727D02*
X51079Y-79049D01*
X54307Y-73500D02*
X54307Y-73422D01*
X54155Y-73270D02*
X54155Y-73213D01*
X51318Y-79343D02*
X51318Y-79194D01*
X51318Y-79194D02*
X51170Y-79046D01*
X54544Y-73392D02*
X70981Y-56955D01*
X54481Y-73641D02*
X54566Y-73641D01*
X54566Y-73641D02*
X54612Y-73595D01*
X54612Y-73595D02*
X54612Y-73526D01*
X54612Y-73526D02*
X54544Y-73458D01*
X54544Y-73458D02*
X54544Y-73392D01*
X80914Y-56657D02*
X80738Y-56657D01*
X80738Y-56657D02*
X80440Y-56955D01*
X70981Y-56955D02*
X80440Y-56955D01*
X53921Y-74536D02*
X54035Y-74422D01*
X54035Y-74283D02*
X54035Y-74422D01*
X54023Y-73986D02*
X54176Y-74139D01*
X53880Y-74055D02*
X53950Y-73986D01*
X53880Y-74128D02*
X53880Y-74055D01*
X53950Y-73986D02*
X54023Y-73986D01*
X54176Y-74139D02*
X54318Y-74139D01*
X54318Y-74139D02*
X54435Y-74022D01*
X54279Y-73728D02*
X54279Y-73656D01*
X54435Y-73884D02*
X54279Y-73728D01*
X54435Y-74022D02*
X54435Y-73884D01*
X53880Y-74128D02*
X54035Y-74283D01*
X53777Y-74536D02*
X53921Y-74536D01*
X53553Y-74383D02*
X53464Y-74472D01*
X53553Y-74383D02*
X53624Y-74383D01*
X53204Y-74799D02*
X53346Y-74941D01*
X53137Y-74799D02*
X53204Y-74799D01*
X51170Y-79046D02*
X51170Y-76765D01*
X51170Y-76765D02*
X53137Y-74799D01*
X53464Y-74539D02*
X53464Y-74472D01*
X53611Y-74686D02*
X53464Y-74539D01*
X53611Y-74830D02*
X53611Y-74686D01*
X53500Y-74941D02*
X53611Y-74830D01*
X53346Y-74941D02*
X53500Y-74941D01*
X53624Y-74383D02*
X53777Y-74536D01*
X54279Y-73656D02*
X54352Y-73584D01*
X54352Y-73584D02*
X54424Y-73584D01*
X54424Y-73584D02*
X54481Y-73641D01*
X51515Y-79625D02*
X51515Y-79418D01*
X52324Y-76262D02*
X51654Y-76931D01*
X51654Y-79279D02*
X51654Y-76931D01*
X52556Y-76030D02*
X52412Y-76030D01*
X52412Y-76030D02*
X52324Y-76118D01*
X52324Y-76118D02*
X52324Y-76262D01*
X81093Y-56591D02*
X80999Y-56497D01*
X52962Y-75700D02*
X53051Y-75789D01*
X52962Y-75624D02*
X52962Y-75700D01*
X52931Y-75907D02*
X53001Y-75907D01*
X52765Y-75821D02*
X52845Y-75821D01*
X52845Y-75821D02*
X52931Y-75907D01*
X53051Y-75857D02*
X53001Y-75907D01*
X53051Y-75789D02*
X53051Y-75857D01*
X71336Y-57250D02*
X79660Y-57250D01*
X79660Y-57250D02*
X79784Y-57126D01*
X53013Y-75573D02*
X52962Y-75624D01*
X53013Y-75573D02*
X71336Y-57250D01*
X80687Y-56185D02*
X80687Y-56414D01*
X80687Y-56414D02*
X80770Y-56497D01*
X80770Y-56497D02*
X80999Y-56497D01*
X79955Y-56104D02*
X80606Y-56104D01*
X80606Y-56104D02*
X80687Y-56185D01*
X79731Y-55880D02*
X79955Y-56104D01*
X80525Y-57126D02*
X79784Y-57126D01*
X81093Y-56591D02*
X81093Y-56705D01*
X80972Y-56827D02*
X80824Y-56827D01*
X80824Y-56827D02*
X80525Y-57126D01*
X81093Y-56705D02*
X80972Y-56827D01*
X52765Y-75821D02*
X52556Y-76030D01*
X51515Y-79418D02*
X51654Y-79279D01*
X51910Y-79625D02*
X51910Y-79435D01*
X51910Y-79435D02*
X51745Y-79270D01*
X81184Y-56553D02*
X81184Y-56997D01*
X81184Y-56997D02*
X80964Y-57217D01*
X79821Y-57217D02*
X80964Y-57217D01*
X53492Y-75475D02*
X53402Y-75385D01*
X53492Y-75536D02*
X53492Y-75475D01*
X53448Y-75580D02*
X53492Y-75536D01*
X53390Y-75580D02*
X53448Y-75580D01*
X53306Y-75496D02*
X53390Y-75580D01*
X53219Y-75496D02*
X53306Y-75496D01*
X53402Y-75313D02*
X71373Y-57341D01*
X53142Y-75751D02*
X53081Y-75690D01*
X53081Y-75690D02*
X53081Y-75634D01*
X51745Y-76969D02*
X52773Y-75941D01*
X51745Y-79270D02*
X51745Y-76969D01*
X52773Y-75941D02*
X52836Y-75941D01*
X79697Y-57341D02*
X79821Y-57217D01*
X71373Y-57341D02*
X79697Y-57341D01*
X53142Y-75894D02*
X53142Y-75751D01*
X53081Y-75634D02*
X53219Y-75496D01*
X53038Y-75998D02*
X53142Y-75894D01*
X52893Y-75998D02*
X53038Y-75998D01*
X52836Y-75941D02*
X52893Y-75998D01*
X53402Y-75385D02*
X53402Y-75313D01*
X80643Y-56012D02*
X80778Y-56147D01*
X81036Y-56405D02*
X81184Y-56553D01*
X80838Y-56405D02*
X81036Y-56405D01*
X80778Y-56346D02*
X80838Y-56405D01*
X80778Y-56147D02*
X80778Y-56346D01*
X80282Y-56012D02*
X80643Y-56012D01*
X80147Y-55878D02*
X80282Y-56012D01*
X52106Y-79349D02*
X52106Y-79197D01*
X52106Y-79197D02*
X52256Y-79046D01*
X80835Y-56032D02*
X81009Y-56032D01*
X81009Y-56032D02*
X81147Y-56170D01*
X81376Y-57132D02*
X81376Y-56563D01*
X81147Y-56170D02*
X81147Y-56334D01*
X80747Y-55944D02*
X80835Y-56032D01*
X79949Y-55694D02*
X80615Y-55694D01*
X80615Y-55694D02*
X80747Y-55826D01*
X81376Y-56563D02*
X81147Y-56334D01*
X81136Y-57474D02*
X81136Y-57373D01*
X80980Y-57630D02*
X79926Y-57630D01*
X79849Y-57553D02*
X79926Y-57630D01*
X80980Y-57630D02*
X81136Y-57474D01*
X52256Y-77123D02*
X71827Y-57553D01*
X71827Y-57553D02*
X79849Y-57553D01*
X52256Y-79046D02*
X52256Y-77123D01*
X79949Y-55694D02*
X79733Y-55478D01*
X80747Y-55944D02*
X80747Y-55826D01*
X81376Y-57132D02*
X81136Y-57373D01*
X52499Y-79342D02*
X52499Y-79206D01*
X52499Y-79206D02*
X52349Y-79056D01*
X81468Y-57572D02*
X81468Y-56150D01*
X52349Y-79056D02*
X52349Y-78480D01*
X81055Y-55871D02*
X81245Y-56061D01*
X81379Y-56061D02*
X81245Y-56061D01*
X81468Y-56150D02*
X81379Y-56061D01*
X79681Y-58010D02*
X79315Y-57644D01*
X71864Y-57644D02*
X79315Y-57644D01*
X52349Y-77159D02*
X71864Y-57644D01*
X52349Y-78140D02*
X52349Y-77159D01*
X52349Y-78480D02*
X52421Y-78409D01*
X52421Y-78409D02*
X52674Y-78409D01*
X52674Y-78409D02*
X52735Y-78348D01*
X52735Y-78348D02*
X52735Y-78269D01*
X52735Y-78269D02*
X52679Y-78213D01*
X52679Y-78213D02*
X52422Y-78213D01*
X52422Y-78213D02*
X52349Y-78140D01*
X81128Y-57936D02*
X81128Y-57758D01*
X81128Y-57758D02*
X81244Y-57642D01*
X81244Y-57642D02*
X81398Y-57642D01*
X81398Y-57642D02*
X81468Y-57572D01*
X81054Y-58010D02*
X81128Y-57936D01*
X81055Y-55871D02*
X80912Y-55871D01*
X79681Y-58010D02*
X81054Y-58010D01*
X67450Y-59021D02*
X67450Y-55750D01*
X67951Y-55249D02*
X67450Y-55750D01*
X78697Y-55249D02*
X67951Y-55249D01*
X50137Y-79478D02*
X50137Y-76334D01*
X50137Y-76334D02*
X67450Y-59021D01*
X50333Y-79463D02*
X50333Y-79628D01*
X79389Y-56495D02*
X79114Y-56495D01*
X79114Y-56495D02*
X79039Y-56420D01*
X79389Y-56495D02*
X79390Y-56495D01*
X79621Y-56264D02*
X79390Y-56495D01*
X79719Y-56264D02*
X79621Y-56264D01*
X79039Y-56420D02*
X79039Y-56119D01*
X79039Y-56119D02*
X78978Y-56058D01*
X78978Y-56058D02*
X78897Y-56058D01*
X78897Y-56058D02*
X78842Y-56113D01*
X78842Y-56113D02*
X78842Y-56417D01*
X78842Y-56417D02*
X78763Y-56495D01*
X70525Y-56495D02*
X78763Y-56495D01*
X69421Y-56495D02*
X69311Y-56606D01*
X69862Y-56853D02*
X69412Y-56853D01*
X50472Y-76545D02*
X69910Y-57108D01*
X50333Y-79463D02*
X50472Y-79324D01*
X50472Y-79324D02*
X50472Y-76545D01*
X69910Y-56901D02*
X69862Y-56853D01*
X69910Y-57108D02*
X69910Y-56901D01*
X69311Y-56752D02*
X69311Y-56606D01*
X69412Y-56853D02*
X69311Y-56752D01*
X70525Y-56495D02*
X69421Y-56495D01*
X70562Y-56586D02*
X69459Y-56586D01*
X69454Y-56761D02*
X69403Y-56710D01*
X69403Y-56710D02*
X69403Y-56642D01*
X69403Y-56642D02*
X69459Y-56586D01*
X80525Y-56270D02*
X80350Y-56270D01*
X80350Y-56270D02*
X80184Y-56437D01*
X80184Y-56437D02*
X79577Y-56437D01*
X79577Y-56437D02*
X79427Y-56586D01*
X50564Y-79322D02*
X50564Y-76584D01*
X50726Y-79485D02*
X50564Y-79322D01*
X70562Y-56586D02*
X79427Y-56586D01*
X50564Y-76584D02*
X70006Y-57143D01*
X70006Y-56846D02*
X70006Y-57143D01*
X69921Y-56761D02*
X70006Y-56846D01*
X69921Y-56761D02*
X69454Y-56761D01*
X50727Y-79623D02*
X50727Y-79485D01*
X56205Y-67855D02*
X56866Y-67855D01*
X67174Y-57547D02*
X67174Y-56850D01*
X56866Y-67855D02*
X67174Y-57547D01*
X49863Y-76220D02*
X49863Y-74196D01*
X67174Y-56850D02*
X67174Y-55617D01*
X49863Y-74196D02*
X56205Y-67855D01*
X72047Y-54910D02*
X72247Y-54910D01*
X72247Y-54910D02*
X72371Y-54787D01*
X67174Y-55617D02*
X67880Y-54910D01*
X69972Y-54910D02*
X67880Y-54910D01*
X72047Y-54910D02*
X69972Y-54910D01*
X49863Y-79118D02*
X49863Y-76220D01*
X49546Y-79436D02*
X49863Y-79118D01*
X49546Y-79633D02*
X49546Y-79436D01*
X49940Y-79629D02*
X49940Y-79411D01*
X50045Y-79306D02*
X50045Y-76300D01*
X49940Y-79411D02*
X50045Y-79306D01*
X57350Y-68300D02*
X56550Y-69100D01*
X50045Y-76300D02*
X50045Y-74932D01*
X50045Y-74932D02*
X55878Y-69100D01*
X55878Y-69100D02*
X56550Y-69100D01*
X57350Y-68300D02*
X67356Y-58293D01*
X67356Y-58293D02*
X67356Y-55709D01*
X67356Y-55709D02*
X67973Y-55092D01*
X67973Y-55092D02*
X78313Y-55092D01*
X56250Y-68600D02*
X67265Y-57584D01*
X67265Y-57584D02*
X67265Y-55654D01*
X49954Y-76258D02*
X49954Y-74895D01*
X49954Y-74895D02*
X56250Y-68600D01*
X72698Y-55001D02*
X73281Y-55001D01*
X73281Y-55001D02*
X73418Y-54865D01*
X67265Y-55654D02*
X67918Y-55001D01*
X67918Y-55001D02*
X70010Y-55001D01*
X72698Y-55001D02*
X70010Y-55001D01*
X49743Y-79478D02*
X49954Y-79266D01*
X49954Y-79266D02*
X49954Y-76258D01*
X90816Y-71578D02*
X94228Y-71578D01*
X94228Y-71578D02*
X94400Y-71750D01*
M02*
