G04 (created by PCBNEW (2013-07-07 BZR 4022)-stable) date 6/4/2014 10:32:15 AM*
%MOIN*%
G04 Gerber Fmt 3.4, Leading zero omitted, Abs format*
%FSLAX34Y34*%
G01*
G70*
G90*
G04 APERTURE LIST*
%ADD10C,0.00590551*%
%ADD11C,0.15*%
%ADD12R,0.06X0.06*%
%ADD13C,0.06*%
%ADD14C,0.1*%
%ADD15C,0.0393701*%
%ADD16C,0.0885827*%
%ADD17C,0.0984252*%
%ADD18C,0.1437*%
%ADD19R,0.0591X0.0591*%
%ADD20C,0.0591*%
%ADD21O,0.0669291X0.106299*%
%ADD22O,0.08X0.16*%
%ADD23C,0.165354*%
%ADD24C,0.11811*%
%ADD25O,0.0393701X0.06*%
%ADD26C,0.056*%
%ADD27C,0.04*%
%ADD28O,0.0708661X0.137795*%
%ADD29O,0.0708661X0.0925197*%
%ADD30R,0.1378X0.1378*%
%ADD31R,0.034X0.034*%
%ADD32C,0.034*%
%ADD33C,0.035*%
%ADD34C,0.024*%
%ADD35C,0.016*%
%ADD36C,0.02*%
%ADD37C,0.005*%
%ADD38C,0.008*%
%ADD39C,0.006*%
%ADD40C,0.01*%
%ADD41C,0.016*%
G04 APERTURE END LIST*
G54D10*
G54D11*
X39734Y-20815D03*
X29606Y-20815D03*
G54D12*
X32456Y-21422D03*
G54D13*
X33556Y-21422D03*
X34606Y-21422D03*
X35706Y-21422D03*
X36806Y-21422D03*
X33006Y-20422D03*
X34106Y-20422D03*
X35156Y-20422D03*
X36256Y-20422D03*
G54D14*
X90660Y-25030D03*
X92687Y-25030D03*
X94695Y-25030D03*
X96722Y-25030D03*
G54D15*
X63308Y-19472D03*
X63938Y-19472D03*
X64568Y-19472D03*
X65198Y-19472D03*
X65828Y-19472D03*
X66458Y-19472D03*
X67088Y-19472D03*
X67718Y-19472D03*
X68348Y-19472D03*
X68978Y-19472D03*
X69607Y-19472D03*
X70237Y-19472D03*
X70867Y-19472D03*
X71497Y-19472D03*
X72127Y-19472D03*
X72757Y-19472D03*
X73387Y-19472D03*
X73080Y-19924D03*
X72450Y-19924D03*
X71820Y-19924D03*
X71190Y-19924D03*
X70560Y-19924D03*
X69930Y-19924D03*
X69300Y-19924D03*
X68670Y-19924D03*
X68040Y-19924D03*
X67410Y-19924D03*
X66780Y-19924D03*
X66150Y-19924D03*
X65520Y-19924D03*
X64891Y-19924D03*
X64261Y-19924D03*
X63631Y-19924D03*
X63001Y-19924D03*
X63466Y-20397D03*
X64096Y-20397D03*
X64726Y-20397D03*
X65355Y-20397D03*
X65985Y-20397D03*
X66615Y-20397D03*
X67245Y-20397D03*
X67875Y-20397D03*
X68505Y-20397D03*
X69135Y-20397D03*
X69765Y-20397D03*
X70395Y-20397D03*
X71025Y-20397D03*
X71655Y-20397D03*
X72285Y-20397D03*
X72915Y-20397D03*
X73544Y-20397D03*
X73230Y-20850D03*
X72600Y-20850D03*
X71970Y-20850D03*
X71340Y-20850D03*
X70080Y-20850D03*
X68190Y-20850D03*
X67560Y-20850D03*
X66930Y-20850D03*
X66300Y-20850D03*
X65670Y-20850D03*
X65040Y-20850D03*
X64410Y-20850D03*
X63780Y-20850D03*
X63150Y-20850D03*
G54D16*
X74635Y-19964D03*
X61909Y-19964D03*
G54D17*
X60030Y-18930D03*
X76515Y-18930D03*
G54D15*
X70710Y-20850D03*
X68820Y-20850D03*
X69450Y-20850D03*
G54D18*
X85523Y-56698D03*
X80850Y-56698D03*
G54D19*
X81435Y-54198D03*
G54D20*
X81935Y-53198D03*
X82435Y-54198D03*
X82935Y-53198D03*
X83435Y-54198D03*
X83935Y-53198D03*
X84435Y-54198D03*
X84935Y-53198D03*
G54D21*
X80185Y-55454D03*
X86185Y-55454D03*
G54D22*
X90962Y-18600D03*
X92962Y-18600D03*
G54D13*
X59950Y-52950D03*
X60700Y-52950D03*
X61450Y-52950D03*
X62200Y-52950D03*
X62950Y-52950D03*
X63700Y-52950D03*
X64450Y-52950D03*
X65200Y-52950D03*
X59950Y-52200D03*
X60700Y-52200D03*
X61450Y-52200D03*
X62200Y-52200D03*
X62950Y-52200D03*
X63700Y-52200D03*
X64450Y-52200D03*
X65200Y-52200D03*
X60700Y-51450D03*
X61450Y-51450D03*
X62200Y-51450D03*
X62950Y-51450D03*
X63700Y-51450D03*
X59950Y-51450D03*
X64450Y-51450D03*
X65200Y-51450D03*
X59950Y-55210D03*
X60700Y-55210D03*
X61450Y-55210D03*
X62200Y-55210D03*
X62950Y-55210D03*
X63700Y-55210D03*
X64450Y-55210D03*
X65200Y-55210D03*
X59950Y-55960D03*
X60700Y-55960D03*
X61450Y-55960D03*
X62200Y-55960D03*
X62950Y-55960D03*
X63700Y-55960D03*
X64450Y-55960D03*
X65200Y-55960D03*
X59950Y-56710D03*
X60700Y-56710D03*
X61450Y-56710D03*
X62200Y-56710D03*
X62950Y-56710D03*
X63700Y-56710D03*
X64450Y-56710D03*
X65200Y-56710D03*
X66950Y-51206D03*
X66950Y-53194D03*
X66950Y-54966D03*
X66950Y-56954D03*
X66450Y-51706D03*
X67450Y-51706D03*
X66450Y-55466D03*
X67450Y-55466D03*
X66450Y-52706D03*
X66450Y-56466D03*
X67450Y-52706D03*
X67450Y-56466D03*
G54D23*
X70097Y-52706D03*
X57302Y-52706D03*
G54D24*
X57656Y-56710D03*
X69743Y-56710D03*
G54D25*
X81653Y-17862D03*
X79121Y-17862D03*
G54D26*
X63691Y-29852D03*
X65691Y-29852D03*
G54D27*
X50700Y-34200D03*
X48450Y-37200D03*
X49200Y-37200D03*
X48450Y-36450D03*
X50800Y-39700D03*
X49200Y-37950D03*
X51600Y-38900D03*
X49950Y-37200D03*
X51450Y-34950D03*
X50700Y-35700D03*
X51450Y-35700D03*
X51450Y-37200D03*
X49950Y-34950D03*
X51450Y-34200D03*
X49950Y-34200D03*
X49950Y-35700D03*
X50700Y-34950D03*
X50700Y-36450D03*
X48450Y-34950D03*
X50700Y-37950D03*
X49950Y-37950D03*
X49200Y-34950D03*
X51450Y-36450D03*
X49200Y-35700D03*
X49950Y-36450D03*
X47700Y-34950D03*
X51450Y-37950D03*
X50700Y-37200D03*
X50800Y-38900D03*
X50000Y-39700D03*
X51600Y-40500D03*
X51600Y-39700D03*
X50800Y-40500D03*
X47700Y-36450D03*
X47700Y-37200D03*
X49200Y-36450D03*
X48450Y-35700D03*
X47700Y-35700D03*
X49993Y-41296D03*
X50000Y-38900D03*
X50803Y-41301D03*
X50000Y-40500D03*
X51600Y-41300D03*
X47700Y-37950D03*
X48450Y-37950D03*
G54D13*
X53150Y-23300D03*
X52400Y-23300D03*
X51650Y-23300D03*
X50900Y-23300D03*
X50150Y-23300D03*
X49400Y-23300D03*
X48650Y-23300D03*
X47900Y-23300D03*
X53150Y-24050D03*
X52400Y-24050D03*
X51650Y-24050D03*
X50900Y-24050D03*
X50150Y-24050D03*
X49400Y-24050D03*
X48650Y-24050D03*
X47900Y-24050D03*
X52400Y-24800D03*
X51650Y-24800D03*
X50900Y-24800D03*
X50150Y-24800D03*
X49400Y-24800D03*
X53150Y-24800D03*
X48650Y-24800D03*
X47900Y-24800D03*
X53150Y-21040D03*
X52400Y-21040D03*
X51650Y-21040D03*
X50900Y-21040D03*
X50150Y-21040D03*
X49400Y-21040D03*
X48650Y-21040D03*
X47900Y-21040D03*
X53150Y-20290D03*
X52400Y-20290D03*
X51650Y-20290D03*
X50900Y-20290D03*
X50150Y-20290D03*
X49400Y-20290D03*
X48650Y-20290D03*
X47900Y-20290D03*
X53150Y-19540D03*
X52400Y-19540D03*
X51650Y-19540D03*
X50900Y-19540D03*
X50150Y-19540D03*
X49400Y-19540D03*
X48650Y-19540D03*
X47900Y-19540D03*
X46150Y-25044D03*
X46150Y-23056D03*
X46150Y-21284D03*
X46150Y-19296D03*
X46650Y-24544D03*
X45650Y-24544D03*
X46650Y-20784D03*
X45650Y-20784D03*
X46650Y-23544D03*
X46650Y-19784D03*
X45650Y-23544D03*
X45650Y-19784D03*
G54D23*
X43002Y-23544D03*
X55797Y-23544D03*
G54D24*
X55443Y-19540D03*
X43356Y-19540D03*
G54D13*
X26950Y-52950D03*
X27700Y-52950D03*
X28450Y-52950D03*
X29200Y-52950D03*
X29950Y-52950D03*
X30700Y-52950D03*
X31450Y-52950D03*
X32200Y-52950D03*
X26950Y-52200D03*
X27700Y-52200D03*
X28450Y-52200D03*
X29200Y-52200D03*
X29950Y-52200D03*
X30700Y-52200D03*
X31450Y-52200D03*
X32200Y-52200D03*
X27700Y-51450D03*
X28450Y-51450D03*
X29200Y-51450D03*
X29950Y-51450D03*
X30700Y-51450D03*
X26950Y-51450D03*
X31450Y-51450D03*
X32200Y-51450D03*
X26950Y-55210D03*
X27700Y-55210D03*
X28450Y-55210D03*
X29200Y-55210D03*
X29950Y-55210D03*
X30700Y-55210D03*
X31450Y-55210D03*
X32200Y-55210D03*
X26950Y-55960D03*
X27700Y-55960D03*
X28450Y-55960D03*
X29200Y-55960D03*
X29950Y-55960D03*
X30700Y-55960D03*
X31450Y-55960D03*
X32200Y-55960D03*
X26950Y-56710D03*
X27700Y-56710D03*
X28450Y-56710D03*
X29200Y-56710D03*
X29950Y-56710D03*
X30700Y-56710D03*
X31450Y-56710D03*
X32200Y-56710D03*
X33950Y-51206D03*
X33950Y-53194D03*
X33950Y-54966D03*
X33950Y-56954D03*
X33450Y-51706D03*
X34450Y-51706D03*
X33450Y-55466D03*
X34450Y-55466D03*
X33450Y-52706D03*
X33450Y-56466D03*
X34450Y-52706D03*
X34450Y-56466D03*
G54D23*
X37097Y-52706D03*
X24302Y-52706D03*
G54D24*
X24656Y-56710D03*
X36743Y-56710D03*
G54D28*
X21422Y-55926D03*
X15595Y-55926D03*
G54D29*
X21658Y-58272D03*
X15359Y-58272D03*
G54D28*
X45672Y-55926D03*
X39845Y-55926D03*
G54D29*
X45908Y-58272D03*
X39609Y-58272D03*
G54D28*
X78672Y-55926D03*
X72845Y-55926D03*
G54D29*
X78908Y-58272D03*
X72609Y-58272D03*
G54D28*
X54422Y-55926D03*
X48595Y-55926D03*
G54D29*
X54658Y-58272D03*
X48359Y-58272D03*
G54D30*
X97668Y-22641D03*
X97668Y-20279D03*
X95818Y-21460D03*
X86455Y-22641D03*
X86455Y-20279D03*
X84605Y-21460D03*
G54D12*
X18500Y-22525D03*
G54D13*
X18500Y-21525D03*
X19500Y-22525D03*
X19500Y-21525D03*
X20500Y-22525D03*
X20500Y-21525D03*
X21500Y-22525D03*
X21500Y-21525D03*
X22500Y-22525D03*
X22500Y-21525D03*
X23500Y-22525D03*
X23500Y-21525D03*
X24500Y-22525D03*
X24500Y-21525D03*
G54D12*
X101800Y-48800D03*
G54D13*
X101800Y-47800D03*
X101800Y-46800D03*
X101800Y-45800D03*
X101800Y-44800D03*
X101800Y-43800D03*
G54D26*
X98740Y-45584D03*
X98740Y-47584D03*
G54D12*
X101450Y-28950D03*
G54D13*
X101450Y-27950D03*
X101450Y-26950D03*
G54D31*
X89050Y-56000D03*
G54D32*
X89050Y-55500D03*
X89550Y-56000D03*
X89550Y-55500D03*
X90050Y-56000D03*
X90050Y-55500D03*
X90550Y-56000D03*
X90550Y-55500D03*
X91050Y-56000D03*
X91050Y-55500D03*
X91550Y-56000D03*
X91550Y-55500D03*
X92050Y-56000D03*
X92050Y-55500D03*
X92550Y-56000D03*
X92550Y-55500D03*
X93050Y-56000D03*
X93050Y-55500D03*
X93550Y-56000D03*
X93550Y-55500D03*
X94050Y-56000D03*
X94050Y-55500D03*
X94550Y-56000D03*
X94550Y-55500D03*
X95050Y-56000D03*
X95050Y-55500D03*
X95550Y-56000D03*
X95550Y-55500D03*
X96050Y-56000D03*
X96050Y-55500D03*
X96550Y-56000D03*
G54D33*
X96550Y-55500D03*
G54D32*
X97050Y-56000D03*
X97050Y-55500D03*
X97550Y-56000D03*
X97550Y-55500D03*
X98050Y-56000D03*
X98050Y-55500D03*
X98550Y-56000D03*
X98550Y-55500D03*
G54D34*
X82500Y-34800D03*
G54D27*
X90000Y-40000D03*
G54D35*
X84822Y-50144D03*
X58124Y-38609D03*
X62788Y-39000D03*
X65973Y-37805D03*
X94546Y-42894D03*
X65501Y-34925D03*
X74650Y-38177D03*
X96062Y-42860D03*
X67100Y-29943D03*
X58756Y-39870D03*
X80646Y-18711D03*
X62038Y-28932D03*
X62376Y-28932D03*
X80387Y-18719D03*
X95442Y-44358D03*
X53342Y-40500D03*
X65086Y-32712D03*
X88829Y-41106D03*
X93671Y-43126D03*
X53998Y-40217D03*
G54D36*
X66875Y-32950D03*
X21300Y-18636D03*
G54D35*
X95247Y-44165D03*
X66891Y-31000D03*
X59008Y-34429D03*
X58737Y-27803D03*
G54D36*
X23900Y-18635D03*
G54D35*
X95050Y-43032D03*
G54D36*
X66874Y-32300D03*
G54D35*
X58401Y-28275D03*
G54D36*
X20000Y-18636D03*
X66874Y-31699D03*
G54D35*
X58910Y-27584D03*
X95283Y-43031D03*
X59368Y-34846D03*
G54D36*
X61026Y-32100D03*
G54D35*
X57494Y-37664D03*
G54D36*
X59354Y-32100D03*
G54D35*
X57809Y-37664D03*
G54D36*
X61025Y-32798D03*
G54D35*
X58122Y-37664D03*
G54D36*
X59375Y-32798D03*
G54D35*
X57809Y-37035D03*
X58440Y-37663D03*
G54D36*
X61025Y-33499D03*
G54D35*
X58758Y-37661D03*
G54D36*
X61025Y-34200D03*
G54D35*
X60401Y-37508D03*
X61300Y-36000D03*
X57494Y-37979D03*
X60734Y-37547D03*
X62000Y-35957D03*
X65100Y-37378D03*
X57809Y-37979D03*
X58124Y-37979D03*
X65796Y-37374D03*
X63030Y-36814D03*
X58757Y-38925D03*
X64049Y-36867D03*
G54D36*
X61025Y-30600D03*
G54D35*
X58440Y-38925D03*
X60264Y-38354D03*
X64400Y-37329D03*
X58125Y-38294D03*
X58757Y-38296D03*
X63558Y-32850D03*
X62870Y-36091D03*
X64700Y-32529D03*
X60606Y-39200D03*
X57809Y-38294D03*
X41674Y-36741D03*
X55614Y-37044D03*
X55290Y-37035D03*
X42637Y-36808D03*
X43553Y-36731D03*
X54655Y-36090D03*
X42004Y-36125D03*
X54022Y-35140D03*
X55279Y-36400D03*
X43558Y-35787D03*
X54974Y-36725D03*
X42031Y-36737D03*
X55603Y-37972D03*
X43244Y-36094D03*
X41666Y-36418D03*
X54359Y-36100D03*
X42934Y-36416D03*
X54664Y-36720D03*
X41996Y-36441D03*
X54355Y-36729D03*
X43559Y-36106D03*
X55290Y-36714D03*
X41659Y-36096D03*
X52740Y-34800D03*
X42934Y-36096D03*
X52583Y-35100D03*
X53138Y-36153D03*
X43558Y-37047D03*
X43240Y-37047D03*
X53433Y-36283D03*
X43999Y-36884D03*
X52635Y-36225D03*
X41994Y-37051D03*
X54985Y-37659D03*
X55605Y-36720D03*
X43544Y-37351D03*
X41664Y-37361D03*
X53672Y-36416D03*
X54350Y-36409D03*
X41666Y-37674D03*
X41669Y-38301D03*
X53007Y-37670D03*
X43556Y-38298D03*
X52729Y-37520D03*
X41988Y-39261D03*
X53085Y-38472D03*
X52744Y-38674D03*
X42938Y-39236D03*
X43561Y-39250D03*
X52331Y-38998D03*
X41024Y-39266D03*
X53525Y-39394D03*
X43859Y-39871D03*
X52212Y-39364D03*
X41029Y-39890D03*
X53229Y-39918D03*
X41999Y-38006D03*
X52638Y-36964D03*
X42780Y-37748D03*
X52283Y-36625D03*
X53401Y-36722D03*
X44357Y-37525D03*
X52968Y-36664D03*
X41351Y-37986D03*
X54348Y-37344D03*
X43859Y-38611D03*
X41356Y-38305D03*
X53303Y-37183D03*
X41661Y-39550D03*
X54344Y-38294D03*
X52568Y-38383D03*
X43249Y-39561D03*
X54344Y-37664D03*
X43243Y-38616D03*
X41668Y-38935D03*
X54359Y-37964D03*
X41994Y-38636D03*
X54664Y-37974D03*
X41350Y-37359D03*
X55300Y-37659D03*
X54974Y-37974D03*
X42004Y-37386D03*
X54670Y-37655D03*
X42938Y-39866D03*
X41359Y-40196D03*
X53590Y-38777D03*
X41666Y-39867D03*
X53129Y-39261D03*
X54340Y-35770D03*
X42809Y-37051D03*
X56234Y-38610D03*
X57262Y-40846D03*
X56864Y-38294D03*
X57438Y-40995D03*
X58812Y-41226D03*
X57179Y-38609D03*
X57179Y-38294D03*
X58839Y-41478D03*
X61269Y-41382D03*
X57179Y-38925D03*
X61320Y-41595D03*
X56864Y-38609D03*
X57179Y-39553D03*
X61134Y-41018D03*
X57179Y-39240D03*
X61305Y-41175D03*
X61185Y-40658D03*
X57496Y-38924D03*
X61330Y-40844D03*
X57494Y-38609D03*
X60457Y-41277D03*
X56864Y-39553D03*
X60642Y-41394D03*
X56866Y-39240D03*
X59970Y-41214D03*
X57194Y-40227D03*
X60264Y-41190D03*
X57494Y-39553D03*
X55287Y-39551D03*
X55224Y-41595D03*
X55328Y-41045D03*
X55607Y-38918D03*
X55281Y-38612D03*
X55380Y-41328D03*
X55452Y-40544D03*
X55602Y-39557D03*
X55427Y-40836D03*
X55604Y-39242D03*
X56150Y-40954D03*
X55922Y-39552D03*
X56106Y-41151D03*
X55919Y-39234D03*
X55917Y-38922D03*
X55946Y-40535D03*
X55605Y-38610D03*
X56056Y-40752D03*
X55919Y-38610D03*
X57840Y-41435D03*
X55920Y-38290D03*
X58002Y-41596D03*
X54700Y-28163D03*
X55290Y-35145D03*
X54700Y-28476D03*
X54200Y-28163D03*
X53500Y-28162D03*
X53500Y-28477D03*
X55918Y-35459D03*
X53000Y-28162D03*
X52300Y-28475D03*
X52300Y-28163D03*
X57179Y-35146D03*
X51800Y-28476D03*
X51800Y-28162D03*
X57178Y-35461D03*
X50600Y-28164D03*
X50600Y-28477D03*
X58916Y-33980D03*
X57809Y-35144D03*
X51100Y-28162D03*
X48000Y-28160D03*
X56651Y-34437D03*
X48000Y-28477D03*
X48500Y-28162D03*
X49700Y-28164D03*
X56006Y-33983D03*
X56235Y-35146D03*
X49700Y-28477D03*
X49200Y-28164D03*
X49200Y-28477D03*
X55811Y-34043D03*
X56235Y-35459D03*
X46450Y-27350D03*
X58124Y-36090D03*
X60114Y-34878D03*
X49495Y-26900D03*
X60152Y-35196D03*
X59552Y-35456D03*
X45729Y-27940D03*
X55449Y-32675D03*
X55688Y-32676D03*
X54833Y-32675D03*
X55056Y-32675D03*
X57326Y-32661D03*
X57593Y-32661D03*
X57956Y-32660D03*
X58229Y-32660D03*
X56322Y-32675D03*
X59381Y-35779D03*
X56085Y-32675D03*
X58755Y-35774D03*
X55470Y-28124D03*
X56865Y-36092D03*
X58380Y-21600D03*
X60735Y-35951D03*
X58395Y-23000D03*
X57809Y-36405D03*
X60944Y-35216D03*
X58364Y-25100D03*
X58125Y-36405D03*
X60726Y-35214D03*
X60496Y-35930D03*
X67728Y-22221D03*
X68042Y-22224D03*
X65730Y-22222D03*
X66043Y-22224D03*
X63728Y-22222D03*
X64044Y-22222D03*
X61727Y-22223D03*
X62043Y-22223D03*
X78357Y-22221D03*
X78672Y-22222D03*
X74358Y-22218D03*
X74673Y-22223D03*
X70358Y-22221D03*
X70671Y-22222D03*
G54D36*
X22600Y-18634D03*
G54D35*
X94852Y-43123D03*
X58577Y-28040D03*
G54D36*
X66874Y-33700D03*
G54D35*
X58755Y-35459D03*
X46050Y-54250D03*
X30855Y-48500D03*
X62674Y-48466D03*
X59791Y-46151D03*
X61167Y-48464D03*
X61891Y-48465D03*
X42950Y-48473D03*
X41450Y-48474D03*
X42200Y-48475D03*
X73300Y-46096D03*
X75945Y-48474D03*
X74445Y-48473D03*
X75195Y-48473D03*
X29684Y-48464D03*
X28166Y-48464D03*
X28881Y-48464D03*
X56377Y-46306D03*
X56377Y-45752D03*
X57810Y-48462D03*
X59574Y-39418D03*
G54D27*
X56376Y-45449D03*
X56376Y-45449D03*
X55985Y-42452D03*
G54D35*
X55983Y-43586D03*
X55983Y-44141D03*
X57036Y-48462D03*
X59068Y-39558D03*
X55786Y-46306D03*
X55786Y-45751D03*
X58756Y-38610D03*
X56040Y-48463D03*
G54D27*
X55785Y-44694D03*
X55785Y-44694D03*
G54D35*
X55392Y-43586D03*
G54D27*
X55394Y-43184D03*
X55394Y-43184D03*
G54D35*
X58447Y-38617D03*
X55392Y-44140D03*
X55290Y-48463D03*
X55196Y-46306D03*
X59616Y-39726D03*
X55195Y-45751D03*
X54290Y-48464D03*
G54D27*
X55196Y-45446D03*
X55196Y-45446D03*
G54D35*
X54802Y-43586D03*
X54802Y-44141D03*
X53540Y-48463D03*
X59068Y-39872D03*
G54D27*
X54802Y-42470D03*
G54D35*
X62216Y-39177D03*
X57178Y-43254D03*
X57178Y-43254D03*
X56967Y-46306D03*
X58755Y-37976D03*
X56967Y-45751D03*
X59540Y-48463D03*
G54D27*
X56966Y-44693D03*
X56966Y-44693D03*
G54D35*
X56574Y-44141D03*
X58429Y-37977D03*
X56574Y-43586D03*
X58790Y-48463D03*
G54D27*
X56572Y-43208D03*
X56572Y-43208D03*
G54D35*
X60906Y-38451D03*
X62378Y-39301D03*
X57361Y-43489D03*
X57361Y-43489D03*
X61974Y-38934D03*
X57560Y-44182D03*
X69923Y-46308D03*
X69924Y-45752D03*
G54D27*
X69922Y-45447D03*
G54D35*
X71100Y-48472D03*
X60190Y-36240D03*
X60386Y-36398D03*
X69529Y-44141D03*
X69528Y-43589D03*
X70350Y-48472D03*
G54D27*
X69529Y-42446D03*
G54D35*
X69332Y-46307D03*
X58755Y-36090D03*
G54D27*
X69331Y-44695D03*
G54D35*
X69335Y-45751D03*
X69400Y-48474D03*
X68938Y-44142D03*
X58440Y-36090D03*
X68936Y-43583D03*
X68700Y-48473D03*
G54D27*
X68938Y-43198D03*
G54D35*
X68741Y-46308D03*
X58125Y-36720D03*
G54D27*
X68741Y-45445D03*
G54D35*
X68741Y-45751D03*
X67700Y-48474D03*
G54D27*
X68348Y-42450D03*
G54D35*
X57809Y-36720D03*
X68348Y-44141D03*
X68345Y-43584D03*
X67000Y-48473D03*
X70709Y-44187D03*
X58755Y-36405D03*
X70513Y-46305D03*
X70509Y-45748D03*
X72700Y-48473D03*
X58753Y-36720D03*
G54D27*
X70513Y-44692D03*
G54D35*
X58440Y-36720D03*
X70118Y-44140D03*
X70117Y-43583D03*
X72000Y-48472D03*
G54D27*
X70119Y-43199D03*
G54D35*
X61414Y-36382D03*
X60708Y-37022D03*
X70909Y-43527D03*
X71103Y-43303D03*
X57494Y-36720D03*
X54346Y-39551D03*
X36923Y-46306D03*
X36922Y-45751D03*
G54D27*
X36922Y-45447D03*
G54D35*
X38100Y-48472D03*
X54345Y-39243D03*
X36529Y-43586D03*
X36528Y-44141D03*
X37350Y-48473D03*
G54D27*
X36529Y-42446D03*
G54D35*
X36332Y-46307D03*
X53913Y-40689D03*
X36332Y-45751D03*
X36422Y-48471D03*
G54D27*
X36331Y-44695D03*
G54D35*
X35938Y-44141D03*
G54D27*
X35938Y-43198D03*
G54D35*
X35938Y-43586D03*
X35700Y-48473D03*
X54660Y-39554D03*
X35741Y-46306D03*
X35741Y-45751D03*
G54D27*
X35741Y-45445D03*
G54D35*
X54969Y-39561D03*
X34700Y-48473D03*
X35347Y-44141D03*
X35348Y-43587D03*
G54D27*
X35348Y-42450D03*
G54D35*
X54970Y-39246D03*
X34000Y-48471D03*
X37710Y-44177D03*
X55292Y-38925D03*
X37513Y-46306D03*
X37513Y-45752D03*
G54D27*
X37513Y-44692D03*
G54D35*
X39700Y-48474D03*
X56390Y-40254D03*
X56236Y-39557D03*
X37119Y-43586D03*
G54D27*
X37119Y-43199D03*
G54D35*
X37119Y-44140D03*
X39000Y-48473D03*
X54655Y-38928D03*
X37907Y-43410D03*
X58600Y-40260D03*
X38104Y-43549D03*
X58434Y-39864D03*
X23376Y-46307D03*
X23377Y-45751D03*
X24800Y-48463D03*
X58599Y-34137D03*
G54D27*
X23376Y-45449D03*
X23376Y-45449D03*
G54D35*
X22983Y-43585D03*
X22983Y-44141D03*
X24050Y-48465D03*
X58749Y-34398D03*
G54D27*
X22985Y-42452D03*
X22985Y-42452D03*
G54D35*
X22786Y-46307D03*
X53453Y-34167D03*
X22786Y-45751D03*
X23050Y-48464D03*
G54D27*
X22785Y-44694D03*
G54D35*
X22392Y-44140D03*
X53597Y-34012D03*
X22392Y-43586D03*
X22300Y-48464D03*
G54D27*
X22394Y-43184D03*
X22394Y-43184D03*
G54D35*
X22198Y-46306D03*
X54032Y-34517D03*
G54D27*
X22196Y-45446D03*
G54D35*
X22195Y-45751D03*
X21285Y-48465D03*
X21802Y-44140D03*
X21801Y-43586D03*
X54031Y-34831D03*
X20544Y-48463D03*
G54D27*
X21802Y-42470D03*
X21802Y-42470D03*
G54D35*
X24178Y-43254D03*
X54659Y-35774D03*
X23967Y-46306D03*
X58280Y-34294D03*
X23967Y-45752D03*
X26550Y-48463D03*
G54D27*
X23966Y-44693D03*
X23966Y-44693D03*
G54D35*
X23574Y-44144D03*
G54D27*
X23572Y-43208D03*
X23572Y-43208D03*
G54D35*
X23574Y-43586D03*
X25800Y-48464D03*
X58438Y-35146D03*
X56235Y-36405D03*
X55602Y-36092D03*
X24361Y-43489D03*
X24361Y-43489D03*
X54975Y-36090D03*
X24558Y-44199D03*
X96230Y-40456D03*
X91740Y-45916D03*
X98356Y-41786D03*
X91811Y-45329D03*
X94458Y-48635D03*
X93500Y-40350D03*
X91403Y-39850D03*
X93671Y-48636D03*
G54D34*
X43100Y-28000D03*
X42000Y-28000D03*
X42600Y-28000D03*
X42000Y-29400D03*
X41600Y-29400D03*
X43100Y-29800D03*
X43100Y-29400D03*
G54D35*
X93495Y-41350D03*
X58329Y-30876D03*
G54D27*
X40148Y-29396D03*
X42599Y-29348D03*
G54D34*
X39408Y-29382D03*
X39003Y-29382D03*
G54D36*
X38525Y-29375D03*
G54D35*
X90705Y-40850D03*
X58334Y-31274D03*
G54D33*
X26725Y-29265D03*
X27400Y-31140D03*
X27325Y-30590D03*
X26925Y-30590D03*
X26850Y-29815D03*
X27200Y-30015D03*
X27225Y-29315D03*
X26075Y-27465D03*
G54D35*
X97395Y-45916D03*
X96123Y-45128D03*
X98628Y-51725D03*
X98943Y-51724D03*
X96192Y-45326D03*
X99257Y-51725D03*
X96122Y-45522D03*
X91740Y-45129D03*
X89628Y-51725D03*
X90572Y-51725D03*
X91818Y-44538D03*
X91820Y-44930D03*
X89943Y-51726D03*
X90257Y-51725D03*
X91738Y-44735D03*
X91428Y-51725D03*
X92096Y-44186D03*
X92687Y-44241D03*
X92372Y-51725D03*
X91743Y-51725D03*
X92293Y-44241D03*
X92057Y-51726D03*
X92490Y-44187D03*
X93228Y-51723D03*
X92884Y-44187D03*
X93474Y-44241D03*
X94172Y-51726D03*
X93080Y-44241D03*
X93543Y-51724D03*
X93857Y-51725D03*
X93277Y-44187D03*
X95028Y-51723D03*
X94262Y-44242D03*
X96124Y-44735D03*
X95972Y-51726D03*
X95343Y-51725D03*
X94458Y-44188D03*
X95657Y-51725D03*
X96193Y-44538D03*
X96828Y-51725D03*
X96192Y-44931D03*
X99046Y-43299D03*
X96138Y-46620D03*
X89952Y-41106D03*
X58125Y-39555D03*
X59838Y-39966D03*
X91845Y-46113D03*
X96144Y-39710D03*
X91739Y-45522D03*
X56847Y-19779D03*
X97842Y-39720D03*
X96208Y-40214D03*
X91812Y-45719D03*
X96947Y-40676D03*
X56625Y-19775D03*
X83445Y-49353D03*
X95245Y-49698D03*
X82943Y-49352D03*
X95442Y-49746D03*
X90676Y-46899D03*
X58119Y-40285D03*
X58438Y-39240D03*
G54D36*
X48565Y-44006D03*
G54D35*
X59944Y-40418D03*
X96198Y-47692D03*
X97296Y-46110D03*
X96189Y-47489D03*
G54D36*
X51133Y-45600D03*
G54D35*
X57809Y-39238D03*
X59339Y-40599D03*
X57811Y-39555D03*
X59681Y-40632D03*
X51150Y-44600D03*
G54D36*
X96180Y-47198D03*
G54D35*
X76767Y-56302D03*
X90477Y-47753D03*
X75764Y-57798D03*
X90479Y-47440D03*
X86900Y-35950D03*
G54D34*
X85450Y-36100D03*
X85450Y-34900D03*
X86800Y-34850D03*
X86800Y-35400D03*
X85500Y-33300D03*
X85500Y-33800D03*
X85500Y-34350D03*
X86750Y-34350D03*
X86750Y-33800D03*
X86750Y-33300D03*
G54D36*
X86901Y-48246D03*
G54D27*
X86100Y-33300D03*
X86100Y-34300D03*
G54D36*
X73930Y-34625D03*
G54D33*
X74380Y-34775D03*
X74880Y-34775D03*
X75280Y-34775D03*
G54D36*
X74480Y-32825D03*
X75180Y-32825D03*
X74880Y-32575D03*
G54D33*
X72430Y-34175D03*
G54D36*
X87900Y-48968D03*
G54D33*
X18160Y-37105D03*
X18975Y-34490D03*
X18975Y-33740D03*
X19300Y-34140D03*
X19475Y-34690D03*
X19450Y-35115D03*
X18975Y-35115D03*
G54D35*
X43456Y-31800D03*
X91488Y-48909D03*
X83738Y-37666D03*
X90593Y-48081D03*
X31200Y-27075D03*
X91707Y-47884D03*
X72824Y-29675D03*
X91853Y-47591D03*
X15800Y-39300D03*
G54D34*
X97600Y-27665D03*
X97600Y-27390D03*
X97650Y-29815D03*
X97650Y-30090D03*
X97600Y-28440D03*
X97600Y-28715D03*
X97600Y-29265D03*
X97600Y-28990D03*
X97600Y-27940D03*
X97600Y-27115D03*
G54D33*
X79445Y-45585D03*
X79820Y-45085D03*
X77500Y-44600D03*
X79370Y-45010D03*
X79520Y-44585D03*
X80470Y-45135D03*
X81120Y-44510D03*
X80695Y-44735D03*
X80195Y-44735D03*
G54D34*
X92694Y-31080D03*
X92388Y-31080D03*
X91782Y-31082D03*
X92086Y-31080D03*
X88974Y-31080D03*
X89280Y-31078D03*
X89898Y-31084D03*
X89592Y-31078D03*
X90368Y-31078D03*
X90670Y-31078D03*
X91268Y-31080D03*
X90976Y-31080D03*
G54D35*
X57809Y-38924D03*
X56864Y-35461D03*
X54400Y-31779D03*
X55916Y-34835D03*
X54659Y-35144D03*
X51618Y-31577D03*
X55144Y-31907D03*
X57809Y-35774D03*
X58125Y-35144D03*
X55900Y-31765D03*
X55604Y-35146D03*
X52128Y-31577D03*
X55781Y-34428D03*
X53121Y-31577D03*
X52627Y-31577D03*
X56233Y-35774D03*
X56864Y-35146D03*
X54700Y-31577D03*
X56235Y-36090D03*
X53400Y-31760D03*
X49650Y-31337D03*
X55914Y-35781D03*
X54442Y-28677D03*
X55291Y-35462D03*
X53241Y-28677D03*
X55610Y-35461D03*
X59119Y-33981D03*
X51340Y-28677D03*
X57809Y-35461D03*
X48740Y-28677D03*
X56682Y-34233D03*
X55471Y-28837D03*
X56864Y-35775D03*
X51084Y-31577D03*
X55291Y-35775D03*
X54333Y-38917D03*
X53670Y-41469D03*
X58439Y-39555D03*
X54976Y-35782D03*
X58125Y-35459D03*
X54527Y-40670D03*
X55291Y-37979D03*
X54503Y-40246D03*
G54D36*
X46337Y-45900D03*
G54D35*
X58755Y-39240D03*
X58438Y-35461D03*
X57822Y-28273D03*
X57823Y-28761D03*
X57810Y-36090D03*
X62545Y-35700D03*
X58755Y-37033D03*
X60239Y-37659D03*
X57892Y-31024D03*
X57494Y-36405D03*
X54346Y-34831D03*
X52711Y-34086D03*
X54118Y-31576D03*
X56556Y-35769D03*
G54D34*
X41900Y-31900D03*
X41900Y-31600D03*
X44300Y-30600D03*
X43900Y-30600D03*
X44100Y-31300D03*
X43800Y-31300D03*
X43300Y-31600D03*
G54D35*
X58330Y-30494D03*
X93496Y-40850D03*
G54D27*
X42591Y-31617D03*
G54D35*
X42294Y-34186D03*
X42669Y-34185D03*
X40923Y-34186D03*
X44119Y-34188D03*
X46071Y-37323D03*
X39618Y-37898D03*
X39647Y-36053D03*
X39664Y-35407D03*
X54979Y-38290D03*
X39673Y-37006D03*
X53347Y-34977D03*
X54344Y-38609D03*
G54D27*
X34340Y-30010D03*
X30700Y-27900D03*
X40120Y-40940D03*
X39470Y-40930D03*
X40710Y-40960D03*
G54D34*
X30100Y-28100D03*
X29700Y-27900D03*
X29700Y-27000D03*
X29700Y-26600D03*
X30100Y-26600D03*
X30100Y-27000D03*
G54D35*
X44221Y-34552D03*
X90705Y-40350D03*
X58338Y-31560D03*
X40450Y-38400D03*
G54D33*
X29475Y-27465D03*
G54D34*
X37207Y-29994D03*
X37574Y-29689D03*
G54D35*
X54344Y-37034D03*
X54655Y-36400D03*
X40464Y-38681D03*
X40477Y-39274D03*
X40467Y-39884D03*
X43730Y-41618D03*
X40254Y-36736D03*
X46500Y-39658D03*
X44824Y-39800D03*
X41999Y-38321D03*
X54029Y-35766D03*
X54033Y-38920D03*
X54985Y-37044D03*
X42934Y-38301D03*
X42938Y-39556D03*
X41988Y-39571D03*
X44261Y-38188D03*
X43906Y-38941D03*
X54664Y-38290D03*
X84549Y-49335D03*
X82440Y-49383D03*
G54D27*
X59983Y-29540D03*
X60012Y-20502D03*
X99939Y-19425D03*
X98917Y-26635D03*
X79542Y-50019D03*
X49545Y-50016D03*
X100455Y-24990D03*
X99421Y-25032D03*
X95466Y-27587D03*
X20000Y-40000D03*
X10000Y-50000D03*
X10000Y-40000D03*
X10000Y-30000D03*
X10004Y-32499D03*
X9999Y-20001D03*
G54D35*
X32376Y-35028D03*
X13704Y-29766D03*
X85026Y-39754D03*
X95319Y-27167D03*
X94878Y-27153D03*
X94402Y-27153D03*
X94010Y-27230D03*
X94045Y-27699D03*
X94395Y-27923D03*
X95032Y-27888D03*
X95291Y-28119D03*
X95053Y-28434D03*
X94605Y-28399D03*
X94227Y-28427D03*
X94185Y-29309D03*
X94556Y-29540D03*
X95046Y-29715D03*
X95081Y-30660D03*
X95067Y-31003D03*
X94899Y-31290D03*
X94290Y-31003D03*
X93947Y-30471D03*
X93968Y-29897D03*
X93506Y-29897D03*
X93504Y-30345D03*
X93033Y-30324D03*
X93033Y-29835D03*
X92421Y-29820D03*
X91818Y-29826D03*
X91284Y-29838D03*
X90861Y-29847D03*
X90453Y-29856D03*
X89733Y-29862D03*
X89124Y-29850D03*
X89424Y-29842D03*
X92082Y-35502D03*
X92076Y-35292D03*
X92337Y-36642D03*
X92382Y-36330D03*
X92745Y-36306D03*
X90909Y-34083D03*
X90671Y-34182D03*
X90450Y-34220D03*
X90195Y-34223D03*
X89949Y-34227D03*
G54D33*
X12600Y-25200D03*
X12000Y-25200D03*
X11400Y-25200D03*
X13200Y-25800D03*
X13800Y-25800D03*
X14400Y-25800D03*
X9600Y-25800D03*
X10200Y-25800D03*
X10800Y-25800D03*
X12600Y-26400D03*
X12000Y-26400D03*
X11400Y-26400D03*
X14400Y-26400D03*
X13800Y-26400D03*
X13200Y-26400D03*
X9600Y-26400D03*
X10200Y-26400D03*
X10800Y-26400D03*
X12600Y-25800D03*
X12000Y-25800D03*
X11400Y-25800D03*
X13200Y-25200D03*
X13800Y-25200D03*
X14400Y-25200D03*
X9600Y-25200D03*
X10200Y-25200D03*
X10800Y-25200D03*
X16475Y-29965D03*
X16475Y-29390D03*
X16425Y-28715D03*
X16450Y-28115D03*
X16475Y-27465D03*
X15000Y-26400D03*
X15600Y-26400D03*
X16300Y-26400D03*
G54D35*
X58400Y-32878D03*
X79875Y-18705D03*
X82353Y-20049D03*
X83188Y-17624D03*
G54D33*
X13300Y-41000D03*
X12800Y-41000D03*
X12300Y-41000D03*
X11700Y-41000D03*
X11600Y-39700D03*
X12100Y-39700D03*
X13300Y-40400D03*
X12600Y-40400D03*
X12100Y-40400D03*
X11600Y-40400D03*
X11100Y-40400D03*
X10600Y-40300D03*
X10100Y-40300D03*
X10100Y-39700D03*
X10600Y-39700D03*
X11100Y-39700D03*
X10100Y-41000D03*
X10600Y-41000D03*
X11100Y-41000D03*
X12700Y-39700D03*
X13300Y-39700D03*
G54D35*
X79850Y-26600D03*
X80213Y-22778D03*
X65542Y-31664D03*
X97464Y-41307D03*
X65280Y-35388D03*
X96278Y-40992D03*
G54D36*
X88772Y-57399D03*
X98776Y-57406D03*
G54D35*
X36158Y-43526D03*
X23646Y-45651D03*
X35148Y-44230D03*
X35495Y-43393D03*
X35150Y-43498D03*
X35496Y-44297D03*
X23062Y-46460D03*
X23222Y-44313D03*
X35864Y-46498D03*
X55590Y-44212D03*
X56424Y-44412D03*
X54605Y-44248D03*
X54540Y-45465D03*
X36018Y-45619D03*
X69485Y-45468D03*
G54D36*
X23778Y-43500D03*
X23778Y-43500D03*
G54D35*
X21999Y-46569D03*
X21605Y-45713D03*
X37200Y-45638D03*
X37206Y-46423D03*
X36492Y-45572D03*
X35353Y-45660D03*
X36920Y-43463D03*
X36959Y-44306D03*
X36135Y-44221D03*
X55473Y-45617D03*
X55461Y-46456D03*
X55949Y-45543D03*
X56667Y-46422D03*
X54605Y-45708D03*
G54D36*
X31272Y-34536D03*
G54D35*
X30618Y-34629D03*
G54D36*
X14646Y-30210D03*
G54D35*
X15162Y-30070D03*
X84468Y-40772D03*
X84669Y-41289D03*
X44577Y-34561D03*
X43784Y-33383D03*
X48567Y-45360D03*
X56236Y-39236D03*
X53429Y-39074D03*
X69088Y-44408D03*
X68148Y-44230D03*
X68202Y-44577D03*
G54D36*
X94043Y-48585D03*
G54D35*
X94850Y-48581D03*
X61983Y-39219D03*
X54970Y-36400D03*
X56866Y-36720D03*
X54662Y-39239D03*
X22830Y-44352D03*
X21513Y-43475D03*
X58438Y-35777D03*
X58125Y-39240D03*
X58753Y-39555D03*
G54D34*
X70164Y-46443D03*
G54D35*
X51921Y-33541D03*
X40207Y-36299D03*
X55290Y-38294D03*
X59067Y-37982D03*
X60288Y-34120D03*
X22428Y-46478D03*
X68144Y-45429D03*
X68875Y-46553D03*
X53714Y-39869D03*
X34041Y-43444D03*
X47337Y-43373D03*
X57500Y-38300D03*
X67029Y-43405D03*
X53504Y-43423D03*
X20231Y-43077D03*
X19871Y-29315D03*
X90711Y-41350D03*
X72600Y-39413D03*
X71797Y-39415D03*
X84871Y-46141D03*
X26327Y-35315D03*
X57180Y-31223D03*
X55149Y-31223D03*
X53151Y-31223D03*
X52651Y-31223D03*
X51650Y-31223D03*
X57494Y-35144D03*
X53750Y-28150D03*
X76955Y-40500D03*
X60986Y-37502D03*
X73583Y-30094D03*
X82647Y-37667D03*
X20219Y-44277D03*
X33767Y-44243D03*
X66772Y-44245D03*
X53194Y-44280D03*
X35150Y-29846D03*
X31600Y-27700D03*
X14760Y-39700D03*
X57264Y-32898D03*
X57267Y-34102D03*
X59584Y-36493D03*
X48858Y-26200D03*
X65000Y-46805D03*
X64250Y-46805D03*
X65700Y-28300D03*
X63700Y-28300D03*
X53585Y-30373D03*
X100601Y-41600D03*
X100246Y-39300D03*
X93388Y-50184D03*
X93381Y-50790D03*
X91902Y-50499D03*
X92331Y-51228D03*
X57887Y-31784D03*
X57179Y-37036D03*
X55920Y-36714D03*
G54D36*
X78100Y-53400D03*
X77251Y-58536D03*
X77250Y-57062D03*
G54D35*
X73700Y-54094D03*
X49303Y-47138D03*
G54D36*
X75897Y-54594D03*
X74715Y-54605D03*
G54D35*
X53806Y-53200D03*
X52003Y-26892D03*
X48857Y-26900D03*
X94065Y-43107D03*
G54D36*
X96187Y-46310D03*
G54D35*
X97981Y-41999D03*
X46650Y-43900D03*
X54650Y-41394D03*
X46550Y-34300D03*
X41238Y-33383D03*
X45963Y-38088D03*
X38478Y-36752D03*
X38478Y-35400D03*
X38478Y-36050D03*
X38484Y-37450D03*
X38537Y-38100D03*
X58808Y-40265D03*
X59032Y-21600D03*
X59031Y-23699D03*
X59172Y-25799D03*
X87750Y-49650D03*
X72880Y-45250D03*
X59377Y-45249D03*
X63927Y-37341D03*
G54D36*
X87400Y-48975D03*
G54D35*
X89901Y-45883D03*
X91780Y-46725D03*
X91739Y-46506D03*
G54D34*
X94406Y-39095D03*
G54D35*
X64650Y-33817D03*
X62862Y-33150D03*
X65291Y-32711D03*
X64150Y-32245D03*
X63628Y-32257D03*
X63350Y-32231D03*
X62771Y-31607D03*
X64104Y-35451D03*
X62816Y-33900D03*
X62806Y-34252D03*
X62525Y-34823D03*
X65231Y-34265D03*
G54D33*
X17250Y-30065D03*
X17025Y-31440D03*
X16500Y-31440D03*
X16525Y-30990D03*
X16975Y-30990D03*
X16525Y-30540D03*
X17000Y-30540D03*
X17025Y-31890D03*
X16500Y-31890D03*
X16500Y-32440D03*
X17200Y-32465D03*
X17200Y-32915D03*
X16450Y-32915D03*
X17175Y-33315D03*
X17175Y-33890D03*
X17175Y-35065D03*
X17150Y-34540D03*
G54D36*
X100193Y-47580D03*
X100205Y-45580D03*
G54D35*
X66895Y-34995D03*
X53747Y-34475D03*
X58755Y-35144D03*
X56235Y-37977D03*
X56864Y-37662D03*
X56553Y-37348D03*
X58442Y-37033D03*
X59850Y-39150D03*
X55288Y-39870D03*
G54D34*
X91762Y-34069D03*
X92069Y-34054D03*
X92337Y-34050D03*
X92069Y-33534D03*
X92337Y-33530D03*
X91766Y-33526D03*
X91443Y-34058D03*
X91443Y-33526D03*
X94450Y-32865D03*
X95550Y-32865D03*
X95275Y-32865D03*
X94725Y-32865D03*
X95000Y-32865D03*
G54D33*
X79730Y-36975D03*
X74030Y-37350D03*
X75205Y-37325D03*
X76430Y-37275D03*
X79280Y-34875D03*
X79280Y-36250D03*
X78655Y-36125D03*
X78855Y-36625D03*
X77655Y-36625D03*
X76730Y-36475D03*
X77105Y-35550D03*
X78005Y-35750D03*
X78780Y-35575D03*
X79105Y-34400D03*
X79855Y-32250D03*
X79555Y-33600D03*
X79855Y-33300D03*
X79030Y-33050D03*
X79530Y-33050D03*
X79530Y-32525D03*
X79505Y-32050D03*
X79030Y-32050D03*
X79030Y-32525D03*
X79030Y-33600D03*
X28825Y-34590D03*
X29750Y-34690D03*
X29800Y-35365D03*
X29800Y-36040D03*
X29800Y-36715D03*
X29800Y-37215D03*
X29500Y-33690D03*
X29500Y-34140D03*
X29050Y-34140D03*
X29050Y-33690D03*
X29525Y-32665D03*
X29550Y-33165D03*
X29050Y-33165D03*
X29025Y-32665D03*
X29025Y-30365D03*
X28975Y-30990D03*
X28975Y-31465D03*
X29550Y-31465D03*
X29550Y-31940D03*
X28975Y-31940D03*
X29150Y-29265D03*
X29050Y-29690D03*
X87045Y-42385D03*
X86470Y-42385D03*
X85995Y-42410D03*
X85120Y-42460D03*
X84495Y-43210D03*
X84570Y-42460D03*
X82970Y-42560D03*
X83470Y-42560D03*
X83470Y-43035D03*
X83920Y-43035D03*
X83920Y-42585D03*
X82570Y-43085D03*
X82570Y-42585D03*
X82970Y-43035D03*
X79595Y-42910D03*
X79995Y-42985D03*
X80670Y-42910D03*
X81195Y-43010D03*
X81620Y-43060D03*
X81645Y-42510D03*
X82095Y-42510D03*
X82070Y-43085D03*
X39200Y-28275D03*
X39800Y-28275D03*
X40450Y-28275D03*
X40450Y-27750D03*
X40025Y-27775D03*
X39475Y-27775D03*
X38850Y-27600D03*
X38700Y-25825D03*
X40050Y-26300D03*
X38675Y-26550D03*
X38452Y-28278D03*
X38025Y-28275D03*
X36650Y-27525D03*
X36225Y-26900D03*
X36425Y-28000D03*
X37025Y-28325D03*
X37575Y-28250D03*
X40575Y-27025D03*
X36325Y-31050D03*
X36800Y-31150D03*
X37575Y-31125D03*
X38050Y-31125D03*
X38525Y-31125D03*
X39275Y-31100D03*
X40025Y-31100D03*
X36329Y-25749D03*
G54D36*
X82388Y-32421D03*
X82504Y-30744D03*
G54D35*
X57179Y-36090D03*
X55926Y-37659D03*
G54D36*
X75950Y-46800D03*
G54D35*
X22159Y-44250D03*
G54D36*
X22159Y-44250D03*
X23766Y-44274D03*
X23766Y-44274D03*
X42950Y-46800D03*
G54D35*
X37317Y-44266D03*
X37317Y-43502D03*
G54D36*
X32876Y-46399D03*
X19450Y-46398D03*
X29673Y-46698D03*
X16873Y-54599D03*
X17466Y-54603D03*
X18056Y-54593D03*
X18646Y-54601D03*
X19829Y-54604D03*
X16873Y-56202D03*
X17465Y-56202D03*
X18056Y-56199D03*
X18646Y-56201D03*
X19829Y-56201D03*
X41124Y-54608D03*
X41715Y-54605D03*
X42306Y-54597D03*
X42897Y-54594D03*
X44079Y-54600D03*
X41124Y-56205D03*
X41715Y-56211D03*
X42305Y-56207D03*
X42898Y-56208D03*
X44079Y-56206D03*
X62673Y-46698D03*
X65876Y-46399D03*
X52450Y-46398D03*
X75305Y-56207D03*
X77079Y-54600D03*
X75306Y-54597D03*
X74124Y-54608D03*
G54D35*
X69766Y-44235D03*
X69759Y-43512D03*
G54D36*
X55149Y-43476D03*
X55159Y-44250D03*
X54604Y-43477D03*
X56766Y-44274D03*
X56778Y-43500D03*
G54D35*
X68149Y-45655D03*
X68150Y-43498D03*
X70317Y-43502D03*
X70317Y-44266D03*
G54D36*
X56778Y-43500D03*
X56766Y-44274D03*
X54604Y-43477D03*
X55159Y-44250D03*
X55149Y-43476D03*
X52829Y-56201D03*
X51646Y-56201D03*
X51056Y-56199D03*
X50465Y-56202D03*
X49873Y-56202D03*
X52829Y-54604D03*
X51646Y-54601D03*
X51056Y-54593D03*
X50466Y-54603D03*
X49873Y-54599D03*
G54D35*
X54655Y-37035D03*
X52986Y-34485D03*
X45718Y-39644D03*
X44266Y-39994D03*
X45562Y-39820D03*
X54033Y-36407D03*
X53396Y-37981D03*
X39917Y-39517D03*
X42342Y-38946D03*
X41664Y-38621D03*
X41999Y-37696D03*
X43242Y-37362D03*
X43556Y-37675D03*
X42625Y-38610D03*
X43243Y-39246D03*
X41664Y-39246D03*
X41988Y-38946D03*
X41988Y-40206D03*
X43559Y-39875D03*
X42938Y-40181D03*
X43549Y-38616D03*
X41017Y-35754D03*
X41661Y-38001D03*
X41353Y-39883D03*
X39906Y-40103D03*
X39911Y-38927D03*
X40092Y-38427D03*
X40239Y-37808D03*
X44007Y-36254D03*
X43374Y-41155D03*
X42274Y-40444D03*
X35149Y-45655D03*
X57182Y-39868D03*
X63557Y-34250D03*
X65148Y-33302D03*
X72200Y-37088D03*
X93900Y-41683D03*
X65252Y-33105D03*
G54D36*
X66274Y-35700D03*
G54D35*
X63165Y-35646D03*
X63390Y-35999D03*
X64650Y-34445D03*
G54D36*
X65326Y-33498D03*
G54D35*
X66027Y-31496D03*
X73000Y-38267D03*
X66308Y-36901D03*
X81108Y-19152D03*
X71400Y-37089D03*
X63560Y-33549D03*
X63830Y-35465D03*
X42769Y-37522D03*
G54D36*
X77530Y-31375D03*
X81430Y-31762D03*
X82269Y-31460D03*
X77293Y-32243D03*
X83134Y-32041D03*
X77728Y-32088D03*
X80187Y-31066D03*
X81180Y-32745D03*
X81366Y-31145D03*
X77122Y-32893D03*
X76804Y-32894D03*
X39025Y-27025D03*
G54D27*
X86100Y-29900D03*
X85264Y-27381D03*
X84560Y-27383D03*
G54D36*
X14872Y-31766D03*
X15144Y-31313D03*
G54D34*
X93325Y-34665D03*
X93326Y-33213D03*
G54D36*
X14952Y-31101D03*
X83265Y-41203D03*
X83597Y-41066D03*
X82832Y-40740D03*
X30859Y-33301D03*
X30882Y-33673D03*
X31085Y-32908D03*
G54D35*
X63682Y-49644D03*
X64359Y-49524D03*
X73318Y-53532D03*
X64800Y-49470D03*
X72768Y-53529D03*
X73036Y-53521D03*
X31359Y-49524D03*
X30682Y-49644D03*
X40318Y-53532D03*
X31800Y-49470D03*
X40036Y-53521D03*
X39768Y-53529D03*
X45672Y-29899D03*
X44919Y-29900D03*
G54D27*
X27400Y-37200D03*
G54D36*
X79485Y-30121D03*
G54D27*
X27900Y-34600D03*
X27400Y-36000D03*
X27400Y-34600D03*
X80769Y-28527D03*
X80721Y-29210D03*
X81999Y-29277D03*
X87170Y-45000D03*
G54D35*
X86820Y-45000D03*
X85770Y-45040D03*
G54D27*
X85900Y-39300D03*
X81400Y-29200D03*
G54D35*
X86400Y-48255D03*
X31890Y-31190D03*
G54D33*
X80980Y-33900D03*
X80980Y-33325D03*
X81380Y-33150D03*
G54D35*
X81278Y-40050D03*
X13948Y-33422D03*
G54D27*
X18890Y-27920D03*
X27400Y-36700D03*
G54D33*
X81480Y-33825D03*
X81530Y-34850D03*
G54D27*
X83250Y-35400D03*
G54D33*
X81480Y-35600D03*
X81505Y-36375D03*
X81480Y-37050D03*
X81105Y-37300D03*
X80605Y-37250D03*
G54D36*
X80934Y-32326D03*
G54D35*
X78500Y-39400D03*
X78300Y-39600D03*
X77900Y-39600D03*
X78100Y-39400D03*
X78300Y-39200D03*
X77900Y-39200D03*
X77400Y-39200D03*
X78100Y-39200D03*
X78300Y-39400D03*
X77900Y-39400D03*
X78100Y-39600D03*
X78500Y-39600D03*
X78500Y-39200D03*
X77000Y-39500D03*
X76800Y-39200D03*
X77200Y-39200D03*
X77400Y-39500D03*
X77000Y-39200D03*
X76800Y-39500D03*
X77200Y-39500D03*
X55606Y-38280D03*
X57180Y-37980D03*
G54D34*
X76900Y-41200D03*
X77000Y-42500D03*
X78000Y-42500D03*
X78100Y-41200D03*
X77500Y-42500D03*
G54D35*
X61965Y-39724D03*
X50045Y-31223D03*
X53580Y-31932D03*
X55922Y-35147D03*
X55134Y-34501D03*
X57826Y-34498D03*
X57180Y-34830D03*
X55610Y-35780D03*
X57494Y-35461D03*
X56237Y-36720D03*
X56864Y-37035D03*
G54D27*
X77500Y-41200D03*
G54D35*
X55600Y-36400D03*
X57179Y-36720D03*
X57179Y-37664D03*
X57179Y-35774D03*
X55917Y-37976D03*
X55914Y-37029D03*
X56240Y-37659D03*
X56864Y-37977D03*
X83943Y-49419D03*
X61250Y-39200D03*
G54D34*
X53358Y-41042D03*
G54D36*
X76350Y-45850D03*
G54D35*
X74169Y-39413D03*
X99962Y-42350D03*
X69165Y-23720D03*
X69165Y-21582D03*
X69500Y-17600D03*
X66100Y-17600D03*
X65194Y-32376D03*
X64952Y-31202D03*
X64150Y-31204D03*
X63657Y-31377D03*
X65939Y-34769D03*
X96756Y-41340D03*
X73350Y-31850D03*
X73350Y-31350D03*
X71450Y-31800D03*
X71450Y-31350D03*
X73200Y-30700D03*
X72800Y-30700D03*
X71600Y-30400D03*
X71900Y-30200D03*
X72000Y-30500D03*
G54D36*
X47565Y-45277D03*
G54D35*
X63957Y-32486D03*
X56864Y-36405D03*
X54981Y-38919D03*
X55284Y-39243D03*
X56234Y-38294D03*
X38110Y-24560D03*
X59037Y-25100D03*
X59031Y-22300D03*
X51891Y-33972D03*
X55923Y-36401D03*
X58435Y-38294D03*
X51575Y-28138D03*
X55168Y-28323D03*
X61991Y-36909D03*
X58435Y-34830D03*
X34888Y-44244D03*
X67888Y-44244D03*
X61556Y-36003D03*
X59063Y-39232D03*
X58438Y-36405D03*
X56866Y-38925D03*
X56240Y-39869D03*
X57494Y-37033D03*
X55605Y-37664D03*
X58125Y-35774D03*
X58393Y-33505D03*
X54197Y-30699D03*
X88455Y-43800D03*
X88455Y-43000D03*
X88456Y-42250D03*
X92881Y-51000D03*
X92906Y-50712D03*
X92475Y-50714D03*
X57655Y-31577D03*
X57494Y-39240D03*
X52300Y-28879D03*
X57812Y-39866D03*
X51070Y-31223D03*
X54291Y-33849D03*
G54D33*
X72430Y-30775D03*
G54D35*
X52604Y-27713D03*
X48857Y-27600D03*
X93868Y-44212D03*
G54D36*
X94261Y-48459D03*
X96189Y-46901D03*
G54D35*
X96400Y-41796D03*
X51150Y-43800D03*
G54D36*
X45514Y-44600D03*
X87401Y-50687D03*
X66876Y-34350D03*
X49168Y-43914D03*
X46000Y-47927D03*
X51127Y-47200D03*
X51127Y-46400D03*
G54D34*
X94401Y-39845D03*
G54D35*
X62843Y-32514D03*
X62794Y-34482D03*
X64207Y-34250D03*
X64207Y-33550D03*
X49700Y-28879D03*
X49200Y-28879D03*
X48500Y-28883D03*
X48000Y-28880D03*
X50600Y-28883D03*
X51100Y-28881D03*
X51800Y-28878D03*
X53000Y-28882D03*
X53500Y-28879D03*
X54200Y-28880D03*
X54701Y-28879D03*
X59067Y-37038D03*
X53736Y-34851D03*
X59066Y-35779D03*
X59052Y-34847D03*
X58124Y-38925D03*
X54659Y-39870D03*
X56238Y-38918D03*
X58124Y-37035D03*
G54D36*
X61025Y-31400D03*
G54D34*
X59356Y-31400D03*
G54D36*
X63361Y-34688D03*
X40702Y-48248D03*
X43350Y-45850D03*
X41050Y-45850D03*
G54D35*
X27750Y-45850D03*
X30100Y-45850D03*
G54D36*
X27429Y-48205D03*
G54D35*
X63100Y-45850D03*
X60750Y-45850D03*
G54D36*
X74050Y-45850D03*
X73092Y-47700D03*
X71524Y-47701D03*
X70038Y-47700D03*
X69763Y-47702D03*
X68313Y-47698D03*
X68088Y-47700D03*
X66608Y-47702D03*
X73702Y-48248D03*
X54338Y-44278D03*
X54338Y-44278D03*
X53148Y-47619D03*
X54672Y-47622D03*
X54940Y-47622D03*
X56406Y-47619D03*
X56679Y-47624D03*
X58185Y-47622D03*
X58432Y-47621D03*
X59949Y-47622D03*
X60429Y-48205D03*
X21338Y-44278D03*
X21338Y-44278D03*
G54D34*
X14700Y-37800D03*
X14700Y-37500D03*
G54D35*
X14500Y-38900D03*
X68500Y-17600D03*
X60228Y-45249D03*
X46950Y-29050D03*
G54D34*
X46935Y-28323D03*
G54D35*
X67300Y-17600D03*
X67628Y-43405D03*
X69197Y-22338D03*
X69179Y-23036D03*
G54D34*
X14700Y-36300D03*
X14700Y-36600D03*
X15700Y-38200D03*
X15400Y-38200D03*
X16000Y-37900D03*
X16000Y-37500D03*
X16000Y-36300D03*
X16000Y-36700D03*
X16000Y-37100D03*
G54D35*
X73729Y-45250D03*
G54D34*
X47487Y-51498D03*
G54D35*
X54104Y-43394D03*
X34641Y-43443D03*
G54D34*
X20997Y-43851D03*
G54D36*
X28891Y-46704D03*
X28167Y-46705D03*
G54D35*
X32527Y-46218D03*
G54D36*
X42200Y-46800D03*
X41450Y-46800D03*
X61167Y-46705D03*
X61891Y-46704D03*
X74450Y-46800D03*
X75200Y-46800D03*
X88400Y-48967D03*
G54D33*
X14760Y-37105D03*
G54D37*
X65973Y-37805D02*
X65973Y-35139D01*
X65759Y-34925D02*
X65501Y-34925D01*
X65973Y-35139D02*
X65759Y-34925D01*
X74650Y-38177D02*
X74707Y-38234D01*
X74707Y-38234D02*
X75156Y-38234D01*
X74650Y-38177D02*
X73885Y-38177D01*
X75156Y-38234D02*
X75156Y-38234D01*
X95533Y-41975D02*
X95533Y-39088D01*
X95533Y-39088D02*
X94679Y-38234D01*
X94679Y-38234D02*
X75156Y-38234D01*
X96062Y-42504D02*
X95533Y-41975D01*
X96062Y-42860D02*
X96062Y-42504D01*
X60120Y-39575D02*
X60027Y-39575D01*
X59365Y-39252D02*
X59219Y-39398D01*
X59704Y-39252D02*
X59365Y-39252D01*
X60027Y-39575D02*
X59704Y-39252D01*
X68898Y-30279D02*
X68898Y-30201D01*
X68898Y-30201D02*
X68457Y-29760D01*
X67100Y-29943D02*
X67283Y-29760D01*
X67283Y-29760D02*
X68457Y-29760D01*
X68898Y-30406D02*
X68898Y-30279D01*
X68898Y-34713D02*
X68898Y-30406D01*
X69419Y-35234D02*
X68898Y-34713D01*
X72231Y-35234D02*
X69419Y-35234D01*
X73529Y-36532D02*
X72231Y-35234D01*
X73529Y-37820D02*
X73529Y-36532D01*
X73885Y-38177D02*
X73800Y-38092D01*
X73800Y-38092D02*
X73529Y-37820D01*
X58756Y-39870D02*
X58595Y-39709D01*
X63945Y-39575D02*
X64210Y-39310D01*
X60120Y-39575D02*
X63945Y-39575D01*
X58701Y-39398D02*
X59219Y-39398D01*
X58595Y-39504D02*
X58701Y-39398D01*
X58595Y-39709D02*
X58595Y-39504D01*
X66497Y-31370D02*
X66497Y-32754D01*
X64376Y-33163D02*
X64376Y-33200D01*
X64679Y-32859D02*
X64376Y-33163D01*
X66392Y-32859D02*
X64679Y-32859D01*
X66497Y-32754D02*
X66392Y-32859D01*
X66497Y-31362D02*
X66497Y-31370D01*
X64376Y-33200D02*
X64376Y-36994D01*
X64376Y-36994D02*
X64210Y-37160D01*
X64210Y-37160D02*
X64210Y-39310D01*
X67100Y-29943D02*
X67100Y-30397D01*
X66497Y-30748D02*
X66497Y-31362D01*
X66637Y-30608D02*
X66497Y-30748D01*
X66889Y-30608D02*
X66637Y-30608D01*
X67100Y-30397D02*
X66889Y-30608D01*
X62161Y-27260D02*
X62161Y-26475D01*
X62161Y-26045D02*
X62161Y-26388D01*
X62161Y-26388D02*
X62161Y-26475D01*
X63757Y-24449D02*
X62161Y-26045D01*
X81427Y-24449D02*
X63757Y-24449D01*
X81734Y-24142D02*
X81427Y-24449D01*
X81734Y-18715D02*
X81734Y-24142D01*
X81373Y-18354D02*
X81734Y-18715D01*
X80638Y-18354D02*
X81373Y-18354D01*
X80561Y-18431D02*
X80638Y-18354D01*
X80561Y-18589D02*
X80561Y-18431D01*
X80646Y-18674D02*
X80561Y-18589D01*
X80646Y-18711D02*
X80646Y-18674D01*
X62036Y-28768D02*
X62161Y-28642D01*
G54D38*
X62038Y-28932D02*
X62036Y-28930D01*
G54D37*
X62036Y-28930D02*
X62036Y-28768D01*
X62161Y-28642D02*
X62161Y-28276D01*
X62161Y-28276D02*
X62161Y-27708D01*
X62161Y-27708D02*
X62161Y-27260D01*
X62268Y-28647D02*
X62252Y-28631D01*
X80600Y-18264D02*
X80792Y-18264D01*
X80387Y-18719D02*
X80387Y-18655D01*
X62252Y-27842D02*
X62252Y-27426D01*
X62252Y-28276D02*
X62252Y-27842D01*
X62252Y-28631D02*
X62252Y-28276D01*
G54D38*
X62378Y-28930D02*
X62376Y-28932D01*
G54D37*
X62378Y-28757D02*
X62378Y-28930D01*
X62268Y-28647D02*
X62378Y-28757D01*
X62252Y-26102D02*
X63814Y-24540D01*
X63814Y-24540D02*
X81465Y-24540D01*
X81465Y-24540D02*
X81825Y-24180D01*
X81825Y-24180D02*
X81825Y-18678D01*
X81825Y-18678D02*
X81411Y-18264D01*
X81411Y-18264D02*
X80792Y-18264D01*
X62252Y-27426D02*
X62252Y-26102D01*
X80387Y-18655D02*
X80471Y-18571D01*
X80471Y-18571D02*
X80471Y-18393D01*
X80471Y-18393D02*
X80600Y-18264D01*
X57102Y-40094D02*
X54361Y-40094D01*
X57102Y-40094D02*
X57167Y-40029D01*
X57167Y-40029D02*
X58004Y-40029D01*
X53955Y-40500D02*
X54361Y-40094D01*
X53342Y-40500D02*
X53955Y-40500D01*
X75008Y-40113D02*
X76610Y-41715D01*
X76744Y-41849D02*
X76744Y-46551D01*
X76610Y-41715D02*
X76744Y-41849D01*
X76744Y-47065D02*
X76744Y-46551D01*
X77639Y-47961D02*
X83947Y-47961D01*
X76744Y-47065D02*
X77639Y-47961D01*
X90522Y-46808D02*
X90994Y-46337D01*
X90994Y-46337D02*
X95053Y-46337D01*
X95442Y-45948D02*
X95442Y-44358D01*
X95053Y-46337D02*
X95442Y-45948D01*
X84698Y-47210D02*
X85099Y-46808D01*
X85099Y-46808D02*
X90522Y-46808D01*
X83947Y-47961D02*
X84698Y-47210D01*
X58317Y-40113D02*
X75008Y-40113D01*
X58101Y-40029D02*
X58185Y-40113D01*
X58185Y-40113D02*
X58317Y-40113D01*
X58004Y-40029D02*
X58101Y-40029D01*
X88365Y-41565D02*
X76985Y-41565D01*
X89424Y-42624D02*
X88365Y-41565D01*
X93360Y-42624D02*
X89424Y-42624D01*
X93671Y-43126D02*
X93671Y-42943D01*
X93671Y-42757D02*
X93538Y-42624D01*
X93538Y-42624D02*
X93360Y-42624D01*
X93671Y-42943D02*
X93671Y-42757D01*
X76985Y-41565D02*
X75528Y-40108D01*
X75306Y-39886D02*
X64617Y-39886D01*
X75528Y-40108D02*
X75306Y-39886D01*
X58988Y-39712D02*
X59176Y-39712D01*
X59838Y-39572D02*
X60152Y-39886D01*
X59316Y-39572D02*
X59838Y-39572D01*
X59176Y-39712D02*
X59316Y-39572D01*
X58224Y-39888D02*
X58355Y-40019D01*
X58355Y-40019D02*
X58817Y-40019D01*
X64554Y-39789D02*
X64554Y-39827D01*
X64554Y-39827D02*
X64495Y-39886D01*
X64554Y-39775D02*
X64554Y-39789D01*
X64554Y-39789D02*
X64554Y-39823D01*
X64554Y-39823D02*
X64617Y-39886D01*
X64617Y-39886D02*
X64495Y-39886D01*
X64495Y-39886D02*
X64444Y-39886D01*
X58982Y-39712D02*
X58988Y-39712D01*
X58908Y-39786D02*
X58982Y-39712D01*
X58908Y-39928D02*
X58908Y-39786D01*
X58817Y-40019D02*
X58908Y-39928D01*
X60152Y-39886D02*
X64444Y-39886D01*
X58212Y-39876D02*
X58224Y-39888D01*
X58212Y-39876D02*
X58044Y-39708D01*
X58044Y-39708D02*
X54250Y-39708D01*
X54250Y-39708D02*
X54188Y-39770D01*
X54188Y-40027D02*
X53998Y-40217D01*
X54188Y-39770D02*
X54188Y-40027D01*
X64554Y-39731D02*
X64554Y-39775D01*
X64554Y-39775D02*
X64554Y-39776D01*
X64554Y-37136D02*
X64554Y-39731D01*
X64466Y-37048D02*
X64554Y-37136D01*
X64466Y-33200D02*
X64466Y-37048D01*
X64717Y-32950D02*
X64466Y-33200D01*
X66875Y-32950D02*
X65321Y-32950D01*
X65321Y-32950D02*
X64717Y-32950D01*
X66875Y-32950D02*
X66742Y-32950D01*
X59143Y-33774D02*
X59201Y-33774D01*
X56860Y-18398D02*
X56817Y-18355D01*
X56860Y-18398D02*
X57551Y-19089D01*
X57551Y-26619D02*
X58735Y-27803D01*
X57551Y-26352D02*
X57551Y-26447D01*
X57551Y-19089D02*
X57551Y-26352D01*
X57551Y-26447D02*
X57551Y-26619D01*
X58737Y-27803D02*
X58735Y-27803D01*
X21580Y-18355D02*
X21300Y-18636D01*
X56817Y-18355D02*
X21580Y-18355D01*
X74106Y-38324D02*
X94642Y-38324D01*
X68808Y-31482D02*
X68808Y-34751D01*
X68808Y-34751D02*
X69381Y-35324D01*
X69381Y-35324D02*
X72193Y-35324D01*
X72193Y-35324D02*
X73439Y-36570D01*
X73439Y-36570D02*
X73439Y-37857D01*
X73439Y-37857D02*
X73906Y-38324D01*
X73906Y-38324D02*
X74106Y-38324D01*
X66891Y-31000D02*
X68326Y-31000D01*
X68718Y-31392D02*
X68326Y-31000D01*
X68718Y-31392D02*
X68808Y-31482D01*
X95247Y-43419D02*
X95247Y-44165D01*
X95434Y-43232D02*
X95247Y-43419D01*
X95434Y-39116D02*
X95434Y-43232D01*
X94642Y-38324D02*
X95434Y-39116D01*
X59008Y-34429D02*
X59008Y-34280D01*
X59289Y-34080D02*
X59289Y-33861D01*
X59175Y-34194D02*
X59289Y-34080D01*
X59094Y-34194D02*
X59175Y-34194D01*
X59008Y-34280D02*
X59094Y-34194D01*
X59143Y-33774D02*
X59023Y-33774D01*
X58818Y-27884D02*
X58737Y-27803D01*
X58818Y-33569D02*
X58818Y-27884D01*
X59023Y-33774D02*
X58818Y-33569D01*
X59289Y-33861D02*
X59201Y-33774D01*
X56783Y-18584D02*
X56736Y-18537D01*
X57369Y-19170D02*
X57369Y-26433D01*
X57369Y-26433D02*
X57369Y-27186D01*
X57369Y-27243D02*
X57369Y-27186D01*
X58401Y-28275D02*
X57369Y-27243D01*
X56783Y-18584D02*
X57369Y-19170D01*
X23997Y-18537D02*
X23900Y-18635D01*
X56736Y-18537D02*
X23997Y-18537D01*
X95050Y-43032D02*
X95050Y-38987D01*
X68238Y-32300D02*
X66874Y-32300D01*
X68628Y-32690D02*
X68238Y-32300D01*
X68628Y-34825D02*
X68628Y-32690D01*
X69307Y-35504D02*
X68628Y-34825D01*
X72097Y-35504D02*
X69307Y-35504D01*
X73259Y-36666D02*
X72097Y-35504D01*
X73259Y-37936D02*
X73259Y-36666D01*
X73828Y-38504D02*
X73259Y-37936D01*
X94567Y-38504D02*
X73828Y-38504D01*
X95050Y-38987D02*
X94567Y-38504D01*
X20000Y-18636D02*
X20371Y-18265D01*
X57642Y-26258D02*
X57642Y-19048D01*
X56902Y-18308D02*
X57642Y-19048D01*
X56859Y-18265D02*
X56902Y-18308D01*
X20371Y-18265D02*
X56859Y-18265D01*
X94604Y-38414D02*
X95214Y-39024D01*
X94212Y-38414D02*
X74129Y-38414D01*
X68267Y-31699D02*
X68718Y-32150D01*
X68718Y-32150D02*
X68718Y-34788D01*
X68718Y-34788D02*
X69344Y-35414D01*
X69344Y-35414D02*
X72140Y-35414D01*
X72140Y-35414D02*
X73349Y-36623D01*
X73349Y-36623D02*
X73349Y-37895D01*
X73349Y-37895D02*
X73868Y-38414D01*
X73868Y-38414D02*
X74129Y-38414D01*
X58910Y-27584D02*
X57642Y-26316D01*
X57642Y-26316D02*
X57642Y-26317D01*
X66874Y-31699D02*
X68267Y-31699D01*
X94212Y-38414D02*
X94604Y-38414D01*
X95283Y-43031D02*
X95283Y-39098D01*
X95283Y-39093D02*
X95214Y-39024D01*
X58909Y-27773D02*
X58909Y-27585D01*
X59230Y-33663D02*
X59040Y-33663D01*
X59429Y-34185D02*
X59429Y-33862D01*
X59429Y-34785D02*
X59429Y-34185D01*
X59368Y-34846D02*
X59429Y-34785D01*
X59429Y-33862D02*
X59230Y-33663D01*
X58909Y-33532D02*
X58909Y-33201D01*
X59040Y-33663D02*
X58909Y-33532D01*
X58909Y-27679D02*
X58909Y-27773D01*
X58909Y-27773D02*
X58909Y-33201D01*
X57642Y-26258D02*
X57642Y-26317D01*
X57642Y-26258D02*
X57642Y-26275D01*
X58045Y-37503D02*
X58340Y-37208D01*
X58340Y-37208D02*
X58621Y-37208D01*
X61026Y-32100D02*
X59960Y-32100D01*
X59616Y-37208D02*
X58621Y-37208D01*
X59960Y-32100D02*
X59732Y-32328D01*
X59732Y-32328D02*
X59732Y-37092D01*
X59732Y-37092D02*
X59616Y-37208D01*
X58045Y-37503D02*
X57969Y-37579D01*
X57659Y-37830D02*
X57894Y-37830D01*
X57969Y-37755D02*
X57969Y-37579D01*
X57894Y-37830D02*
X57969Y-37755D01*
X57659Y-37830D02*
X57494Y-37664D01*
X59547Y-34981D02*
X59547Y-35152D01*
X57645Y-37500D02*
X57809Y-37664D01*
X57645Y-36669D02*
X57645Y-37500D01*
X57753Y-36561D02*
X57645Y-36669D01*
X58512Y-36561D02*
X57753Y-36561D01*
X58593Y-36480D02*
X58512Y-36561D01*
X58593Y-35681D02*
X58593Y-36480D01*
X58665Y-35609D02*
X58593Y-35681D01*
X58892Y-35609D02*
X58665Y-35609D01*
X59283Y-35217D02*
X58892Y-35609D01*
X59481Y-35217D02*
X59283Y-35217D01*
X59547Y-35152D02*
X59481Y-35217D01*
X59354Y-32100D02*
X59231Y-32100D01*
X59547Y-33372D02*
X59547Y-34981D01*
X59156Y-32981D02*
X59547Y-33372D01*
X59156Y-32175D02*
X59156Y-32981D01*
X59231Y-32100D02*
X59156Y-32175D01*
X58122Y-37664D02*
X58227Y-37664D01*
X58433Y-37298D02*
X58669Y-37298D01*
X58290Y-37441D02*
X58433Y-37298D01*
X58290Y-37602D02*
X58290Y-37441D01*
X58227Y-37664D02*
X58290Y-37602D01*
X59548Y-37298D02*
X59663Y-37298D01*
X61025Y-32798D02*
X60599Y-32798D01*
X60001Y-32798D02*
X61025Y-32798D01*
X59822Y-32976D02*
X60001Y-32798D01*
X59822Y-37139D02*
X59822Y-32976D01*
X59663Y-37298D02*
X59822Y-37139D01*
X58669Y-37298D02*
X59548Y-37298D01*
X59548Y-37298D02*
X59653Y-37298D01*
X58910Y-35784D02*
X58910Y-35719D01*
X59641Y-35226D02*
X59641Y-35052D01*
X59560Y-35308D02*
X59641Y-35226D01*
X59321Y-35308D02*
X59560Y-35308D01*
X58910Y-35719D02*
X59321Y-35308D01*
X59375Y-32798D02*
X59545Y-32798D01*
X59641Y-32894D02*
X59641Y-35052D01*
X59545Y-32798D02*
X59641Y-32894D01*
X58910Y-35784D02*
X58910Y-36788D01*
X58910Y-36788D02*
X58824Y-36874D01*
X58824Y-36874D02*
X57970Y-36874D01*
X57970Y-36874D02*
X57809Y-37035D01*
X58440Y-37663D02*
X58711Y-37392D01*
X58711Y-37392D02*
X59016Y-37392D01*
X59226Y-37392D02*
X59016Y-37392D01*
X59226Y-37392D02*
X59697Y-37392D01*
X59697Y-37392D02*
X59912Y-37177D01*
X59912Y-37177D02*
X59912Y-33632D01*
X59912Y-33632D02*
X60046Y-33499D01*
X60046Y-33499D02*
X61025Y-33499D01*
X61025Y-33499D02*
X60708Y-33499D01*
X59303Y-37483D02*
X58936Y-37483D01*
X58936Y-37483D02*
X58758Y-37661D01*
X61025Y-34200D02*
X60470Y-34200D01*
X60321Y-34349D02*
X60321Y-35335D01*
X60470Y-34200D02*
X60321Y-34349D01*
X59733Y-37483D02*
X60011Y-37205D01*
X59410Y-37483D02*
X59733Y-37483D01*
X60011Y-35645D02*
X60011Y-37205D01*
X60321Y-35335D02*
X60011Y-35645D01*
X59410Y-37483D02*
X59303Y-37483D01*
X59303Y-37483D02*
X59261Y-37483D01*
X60809Y-36108D02*
X60824Y-36093D01*
X60663Y-36621D02*
X60663Y-36441D01*
X60663Y-36254D02*
X60663Y-36441D01*
X60809Y-36108D02*
X60663Y-36254D01*
X60401Y-37508D02*
X60495Y-37414D01*
X60495Y-36789D02*
X60495Y-37414D01*
X60663Y-36621D02*
X60495Y-36789D01*
X61207Y-36093D02*
X61300Y-36000D01*
X60824Y-36093D02*
X61207Y-36093D01*
X61758Y-36198D02*
X61200Y-36198D01*
X61200Y-36198D02*
X60994Y-36405D01*
X60994Y-36405D02*
X60994Y-37287D01*
X60994Y-37287D02*
X60734Y-37547D01*
X62000Y-35957D02*
X61758Y-36198D01*
X58757Y-38925D02*
X59886Y-38925D01*
X60060Y-39346D02*
X60175Y-39461D01*
X60060Y-39099D02*
X60060Y-39346D01*
X59886Y-38925D02*
X60060Y-39099D01*
X63030Y-38291D02*
X63030Y-39155D01*
X63030Y-36814D02*
X63030Y-38291D01*
X63030Y-39155D02*
X62724Y-39461D01*
X62724Y-39461D02*
X60175Y-39461D01*
X60411Y-36685D02*
X60404Y-36691D01*
X60404Y-37260D02*
X60312Y-37353D01*
X60404Y-36691D02*
X60404Y-37260D01*
X60544Y-36552D02*
X60411Y-36685D01*
X58440Y-38925D02*
X58536Y-38925D01*
X59112Y-38758D02*
X59214Y-38656D01*
X58704Y-38758D02*
X59112Y-38758D01*
X58536Y-38925D02*
X58704Y-38758D01*
X61162Y-34399D02*
X60566Y-34399D01*
X61100Y-30600D02*
X61025Y-30600D01*
X61310Y-30810D02*
X61100Y-30600D01*
X61310Y-33653D02*
X61310Y-30810D01*
X61310Y-34251D02*
X61162Y-34399D01*
X59214Y-37780D02*
X59214Y-38656D01*
X59420Y-37573D02*
X59214Y-37780D01*
X60091Y-37573D02*
X59420Y-37573D01*
X60312Y-37353D02*
X60091Y-37573D01*
X60544Y-36264D02*
X60544Y-36552D01*
X60303Y-36023D02*
X60544Y-36264D01*
X60303Y-35480D02*
X60303Y-36023D01*
X60411Y-35372D02*
X60303Y-35480D01*
X60411Y-34713D02*
X60411Y-35372D01*
X61310Y-33653D02*
X61310Y-34251D01*
X60566Y-34399D02*
X60411Y-34553D01*
X60411Y-34553D02*
X60411Y-34713D01*
X63558Y-32850D02*
X63258Y-32850D01*
X63130Y-32978D02*
X63130Y-33167D01*
X63258Y-32850D02*
X63130Y-32978D01*
X62870Y-36091D02*
X62870Y-35537D01*
X63130Y-35277D02*
X62870Y-35537D01*
X63130Y-33167D02*
X63130Y-35277D01*
X60624Y-39200D02*
X60512Y-39200D01*
X63646Y-35960D02*
X63645Y-35960D01*
X63646Y-36098D02*
X63646Y-35960D01*
X63492Y-36252D02*
X63646Y-36098D01*
X62759Y-36252D02*
X63492Y-36252D01*
X62358Y-36653D02*
X62759Y-36252D01*
X61439Y-36653D02*
X62358Y-36653D01*
X61304Y-36788D02*
X61439Y-36653D01*
X61304Y-37689D02*
X61304Y-36788D01*
X60426Y-38568D02*
X61304Y-37689D01*
X60426Y-39114D02*
X60426Y-38568D01*
X60512Y-39200D02*
X60426Y-39114D01*
X63645Y-35373D02*
X63645Y-35960D01*
X63951Y-35067D02*
X63645Y-35373D01*
X63951Y-32802D02*
X63951Y-35067D01*
X64224Y-32529D02*
X63951Y-32802D01*
X64700Y-32529D02*
X64224Y-32529D01*
X60624Y-39200D02*
X60606Y-39200D01*
X22600Y-18634D02*
X22787Y-18447D01*
X58577Y-28040D02*
X57461Y-26924D01*
X57461Y-19131D02*
X57461Y-26396D01*
X57461Y-26396D02*
X57461Y-26924D01*
X56819Y-18489D02*
X57461Y-19131D01*
X56777Y-18447D02*
X56819Y-18489D01*
X22787Y-18447D02*
X56777Y-18447D01*
X58577Y-33819D02*
X58728Y-33667D01*
X58728Y-28191D02*
X58577Y-28040D01*
X58728Y-33667D02*
X58728Y-28191D01*
X58755Y-35459D02*
X58914Y-35300D01*
X58704Y-34582D02*
X58433Y-34311D01*
X58704Y-34809D02*
X58704Y-34582D01*
X58914Y-35019D02*
X58704Y-34809D01*
X58914Y-35300D02*
X58914Y-35019D01*
X73731Y-38542D02*
X73784Y-38595D01*
X73784Y-38595D02*
X76589Y-38595D01*
X94852Y-43123D02*
X94852Y-38917D01*
X68092Y-33700D02*
X66874Y-33700D01*
X68529Y-34137D02*
X68092Y-33700D01*
X68529Y-34854D02*
X68529Y-34137D01*
X69270Y-35595D02*
X68529Y-34854D01*
X72060Y-35595D02*
X69270Y-35595D01*
X73169Y-36704D02*
X72060Y-35595D01*
X73169Y-37980D02*
X73169Y-36704D01*
X73731Y-38542D02*
X73169Y-37980D01*
X94530Y-38595D02*
X76589Y-38595D01*
X94852Y-38917D02*
X94530Y-38595D01*
X58433Y-34311D02*
X58433Y-33963D01*
X58577Y-33819D02*
X58433Y-33963D01*
X54495Y-30873D02*
X54124Y-30873D01*
X44770Y-30873D02*
X44586Y-30873D01*
X45019Y-30624D02*
X44770Y-30873D01*
X53875Y-30624D02*
X45019Y-30624D01*
X54124Y-30873D02*
X53875Y-30624D01*
X43946Y-30873D02*
X43201Y-30873D01*
X44088Y-30873D02*
X44586Y-30873D01*
X43946Y-30873D02*
X44088Y-30873D01*
X42758Y-32021D02*
X42929Y-31851D01*
X42329Y-32021D02*
X42758Y-32021D01*
X42120Y-31812D02*
X42329Y-32021D01*
X42120Y-30954D02*
X42120Y-31812D01*
X42599Y-30475D02*
X42120Y-30954D01*
X42599Y-29348D02*
X42599Y-30475D01*
X43201Y-30873D02*
X42929Y-31145D01*
X42929Y-31145D02*
X42929Y-31851D01*
X54495Y-30873D02*
X58326Y-30873D01*
X44586Y-30963D02*
X44807Y-30963D01*
X54086Y-30963D02*
X54226Y-30963D01*
X53837Y-30714D02*
X54086Y-30963D01*
X45056Y-30714D02*
X53837Y-30714D01*
X44807Y-30963D02*
X45056Y-30714D01*
X42796Y-32112D02*
X41745Y-32112D01*
X57510Y-31043D02*
X57742Y-31275D01*
X57510Y-31043D02*
X57430Y-30963D01*
X57430Y-30963D02*
X54226Y-30963D01*
X58194Y-31275D02*
X57742Y-31275D01*
X42796Y-32112D02*
X43016Y-31892D01*
X43173Y-31040D02*
X43019Y-31194D01*
X43019Y-31194D02*
X43019Y-31888D01*
X43019Y-31888D02*
X43016Y-31892D01*
X44586Y-30963D02*
X43250Y-30963D01*
X43250Y-30963D02*
X43173Y-31040D01*
X26331Y-27465D02*
X26075Y-27465D01*
X26583Y-27213D02*
X26331Y-27465D01*
X26583Y-25662D02*
X26583Y-27213D01*
X27365Y-24880D02*
X26583Y-25662D01*
X40800Y-24880D02*
X27365Y-24880D01*
X41010Y-25090D02*
X40800Y-24880D01*
X41010Y-31377D02*
X41010Y-25090D01*
X41745Y-32112D02*
X41010Y-31377D01*
X58194Y-31275D02*
X58333Y-31275D01*
X58194Y-31275D02*
X58202Y-31275D01*
X59838Y-39966D02*
X59848Y-39976D01*
X75126Y-39976D02*
X75215Y-40065D01*
X59848Y-39976D02*
X75126Y-39976D01*
X91592Y-44241D02*
X91592Y-44165D01*
X91693Y-44342D02*
X91592Y-44241D01*
X91969Y-44342D02*
X91693Y-44342D01*
X92079Y-44452D02*
X91969Y-44342D01*
X91845Y-46113D02*
X91950Y-46113D01*
X91592Y-42844D02*
X91485Y-42737D01*
X75434Y-40284D02*
X76840Y-41690D01*
X76840Y-41690D02*
X88313Y-41690D01*
X88313Y-41690D02*
X89360Y-42737D01*
X89360Y-42737D02*
X91485Y-42737D01*
X91592Y-44165D02*
X91592Y-42844D01*
X92079Y-45984D02*
X92079Y-44521D01*
X91950Y-46113D02*
X92079Y-45984D01*
X92079Y-44521D02*
X92079Y-44452D01*
X75215Y-40065D02*
X75434Y-40284D01*
X84738Y-47300D02*
X83984Y-48054D01*
X76653Y-47103D02*
X76653Y-46599D01*
X77605Y-48054D02*
X76653Y-47103D01*
X83984Y-48054D02*
X77605Y-48054D01*
X74981Y-40214D02*
X76653Y-41886D01*
X63928Y-40214D02*
X74981Y-40214D01*
X59540Y-40214D02*
X63928Y-40214D01*
X58258Y-40424D02*
X58858Y-40424D01*
X58858Y-40424D02*
X59069Y-40214D01*
X59069Y-40214D02*
X59540Y-40214D01*
X58119Y-40285D02*
X58258Y-40424D01*
X76653Y-41886D02*
X76653Y-46599D01*
X85139Y-46899D02*
X90676Y-46899D01*
X84738Y-47300D02*
X85139Y-46899D01*
X84857Y-47308D02*
X85176Y-46989D01*
X95774Y-47088D02*
X95980Y-46882D01*
X90651Y-47088D02*
X95774Y-47088D01*
X90552Y-46989D02*
X90651Y-47088D01*
X85176Y-46989D02*
X90552Y-46989D01*
X56465Y-41727D02*
X56465Y-40894D01*
X56465Y-41727D02*
X56225Y-41967D01*
X56225Y-41967D02*
X51641Y-41967D01*
X51641Y-41967D02*
X51329Y-42279D01*
X51329Y-42279D02*
X51329Y-43240D01*
X59944Y-40418D02*
X59680Y-40418D01*
X59061Y-40350D02*
X58980Y-40431D01*
X59612Y-40350D02*
X59061Y-40350D01*
X59680Y-40418D02*
X59612Y-40350D01*
X48565Y-43775D02*
X48565Y-44006D01*
X48717Y-43623D02*
X48565Y-43775D01*
X50947Y-43623D02*
X48717Y-43623D01*
X58980Y-40431D02*
X58907Y-40503D01*
X51329Y-43426D02*
X51133Y-43623D01*
X51133Y-43623D02*
X50947Y-43623D01*
X51329Y-43240D02*
X51329Y-43426D01*
X58896Y-40514D02*
X58907Y-40503D01*
X56845Y-40514D02*
X58896Y-40514D01*
X56465Y-40894D02*
X56845Y-40514D01*
X95980Y-46225D02*
X96095Y-46110D01*
X95980Y-46882D02*
X95980Y-46225D01*
X59944Y-40418D02*
X61278Y-40418D01*
X96095Y-46110D02*
X97296Y-46110D01*
X84021Y-48144D02*
X84857Y-47308D01*
X77567Y-48144D02*
X84021Y-48144D01*
X76673Y-47249D02*
X77567Y-48144D01*
X75194Y-47249D02*
X76673Y-47249D01*
X74990Y-47045D02*
X75194Y-47249D01*
X74990Y-42426D02*
X74990Y-47045D01*
X74239Y-41675D02*
X74990Y-42426D01*
X61671Y-41675D02*
X74239Y-41675D01*
X61562Y-41566D02*
X61671Y-41675D01*
X61562Y-40702D02*
X61562Y-41566D01*
X61278Y-40418D02*
X61562Y-40702D01*
X84943Y-47489D02*
X85261Y-47171D01*
X84102Y-48330D02*
X84632Y-47800D01*
X77499Y-48330D02*
X84102Y-48330D01*
X61129Y-41850D02*
X61135Y-41856D01*
X74809Y-47133D02*
X75106Y-47430D01*
X74809Y-42515D02*
X74809Y-47133D01*
X74150Y-41856D02*
X74809Y-42515D01*
X61135Y-41856D02*
X74150Y-41856D01*
X59339Y-40599D02*
X59525Y-40785D01*
X60875Y-41596D02*
X61129Y-41850D01*
X60875Y-41029D02*
X60875Y-41596D01*
X60631Y-40785D02*
X60875Y-41029D01*
X59525Y-40785D02*
X60631Y-40785D01*
X76599Y-47430D02*
X75106Y-47430D01*
X76954Y-47785D02*
X76599Y-47430D01*
X84943Y-47489D02*
X84632Y-47800D01*
X76954Y-47785D02*
X77499Y-48330D01*
X85261Y-47171D02*
X90475Y-47171D01*
X90475Y-47171D02*
X90572Y-47268D01*
X90572Y-47268D02*
X95968Y-47268D01*
X95968Y-47268D02*
X96189Y-47489D01*
X51133Y-45600D02*
X51326Y-45600D01*
X59339Y-40599D02*
X59106Y-40599D01*
X59010Y-40695D02*
X59106Y-40599D01*
X56649Y-41174D02*
X56649Y-40966D01*
X56920Y-40695D02*
X58998Y-40695D01*
X56649Y-40966D02*
X56920Y-40695D01*
X51510Y-42615D02*
X51510Y-45146D01*
X56649Y-41174D02*
X56649Y-41513D01*
X56649Y-41799D02*
X56649Y-41513D01*
X56300Y-42147D02*
X56649Y-41799D01*
X51977Y-42147D02*
X56300Y-42147D01*
X51510Y-42365D02*
X51727Y-42147D01*
X51727Y-42147D02*
X51977Y-42147D01*
X51510Y-42615D02*
X51510Y-42365D01*
X51510Y-45416D02*
X51330Y-45596D01*
X51510Y-45146D02*
X51510Y-45416D01*
X51326Y-45600D02*
X51330Y-45596D01*
X58998Y-40695D02*
X59010Y-40695D01*
X84897Y-47401D02*
X85219Y-47080D01*
X96160Y-47178D02*
X96180Y-47198D01*
X90612Y-47178D02*
X96160Y-47178D01*
X90514Y-47080D02*
X90612Y-47178D01*
X85219Y-47080D02*
X90514Y-47080D01*
X51419Y-44397D02*
X51419Y-44507D01*
X56556Y-40931D02*
X56882Y-40604D01*
X56882Y-40604D02*
X58961Y-40604D01*
X58961Y-40604D02*
X58971Y-40593D01*
X52448Y-42057D02*
X51690Y-42057D01*
X56556Y-41764D02*
X56263Y-42057D01*
X56263Y-42057D02*
X52448Y-42057D01*
X56556Y-41478D02*
X56556Y-41764D01*
X51419Y-42328D02*
X51419Y-44397D01*
X51690Y-42057D02*
X51419Y-42328D01*
X59681Y-40632D02*
X59500Y-40451D01*
X59114Y-40451D02*
X58971Y-40593D01*
X59500Y-40451D02*
X59114Y-40451D01*
X56556Y-41478D02*
X56556Y-40931D01*
X51327Y-44600D02*
X51150Y-44600D01*
X51419Y-44507D02*
X51327Y-44600D01*
X77530Y-48234D02*
X77006Y-47709D01*
X75150Y-47339D02*
X76636Y-47339D01*
X74900Y-47089D02*
X75150Y-47339D01*
X74900Y-42478D02*
X74900Y-47089D01*
X74188Y-41766D02*
X74900Y-42478D01*
X61176Y-41766D02*
X74188Y-41766D01*
X60966Y-41556D02*
X61176Y-41766D01*
X60966Y-40988D02*
X60966Y-41556D01*
X60617Y-40639D02*
X60966Y-40988D01*
X59688Y-40639D02*
X60617Y-40639D01*
X76636Y-47339D02*
X77006Y-47709D01*
X84064Y-48234D02*
X84589Y-47709D01*
X84589Y-47709D02*
X84897Y-47401D01*
X84064Y-48234D02*
X77530Y-48234D01*
X30543Y-39119D02*
X30567Y-39119D01*
X73128Y-48734D02*
X31944Y-48734D01*
X31215Y-39767D02*
X31215Y-48005D01*
X31215Y-48005D02*
X31944Y-48734D01*
X30657Y-39209D02*
X31215Y-39767D01*
X18456Y-37105D02*
X18680Y-37329D01*
X18680Y-37329D02*
X18680Y-38863D01*
X18680Y-38863D02*
X18936Y-39119D01*
X18936Y-39119D02*
X30543Y-39119D01*
X18456Y-37105D02*
X18160Y-37105D01*
X30567Y-39119D02*
X30657Y-39209D01*
X73128Y-48734D02*
X73578Y-48734D01*
X87900Y-49069D02*
X87797Y-49172D01*
X87797Y-49172D02*
X85502Y-49172D01*
X85502Y-49172D02*
X85233Y-48903D01*
X87900Y-48968D02*
X87900Y-49069D01*
X84950Y-48620D02*
X85233Y-48903D01*
X77378Y-48620D02*
X84950Y-48620D01*
X76860Y-48102D02*
X77378Y-48620D01*
X74210Y-48102D02*
X76860Y-48102D01*
X73578Y-48734D02*
X74210Y-48102D01*
X43202Y-31877D02*
X43202Y-31866D01*
X43202Y-31866D02*
X43268Y-31800D01*
X43456Y-31800D02*
X43268Y-31800D01*
X43202Y-31877D02*
X43202Y-31974D01*
X43202Y-31974D02*
X42870Y-32306D01*
X39098Y-32800D02*
X39098Y-32622D01*
X39098Y-32622D02*
X39414Y-32306D01*
X39414Y-32306D02*
X42870Y-32306D01*
X91488Y-48127D02*
X91277Y-47916D01*
X91277Y-47916D02*
X90495Y-47916D01*
X90495Y-47916D02*
X90471Y-47940D01*
X90471Y-47940D02*
X90249Y-47940D01*
X84633Y-47940D02*
X90249Y-47940D01*
X84143Y-48430D02*
X84633Y-47940D01*
X77457Y-48430D02*
X84143Y-48430D01*
X76939Y-47912D02*
X77457Y-48430D01*
X46449Y-47912D02*
X76939Y-47912D01*
X45121Y-46583D02*
X46449Y-47912D01*
X45121Y-43107D02*
X45121Y-46583D01*
X44005Y-41991D02*
X45121Y-43107D01*
X39582Y-41991D02*
X44005Y-41991D01*
X39098Y-41507D02*
X39582Y-41991D01*
X39098Y-32634D02*
X39098Y-32800D01*
X39098Y-32800D02*
X39098Y-41507D01*
X91488Y-48909D02*
X91488Y-48127D01*
G54D39*
X32999Y-28543D02*
X32999Y-27674D01*
X46410Y-48007D02*
X45025Y-46622D01*
X45025Y-46622D02*
X45025Y-43149D01*
X45025Y-43149D02*
X43962Y-42086D01*
X43962Y-42086D02*
X34044Y-42086D01*
X34044Y-42086D02*
X32999Y-41041D01*
X32999Y-41041D02*
X32999Y-28543D01*
X77003Y-48110D02*
X76900Y-48007D01*
X90516Y-48081D02*
X90471Y-48035D01*
X90471Y-48035D02*
X84672Y-48035D01*
X84672Y-48035D02*
X84182Y-48525D01*
X84182Y-48525D02*
X77418Y-48525D01*
X77418Y-48525D02*
X77003Y-48110D01*
X90593Y-48081D02*
X90516Y-48081D01*
X76900Y-48007D02*
X47674Y-48007D01*
X47674Y-48007D02*
X46410Y-48007D01*
X31200Y-27200D02*
X31200Y-27075D01*
X31275Y-27275D02*
X31200Y-27200D01*
X32600Y-27275D02*
X31275Y-27275D01*
X32999Y-27674D02*
X32600Y-27275D01*
G54D37*
X84588Y-48800D02*
X84875Y-48800D01*
X91853Y-47591D02*
X91853Y-48811D01*
X91853Y-48811D02*
X91401Y-49263D01*
X77303Y-48800D02*
X84588Y-48800D01*
X76662Y-48282D02*
X76785Y-48282D01*
X73652Y-48915D02*
X74285Y-48282D01*
X74285Y-48282D02*
X76662Y-48282D01*
X31034Y-47847D02*
X31034Y-48085D01*
X30492Y-39300D02*
X31034Y-39842D01*
X31034Y-39842D02*
X31034Y-47847D01*
X30492Y-39300D02*
X15800Y-39300D01*
X31864Y-48915D02*
X73230Y-48915D01*
X31034Y-48085D02*
X31864Y-48915D01*
X73230Y-48915D02*
X73652Y-48915D01*
X76785Y-48282D02*
X77107Y-48603D01*
X77107Y-48603D02*
X77303Y-48800D01*
X91310Y-49353D02*
X91401Y-49263D01*
X85428Y-49353D02*
X91310Y-49353D01*
X84875Y-48800D02*
X85428Y-49353D01*
X54400Y-31779D02*
X54400Y-32086D01*
X55742Y-32187D02*
X55930Y-32375D01*
X54501Y-32187D02*
X55742Y-32187D01*
X54400Y-32086D02*
X54501Y-32187D01*
X56864Y-35337D02*
X56808Y-35281D01*
X56808Y-35281D02*
X56562Y-35281D01*
X56562Y-35281D02*
X56498Y-35217D01*
X56498Y-35217D02*
X56498Y-35009D01*
X56498Y-35009D02*
X56285Y-34796D01*
X56285Y-34796D02*
X56285Y-33545D01*
X56285Y-33545D02*
X55930Y-33190D01*
X55930Y-33190D02*
X55930Y-32418D01*
X56864Y-35461D02*
X56864Y-35337D01*
X55930Y-32375D02*
X55930Y-32418D01*
X52981Y-32156D02*
X52981Y-32025D01*
X52885Y-31929D02*
X52779Y-31929D01*
X52981Y-32025D02*
X52885Y-31929D01*
X52981Y-32343D02*
X52981Y-32156D01*
X54659Y-35144D02*
X54659Y-33458D01*
X51970Y-31929D02*
X51618Y-31577D01*
X52779Y-31929D02*
X51970Y-31929D01*
X52981Y-32966D02*
X52981Y-32343D01*
X53336Y-33321D02*
X52981Y-32966D01*
X54522Y-33321D02*
X53336Y-33321D01*
X54659Y-33458D02*
X54522Y-33321D01*
X56761Y-32074D02*
X57020Y-32333D01*
X55244Y-32007D02*
X56694Y-32007D01*
X56694Y-32007D02*
X56761Y-32074D01*
X55144Y-31907D02*
X55244Y-32007D01*
X57020Y-32333D02*
X57020Y-32334D01*
X57020Y-35390D02*
X57020Y-35517D01*
X57020Y-35517D02*
X57118Y-35615D01*
X57809Y-35774D02*
X57809Y-35684D01*
X57809Y-35684D02*
X57740Y-35615D01*
X57740Y-35615D02*
X57118Y-35615D01*
X57020Y-35390D02*
X57020Y-32334D01*
X57110Y-34482D02*
X57110Y-34616D01*
X57160Y-34666D02*
X57248Y-34666D01*
X57110Y-34616D02*
X57160Y-34666D01*
X57110Y-34276D02*
X57110Y-34482D01*
X57408Y-34946D02*
X57448Y-34986D01*
X58125Y-35031D02*
X58080Y-34986D01*
X58080Y-34986D02*
X57448Y-34986D01*
X58125Y-35144D02*
X58125Y-35031D01*
X57248Y-34666D02*
X57336Y-34666D01*
X57336Y-34666D02*
X57408Y-34738D01*
X57408Y-34738D02*
X57408Y-34946D01*
X55900Y-31765D02*
X55900Y-31849D01*
X57110Y-32296D02*
X57110Y-32296D01*
X56731Y-31917D02*
X57110Y-32296D01*
X55968Y-31917D02*
X56731Y-31917D01*
X55900Y-31849D02*
X55968Y-31917D01*
X57110Y-34276D02*
X57110Y-32296D01*
X53071Y-32094D02*
X53071Y-31973D01*
X52830Y-31838D02*
X52830Y-31839D01*
X52936Y-31838D02*
X52830Y-31838D01*
X53071Y-31973D02*
X52936Y-31838D01*
X53071Y-32337D02*
X53071Y-32094D01*
X52830Y-31839D02*
X52830Y-31839D01*
X55350Y-33300D02*
X55281Y-33231D01*
X55350Y-34625D02*
X55350Y-33300D01*
X55604Y-35004D02*
X55550Y-34950D01*
X55550Y-34950D02*
X55443Y-34950D01*
X55604Y-35146D02*
X55604Y-35004D01*
X55350Y-34857D02*
X55443Y-34950D01*
X55350Y-34625D02*
X55350Y-34857D01*
X52390Y-31839D02*
X52128Y-31577D01*
X52830Y-31839D02*
X52390Y-31839D01*
X53071Y-32918D02*
X53071Y-32337D01*
X53384Y-33231D02*
X53071Y-32918D01*
X55281Y-33231D02*
X53384Y-33231D01*
X55781Y-34428D02*
X55781Y-34388D01*
X55781Y-34388D02*
X55719Y-34326D01*
X55575Y-34283D02*
X55575Y-34179D01*
X55618Y-34326D02*
X55575Y-34283D01*
X55719Y-34326D02*
X55618Y-34326D01*
X53252Y-32556D02*
X53252Y-32828D01*
X53475Y-33051D02*
X53722Y-33051D01*
X53252Y-32828D02*
X53475Y-33051D01*
X55575Y-33329D02*
X55575Y-33147D01*
X55575Y-34179D02*
X55575Y-34110D01*
X55575Y-34110D02*
X55575Y-33329D01*
X53252Y-31708D02*
X53121Y-31577D01*
X53252Y-32556D02*
X53252Y-31708D01*
X55479Y-33051D02*
X53722Y-33051D01*
X55575Y-33147D02*
X55479Y-33051D01*
X53161Y-31933D02*
X53161Y-32109D01*
X53161Y-31933D02*
X52976Y-31748D01*
X52976Y-31748D02*
X52889Y-31748D01*
X55440Y-33316D02*
X55440Y-33187D01*
X55766Y-35229D02*
X55766Y-34988D01*
X55766Y-34988D02*
X55637Y-34859D01*
X55637Y-34859D02*
X55502Y-34859D01*
X55502Y-34859D02*
X55440Y-34798D01*
X55440Y-34798D02*
X55440Y-33316D01*
X56109Y-35649D02*
X56234Y-35774D01*
X52798Y-31748D02*
X52627Y-31577D01*
X52889Y-31748D02*
X52798Y-31748D01*
X53161Y-32872D02*
X53161Y-32109D01*
X53430Y-33141D02*
X53161Y-32872D01*
X55394Y-33141D02*
X53430Y-33141D01*
X55440Y-33187D02*
X55394Y-33141D01*
X56086Y-35626D02*
X56086Y-35417D01*
X56086Y-35417D02*
X55980Y-35311D01*
X55980Y-35311D02*
X55848Y-35311D01*
X55848Y-35311D02*
X55766Y-35229D01*
X56234Y-35774D02*
X56086Y-35626D01*
X54700Y-31577D02*
X54648Y-31577D01*
X56656Y-32097D02*
X56864Y-32305D01*
X54744Y-32097D02*
X56656Y-32097D01*
X54594Y-31947D02*
X54744Y-32097D01*
X54594Y-31631D02*
X54594Y-31947D01*
X54648Y-31577D02*
X54594Y-31631D01*
X56864Y-35146D02*
X56864Y-32914D01*
X56864Y-32305D02*
X56864Y-32914D01*
X56072Y-34434D02*
X56072Y-34376D01*
X55665Y-33101D02*
X55525Y-32961D01*
X55665Y-34156D02*
X55665Y-33101D01*
X55745Y-34235D02*
X55665Y-34156D01*
X55931Y-34235D02*
X55745Y-34235D01*
X56072Y-34376D02*
X55931Y-34235D01*
X53400Y-32559D02*
X53400Y-32803D01*
X53558Y-32961D02*
X53793Y-32961D01*
X53400Y-32803D02*
X53558Y-32961D01*
X56397Y-35833D02*
X56397Y-35381D01*
X56235Y-35995D02*
X56397Y-35833D01*
X56235Y-36090D02*
X56235Y-35995D01*
X53400Y-32559D02*
X53400Y-31760D01*
X55525Y-32961D02*
X53793Y-32961D01*
X56072Y-35208D02*
X56072Y-34434D01*
X56156Y-35292D02*
X56072Y-35208D01*
X56308Y-35292D02*
X56156Y-35292D01*
X56397Y-35381D02*
X56308Y-35292D01*
X51583Y-32019D02*
X51402Y-31838D01*
X54507Y-33504D02*
X54414Y-33411D01*
X54414Y-33411D02*
X53298Y-33411D01*
X53298Y-33411D02*
X52891Y-33004D01*
X52891Y-33004D02*
X52891Y-32126D01*
X52891Y-32126D02*
X52784Y-32019D01*
X52784Y-32019D02*
X51583Y-32019D01*
X54774Y-35310D02*
X54573Y-35310D01*
X54507Y-35244D02*
X54507Y-33697D01*
X54573Y-35310D02*
X54507Y-35244D01*
X54507Y-33697D02*
X54507Y-33504D01*
X49727Y-31412D02*
X49652Y-31337D01*
X51224Y-31412D02*
X49727Y-31412D01*
X51402Y-31590D02*
X51224Y-31412D01*
X51402Y-31838D02*
X51402Y-31590D01*
X55914Y-35781D02*
X55914Y-35687D01*
X55676Y-35310D02*
X54774Y-35310D01*
X54774Y-35310D02*
X54765Y-35310D01*
X55767Y-35401D02*
X55676Y-35310D01*
X55767Y-35540D02*
X55767Y-35401D01*
X55914Y-35687D02*
X55767Y-35540D01*
X51083Y-31577D02*
X51105Y-31577D01*
X52801Y-32325D02*
X52801Y-32388D01*
X52720Y-32244D02*
X52801Y-32325D01*
X51339Y-32244D02*
X52720Y-32244D01*
X51162Y-32067D02*
X51339Y-32244D01*
X51162Y-31634D02*
X51162Y-32067D01*
X51105Y-31577D02*
X51162Y-31634D01*
X51084Y-31577D02*
X51083Y-31577D01*
X55243Y-35604D02*
X55239Y-35600D01*
X55291Y-35652D02*
X55243Y-35604D01*
X55291Y-35775D02*
X55291Y-35652D01*
X52801Y-33049D02*
X52801Y-32388D01*
X53253Y-33501D02*
X52801Y-33049D01*
X53691Y-33501D02*
X53253Y-33501D01*
X54189Y-33999D02*
X53691Y-33501D01*
X54189Y-35354D02*
X54189Y-33999D01*
X54435Y-35600D02*
X54189Y-35354D01*
X55239Y-35600D02*
X54435Y-35600D01*
X47457Y-45900D02*
X48060Y-45900D01*
X51596Y-41877D02*
X54121Y-41877D01*
X51237Y-42237D02*
X51596Y-41877D01*
X51237Y-43205D02*
X51237Y-42237D01*
X48478Y-43532D02*
X50900Y-43532D01*
X48330Y-43681D02*
X48478Y-43532D01*
X48330Y-45630D02*
X48330Y-43681D01*
X48060Y-45900D02*
X48330Y-45630D01*
X51095Y-43532D02*
X51237Y-43391D01*
X51237Y-43391D02*
X51237Y-43205D01*
X50900Y-43532D02*
X51095Y-43532D01*
X54306Y-41693D02*
X54121Y-41877D01*
X54306Y-40443D02*
X54306Y-41693D01*
X54306Y-40443D02*
X54503Y-40246D01*
X46337Y-45900D02*
X47457Y-45900D01*
X47457Y-45900D02*
X47460Y-45900D01*
X58461Y-33792D02*
X58638Y-33615D01*
X58461Y-28590D02*
X58069Y-28590D01*
X58638Y-28767D02*
X58461Y-28590D01*
X58638Y-33615D02*
X58638Y-28767D01*
X58130Y-34124D02*
X58461Y-33792D01*
X58130Y-34422D02*
X58130Y-34278D01*
X58130Y-34278D02*
X58130Y-34124D01*
X58593Y-35307D02*
X58593Y-34674D01*
X58593Y-34674D02*
X58466Y-34547D01*
X58466Y-34547D02*
X58255Y-34547D01*
X58255Y-34547D02*
X58130Y-34422D01*
X58438Y-35461D02*
X58593Y-35307D01*
X57822Y-28273D02*
X57822Y-28454D01*
X57822Y-28273D02*
X57822Y-28514D01*
X58069Y-28590D02*
X57898Y-28590D01*
X57898Y-28590D02*
X57822Y-28514D01*
X58385Y-33730D02*
X58548Y-33567D01*
X58426Y-28996D02*
X57974Y-28996D01*
X58548Y-29118D02*
X58426Y-28996D01*
X58548Y-33567D02*
X58548Y-29118D01*
X57823Y-28949D02*
X57823Y-28761D01*
X57870Y-28996D02*
X57823Y-28949D01*
X57974Y-28996D02*
X57870Y-28996D01*
X57810Y-36090D02*
X57976Y-35924D01*
X58385Y-33733D02*
X58385Y-33730D01*
X58039Y-34079D02*
X58385Y-33733D01*
X58039Y-34552D02*
X58039Y-34079D01*
X58284Y-34797D02*
X58039Y-34552D01*
X58284Y-35853D02*
X58284Y-34797D01*
X58213Y-35924D02*
X58284Y-35853D01*
X57976Y-35924D02*
X58213Y-35924D01*
X60243Y-37663D02*
X60595Y-37663D01*
X62658Y-36016D02*
X62657Y-36016D01*
X62658Y-36226D02*
X62658Y-36016D01*
X62321Y-36563D02*
X62658Y-36226D01*
X61380Y-36563D02*
X62321Y-36563D01*
X61214Y-36729D02*
X61380Y-36563D01*
X61214Y-37573D02*
X61214Y-36729D01*
X61059Y-37728D02*
X61214Y-37573D01*
X60660Y-37728D02*
X61059Y-37728D01*
X60595Y-37663D02*
X60660Y-37728D01*
X60243Y-37663D02*
X60239Y-37659D01*
X62545Y-35700D02*
X62657Y-35812D01*
X62657Y-35812D02*
X62657Y-36016D01*
X55840Y-32546D02*
X55840Y-32426D01*
X54238Y-32161D02*
X54238Y-31696D01*
X54355Y-32278D02*
X54238Y-32161D01*
X55692Y-32278D02*
X54355Y-32278D01*
X55840Y-32426D02*
X55692Y-32278D01*
X56556Y-35769D02*
X56556Y-35406D01*
X55840Y-33232D02*
X55840Y-32546D01*
X56195Y-33587D02*
X55840Y-33232D01*
X56195Y-34835D02*
X56195Y-33587D01*
X56404Y-35044D02*
X56195Y-34835D01*
X56404Y-35254D02*
X56404Y-35044D01*
X56556Y-35406D02*
X56404Y-35254D01*
X54238Y-31696D02*
X54118Y-31576D01*
X44424Y-30782D02*
X44733Y-30782D01*
X44982Y-30534D02*
X54146Y-30534D01*
X44733Y-30782D02*
X44982Y-30534D01*
X42591Y-31617D02*
X42591Y-31130D01*
X42938Y-30782D02*
X43163Y-30782D01*
X42591Y-31130D02*
X42938Y-30782D01*
X43163Y-30782D02*
X43379Y-30782D01*
X58330Y-30494D02*
X58085Y-30494D01*
X58085Y-30494D02*
X57803Y-30776D01*
X57803Y-30776D02*
X54626Y-30776D01*
X54626Y-30776D02*
X54384Y-30534D01*
X54384Y-30534D02*
X54146Y-30534D01*
X44424Y-30782D02*
X43379Y-30782D01*
X54084Y-31053D02*
X54049Y-31053D01*
X44844Y-31053D02*
X44663Y-31053D01*
X45093Y-30804D02*
X44844Y-31053D01*
X53800Y-30804D02*
X45093Y-30804D01*
X54049Y-31053D02*
X53800Y-30804D01*
X42837Y-32211D02*
X41701Y-32211D01*
X43109Y-31938D02*
X42837Y-32211D01*
X43109Y-31560D02*
X43109Y-31938D01*
X37814Y-29929D02*
X37574Y-29689D01*
X40471Y-29929D02*
X37814Y-29929D01*
X40910Y-30368D02*
X40471Y-29929D01*
X40910Y-31420D02*
X40910Y-30368D01*
X41701Y-32211D02*
X40910Y-31420D01*
X58338Y-31560D02*
X57899Y-31560D01*
X43109Y-31231D02*
X43109Y-31560D01*
X43109Y-31560D02*
X43109Y-31581D01*
X43287Y-31053D02*
X43109Y-31231D01*
X57392Y-31053D02*
X54084Y-31053D01*
X44663Y-31053D02*
X43287Y-31053D01*
X57899Y-31560D02*
X57392Y-31053D01*
X93900Y-41683D02*
X93900Y-41290D01*
X73078Y-38019D02*
X73744Y-38685D01*
X73744Y-38685D02*
X91633Y-38685D01*
X73078Y-37140D02*
X73078Y-38019D01*
X94492Y-38685D02*
X91633Y-38685D01*
X94761Y-38954D02*
X94492Y-38685D01*
X94761Y-40428D02*
X94761Y-38954D01*
X93900Y-41290D02*
X94761Y-40428D01*
X67416Y-34703D02*
X68251Y-34703D01*
X65865Y-34367D02*
X66201Y-34703D01*
X66201Y-34703D02*
X67416Y-34703D01*
X65252Y-33105D02*
X65524Y-33105D01*
X65865Y-33445D02*
X65865Y-34217D01*
X65524Y-33105D02*
X65865Y-33445D01*
X65865Y-34217D02*
X65865Y-34367D01*
X73078Y-36741D02*
X73078Y-37140D01*
X72023Y-35686D02*
X73078Y-36741D01*
X69233Y-35686D02*
X72023Y-35686D01*
X68251Y-34703D02*
X69233Y-35686D01*
G54D38*
X72320Y-36901D02*
X72530Y-36901D01*
X72723Y-37990D02*
X73000Y-38267D01*
X72723Y-37094D02*
X72723Y-37990D01*
X72530Y-36901D02*
X72723Y-37094D01*
X66308Y-36901D02*
X72320Y-36901D01*
X72320Y-36901D02*
X72376Y-36901D01*
G54D40*
X53577Y-31425D02*
X53577Y-31143D01*
X53577Y-31143D02*
X53555Y-31121D01*
X53670Y-31236D02*
X53555Y-31121D01*
X53795Y-31236D02*
X53670Y-31236D01*
X50045Y-31223D02*
X50635Y-31223D01*
X53444Y-31010D02*
X53577Y-31143D01*
X50848Y-31010D02*
X53444Y-31010D01*
X50635Y-31223D02*
X50848Y-31010D01*
X57826Y-34498D02*
X57826Y-32893D01*
X57826Y-32893D02*
X57780Y-32847D01*
X57780Y-32847D02*
X57780Y-32216D01*
X57780Y-32216D02*
X56986Y-31422D01*
X56986Y-31422D02*
X54918Y-31422D01*
X54918Y-31422D02*
X54732Y-31236D01*
X54732Y-31236D02*
X53795Y-31236D01*
X53795Y-31236D02*
X53667Y-31236D01*
X53667Y-31236D02*
X53577Y-31326D01*
X53577Y-31326D02*
X53577Y-31425D01*
X53577Y-31425D02*
X53577Y-31443D01*
X53577Y-31929D02*
X53580Y-31932D01*
X53577Y-31443D02*
X53577Y-31929D01*
G54D41*
X61250Y-39200D02*
X61250Y-39193D01*
X62006Y-36904D02*
X61991Y-36909D01*
X62006Y-37100D02*
X62006Y-36904D01*
X61705Y-37401D02*
X62006Y-37100D01*
X61705Y-38738D02*
X61705Y-37401D01*
X61250Y-39193D02*
X61705Y-38738D01*
G54D37*
X76672Y-48192D02*
X76822Y-48192D01*
X84642Y-48710D02*
X84912Y-48710D01*
X77340Y-48710D02*
X84642Y-48710D01*
X73615Y-48825D02*
X74248Y-48192D01*
X74248Y-48192D02*
X76672Y-48192D01*
X31125Y-47847D02*
X31125Y-48048D01*
X30529Y-39209D02*
X31125Y-39805D01*
X31125Y-39805D02*
X31125Y-47847D01*
X16650Y-38967D02*
X16650Y-39037D01*
X16650Y-39037D02*
X16822Y-39209D01*
X16822Y-39209D02*
X30529Y-39209D01*
X31902Y-48825D02*
X73230Y-48825D01*
X31125Y-48048D02*
X31902Y-48825D01*
X73230Y-48825D02*
X73615Y-48825D01*
X76822Y-48192D02*
X77243Y-48612D01*
X77243Y-48612D02*
X77340Y-48710D01*
X88400Y-49159D02*
X88400Y-48967D01*
X88296Y-49263D02*
X88400Y-49159D01*
X85465Y-49263D02*
X88296Y-49263D01*
X84912Y-48710D02*
X85465Y-49263D01*
X14760Y-37105D02*
X16135Y-37105D01*
X16135Y-37105D02*
X16650Y-37620D01*
X16650Y-37620D02*
X16650Y-38967D01*
X16650Y-38967D02*
X16650Y-38970D01*
M02*
