M48
;DRILL file {Pcbnew (2013-07-07 BZR 4022)-stable} date 6/4/2014 10:32:17 AM
;FORMAT={-:-/ absolute / inch / decimal}
FMAT,2
INCH,TZ
T1C0.008
T2C0.010
T3C0.012
T4C0.018
T5C0.020
T6C0.020
T7C0.022
T8C0.026
T9C0.030
T10C0.035
T11C0.039
T12C0.039
T13C0.039
T14C0.040
T15C0.043
T16C0.047
T17C0.052
T18C0.070
T19C0.079
T20C0.120
T21C0.126
%
G90
G05
M72
T1
X1.3704Y-2.9766
X1.3948Y-3.3422
X1.45Y-3.89
X1.476Y-3.97
X1.5162Y-3.007
X1.58Y-3.93
X1.9871Y-2.9315
X2.0219Y-4.4277
X2.0231Y-4.3077
X2.0544Y-4.8463
X2.1285Y-4.8465
X2.1513Y-4.3475
X2.1605Y-4.5713
X2.1801Y-4.3586
X2.1802Y-4.414
X2.1999Y-4.6569
X2.2159Y-4.425
X2.2195Y-4.5751
X2.2198Y-4.6306
X2.23Y-4.8464
X2.2392Y-4.3586
X2.2392Y-4.414
X2.2428Y-4.6478
X2.2786Y-4.5751
X2.2786Y-4.6307
X2.283Y-4.4352
X2.2983Y-4.3585
X2.2983Y-4.4141
X2.305Y-4.8464
X2.3062Y-4.646
X2.3222Y-4.4313
X2.3376Y-4.6307
X2.3377Y-4.5751
X2.3574Y-4.3586
X2.3574Y-4.4144
X2.3646Y-4.5651
X2.3967Y-4.5752
X2.3967Y-4.6306
X2.405Y-4.8465
X2.4178Y-4.3254
X2.4362Y-4.349
X2.4362Y-4.349
X2.4558Y-4.4199
X2.48Y-4.8463
X2.58Y-4.8464
X2.6327Y-3.5315
X2.655Y-4.8463
X2.775Y-4.585
X2.8166Y-4.8464
X2.8881Y-4.8464
X2.9684Y-4.8464
X3.01Y-4.585
X3.0618Y-3.4629
X3.0682Y-4.9644
X3.0855Y-4.85
X3.12Y-2.7075
X3.1359Y-4.9524
X3.16Y-2.77
X3.18Y-4.947
X3.189Y-3.119
X3.2376Y-3.5028
X3.2527Y-4.6218
X3.3767Y-4.4243
X3.4Y-4.8471
X3.4041Y-4.3444
X3.4641Y-4.3443
X3.47Y-4.8473
X3.4888Y-4.4244
X3.5148Y-4.423
X3.5149Y-4.5655
X3.515Y-2.9846
X3.515Y-4.3498
X3.5347Y-4.4141
X3.5348Y-4.3587
X3.5353Y-4.566
X3.5495Y-4.3393
X3.5496Y-4.4297
X3.57Y-4.8473
X3.5741Y-4.5751
X3.5741Y-4.6306
X3.5864Y-4.6498
X3.5938Y-4.3586
X3.5938Y-4.4141
X3.6018Y-4.5619
X3.6135Y-4.4221
X3.6158Y-4.3526
X3.6332Y-4.5751
X3.6332Y-4.6307
X3.6422Y-4.8471
X3.6492Y-4.5572
X3.6528Y-4.4141
X3.6529Y-4.3586
X3.692Y-4.3463
X3.6922Y-4.5751
X3.6923Y-4.6306
X3.6959Y-4.4306
X3.7119Y-4.3586
X3.7119Y-4.414
X3.72Y-4.5638
X3.7206Y-4.6423
X3.7317Y-4.3502
X3.7317Y-4.4266
X3.735Y-4.8473
X3.7513Y-4.5752
X3.7513Y-4.6306
X3.771Y-4.4177
X3.7907Y-4.341
X3.81Y-4.8472
X3.8104Y-4.3549
X3.811Y-2.456
X3.8478Y-3.54
X3.8478Y-3.605
X3.8478Y-3.6752
X3.8484Y-3.745
X3.8537Y-3.81
X3.9Y-4.8473
X3.9618Y-3.7898
X3.9647Y-3.6053
X3.9664Y-3.5407
X3.9673Y-3.7006
X3.97Y-4.8474
X3.9768Y-5.3529
X3.9907Y-4.0104
X3.9911Y-3.8928
X3.9917Y-3.9517
X4.0036Y-5.3521
X4.0093Y-3.8427
X4.0207Y-3.6299
X4.0239Y-3.7809
X4.0254Y-3.6736
X4.0318Y-5.3532
X4.045Y-3.84
X4.0464Y-3.8681
X4.0467Y-3.9884
X4.0477Y-3.9274
X4.0923Y-3.4186
X4.1017Y-3.5754
X4.1024Y-3.9266
X4.1029Y-3.9891
X4.1238Y-3.3383
X4.135Y-3.7359
X4.1351Y-3.7986
X4.1354Y-3.9883
X4.1356Y-3.8305
X4.1359Y-4.0196
X4.145Y-4.8474
X4.1659Y-3.6096
X4.1661Y-3.955
X4.1662Y-3.8001
X4.1664Y-3.7361
X4.1664Y-3.8621
X4.1664Y-3.9246
X4.1666Y-3.6418
X4.1666Y-3.9867
X4.1667Y-3.7675
X4.1668Y-3.8935
X4.1669Y-3.8302
X4.1674Y-3.6741
X4.1989Y-3.8946
X4.1989Y-3.9261
X4.1989Y-3.9571
X4.1989Y-4.0206
X4.1994Y-3.7051
X4.1994Y-3.8636
X4.1996Y-3.6441
X4.1999Y-3.7696
X4.1999Y-3.8006
X4.1999Y-3.8321
X4.2004Y-3.6126
X4.2004Y-3.7386
X4.2032Y-3.6737
X4.22Y-4.8475
X4.2275Y-4.0444
X4.2294Y-3.4186
X4.2343Y-3.8946
X4.2625Y-3.861
X4.2637Y-3.6808
X4.2669Y-3.4185
X4.2769Y-3.7522
X4.278Y-3.7748
X4.2809Y-3.7052
X4.2934Y-3.6096
X4.2934Y-3.6416
X4.2934Y-3.8301
X4.2939Y-3.9236
X4.2939Y-3.9556
X4.2939Y-3.9866
X4.2939Y-4.0181
X4.295Y-4.8473
X4.324Y-3.7047
X4.3242Y-3.7363
X4.3243Y-3.8616
X4.3243Y-3.9246
X4.3244Y-3.6094
X4.3249Y-3.9561
X4.3375Y-4.1156
X4.3456Y-3.18
X4.3544Y-3.7351
X4.3549Y-3.8616
X4.3554Y-3.6731
X4.3556Y-3.7676
X4.3556Y-3.8298
X4.3558Y-3.5787
X4.3558Y-3.7047
X4.3559Y-3.6106
X4.3559Y-3.9876
X4.3561Y-3.925
X4.373Y-4.1618
X4.3784Y-3.3383
X4.3859Y-3.8611
X4.3859Y-3.9871
X4.3906Y-3.8941
X4.3999Y-3.6884
X4.4007Y-3.6254
X4.412Y-3.4188
X4.4221Y-3.4552
X4.4261Y-3.8188
X4.4266Y-3.9994
X4.4357Y-3.7525
X4.4577Y-3.4561
X4.4824Y-3.98
X4.4919Y-2.99
X4.5562Y-3.982
X4.5672Y-2.9899
X4.5718Y-3.9644
X4.5729Y-2.794
X4.5963Y-3.8088
X4.605Y-5.425
X4.6071Y-3.7323
X4.645Y-2.735
X4.65Y-3.9658
X4.655Y-3.43
X4.665Y-4.39
X4.695Y-2.905
X4.7337Y-4.3373
X4.8Y-2.816
X4.8Y-2.8477
X4.8Y-2.888
X4.85Y-2.8162
X4.85Y-2.8883
X4.8567Y-4.536
X4.874Y-2.8677
X4.8857Y-2.69
X4.8857Y-2.76
X4.8858Y-2.62
X4.92Y-2.8164
X4.92Y-2.8477
X4.92Y-2.8879
X4.9303Y-4.7138
X4.9495Y-2.69
X4.965Y-3.1337
X4.97Y-2.8164
X4.97Y-2.8477
X4.97Y-2.8879
X5.0045Y-3.1223
X5.06Y-2.8164
X5.06Y-2.8477
X5.06Y-2.8883
X5.107Y-3.1223
X5.1084Y-3.1577
X5.11Y-2.8162
X5.11Y-2.8881
X5.115Y-4.38
X5.115Y-4.46
X5.134Y-2.8677
X5.1575Y-2.8138
X5.1618Y-3.1577
X5.165Y-3.1223
X5.18Y-2.8162
X5.18Y-2.8476
X5.18Y-2.8878
X5.1891Y-3.3972
X5.1921Y-3.3541
X5.2003Y-2.6892
X5.2128Y-3.1577
X5.2213Y-3.9365
X5.2283Y-3.6626
X5.23Y-2.8163
X5.23Y-2.8475
X5.23Y-2.8879
X5.2332Y-3.8998
X5.2569Y-3.8384
X5.2584Y-3.51
X5.2604Y-2.7713
X5.2627Y-3.1577
X5.2635Y-3.6225
X5.2638Y-3.6964
X5.2651Y-3.1223
X5.2711Y-3.4086
X5.273Y-3.752
X5.274Y-3.48
X5.2744Y-3.8674
X5.2968Y-3.6664
X5.2986Y-3.4485
X5.3Y-2.8162
X5.3Y-2.8882
X5.3007Y-3.7671
X5.3085Y-3.8472
X5.3121Y-3.1577
X5.3129Y-3.9262
X5.3138Y-3.6154
X5.3151Y-3.1223
X5.3194Y-4.428
X5.323Y-3.9918
X5.3241Y-2.8677
X5.3303Y-3.7184
X5.3342Y-4.05
X5.3347Y-3.4977
X5.3396Y-3.7982
X5.34Y-3.176
X5.3402Y-3.6722
X5.343Y-3.9075
X5.3434Y-3.6283
X5.3453Y-3.4167
X5.35Y-2.8162
X5.35Y-2.8477
X5.35Y-2.8879
X5.3504Y-4.3423
X5.3525Y-3.9394
X5.354Y-4.8463
X5.358Y-3.1932
X5.3585Y-3.0373
X5.359Y-3.8778
X5.3597Y-3.4012
X5.367Y-4.1469
X5.3673Y-3.6417
X5.3714Y-3.9869
X5.3736Y-3.4851
X5.3747Y-3.4475
X5.375Y-2.815
X5.3806Y-5.32
X5.3913Y-4.0689
X5.3998Y-4.0217
X5.4022Y-3.514
X5.4029Y-3.5766
X5.4031Y-3.4831
X5.4032Y-3.4517
X5.4033Y-3.6407
X5.4033Y-3.8921
X5.4104Y-4.3394
X5.4118Y-3.1576
X5.4197Y-3.0699
X5.42Y-2.8163
X5.42Y-2.888
X5.429Y-4.8464
X5.4291Y-3.3849
X5.4333Y-3.8917
X5.434Y-3.577
X5.4344Y-3.7034
X5.4345Y-3.7664
X5.4345Y-3.8295
X5.4345Y-3.861
X5.4345Y-3.9243
X5.4346Y-3.4831
X5.4346Y-3.9551
X5.4349Y-3.7345
X5.435Y-3.641
X5.4355Y-3.673
X5.436Y-3.61
X5.436Y-3.7965
X5.44Y-3.1779
X5.4442Y-2.8677
X5.4503Y-4.0246
X5.4527Y-4.067
X5.454Y-4.5465
X5.4605Y-4.4248
X5.4605Y-4.5708
X5.465Y-4.1394
X5.4655Y-3.8928
X5.4655Y-3.609
X5.4655Y-3.64
X5.4655Y-3.7035
X5.4659Y-3.5144
X5.4659Y-3.5774
X5.4659Y-3.987
X5.466Y-3.9554
X5.4662Y-3.9239
X5.4665Y-3.672
X5.4665Y-3.7975
X5.4665Y-3.829
X5.467Y-3.7655
X5.47Y-2.8163
X5.47Y-2.8476
X5.47Y-3.1577
X5.4701Y-2.8879
X5.4802Y-4.3586
X5.4802Y-4.4141
X5.4833Y-3.2675
X5.4969Y-3.9561
X5.497Y-3.64
X5.497Y-3.9246
X5.4975Y-3.6725
X5.4975Y-3.7975
X5.4975Y-3.609
X5.4976Y-3.5782
X5.498Y-3.829
X5.4981Y-3.8919
X5.4985Y-3.7045
X5.4985Y-3.766
X5.5056Y-3.2675
X5.5134Y-3.4501
X5.5144Y-3.1907
X5.5149Y-3.1223
X5.5168Y-2.8323
X5.5195Y-4.5751
X5.5196Y-4.6306
X5.5224Y-4.1595
X5.528Y-3.64
X5.5281Y-3.8612
X5.5284Y-3.9243
X5.5287Y-3.9551
X5.5288Y-3.987
X5.529Y-3.5145
X5.529Y-4.8463
X5.529Y-3.6715
X5.529Y-3.7035
X5.529Y-3.8295
X5.5291Y-3.5462
X5.5291Y-3.5775
X5.5291Y-3.7979
X5.5292Y-3.8925
X5.53Y-3.766
X5.5328Y-4.1045
X5.538Y-4.1328
X5.5392Y-4.3586
X5.5392Y-4.414
X5.5427Y-4.0836
X5.5449Y-3.2675
X5.5452Y-4.0544
X5.5461Y-4.6456
X5.547Y-2.8124
X5.5471Y-2.8837
X5.5473Y-4.5617
X5.559Y-4.4212
X5.56Y-3.64
X5.5602Y-3.9557
X5.5602Y-3.6092
X5.5604Y-3.7973
X5.5604Y-3.5146
X5.5604Y-3.9242
X5.5605Y-3.861
X5.5605Y-3.672
X5.5605Y-3.7665
X5.5606Y-3.828
X5.5607Y-3.8918
X5.561Y-3.5461
X5.561Y-3.578
X5.5615Y-3.7045
X5.5688Y-3.2676
X5.5781Y-3.4428
X5.5786Y-4.5751
X5.5786Y-4.6306
X5.5811Y-3.4043
X5.59Y-3.1765
X5.5914Y-3.5781
X5.5915Y-3.703
X5.5916Y-3.4835
X5.5917Y-3.7976
X5.5917Y-3.8922
X5.5918Y-3.5459
X5.5919Y-3.861
X5.5919Y-3.9234
X5.592Y-3.829
X5.592Y-3.6715
X5.5922Y-3.5147
X5.5922Y-3.9552
X5.5923Y-3.6401
X5.5926Y-3.7659
X5.5946Y-4.0535
X5.5949Y-4.5543
X5.5983Y-4.3586
X5.5983Y-4.4141
X5.6006Y-3.3983
X5.604Y-4.8463
X5.6056Y-4.0752
X5.6085Y-3.2675
X5.6106Y-4.1151
X5.615Y-4.0954
X5.6234Y-3.5774
X5.6234Y-3.8294
X5.6234Y-3.861
X5.6235Y-3.5146
X5.6235Y-3.5459
X5.6235Y-3.609
X5.6235Y-3.6405
X5.6235Y-3.7977
X5.6236Y-3.9236
X5.6236Y-3.9558
X5.6237Y-3.672
X5.6238Y-3.8918
X5.624Y-3.7659
X5.624Y-3.9869
X5.6322Y-3.2675
X5.6377Y-4.5752
X5.6377Y-4.6306
X5.639Y-4.0254
X5.6424Y-4.4412
X5.6553Y-3.7349
X5.6556Y-3.5769
X5.6574Y-4.3586
X5.6574Y-4.4141
X5.6625Y-1.9775
X5.6651Y-3.4437
X5.6667Y-4.6422
X5.6682Y-3.4233
X5.6847Y-1.9779
X5.6864Y-3.5146
X5.6864Y-3.5461
X5.6864Y-3.7036
X5.6864Y-3.7663
X5.6864Y-3.7978
X5.6864Y-3.861
X5.6865Y-3.5776
X5.6865Y-3.6406
X5.6865Y-3.8294
X5.6865Y-3.9554
X5.6865Y-3.6092
X5.6866Y-3.6721
X5.6866Y-3.8925
X5.6866Y-3.924
X5.6967Y-4.5751
X5.6967Y-4.6306
X5.7036Y-4.8462
X5.7178Y-3.5461
X5.7178Y-4.3254
X5.7178Y-4.3254
X5.7179Y-3.7036
X5.7179Y-3.5146
X5.7179Y-3.7665
X5.7179Y-3.861
X5.718Y-3.5775
X5.718Y-3.609
X5.718Y-3.672
X5.718Y-3.8295
X5.718Y-3.8925
X5.718Y-3.924
X5.718Y-3.9553
X5.718Y-3.1223
X5.718Y-3.483
X5.718Y-3.798
X5.7182Y-3.9868
X5.7194Y-4.0227
X5.7262Y-4.0846
X5.7264Y-3.2898
X5.7267Y-3.4102
X5.7326Y-3.2661
X5.7362Y-4.349
X5.7362Y-4.349
X5.7438Y-4.0995
X5.7494Y-3.5461
X5.7494Y-3.6406
X5.7494Y-3.924
X5.7495Y-3.5145
X5.7495Y-3.672
X5.7495Y-3.7034
X5.7495Y-3.7665
X5.7495Y-3.798
X5.7495Y-3.861
X5.7495Y-3.9554
X5.7496Y-3.8924
X5.75Y-3.83
X5.756Y-4.4182
X5.7593Y-3.2661
X5.7655Y-3.1577
X5.7809Y-3.8924
X5.7809Y-3.5461
X5.7809Y-3.7035
X5.7809Y-3.7665
X5.7809Y-3.8294
X5.781Y-3.5145
X5.781Y-3.5775
X5.781Y-3.6405
X5.781Y-3.672
X5.781Y-3.798
X5.781Y-3.9239
X5.781Y-3.609
X5.781Y-4.8462
X5.7811Y-3.9555
X5.7812Y-3.9866
X5.7822Y-2.8273
X5.7823Y-2.8761
X5.7826Y-3.4498
X5.784Y-4.1435
X5.7887Y-3.1784
X5.7892Y-3.1024
X5.7956Y-3.266
X5.8002Y-4.1596
X5.8119Y-4.0285
X5.8123Y-3.7664
X5.8124Y-3.8609
X5.8124Y-3.6091
X5.8124Y-3.7035
X5.8124Y-3.7979
X5.8124Y-3.8925
X5.8125Y-3.9555
X5.8125Y-3.5145
X5.8125Y-3.546
X5.8125Y-3.5775
X5.8125Y-3.6405
X5.8125Y-3.672
X5.8125Y-3.924
X5.8126Y-3.8295
X5.8229Y-3.266
X5.828Y-3.4294
X5.8329Y-3.0876
X5.833Y-3.0494
X5.8334Y-3.1274
X5.8338Y-3.156
X5.8364Y-2.51
X5.838Y-2.16
X5.8393Y-3.3505
X5.8395Y-2.3
X5.84Y-3.2878
X5.8401Y-2.8275
X5.843Y-3.7977
X5.8434Y-3.9864
X5.8435Y-3.483
X5.8436Y-3.8295
X5.8438Y-3.5777
X5.8439Y-3.5146
X5.8439Y-3.5461
X5.8439Y-3.6406
X5.8439Y-3.924
X5.8439Y-3.9555
X5.844Y-3.7663
X5.844Y-3.609
X5.844Y-3.672
X5.844Y-3.8926
X5.8442Y-3.7034
X5.8447Y-3.8617
X5.8577Y-2.804
X5.8599Y-3.4137
X5.86Y-4.026
X5.8737Y-2.7803
X5.8749Y-3.4398
X5.8754Y-3.6721
X5.8754Y-3.9555
X5.8755Y-3.7976
X5.8755Y-3.5145
X5.8755Y-3.546
X5.8755Y-3.5775
X5.8755Y-3.609
X5.8755Y-3.6405
X5.8755Y-3.7034
X5.8755Y-3.924
X5.8756Y-3.987
X5.8757Y-3.861
X5.8757Y-3.8926
X5.8758Y-3.8297
X5.8758Y-3.7661
X5.879Y-4.8463
X5.8808Y-4.0265
X5.8812Y-4.1226
X5.8839Y-4.1478
X5.891Y-2.7584
X5.8916Y-3.398
X5.9008Y-3.4429
X5.9031Y-2.23
X5.9031Y-2.3699
X5.9032Y-2.16
X5.9037Y-2.51
X5.9052Y-3.4847
X5.9063Y-3.9232
X5.9066Y-3.5779
X5.9067Y-3.7038
X5.9067Y-3.7982
X5.9068Y-3.9872
X5.9068Y-3.9558
X5.9119Y-3.3981
X5.9172Y-2.5799
X5.9339Y-4.0599
X5.9368Y-3.4846
X5.9377Y-4.5249
X5.9381Y-3.5779
X5.954Y-4.8463
X5.9552Y-3.5456
X5.9574Y-3.9418
X5.9584Y-3.6493
X5.9616Y-3.9726
X5.9681Y-4.0632
X5.9791Y-4.6151
X5.9838Y-3.9966
X5.985Y-3.915
X5.9944Y-4.0418
X5.997Y-4.1214
X6.0114Y-3.4878
X6.0152Y-3.5196
X6.019Y-3.624
X6.0228Y-4.5249
X6.0239Y-3.7659
X6.0264Y-3.8354
X6.0264Y-4.119
X6.0288Y-3.412
X6.0386Y-3.6398
X6.0401Y-3.7508
X6.0457Y-4.1277
X6.0496Y-3.593
X6.0606Y-3.92
X6.0642Y-4.1394
X6.0708Y-3.7022
X6.0726Y-3.5214
X6.0734Y-3.7547
X6.0735Y-3.5951
X6.075Y-4.585
X6.0906Y-3.8451
X6.0944Y-3.5216
X6.0986Y-3.7502
X6.1134Y-4.1018
X6.1167Y-4.8464
X6.1185Y-4.0658
X6.125Y-3.92
X6.1269Y-4.1382
X6.13Y-3.6
X6.1305Y-4.1175
X6.132Y-4.1595
X6.133Y-4.0844
X6.1414Y-3.6382
X6.1556Y-3.6003
X6.1727Y-2.2223
X6.1891Y-4.8465
X6.1965Y-3.9724
X6.1974Y-3.8934
X6.1983Y-3.9219
X6.1991Y-3.6909
X6.2Y-3.5957
X6.2038Y-2.8932
X6.2043Y-2.2223
X6.2216Y-3.9177
X6.2376Y-2.8932
X6.2378Y-3.9301
X6.2525Y-3.4823
X6.2545Y-3.57
X6.2674Y-4.8466
X6.2771Y-3.1607
X6.2788Y-3.9
X6.2794Y-3.4482
X6.2806Y-3.4252
X6.2816Y-3.39
X6.2843Y-3.2514
X6.2862Y-3.315
X6.287Y-3.6091
X6.303Y-3.6814
X6.31Y-4.585
X6.3165Y-3.5646
X6.335Y-3.2231
X6.339Y-3.5999
X6.3557Y-3.425
X6.3558Y-3.285
X6.356Y-3.3549
X6.3628Y-3.2257
X6.3657Y-3.1377
X6.3682Y-4.9644
X6.37Y-2.83
X6.3728Y-2.2222
X6.383Y-3.5465
X6.3927Y-3.7341
X6.3957Y-3.2486
X6.4044Y-2.2222
X6.4049Y-3.6867
X6.4104Y-3.5451
X6.415Y-3.1204
X6.415Y-3.2245
X6.4207Y-3.355
X6.4207Y-3.425
X6.425Y-4.6805
X6.4359Y-4.9524
X6.44Y-3.7329
X6.465Y-3.3817
X6.465Y-3.4445
X6.47Y-3.2529
X6.48Y-4.947
X6.4952Y-3.1202
X6.5Y-4.6805
X6.5086Y-3.2712
X6.51Y-3.7378
X6.5148Y-3.3302
X6.5194Y-3.2376
X6.5231Y-3.4265
X6.5252Y-3.3105
X6.528Y-3.5388
X6.5291Y-3.2711
X6.5501Y-3.4925
X6.5542Y-3.1664
X6.57Y-2.83
X6.573Y-2.2222
X6.5796Y-3.7374
X6.5939Y-3.4769
X6.5973Y-3.7805
X6.6027Y-3.1496
X6.6043Y-2.2224
X6.61Y-1.76
X6.6308Y-3.6901
X6.6772Y-4.4245
X6.6891Y-3.1
X6.6895Y-3.4995
X6.7Y-4.8473
X6.7029Y-4.3405
X6.71Y-2.9943
X6.73Y-1.76
X6.7628Y-4.3405
X6.77Y-4.8474
X6.7728Y-2.2221
X6.7889Y-4.4244
X6.8042Y-2.2224
X6.8144Y-4.5429
X6.8148Y-4.423
X6.8149Y-4.5655
X6.815Y-4.3498
X6.8202Y-4.4577
X6.8345Y-4.3584
X6.8348Y-4.4141
X6.85Y-1.76
X6.87Y-4.8473
X6.8741Y-4.5751
X6.8741Y-4.6308
X6.8875Y-4.6553
X6.8936Y-4.3583
X6.8938Y-4.4142
X6.9088Y-4.4408
X6.9165Y-2.1582
X6.9165Y-2.372
X6.9179Y-2.3036
X6.9197Y-2.2338
X6.9332Y-4.6307
X6.9335Y-4.5751
X6.94Y-4.8474
X6.9485Y-4.5468
X6.95Y-1.76
X6.9529Y-4.359
X6.9529Y-4.4141
X6.9759Y-4.3512
X6.9767Y-4.4235
X6.9923Y-4.6308
X6.9924Y-4.5752
X7.0117Y-4.3583
X7.0118Y-4.414
X7.0317Y-4.3502
X7.0317Y-4.4266
X7.035Y-4.8472
X7.0358Y-2.2221
X7.0509Y-4.5748
X7.0513Y-4.6305
X7.0671Y-2.2222
X7.0709Y-4.4187
X7.0909Y-4.3527
X7.11Y-4.8472
X7.1103Y-4.3303
X7.14Y-3.7089
X7.145Y-3.135
X7.145Y-3.18
X7.16Y-3.04
X7.1797Y-3.9415
X7.19Y-3.02
X7.2Y-3.05
X7.2Y-4.8472
X7.22Y-3.7088
X7.26Y-3.9413
X7.27Y-4.8473
X7.2768Y-5.3529
X7.28Y-3.07
X7.2824Y-2.9675
X7.288Y-4.525
X7.3Y-3.8267
X7.3037Y-5.3521
X7.32Y-3.07
X7.33Y-4.6096
X7.3319Y-5.3532
X7.335Y-3.135
X7.335Y-3.185
X7.3583Y-3.0094
X7.37Y-5.4094
X7.3729Y-4.525
X7.4169Y-3.9413
X7.4358Y-2.2218
X7.4445Y-4.8473
X7.465Y-3.8177
X7.4673Y-2.2223
X7.5195Y-4.8473
X7.5764Y-5.7798
X7.5945Y-4.8474
X7.6767Y-5.6302
X7.68Y-3.92
X7.68Y-3.95
X7.6955Y-4.05
X7.7Y-3.92
X7.7Y-3.95
X7.72Y-3.92
X7.72Y-3.95
X7.74Y-3.92
X7.74Y-3.95
X7.79Y-3.92
X7.79Y-3.94
X7.79Y-3.96
X7.81Y-3.92
X7.81Y-3.94
X7.81Y-3.96
X7.83Y-3.92
X7.83Y-3.94
X7.83Y-3.96
X7.8357Y-2.2221
X7.85Y-3.92
X7.85Y-3.94
X7.85Y-3.96
X7.8672Y-2.2222
X7.985Y-2.66
X7.9875Y-1.8705
X8.0213Y-2.2778
X8.0387Y-1.8719
X8.0646Y-1.8711
X8.1108Y-1.9152
X8.1278Y-4.005
X8.2353Y-2.0049
X8.244Y-4.9383
X8.2647Y-3.7667
X8.2943Y-4.9352
X8.3188Y-1.7624
X8.3445Y-4.9353
X8.3738Y-3.7666
X8.3943Y-4.9419
X8.4468Y-4.0772
X8.4549Y-4.9335
X8.4669Y-4.1289
X8.4822Y-5.0144
X8.4871Y-4.6141
X8.5026Y-3.9754
X8.577Y-4.504
X8.64Y-4.8255
X8.682Y-4.5
X8.69Y-3.595
X8.775Y-4.965
X8.8455Y-4.3
X8.8455Y-4.38
X8.8456Y-4.225
X8.8829Y-4.1106
X8.9124Y-2.985
X8.9424Y-2.9842
X8.9628Y-5.1725
X8.9733Y-2.9862
X8.9901Y-4.5883
X8.9943Y-5.1726
X8.9949Y-3.4227
X8.9952Y-4.1106
X9.0195Y-3.4223
X9.0257Y-5.1725
X9.045Y-3.422
X9.0453Y-2.9856
X9.0477Y-4.7753
X9.0479Y-4.744
X9.0572Y-5.1725
X9.0593Y-4.8081
X9.0671Y-3.4182
X9.0676Y-4.6899
X9.0705Y-4.035
X9.0705Y-4.085
X9.0711Y-4.135
X9.0861Y-2.9847
X9.0909Y-3.4083
X9.1284Y-2.9838
X9.1403Y-3.985
X9.1428Y-5.1725
X9.1488Y-4.8909
X9.1707Y-4.7884
X9.1738Y-4.4735
X9.1739Y-4.5522
X9.1739Y-4.6506
X9.174Y-4.5129
X9.174Y-4.5916
X9.1743Y-5.1725
X9.178Y-4.6725
X9.1811Y-4.5329
X9.1812Y-4.5719
X9.1818Y-2.9826
X9.1818Y-4.4538
X9.182Y-4.493
X9.1845Y-4.6113
X9.1853Y-4.7591
X9.1902Y-5.0499
X9.2057Y-5.1726
X9.2076Y-3.5292
X9.2082Y-3.5502
X9.2096Y-4.4186
X9.2293Y-4.4241
X9.2331Y-5.1228
X9.2337Y-3.6642
X9.2372Y-5.1725
X9.2382Y-3.633
X9.2421Y-2.982
X9.2475Y-5.0714
X9.249Y-4.4187
X9.2687Y-4.4241
X9.2745Y-3.6306
X9.2881Y-5.1
X9.2884Y-4.4187
X9.2906Y-5.0712
X9.3033Y-2.9835
X9.3033Y-3.0324
X9.308Y-4.4241
X9.3228Y-5.1723
X9.3277Y-4.4187
X9.3381Y-5.079
X9.3388Y-5.0184
X9.3474Y-4.4241
X9.3495Y-4.135
X9.3496Y-4.085
X9.35Y-4.035
X9.3504Y-3.0345
X9.3506Y-2.9897
X9.3543Y-5.1724
X9.3671Y-4.3126
X9.3671Y-4.8636
X9.3857Y-5.1725
X9.3868Y-4.4212
X9.39Y-4.1683
X9.3947Y-3.0471
X9.3968Y-2.9897
X9.401Y-2.723
X9.4045Y-2.7699
X9.4065Y-4.3107
X9.4172Y-5.1726
X9.4185Y-2.9309
X9.4227Y-2.8427
X9.4262Y-4.4242
X9.429Y-3.1003
X9.4395Y-2.7923
X9.4402Y-2.7153
X9.4458Y-4.4188
X9.4458Y-4.8635
X9.4546Y-4.2894
X9.4556Y-2.954
X9.4605Y-2.8399
X9.485Y-4.8581
X9.4852Y-4.3123
X9.4878Y-2.7153
X9.4899Y-3.129
X9.5028Y-5.1723
X9.5032Y-2.7888
X9.5046Y-2.9715
X9.505Y-4.3032
X9.5053Y-2.8434
X9.5067Y-3.1003
X9.5081Y-3.066
X9.5245Y-4.9698
X9.5247Y-4.4165
X9.5283Y-4.3031
X9.5291Y-2.8119
X9.5319Y-2.7167
X9.5343Y-5.1725
X9.5442Y-4.4358
X9.5442Y-4.9746
X9.5657Y-5.1725
X9.5972Y-5.1726
X9.6062Y-4.286
X9.6122Y-4.5522
X9.6123Y-4.5128
X9.6124Y-4.4735
X9.6138Y-4.662
X9.6144Y-3.971
X9.6189Y-4.7489
X9.6192Y-4.4931
X9.6192Y-4.5326
X9.6193Y-4.4538
X9.6198Y-4.7692
X9.6208Y-4.0214
X9.623Y-4.0456
X9.6278Y-4.0992
X9.64Y-4.1796
X9.6756Y-4.134
X9.6828Y-5.1725
X9.6947Y-4.0676
X9.7296Y-4.611
X9.7395Y-4.5916
X9.7464Y-4.1307
X9.7842Y-3.972
X9.7981Y-4.1999
X9.8356Y-4.1786
X9.8628Y-5.1725
X9.8943Y-5.1724
X9.9046Y-4.3299
X9.9257Y-5.1725
X9.9962Y-4.235
X10.0246Y-3.93
X10.0601Y-4.16
T2
X1.4646Y-3.021
X1.4873Y-3.1767
X1.4952Y-3.1101
X1.5144Y-3.1314
X1.6873Y-5.4599
X1.6873Y-5.6202
X1.7465Y-5.6203
X1.7466Y-5.4603
X1.8056Y-5.4594
X1.8056Y-5.62
X1.8646Y-5.4601
X1.8647Y-5.6202
X1.945Y-4.6398
X1.9829Y-5.4604
X1.9829Y-5.6201
X2.Y-1.8636
X2.13Y-1.8636
X2.1338Y-4.4278
X2.1338Y-4.4278
X2.2159Y-4.425
X2.26Y-1.8634
X2.3766Y-4.4274
X2.3766Y-4.4274
X2.3778Y-4.35
X2.3778Y-4.35
X2.39Y-1.8635
X2.7429Y-4.8205
X2.8167Y-4.6705
X2.8891Y-4.6704
X2.9673Y-4.6698
X3.0859Y-3.3301
X3.0882Y-3.3673
X3.1085Y-3.2908
X3.1272Y-3.4536
X3.2876Y-4.6399
X3.8525Y-2.9375
X3.9025Y-2.7025
X4.0702Y-4.8248
X4.105Y-4.585
X4.1124Y-5.4608
X4.1124Y-5.6205
X4.145Y-4.68
X4.1715Y-5.4605
X4.1715Y-5.6211
X4.22Y-4.68
X4.2306Y-5.6208
X4.2306Y-5.4598
X4.2897Y-5.4594
X4.2898Y-5.6208
X4.295Y-4.68
X4.335Y-4.585
X4.4079Y-5.4601
X4.408Y-5.6206
X4.5514Y-4.46
X4.6Y-4.7927
X4.6337Y-4.59
X4.7565Y-4.5277
X4.8565Y-4.4006
X4.9168Y-4.3914
X4.9874Y-5.4599
X4.9874Y-5.6202
X5.0465Y-5.6203
X5.0466Y-5.4603
X5.1056Y-5.4594
X5.1056Y-5.62
X5.1127Y-4.64
X5.1127Y-4.72
X5.1133Y-4.56
X5.1646Y-5.4601
X5.1647Y-5.6202
X5.245Y-4.6398
X5.2829Y-5.4604
X5.2829Y-5.6201
X5.3148Y-4.7619
X5.4338Y-4.4278
X5.4338Y-4.4278
X5.4604Y-4.3477
X5.4604Y-4.3477
X5.4672Y-4.7622
X5.494Y-4.7622
X5.5149Y-4.3476
X5.5149Y-4.3476
X5.516Y-4.425
X5.516Y-4.425
X5.6406Y-4.7619
X5.6679Y-4.7624
X5.6766Y-4.4274
X5.6766Y-4.4274
X5.6778Y-4.35
X5.6778Y-4.35
X5.8185Y-4.7622
X5.8432Y-4.7621
X5.9354Y-3.21
X5.9375Y-3.2798
X5.9949Y-4.7622
X6.0429Y-4.8205
X6.1025Y-3.06
X6.1025Y-3.14
X6.1025Y-3.2798
X6.1025Y-3.3499
X6.1025Y-3.42
X6.1026Y-3.21
X6.1167Y-4.6705
X6.1891Y-4.6704
X6.2673Y-4.6698
X6.3361Y-3.4688
X6.5326Y-3.3498
X6.5877Y-4.6399
X6.6274Y-3.57
X6.6608Y-4.7702
X6.6874Y-3.1699
X6.6874Y-3.23
X6.6874Y-3.37
X6.6875Y-3.295
X6.6876Y-3.435
X6.8088Y-4.77
X6.8313Y-4.7698
X6.9763Y-4.7702
X7.0038Y-4.77
X7.1524Y-4.7701
X7.3092Y-4.77
X7.3702Y-4.8248
X7.393Y-3.4625
X7.405Y-4.585
X7.4124Y-5.4608
X7.445Y-4.68
X7.448Y-3.2825
X7.4715Y-5.4605
X7.488Y-3.2575
X7.518Y-3.2825
X7.52Y-4.68
X7.5305Y-5.6208
X7.5306Y-5.4598
X7.5897Y-5.4594
X7.595Y-4.68
X7.635Y-4.585
X7.6804Y-3.2894
X7.7079Y-5.4601
X7.7122Y-3.2893
X7.725Y-5.7062
X7.7251Y-5.8536
X7.7293Y-3.2243
X7.753Y-3.1375
X7.7728Y-3.2088
X7.81Y-5.34
X7.9485Y-3.0122
X8.0187Y-3.1066
X8.0934Y-3.2326
X8.118Y-3.2745
X8.1366Y-3.1145
X8.143Y-3.1762
X8.2269Y-3.146
X8.2388Y-3.2421
X8.2504Y-3.0744
X8.2832Y-4.0741
X8.3134Y-3.2041
X8.3265Y-4.1203
X8.3597Y-4.1066
X8.6901Y-4.8246
X8.74Y-4.8975
X8.7401Y-5.0687
X8.79Y-4.8968
X8.84Y-4.8967
X8.8772Y-5.7399
X9.4043Y-4.8585
X9.4261Y-4.8459
X9.618Y-4.7198
X9.6187Y-4.631
X9.6189Y-4.6901
X9.8776Y-5.7406
X10.0193Y-4.758
X10.0205Y-4.558
T3
X1.47Y-3.63
X1.47Y-3.66
X1.47Y-3.75
X1.47Y-3.78
X1.54Y-3.82
X1.57Y-3.82
X1.6Y-3.63
X1.6Y-3.67
X1.6Y-3.71
X1.6Y-3.75
X1.6Y-3.79
X2.0997Y-4.3851
X2.97Y-2.66
X2.97Y-2.7
X2.97Y-2.79
X3.01Y-2.66
X3.01Y-2.7
X3.01Y-2.81
X3.7207Y-2.9994
X3.7574Y-2.9689
X3.9003Y-2.9382
X3.9408Y-2.9382
X4.16Y-2.94
X4.19Y-3.16
X4.19Y-3.19
X4.2Y-2.8
X4.2Y-2.94
X4.26Y-2.8
X4.31Y-2.8
X4.31Y-2.94
X4.31Y-2.98
X4.33Y-3.16
X4.38Y-3.13
X4.39Y-3.06
X4.41Y-3.13
X4.43Y-3.06
X4.6935Y-2.8323
X4.7487Y-5.1498
X5.3358Y-4.1042
X5.9356Y-3.14
X7.0164Y-4.6443
X7.69Y-4.12
X7.7Y-4.25
X7.75Y-4.25
X7.8Y-4.25
X7.81Y-4.12
X8.25Y-3.48
X8.545Y-3.49
X8.545Y-3.61
X8.55Y-3.33
X8.55Y-3.38
X8.55Y-3.435
X8.675Y-3.33
X8.675Y-3.38
X8.675Y-3.435
X8.68Y-3.485
X8.68Y-3.54
X8.8974Y-3.108
X8.928Y-3.1078
X8.9592Y-3.1078
X8.9898Y-3.1084
X9.0368Y-3.1078
X9.067Y-3.1078
X9.0976Y-3.108
X9.1268Y-3.108
X9.1443Y-3.3527
X9.1443Y-3.4058
X9.1762Y-3.407
X9.1766Y-3.3527
X9.1782Y-3.1082
X9.2069Y-3.3534
X9.2069Y-3.4054
X9.2086Y-3.108
X9.2337Y-3.3531
X9.2337Y-3.405
X9.2388Y-3.108
X9.2694Y-3.108
X9.3325Y-3.4665
X9.3327Y-3.3214
X9.4401Y-3.9845
X9.4406Y-3.9095
X9.445Y-3.2865
X9.4725Y-3.2865
X9.5Y-3.2865
X9.5275Y-3.2865
X9.555Y-3.2865
X9.76Y-2.7115
X9.76Y-2.739
X9.76Y-2.7665
X9.76Y-2.794
X9.76Y-2.844
X9.76Y-2.8715
X9.76Y-2.899
X9.76Y-2.9265
X9.765Y-2.9815
X9.765Y-3.009
T4
X0.96Y-2.52
X0.96Y-2.58
X0.96Y-2.64
X1.01Y-3.97
X1.01Y-4.03
X1.01Y-4.1
X1.02Y-2.52
X1.02Y-2.58
X1.02Y-2.64
X1.06Y-3.97
X1.06Y-4.03
X1.06Y-4.1
X1.08Y-2.52
X1.08Y-2.58
X1.08Y-2.64
X1.11Y-3.97
X1.11Y-4.04
X1.11Y-4.1
X1.14Y-2.52
X1.14Y-2.58
X1.14Y-2.64
X1.16Y-3.97
X1.16Y-4.04
X1.17Y-4.1
X1.2Y-2.52
X1.2Y-2.58
X1.2Y-2.64
X1.21Y-3.97
X1.21Y-4.04
X1.23Y-4.1
X1.26Y-2.52
X1.26Y-2.58
X1.26Y-2.64
X1.26Y-4.04
X1.27Y-3.97
X1.28Y-4.1
X1.32Y-2.52
X1.32Y-2.58
X1.32Y-2.64
X1.33Y-3.97
X1.33Y-4.04
X1.33Y-4.1
X1.38Y-2.52
X1.38Y-2.58
X1.38Y-2.64
X1.44Y-2.52
X1.44Y-2.58
X1.44Y-2.64
X1.476Y-3.7105
X1.5Y-2.64
X1.56Y-2.64
X1.63Y-2.64
X1.6425Y-2.8715
X1.645Y-2.8115
X1.645Y-3.2915
X1.6475Y-2.7465
X1.6475Y-2.939
X1.6475Y-2.9965
X1.65Y-3.144
X1.65Y-3.189
X1.65Y-3.244
X1.6525Y-3.054
X1.6525Y-3.099
X1.6975Y-3.099
X1.7Y-3.054
X1.7025Y-3.144
X1.7025Y-3.189
X1.715Y-3.454
X1.7175Y-3.3315
X1.7175Y-3.389
X1.7175Y-3.5065
X1.72Y-3.2465
X1.72Y-3.2915
X1.725Y-3.0065
X1.816Y-3.7105
X1.8975Y-3.374
X1.8975Y-3.449
X1.8975Y-3.5115
X1.93Y-3.414
X1.945Y-3.5115
X1.9475Y-3.469
X2.6075Y-2.7465
X2.6725Y-2.9265
X2.685Y-2.9815
X2.6925Y-3.059
X2.72Y-3.0015
X2.7225Y-2.9315
X2.7325Y-3.059
X2.74Y-3.114
X2.8825Y-3.459
X2.8975Y-3.099
X2.8975Y-3.1465
X2.8975Y-3.194
X2.9025Y-3.0365
X2.9025Y-3.2665
X2.905Y-2.969
X2.905Y-3.3165
X2.905Y-3.369
X2.905Y-3.414
X2.915Y-2.9265
X2.9475Y-2.7465
X2.95Y-3.369
X2.95Y-3.414
X2.9525Y-3.2665
X2.955Y-3.1465
X2.955Y-3.194
X2.955Y-3.3165
X2.975Y-3.469
X2.98Y-3.5365
X2.98Y-3.604
X2.98Y-3.6715
X2.98Y-3.7215
X3.6225Y-2.69
X3.6325Y-3.105
X3.6329Y-2.5749
X3.6425Y-2.8
X3.665Y-2.7525
X3.68Y-3.115
X3.7025Y-2.8325
X3.7575Y-2.825
X3.7575Y-3.1125
X3.8025Y-2.8275
X3.805Y-3.1125
X3.8452Y-2.8278
X3.8525Y-3.1125
X3.8675Y-2.655
X3.87Y-2.5825
X3.885Y-2.76
X3.92Y-2.8275
X3.9275Y-3.11
X3.9475Y-2.7775
X3.98Y-2.8275
X4.0025Y-2.7775
X4.0025Y-3.11
X4.005Y-2.63
X4.045Y-2.775
X4.045Y-2.8275
X4.0575Y-2.7025
X7.243Y-3.0775
X7.243Y-3.4175
X7.403Y-3.735
X7.438Y-3.4775
X7.488Y-3.4775
X7.5205Y-3.7325
X7.528Y-3.4775
X7.643Y-3.7275
X7.673Y-3.6475
X7.7105Y-3.555
X7.75Y-4.46
X7.7655Y-3.6625
X7.8005Y-3.575
X7.8655Y-3.6125
X7.878Y-3.5575
X7.8855Y-3.6625
X7.903Y-3.205
X7.903Y-3.2525
X7.903Y-3.305
X7.903Y-3.36
X7.9105Y-3.44
X7.928Y-3.4875
X7.928Y-3.625
X7.937Y-4.501
X7.9445Y-4.5585
X7.9505Y-3.205
X7.952Y-4.4585
X7.953Y-3.2525
X7.953Y-3.305
X7.9555Y-3.36
X7.9595Y-4.291
X7.973Y-3.6975
X7.982Y-4.5085
X7.9855Y-3.225
X7.9855Y-3.33
X7.9995Y-4.2985
X8.0195Y-4.4735
X8.047Y-4.5135
X8.0605Y-3.725
X8.067Y-4.291
X8.0695Y-4.4735
X8.098Y-3.3325
X8.098Y-3.39
X8.1105Y-3.73
X8.112Y-4.451
X8.1195Y-4.301
X8.138Y-3.315
X8.148Y-3.3825
X8.148Y-3.56
X8.148Y-3.705
X8.1505Y-3.6375
X8.153Y-3.485
X8.162Y-4.306
X8.1645Y-4.251
X8.207Y-4.3085
X8.2095Y-4.251
X8.257Y-4.2585
X8.257Y-4.3085
X8.297Y-4.256
X8.297Y-4.3035
X8.347Y-4.256
X8.347Y-4.3035
X8.392Y-4.2585
X8.392Y-4.3035
X8.4495Y-4.321
X8.457Y-4.246
X8.512Y-4.246
X8.5995Y-4.241
X8.647Y-4.2385
X8.7045Y-4.2385
T6
X0.9999Y-2.0001
X1.Y-3.
X1.Y-4.
X1.Y-5.
X1.0004Y-3.2499
X1.889Y-2.792
X2.Y-4.
X2.1802Y-4.247
X2.1802Y-4.247
X2.2196Y-4.5446
X2.2394Y-4.3184
X2.2394Y-4.3184
X2.2785Y-4.4694
X2.2985Y-4.2452
X2.2985Y-4.2452
X2.3376Y-4.5449
X2.3376Y-4.5449
X2.3572Y-4.3208
X2.3572Y-4.3208
X2.3966Y-4.4693
X2.3966Y-4.4693
X2.74Y-3.46
X2.74Y-3.6
X2.74Y-3.67
X2.74Y-3.72
X2.79Y-3.46
X3.07Y-2.79
X3.434Y-3.001
X3.5348Y-4.245
X3.5741Y-4.5446
X3.5938Y-4.3198
X3.6332Y-4.4695
X3.6529Y-4.2446
X3.6922Y-4.5447
X3.7119Y-4.3199
X3.7513Y-4.4692
X3.947Y-4.093
X4.012Y-4.094
X4.0148Y-2.9396
X4.071Y-4.096
X4.2591Y-3.1617
X4.2599Y-2.9348
X4.77Y-3.495
X4.77Y-3.57
X4.77Y-3.645
X4.77Y-3.72
X4.77Y-3.795
X4.845Y-3.495
X4.845Y-3.57
X4.845Y-3.645
X4.845Y-3.72
X4.845Y-3.795
X4.92Y-3.495
X4.92Y-3.57
X4.92Y-3.645
X4.92Y-3.72
X4.92Y-3.795
X4.9545Y-5.0016
X4.995Y-3.42
X4.995Y-3.495
X4.995Y-3.57
X4.995Y-3.645
X4.995Y-3.72
X4.995Y-3.795
X4.9993Y-4.1296
X5.Y-3.89
X5.Y-3.97
X5.Y-4.05
X5.07Y-3.42
X5.07Y-3.495
X5.07Y-3.57
X5.07Y-3.645
X5.07Y-3.72
X5.07Y-3.795
X5.08Y-3.89
X5.08Y-3.97
X5.08Y-4.05
X5.0804Y-4.1301
X5.145Y-3.42
X5.145Y-3.495
X5.145Y-3.57
X5.145Y-3.645
X5.145Y-3.72
X5.145Y-3.795
X5.16Y-3.89
X5.16Y-3.97
X5.16Y-4.05
X5.16Y-4.13
X5.4802Y-4.247
X5.5196Y-4.5446
X5.5196Y-4.5446
X5.5394Y-4.3184
X5.5394Y-4.3184
X5.5785Y-4.4694
X5.5785Y-4.4694
X5.5985Y-4.2452
X5.6376Y-4.5449
X5.6376Y-4.5449
X5.6572Y-4.3208
X5.6572Y-4.3208
X5.6966Y-4.4693
X5.6966Y-4.4693
X5.9983Y-2.954
X6.0012Y-2.0502
X6.8348Y-4.245
X6.8742Y-4.5446
X6.8938Y-4.3198
X6.9331Y-4.4695
X6.9529Y-4.2446
X6.9922Y-4.5447
X7.0119Y-4.3199
X7.0514Y-4.4692
X7.75Y-4.12
X7.9542Y-5.0019
X8.0721Y-2.921
X8.0769Y-2.8527
X8.14Y-2.92
X8.1999Y-2.9277
X8.325Y-3.54
X8.456Y-2.7383
X8.5264Y-2.7381
X8.59Y-3.93
X8.61Y-2.99
X8.61Y-3.33
X8.61Y-3.43
X8.717Y-4.5
X9.Y-4.
X9.5466Y-2.7587
X9.8917Y-2.6635
X9.9421Y-2.5032
X9.9939Y-1.9425
X10.0455Y-2.499
T7
X8.905Y-5.55
X8.905Y-5.6
X8.955Y-5.55
X8.955Y-5.6
X9.005Y-5.55
X9.005Y-5.6
X9.055Y-5.55
X9.055Y-5.6
X9.105Y-5.55
X9.105Y-5.6
X9.155Y-5.55
X9.155Y-5.6
X9.205Y-5.55
X9.205Y-5.6
X9.255Y-5.55
X9.255Y-5.6
X9.305Y-5.55
X9.305Y-5.6
X9.355Y-5.55
X9.355Y-5.6
X9.405Y-5.55
X9.405Y-5.6
X9.455Y-5.55
X9.455Y-5.6
X9.505Y-5.55
X9.505Y-5.6
X9.555Y-5.55
X9.555Y-5.6
X9.605Y-5.55
X9.605Y-5.6
X9.655Y-5.55
X9.655Y-5.6
X9.705Y-5.55
X9.705Y-5.6
X9.755Y-5.55
X9.755Y-5.6
X9.805Y-5.55
X9.805Y-5.6
X9.855Y-5.55
X9.855Y-5.6
T8
X6.3001Y-1.9925
X6.315Y-2.085
X6.3309Y-1.9472
X6.3466Y-2.0397
X6.3631Y-1.9925
X6.378Y-2.085
X6.3939Y-1.9472
X6.4096Y-2.0397
X6.4261Y-1.9925
X6.441Y-2.085
X6.4569Y-1.9472
X6.4726Y-2.0397
X6.4891Y-1.9925
X6.504Y-2.085
X6.5199Y-1.9472
X6.5356Y-2.0397
X6.5521Y-1.9925
X6.567Y-2.085
X6.5828Y-1.9472
X6.5986Y-2.0397
X6.6151Y-1.9925
X6.63Y-2.085
X6.6458Y-1.9472
X6.6616Y-2.0397
X6.6781Y-1.9925
X6.693Y-2.085
X6.7088Y-1.9472
X6.7246Y-2.0397
X6.7411Y-1.9925
X6.756Y-2.085
X6.7718Y-1.9472
X6.7876Y-2.0397
X6.8041Y-1.9925
X6.819Y-2.085
X6.8348Y-1.9472
X6.8506Y-2.0397
X6.8671Y-1.9925
X6.8821Y-2.085
X6.8978Y-1.9472
X6.9136Y-2.0397
X6.93Y-1.9925
X6.945Y-2.085
X6.9608Y-1.9472
X6.9765Y-2.0397
X6.993Y-1.9925
X7.008Y-2.085
X7.0238Y-1.9472
X7.0395Y-2.0397
X7.056Y-1.9925
X7.071Y-2.085
X7.0868Y-1.9472
X7.1025Y-2.0397
X7.119Y-1.9925
X7.134Y-2.085
X7.1498Y-1.9472
X7.1655Y-2.0397
X7.182Y-1.9925
X7.197Y-2.085
X7.2128Y-1.9472
X7.2285Y-2.0397
X7.245Y-1.9925
X7.26Y-2.085
X7.2758Y-1.9472
X7.2915Y-2.0397
X7.308Y-1.9925
X7.323Y-2.085
X7.3387Y-1.9472
X7.3545Y-2.0397
T9
X6.3691Y-2.9852
X6.5691Y-2.9852
X9.874Y-4.5584
X9.874Y-4.7584
T10
X8.1435Y-5.4199
X8.1935Y-5.3199
X8.2435Y-5.4199
X8.2935Y-5.3199
X8.3435Y-5.4199
X8.3935Y-5.3199
X8.4435Y-5.4199
X8.4935Y-5.3199
T13
X2.695Y-5.145
X2.695Y-5.22
X2.695Y-5.295
X2.695Y-5.521
X2.695Y-5.596
X2.695Y-5.671
X2.77Y-5.145
X2.77Y-5.22
X2.77Y-5.295
X2.77Y-5.521
X2.77Y-5.596
X2.77Y-5.671
X2.845Y-5.145
X2.845Y-5.22
X2.845Y-5.295
X2.845Y-5.521
X2.845Y-5.596
X2.845Y-5.671
X2.92Y-5.145
X2.92Y-5.22
X2.92Y-5.295
X2.92Y-5.521
X2.92Y-5.596
X2.92Y-5.671
X2.995Y-5.145
X2.995Y-5.22
X2.995Y-5.295
X2.995Y-5.521
X2.995Y-5.596
X2.995Y-5.671
X3.07Y-5.145
X3.07Y-5.22
X3.07Y-5.295
X3.07Y-5.521
X3.07Y-5.596
X3.07Y-5.671
X3.145Y-5.145
X3.145Y-5.22
X3.145Y-5.295
X3.145Y-5.521
X3.145Y-5.596
X3.145Y-5.671
X3.22Y-5.145
X3.22Y-5.22
X3.22Y-5.295
X3.22Y-5.521
X3.22Y-5.596
X3.22Y-5.671
X3.345Y-5.1706
X3.345Y-5.2706
X3.345Y-5.5466
X3.345Y-5.6466
X3.395Y-5.1206
X3.395Y-5.3194
X3.395Y-5.4966
X3.395Y-5.6954
X3.445Y-5.1706
X3.445Y-5.2706
X3.445Y-5.5466
X3.445Y-5.6466
X4.565Y-1.9784
X4.565Y-2.0784
X4.565Y-2.3544
X4.565Y-2.4544
X4.615Y-1.9296
X4.615Y-2.1284
X4.615Y-2.3056
X4.615Y-2.5044
X4.665Y-1.9784
X4.665Y-2.0784
X4.665Y-2.3544
X4.665Y-2.4544
X4.79Y-1.954
X4.79Y-2.029
X4.79Y-2.104
X4.79Y-2.33
X4.79Y-2.405
X4.79Y-2.48
X4.865Y-1.954
X4.865Y-2.029
X4.865Y-2.104
X4.865Y-2.33
X4.865Y-2.405
X4.865Y-2.48
X4.94Y-1.954
X4.94Y-2.029
X4.94Y-2.104
X4.94Y-2.33
X4.94Y-2.405
X4.94Y-2.48
X5.015Y-1.954
X5.015Y-2.029
X5.015Y-2.104
X5.015Y-2.33
X5.015Y-2.405
X5.015Y-2.48
X5.09Y-1.954
X5.09Y-2.029
X5.09Y-2.104
X5.09Y-2.33
X5.09Y-2.405
X5.09Y-2.48
X5.165Y-1.954
X5.165Y-2.029
X5.165Y-2.104
X5.165Y-2.33
X5.165Y-2.405
X5.165Y-2.48
X5.24Y-1.954
X5.24Y-2.029
X5.24Y-2.104
X5.24Y-2.33
X5.24Y-2.405
X5.24Y-2.48
X5.315Y-1.954
X5.315Y-2.029
X5.315Y-2.104
X5.315Y-2.33
X5.315Y-2.405
X5.315Y-2.48
X5.995Y-5.145
X5.995Y-5.22
X5.995Y-5.295
X5.995Y-5.521
X5.995Y-5.596
X5.995Y-5.671
X6.07Y-5.145
X6.07Y-5.22
X6.07Y-5.295
X6.07Y-5.521
X6.07Y-5.596
X6.07Y-5.671
X6.145Y-5.145
X6.145Y-5.22
X6.145Y-5.295
X6.145Y-5.521
X6.145Y-5.596
X6.145Y-5.671
X6.22Y-5.145
X6.22Y-5.22
X6.22Y-5.295
X6.22Y-5.521
X6.22Y-5.596
X6.22Y-5.671
X6.295Y-5.145
X6.295Y-5.22
X6.295Y-5.295
X6.295Y-5.521
X6.295Y-5.596
X6.295Y-5.671
X6.37Y-5.145
X6.37Y-5.22
X6.37Y-5.295
X6.37Y-5.521
X6.37Y-5.596
X6.37Y-5.671
X6.445Y-5.145
X6.445Y-5.22
X6.445Y-5.295
X6.445Y-5.521
X6.445Y-5.596
X6.445Y-5.671
X6.52Y-5.145
X6.52Y-5.22
X6.52Y-5.295
X6.52Y-5.521
X6.52Y-5.596
X6.52Y-5.671
X6.645Y-5.1706
X6.645Y-5.2706
X6.645Y-5.5466
X6.645Y-5.6466
X6.695Y-5.1206
X6.695Y-5.3194
X6.695Y-5.4966
X6.695Y-5.6954
X6.745Y-5.1706
X6.745Y-5.2706
X6.745Y-5.5466
X6.745Y-5.6466
T14
X1.85Y-2.1526
X1.85Y-2.2526
X1.95Y-2.1526
X1.95Y-2.2526
X2.05Y-2.1526
X2.05Y-2.2526
X2.15Y-2.1526
X2.15Y-2.2526
X2.25Y-2.1526
X2.25Y-2.2526
X2.35Y-2.1526
X2.35Y-2.2526
X2.45Y-2.1526
X2.45Y-2.2526
X3.2456Y-2.1422
X3.3006Y-2.0422
X3.3556Y-2.1422
X3.4106Y-2.0422
X3.4606Y-2.1422
X3.5156Y-2.0422
X3.5706Y-2.1422
X3.6256Y-2.0422
X3.6806Y-2.1422
X10.145Y-2.695
X10.145Y-2.795
X10.145Y-2.895
X10.18Y-4.38
X10.18Y-4.48
X10.18Y-4.58
X10.18Y-4.68
X10.18Y-4.78
X10.18Y-4.88
T16
X6.191Y-1.9964
X7.4636Y-1.9964
T17
X9.0962Y-1.86
X9.2962Y-1.86
T18
X9.066Y-2.503
X9.2688Y-2.503
X9.4695Y-2.503
X9.6723Y-2.503
T19
X2.4657Y-5.671
X3.6743Y-5.671
X4.3357Y-1.954
X5.5443Y-1.954
X5.7657Y-5.671
X6.003Y-1.893
X6.9743Y-5.671
X7.6515Y-1.893
T20
X2.9606Y-2.0816
X3.9735Y-2.0816
T21
X2.4302Y-5.2706
X3.7098Y-5.2706
X4.3002Y-2.3544
X5.5798Y-2.3544
X5.7302Y-5.2706
X7.0098Y-5.2706
T5
X7.9122Y-1.7961G85X7.9122Y-1.7764
G05
X8.1653Y-1.7961G85X8.1653Y-1.7764
G05
T11
X8.0185Y-5.5258G85X8.0185Y-5.5652
G05
T12
X8.6185Y-5.5258G85X8.6185Y-5.5652
G05
T13
X8.4606Y-2.1067G85X8.4606Y-2.1854
G05
X8.6849Y-2.0279G85X8.6062Y-2.0279
G05
X8.6849Y-2.2641G85X8.6062Y-2.2641
G05
X9.5819Y-2.1067G85X9.5819Y-2.1854
G05
X9.8062Y-2.0279G85X9.7275Y-2.0279
G05
X9.8062Y-2.2641G85X9.7275Y-2.2641
G05
T15
X1.5359Y-5.841G85X1.5359Y-5.8135
G05
X1.5596Y-5.6251G85X1.5596Y-5.5601
G05
X2.1422Y-5.6251G85X2.1422Y-5.5601
G05
X2.1659Y-5.841G85X2.1659Y-5.8135
G05
X3.9609Y-5.841G85X3.9609Y-5.8135
G05
X3.9846Y-5.6251G85X3.9846Y-5.5601
G05
X4.5672Y-5.6251G85X4.5672Y-5.5601
G05
X4.5909Y-5.841G85X4.5909Y-5.8135
G05
X4.8359Y-5.841G85X4.8359Y-5.8135
G05
X4.8596Y-5.6251G85X4.8596Y-5.5601
G05
X5.4422Y-5.6251G85X5.4422Y-5.5601
G05
X5.4659Y-5.841G85X5.4659Y-5.8135
G05
X7.2609Y-5.841G85X7.2609Y-5.8135
G05
X7.2846Y-5.6251G85X7.2846Y-5.5601
G05
X7.8672Y-5.6251G85X7.8672Y-5.5601
G05
X7.8909Y-5.841G85X7.8909Y-5.8135
G05
T0
M30
