G04 (created by PCBNEW (2013-07-07 BZR 4022)-stable) date 6/4/2014 10:32:15 AM*
%MOIN*%
G04 Gerber Fmt 3.4, Leading zero omitted, Abs format*
%FSLAX34Y34*%
G01*
G70*
G90*
G04 APERTURE LIST*
%ADD10C,0.00590551*%
%ADD11C,0.165748*%
%ADD12R,0.075748X0.075748*%
%ADD13C,0.075748*%
%ADD14C,0.115748*%
%ADD15R,0.133848X0.133858*%
%ADD16C,0.0551181*%
%ADD17C,0.104331*%
%ADD18C,0.114173*%
%ADD19C,0.141752*%
%ADD20C,0.159448*%
%ADD21R,0.074848X0.074848*%
%ADD22C,0.074848*%
%ADD23O,0.0826772X0.122047*%
%ADD24R,0.060748X0.040748*%
%ADD25O,0.095748X0.175748*%
%ADD26R,0.040748X0.060748*%
%ADD27R,0.070748X0.165748*%
%ADD28R,0.065748X0.115748*%
%ADD29R,0.070748X0.050748*%
%ADD30R,0.095748X0.175748*%
%ADD31C,0.181102*%
%ADD32C,0.133858*%
%ADD33R,0.025948X0.055148*%
%ADD34R,0.025948X0.0551181*%
%ADD35R,0.035748X0.051748*%
%ADD36R,0.051748X0.035748*%
%ADD37R,0.039348X0.031448*%
%ADD38R,0.031448X0.039348*%
%ADD39O,0.0551181X0.075748*%
%ADD40C,0.071748*%
%ADD41C,0.055748*%
%ADD42R,0.028748X0.124016*%
%ADD43O,0.0866142X0.153543*%
%ADD44O,0.0866142X0.108268*%
%ADD45R,0.115748X0.065748*%
%ADD46R,0.050748X0.070748*%
%ADD47R,0.165748X0.070748*%
%ADD48R,0.065748X0.053748*%
%ADD49R,0.153548X0.153548*%
%ADD50R,0.175748X0.095748*%
%ADD51R,0.053748X0.065748*%
%ADD52R,0.049748X0.049748*%
%ADD53C,0.049748*%
%ADD54C,0.050748*%
G04 APERTURE END LIST*
G54D10*
G54D11*
X39734Y-20815D03*
X29606Y-20815D03*
G54D12*
X32456Y-21422D03*
G54D13*
X33556Y-21422D03*
X34606Y-21422D03*
X35706Y-21422D03*
X36806Y-21422D03*
X33006Y-20422D03*
X34106Y-20422D03*
X35156Y-20422D03*
X36256Y-20422D03*
G54D14*
X90660Y-25030D03*
X92687Y-25030D03*
X94695Y-25030D03*
X96722Y-25030D03*
G54D15*
X86580Y-24655D03*
X86580Y-27804D03*
X83700Y-24625D03*
X83700Y-27774D03*
G54D16*
X63308Y-19472D03*
X63938Y-19472D03*
X64568Y-19472D03*
X65198Y-19472D03*
X65828Y-19472D03*
X66458Y-19472D03*
X67088Y-19472D03*
X67718Y-19472D03*
X68348Y-19472D03*
X68978Y-19472D03*
X69607Y-19472D03*
X70237Y-19472D03*
X70867Y-19472D03*
X71497Y-19472D03*
X72127Y-19472D03*
X72757Y-19472D03*
X73387Y-19472D03*
X73080Y-19924D03*
X72450Y-19924D03*
X71820Y-19924D03*
X71190Y-19924D03*
X70560Y-19924D03*
X69930Y-19924D03*
X69300Y-19924D03*
X68670Y-19924D03*
X68040Y-19924D03*
X67410Y-19924D03*
X66780Y-19924D03*
X66150Y-19924D03*
X65520Y-19924D03*
X64891Y-19924D03*
X64261Y-19924D03*
X63631Y-19924D03*
X63001Y-19924D03*
X63466Y-20397D03*
X64096Y-20397D03*
X64726Y-20397D03*
X65355Y-20397D03*
X65985Y-20397D03*
X66615Y-20397D03*
X67245Y-20397D03*
X67875Y-20397D03*
X68505Y-20397D03*
X69135Y-20397D03*
X69765Y-20397D03*
X70395Y-20397D03*
X71025Y-20397D03*
X71655Y-20397D03*
X72285Y-20397D03*
X72915Y-20397D03*
X73544Y-20397D03*
X73230Y-20850D03*
X72600Y-20850D03*
X71970Y-20850D03*
X71340Y-20850D03*
X70080Y-20850D03*
X68190Y-20850D03*
X67560Y-20850D03*
X66930Y-20850D03*
X66300Y-20850D03*
X65670Y-20850D03*
X65040Y-20850D03*
X64410Y-20850D03*
X63780Y-20850D03*
X63150Y-20850D03*
G54D17*
X74635Y-19964D03*
X61909Y-19964D03*
G54D18*
X60030Y-18930D03*
X76515Y-18930D03*
G54D16*
X70710Y-20850D03*
X68820Y-20850D03*
X69450Y-20850D03*
G54D19*
X11168Y-37508D03*
X101331Y-37508D03*
G54D20*
X85523Y-56698D03*
X80850Y-56698D03*
G54D21*
X81435Y-54198D03*
G54D22*
X81935Y-53198D03*
X82435Y-54198D03*
X82935Y-53198D03*
X83435Y-54198D03*
X83935Y-53198D03*
X84435Y-54198D03*
X84935Y-53198D03*
G54D23*
X80185Y-55454D03*
X86185Y-55454D03*
G54D24*
X61750Y-41450D03*
X61750Y-40850D03*
G54D25*
X90962Y-18600D03*
X92962Y-18600D03*
G54D24*
X14450Y-30565D03*
X14450Y-31165D03*
G54D26*
X14000Y-31765D03*
X14600Y-31765D03*
G54D27*
X16500Y-34315D03*
X18300Y-34315D03*
G54D28*
X18250Y-29265D03*
X17050Y-29265D03*
X18250Y-27915D03*
X17050Y-27915D03*
G54D29*
X14600Y-33290D03*
X14600Y-32540D03*
G54D30*
X15360Y-37105D03*
X17560Y-37105D03*
G54D13*
X59950Y-52950D03*
X60700Y-52950D03*
X61450Y-52950D03*
X62200Y-52950D03*
X62950Y-52950D03*
X63700Y-52950D03*
X64450Y-52950D03*
X65200Y-52950D03*
X59950Y-52200D03*
X60700Y-52200D03*
X61450Y-52200D03*
X62200Y-52200D03*
X62950Y-52200D03*
X63700Y-52200D03*
X64450Y-52200D03*
X65200Y-52200D03*
X60700Y-51450D03*
X61450Y-51450D03*
X62200Y-51450D03*
X62950Y-51450D03*
X63700Y-51450D03*
X59950Y-51450D03*
X64450Y-51450D03*
X65200Y-51450D03*
X59950Y-55210D03*
X60700Y-55210D03*
X61450Y-55210D03*
X62200Y-55210D03*
X62950Y-55210D03*
X63700Y-55210D03*
X64450Y-55210D03*
X65200Y-55210D03*
X59950Y-55960D03*
X60700Y-55960D03*
X61450Y-55960D03*
X62200Y-55960D03*
X62950Y-55960D03*
X63700Y-55960D03*
X64450Y-55960D03*
X65200Y-55960D03*
X59950Y-56710D03*
X60700Y-56710D03*
X61450Y-56710D03*
X62200Y-56710D03*
X62950Y-56710D03*
X63700Y-56710D03*
X64450Y-56710D03*
X65200Y-56710D03*
X66950Y-51206D03*
X66950Y-53194D03*
X66950Y-54966D03*
X66950Y-56954D03*
X66450Y-51706D03*
X67450Y-51706D03*
X66450Y-55466D03*
X67450Y-55466D03*
X66450Y-52706D03*
X66450Y-56466D03*
X67450Y-52706D03*
X67450Y-56466D03*
G54D31*
X70097Y-52706D03*
X57302Y-52706D03*
G54D32*
X57656Y-56710D03*
X69743Y-56710D03*
G54D33*
X54211Y-43863D03*
X54408Y-43863D03*
X54605Y-43863D03*
G54D34*
X54801Y-43863D03*
G54D33*
X54998Y-43863D03*
X55195Y-43863D03*
X55392Y-43863D03*
X55589Y-43863D03*
X55786Y-43863D03*
X55983Y-43863D03*
X56179Y-43863D03*
X56376Y-43863D03*
X56573Y-43863D03*
X56770Y-43863D03*
X56967Y-43863D03*
X57164Y-43863D03*
X57360Y-43863D03*
X57557Y-43863D03*
X57754Y-43863D03*
X56967Y-46028D03*
X57164Y-46028D03*
X57360Y-46028D03*
X57557Y-46028D03*
X56770Y-46028D03*
X56573Y-46028D03*
X56376Y-46028D03*
X56179Y-46028D03*
X55983Y-46028D03*
X55786Y-46028D03*
X55589Y-46028D03*
X55392Y-46028D03*
X55195Y-46028D03*
X54998Y-46028D03*
X54801Y-46028D03*
X57754Y-46028D03*
X54605Y-46028D03*
X54408Y-46028D03*
X54211Y-46028D03*
G54D24*
X45718Y-38737D03*
X45718Y-39337D03*
X44957Y-39333D03*
X44957Y-38733D03*
X46501Y-39312D03*
X46501Y-38712D03*
G54D26*
X44999Y-38088D03*
X45599Y-38088D03*
G54D24*
X42435Y-37259D03*
X42435Y-37859D03*
G54D26*
X40500Y-37300D03*
X39900Y-37300D03*
X40500Y-37900D03*
X39900Y-37900D03*
G54D35*
X41128Y-34814D03*
X41128Y-34186D03*
X41443Y-34814D03*
X41443Y-34186D03*
X41757Y-34814D03*
X41757Y-34186D03*
X42072Y-34814D03*
X42072Y-34186D03*
G54D36*
X45722Y-37384D03*
X45094Y-37384D03*
X45722Y-37069D03*
X45094Y-37069D03*
X45722Y-36755D03*
X45094Y-36755D03*
X45722Y-36440D03*
X45094Y-36440D03*
G54D26*
X39900Y-36700D03*
X40500Y-36700D03*
X39903Y-36054D03*
X40503Y-36054D03*
X39903Y-35406D03*
X40503Y-35406D03*
X45720Y-35100D03*
X45120Y-35100D03*
G54D35*
X42928Y-34814D03*
X42928Y-34186D03*
X43243Y-34814D03*
X43243Y-34186D03*
X43557Y-34814D03*
X43557Y-34186D03*
X43872Y-34814D03*
X43872Y-34186D03*
G54D26*
X45720Y-35700D03*
X45120Y-35700D03*
G54D37*
X42267Y-39829D03*
X42267Y-40183D03*
X42567Y-39299D03*
X42567Y-38945D03*
X42295Y-38295D03*
X42295Y-38649D03*
X42947Y-38531D03*
X42947Y-38885D03*
G54D26*
X20350Y-46415D03*
X19750Y-46415D03*
X66770Y-46399D03*
X66170Y-46399D03*
G54D24*
X65700Y-28550D03*
X65700Y-29150D03*
X64150Y-31400D03*
X64150Y-32000D03*
X64950Y-31400D03*
X64950Y-32000D03*
X65700Y-32300D03*
X65700Y-32900D03*
X63350Y-31400D03*
X63350Y-32000D03*
G54D26*
X33780Y-46410D03*
X33180Y-46410D03*
G54D24*
X63700Y-29150D03*
X63700Y-28550D03*
X65350Y-34650D03*
X65350Y-34050D03*
G54D26*
X63358Y-35046D03*
X63958Y-35046D03*
G54D24*
X62400Y-34500D03*
X62400Y-33900D03*
X62500Y-32550D03*
X62500Y-33150D03*
G54D26*
X20700Y-19000D03*
X21300Y-19000D03*
X19400Y-19000D03*
X20000Y-19000D03*
X22000Y-19000D03*
X22600Y-19000D03*
G54D24*
X82832Y-39919D03*
X82832Y-40519D03*
G54D26*
X66500Y-34350D03*
X67100Y-34350D03*
G54D24*
X64400Y-36000D03*
X64400Y-36600D03*
X63700Y-36000D03*
X63700Y-36600D03*
G54D26*
X63950Y-32850D03*
X63350Y-32850D03*
X61000Y-39200D03*
X60400Y-39200D03*
G54D24*
X62200Y-35100D03*
X62200Y-35700D03*
X61500Y-35700D03*
X61500Y-35100D03*
G54D26*
X63950Y-33550D03*
X63350Y-33550D03*
X63950Y-34250D03*
X63350Y-34250D03*
X67100Y-35700D03*
X66500Y-35700D03*
G54D24*
X73700Y-48543D03*
X73700Y-49143D03*
X60429Y-48540D03*
X60429Y-49140D03*
X40701Y-48549D03*
X40701Y-49149D03*
X27439Y-48540D03*
X27439Y-49140D03*
G54D38*
X59277Y-37350D03*
X58923Y-37350D03*
G54D37*
X58673Y-34619D03*
X58673Y-34973D03*
X59093Y-34692D03*
X59093Y-35046D03*
G54D38*
X57793Y-40136D03*
X57439Y-40136D03*
G54D37*
X56680Y-33377D03*
X56680Y-33023D03*
G54D38*
X59273Y-38800D03*
X59627Y-38800D03*
G54D37*
X53749Y-35748D03*
X53749Y-36102D03*
G54D38*
X54057Y-37209D03*
X53703Y-37209D03*
X57793Y-40552D03*
X57439Y-40552D03*
G54D37*
X57182Y-34667D03*
X57182Y-34313D03*
G54D38*
X58963Y-36200D03*
X59317Y-36200D03*
X54917Y-40222D03*
X55271Y-40222D03*
X58994Y-38222D03*
X59348Y-38222D03*
G54D39*
X81653Y-17862D03*
X79121Y-17862D03*
G54D40*
X63691Y-29852D03*
X65691Y-29852D03*
G54D33*
X67756Y-43863D03*
X67953Y-43863D03*
X68150Y-43863D03*
G54D34*
X68347Y-43863D03*
G54D33*
X68544Y-43863D03*
X68741Y-43863D03*
X68938Y-43863D03*
X69134Y-43863D03*
X69331Y-43863D03*
X69528Y-43863D03*
X69725Y-43863D03*
X69922Y-43863D03*
X70119Y-43863D03*
X70316Y-43863D03*
X70512Y-43863D03*
X70709Y-43863D03*
X70906Y-43863D03*
X71103Y-43863D03*
X71300Y-43863D03*
X70512Y-46028D03*
X70709Y-46028D03*
X70906Y-46028D03*
X71103Y-46028D03*
X70316Y-46028D03*
X70119Y-46028D03*
X69922Y-46028D03*
X69725Y-46028D03*
X69528Y-46028D03*
X69331Y-46028D03*
X69134Y-46028D03*
X68938Y-46028D03*
X68741Y-46028D03*
X68544Y-46028D03*
X68347Y-46028D03*
X71300Y-46028D03*
X68150Y-46028D03*
X67953Y-46028D03*
X67756Y-46028D03*
X21211Y-43863D03*
X21407Y-43863D03*
X21604Y-43863D03*
G54D34*
X21801Y-43863D03*
G54D33*
X21998Y-43863D03*
X22195Y-43863D03*
X22392Y-43863D03*
X22589Y-43863D03*
X22785Y-43863D03*
X22982Y-43863D03*
X23179Y-43863D03*
X23376Y-43863D03*
X23573Y-43863D03*
X23770Y-43863D03*
X23967Y-43863D03*
X24163Y-43863D03*
X24360Y-43863D03*
X24557Y-43863D03*
X24754Y-43863D03*
X23967Y-46028D03*
X24163Y-46028D03*
X24360Y-46028D03*
X24557Y-46028D03*
X23770Y-46028D03*
X23573Y-46028D03*
X23376Y-46028D03*
X23179Y-46028D03*
X22982Y-46028D03*
X22785Y-46028D03*
X22589Y-46028D03*
X22392Y-46028D03*
X22195Y-46028D03*
X21998Y-46028D03*
X21801Y-46028D03*
X24754Y-46028D03*
X21604Y-46028D03*
X21407Y-46028D03*
X21211Y-46028D03*
X34756Y-43863D03*
X34953Y-43863D03*
X35150Y-43863D03*
G54D34*
X35347Y-43863D03*
G54D33*
X35544Y-43863D03*
X35741Y-43863D03*
X35938Y-43863D03*
X36134Y-43863D03*
X36331Y-43863D03*
X36528Y-43863D03*
X36725Y-43863D03*
X36922Y-43863D03*
X37119Y-43863D03*
X37316Y-43863D03*
X37512Y-43863D03*
X37709Y-43863D03*
X37906Y-43863D03*
X38103Y-43863D03*
X38300Y-43863D03*
X37512Y-46028D03*
X37709Y-46028D03*
X37906Y-46028D03*
X38103Y-46028D03*
X37316Y-46028D03*
X37119Y-46028D03*
X36922Y-46028D03*
X36725Y-46028D03*
X36528Y-46028D03*
X36331Y-46028D03*
X36134Y-46028D03*
X35938Y-46028D03*
X35741Y-46028D03*
X35544Y-46028D03*
X35347Y-46028D03*
X38300Y-46028D03*
X35150Y-46028D03*
X34953Y-46028D03*
X34756Y-46028D03*
G54D38*
X54130Y-38127D03*
X53776Y-38127D03*
X53993Y-39148D03*
X53639Y-39148D03*
X54057Y-36837D03*
X53703Y-36837D03*
X54925Y-37355D03*
X54571Y-37355D03*
G54D41*
X50700Y-34200D03*
X48450Y-37200D03*
X49200Y-37200D03*
X48450Y-36450D03*
X50800Y-39700D03*
X49200Y-37950D03*
X51600Y-38900D03*
X49950Y-37200D03*
X51450Y-34950D03*
X50700Y-35700D03*
X51450Y-35700D03*
X51450Y-37200D03*
X49950Y-34950D03*
X51450Y-34200D03*
X49950Y-34200D03*
X49950Y-35700D03*
X50700Y-34950D03*
X50700Y-36450D03*
X48450Y-34950D03*
X50700Y-37950D03*
X49950Y-37950D03*
X49200Y-34950D03*
X51450Y-36450D03*
X49200Y-35700D03*
X49950Y-36450D03*
X47700Y-34950D03*
X51450Y-37950D03*
X50700Y-37200D03*
X50800Y-38900D03*
X50000Y-39700D03*
X51600Y-40500D03*
X51600Y-39700D03*
X50800Y-40500D03*
X47700Y-36450D03*
X47700Y-37200D03*
X49200Y-36450D03*
X48450Y-35700D03*
X47700Y-35700D03*
X49993Y-41296D03*
X50000Y-38900D03*
X50803Y-41301D03*
X50000Y-40500D03*
X51600Y-41300D03*
X47700Y-37950D03*
X48450Y-37950D03*
G54D38*
X54681Y-38563D03*
X55035Y-38563D03*
X54173Y-38628D03*
X53819Y-38628D03*
X53340Y-34731D03*
X52986Y-34731D03*
G54D13*
X53150Y-23300D03*
X52400Y-23300D03*
X51650Y-23300D03*
X50900Y-23300D03*
X50150Y-23300D03*
X49400Y-23300D03*
X48650Y-23300D03*
X47900Y-23300D03*
X53150Y-24050D03*
X52400Y-24050D03*
X51650Y-24050D03*
X50900Y-24050D03*
X50150Y-24050D03*
X49400Y-24050D03*
X48650Y-24050D03*
X47900Y-24050D03*
X52400Y-24800D03*
X51650Y-24800D03*
X50900Y-24800D03*
X50150Y-24800D03*
X49400Y-24800D03*
X53150Y-24800D03*
X48650Y-24800D03*
X47900Y-24800D03*
X53150Y-21040D03*
X52400Y-21040D03*
X51650Y-21040D03*
X50900Y-21040D03*
X50150Y-21040D03*
X49400Y-21040D03*
X48650Y-21040D03*
X47900Y-21040D03*
X53150Y-20290D03*
X52400Y-20290D03*
X51650Y-20290D03*
X50900Y-20290D03*
X50150Y-20290D03*
X49400Y-20290D03*
X48650Y-20290D03*
X47900Y-20290D03*
X53150Y-19540D03*
X52400Y-19540D03*
X51650Y-19540D03*
X50900Y-19540D03*
X50150Y-19540D03*
X49400Y-19540D03*
X48650Y-19540D03*
X47900Y-19540D03*
X46150Y-25044D03*
X46150Y-23056D03*
X46150Y-21284D03*
X46150Y-19296D03*
X46650Y-24544D03*
X45650Y-24544D03*
X46650Y-20784D03*
X45650Y-20784D03*
X46650Y-23544D03*
X46650Y-19784D03*
X45650Y-23544D03*
X45650Y-19784D03*
G54D31*
X43002Y-23544D03*
X55797Y-23544D03*
G54D32*
X55443Y-19540D03*
X43356Y-19540D03*
G54D26*
X53336Y-46399D03*
X52736Y-46399D03*
G54D13*
X26950Y-52950D03*
X27700Y-52950D03*
X28450Y-52950D03*
X29200Y-52950D03*
X29950Y-52950D03*
X30700Y-52950D03*
X31450Y-52950D03*
X32200Y-52950D03*
X26950Y-52200D03*
X27700Y-52200D03*
X28450Y-52200D03*
X29200Y-52200D03*
X29950Y-52200D03*
X30700Y-52200D03*
X31450Y-52200D03*
X32200Y-52200D03*
X27700Y-51450D03*
X28450Y-51450D03*
X29200Y-51450D03*
X29950Y-51450D03*
X30700Y-51450D03*
X26950Y-51450D03*
X31450Y-51450D03*
X32200Y-51450D03*
X26950Y-55210D03*
X27700Y-55210D03*
X28450Y-55210D03*
X29200Y-55210D03*
X29950Y-55210D03*
X30700Y-55210D03*
X31450Y-55210D03*
X32200Y-55210D03*
X26950Y-55960D03*
X27700Y-55960D03*
X28450Y-55960D03*
X29200Y-55960D03*
X29950Y-55960D03*
X30700Y-55960D03*
X31450Y-55960D03*
X32200Y-55960D03*
X26950Y-56710D03*
X27700Y-56710D03*
X28450Y-56710D03*
X29200Y-56710D03*
X29950Y-56710D03*
X30700Y-56710D03*
X31450Y-56710D03*
X32200Y-56710D03*
X33950Y-51206D03*
X33950Y-53194D03*
X33950Y-54966D03*
X33950Y-56954D03*
X33450Y-51706D03*
X34450Y-51706D03*
X33450Y-55466D03*
X34450Y-55466D03*
X33450Y-52706D03*
X33450Y-56466D03*
X34450Y-52706D03*
X34450Y-56466D03*
G54D31*
X37097Y-52706D03*
X24302Y-52706D03*
G54D32*
X24656Y-56710D03*
X36743Y-56710D03*
G54D42*
X18450Y-55414D03*
X18253Y-55414D03*
X18056Y-55414D03*
X17859Y-55414D03*
X17662Y-55414D03*
X17465Y-55414D03*
X17268Y-55414D03*
X17072Y-55414D03*
X16875Y-55414D03*
X16678Y-55414D03*
X18646Y-55414D03*
X18843Y-55414D03*
X19040Y-55414D03*
X19237Y-55414D03*
X19434Y-55414D03*
X19631Y-55414D03*
X19827Y-55414D03*
X20024Y-55414D03*
X20221Y-55414D03*
G54D43*
X21422Y-55926D03*
X15595Y-55926D03*
G54D44*
X21658Y-58272D03*
X15359Y-58272D03*
G54D42*
X42700Y-55414D03*
X42503Y-55414D03*
X42306Y-55414D03*
X42109Y-55414D03*
X41912Y-55414D03*
X41715Y-55414D03*
X41518Y-55414D03*
X41322Y-55414D03*
X41125Y-55414D03*
X40928Y-55414D03*
X42896Y-55414D03*
X43093Y-55414D03*
X43290Y-55414D03*
X43487Y-55414D03*
X43684Y-55414D03*
X43881Y-55414D03*
X44077Y-55414D03*
X44274Y-55414D03*
X44471Y-55414D03*
G54D43*
X45672Y-55926D03*
X39845Y-55926D03*
G54D44*
X45908Y-58272D03*
X39609Y-58272D03*
G54D42*
X75700Y-55414D03*
X75503Y-55414D03*
X75306Y-55414D03*
X75109Y-55414D03*
X74912Y-55414D03*
X74715Y-55414D03*
X74518Y-55414D03*
X74322Y-55414D03*
X74125Y-55414D03*
X73928Y-55414D03*
X75896Y-55414D03*
X76093Y-55414D03*
X76290Y-55414D03*
X76487Y-55414D03*
X76684Y-55414D03*
X76881Y-55414D03*
X77077Y-55414D03*
X77274Y-55414D03*
X77471Y-55414D03*
G54D43*
X78672Y-55926D03*
X72845Y-55926D03*
G54D44*
X78908Y-58272D03*
X72609Y-58272D03*
G54D42*
X51450Y-55414D03*
X51253Y-55414D03*
X51056Y-55414D03*
X50859Y-55414D03*
X50662Y-55414D03*
X50465Y-55414D03*
X50268Y-55414D03*
X50072Y-55414D03*
X49875Y-55414D03*
X49678Y-55414D03*
X51646Y-55414D03*
X51843Y-55414D03*
X52040Y-55414D03*
X52237Y-55414D03*
X52434Y-55414D03*
X52631Y-55414D03*
X52827Y-55414D03*
X53024Y-55414D03*
X53221Y-55414D03*
G54D43*
X54422Y-55926D03*
X48595Y-55926D03*
G54D44*
X54658Y-58272D03*
X48359Y-58272D03*
G54D38*
X54057Y-37662D03*
X53703Y-37662D03*
G54D37*
X57820Y-33397D03*
X57820Y-33043D03*
X56792Y-40067D03*
X56792Y-40421D03*
G54D38*
X59327Y-35450D03*
X58973Y-35450D03*
G54D37*
X53736Y-34674D03*
X53736Y-34320D03*
G54D38*
X55627Y-37350D03*
X55273Y-37350D03*
X57523Y-37350D03*
X57877Y-37350D03*
G54D37*
X56550Y-38473D03*
X56550Y-38827D03*
X56550Y-36673D03*
X56550Y-37027D03*
G54D38*
X57818Y-34701D03*
X58172Y-34701D03*
G54D37*
X56550Y-36327D03*
X56550Y-35973D03*
G54D38*
X57177Y-37350D03*
X56823Y-37350D03*
X56256Y-34846D03*
X56610Y-34846D03*
G54D37*
X61640Y-39677D03*
X61640Y-39323D03*
X53900Y-30727D03*
X53900Y-30373D03*
G54D38*
X59712Y-37350D03*
X60066Y-37350D03*
G54D37*
X55134Y-34335D03*
X55134Y-33981D03*
G54D38*
X55099Y-34846D03*
X55453Y-34846D03*
X55973Y-37350D03*
X56327Y-37350D03*
G54D37*
X56550Y-38077D03*
X56550Y-37723D03*
X57500Y-35773D03*
X57500Y-36127D03*
X56550Y-35173D03*
X56550Y-35527D03*
G54D38*
X58223Y-37350D03*
X58577Y-37350D03*
G54D37*
X56550Y-39173D03*
X56550Y-39527D03*
G54D38*
X59279Y-39173D03*
X59633Y-39173D03*
G54D37*
X56179Y-40058D03*
X56179Y-40412D03*
G54D45*
X74230Y-36750D03*
X74230Y-35550D03*
G54D28*
X79734Y-36235D03*
X80934Y-36235D03*
X79756Y-34855D03*
X80956Y-34855D03*
G54D24*
X83212Y-31160D03*
X83212Y-31760D03*
G54D26*
X79182Y-30121D03*
X78582Y-30121D03*
X77922Y-29413D03*
X77322Y-29413D03*
X77292Y-31893D03*
X76692Y-31893D03*
X82016Y-32326D03*
X81416Y-32326D03*
X83995Y-40610D03*
X83395Y-40610D03*
G54D24*
X81795Y-31760D03*
X81795Y-31160D03*
G54D26*
X77322Y-30121D03*
X77922Y-30121D03*
G54D24*
X82504Y-31760D03*
X82504Y-31160D03*
G54D27*
X29788Y-30016D03*
X27988Y-30016D03*
G54D29*
X31200Y-31015D03*
X31200Y-31765D03*
G54D24*
X31475Y-34098D03*
X31475Y-33498D03*
G54D28*
X27975Y-36715D03*
X29175Y-36715D03*
G54D45*
X85295Y-43060D03*
X85295Y-44260D03*
X86695Y-43060D03*
X86695Y-44260D03*
G54D46*
X81220Y-40760D03*
X81970Y-40760D03*
G54D47*
X80195Y-42160D03*
X80195Y-43960D03*
G54D26*
X31925Y-32898D03*
X31325Y-32898D03*
G54D28*
X27975Y-35365D03*
X29175Y-35365D03*
G54D29*
X40025Y-30750D03*
X40025Y-30000D03*
X39275Y-30750D03*
X39275Y-30000D03*
X36825Y-30750D03*
X36825Y-30000D03*
X38525Y-30750D03*
X38525Y-30000D03*
X37575Y-30000D03*
X37575Y-30750D03*
G54D45*
X75605Y-36750D03*
X75605Y-35550D03*
G54D28*
X95973Y-27550D03*
X97173Y-27550D03*
G54D45*
X89426Y-30313D03*
X89426Y-31513D03*
G54D28*
X95973Y-28850D03*
X97173Y-28850D03*
G54D45*
X92226Y-30313D03*
X92226Y-31513D03*
X90826Y-30313D03*
X90826Y-31513D03*
G54D24*
X53358Y-40218D03*
X53358Y-40818D03*
X54650Y-41600D03*
X54650Y-41000D03*
G54D26*
X61000Y-40050D03*
X60400Y-40050D03*
G54D24*
X52600Y-40225D03*
X52600Y-40825D03*
G54D48*
X59550Y-41000D03*
X59550Y-41500D03*
G54D49*
X97668Y-22641D03*
X97668Y-20279D03*
X95818Y-21460D03*
X86455Y-22641D03*
X86455Y-20279D03*
X84605Y-21460D03*
G54D12*
X18500Y-22525D03*
G54D13*
X18500Y-21525D03*
X19500Y-22525D03*
X19500Y-21525D03*
X20500Y-22525D03*
X20500Y-21525D03*
X21500Y-22525D03*
X21500Y-21525D03*
X22500Y-22525D03*
X22500Y-21525D03*
X23500Y-22525D03*
X23500Y-21525D03*
X24500Y-22525D03*
X24500Y-21525D03*
G54D50*
X42600Y-30905D03*
X42600Y-28705D03*
X72430Y-31375D03*
X72430Y-33575D03*
G54D30*
X28912Y-27356D03*
X26712Y-27356D03*
G54D50*
X77500Y-41800D03*
X77500Y-44000D03*
G54D30*
X83900Y-35400D03*
X86100Y-35400D03*
G54D24*
X57039Y-41805D03*
X57039Y-41205D03*
G54D26*
X99980Y-45581D03*
X99380Y-45581D03*
X99967Y-47584D03*
X99367Y-47584D03*
X97100Y-42000D03*
X97700Y-42000D03*
G54D24*
X96634Y-46896D03*
X96634Y-46296D03*
G54D26*
X66500Y-31000D03*
X67100Y-31000D03*
X66500Y-30300D03*
X67100Y-30300D03*
X93850Y-43800D03*
X93250Y-43800D03*
G54D12*
X101800Y-48800D03*
G54D13*
X101800Y-47800D03*
X101800Y-46800D03*
X101800Y-45800D03*
X101800Y-44800D03*
X101800Y-43800D03*
G54D40*
X98740Y-45584D03*
X98740Y-47584D03*
G54D26*
X51650Y-27600D03*
X52250Y-27600D03*
X94250Y-49050D03*
X94850Y-49050D03*
G54D24*
X87400Y-50250D03*
X87400Y-49650D03*
G54D26*
X97100Y-41300D03*
X97700Y-41300D03*
G54D24*
X91325Y-46125D03*
X91325Y-46725D03*
G54D26*
X51650Y-26200D03*
X52250Y-26200D03*
X46300Y-35700D03*
X46900Y-35700D03*
X46300Y-35100D03*
X46900Y-35100D03*
X39350Y-37450D03*
X38750Y-37450D03*
X49200Y-26900D03*
X48600Y-26900D03*
X39350Y-36750D03*
X38750Y-36750D03*
X52250Y-26900D03*
X51650Y-26900D03*
G54D37*
X52550Y-28323D03*
X52550Y-28677D03*
X56680Y-34097D03*
X56680Y-33743D03*
X53900Y-31577D03*
X53900Y-31223D03*
X54400Y-31577D03*
X54400Y-31223D03*
X57900Y-31223D03*
X57900Y-31577D03*
G54D38*
X54645Y-34228D03*
X54291Y-34228D03*
G54D37*
X58000Y-34127D03*
X58000Y-33773D03*
X57036Y-48663D03*
X57036Y-49017D03*
X58790Y-48663D03*
X58790Y-49017D03*
X57810Y-48663D03*
X57810Y-49017D03*
X59540Y-48663D03*
X59540Y-49017D03*
X61167Y-48663D03*
X61167Y-49017D03*
X61891Y-48663D03*
X61891Y-49017D03*
X62675Y-48663D03*
X62675Y-49017D03*
X56040Y-48663D03*
X56040Y-49017D03*
X34000Y-48673D03*
X34000Y-49027D03*
X34700Y-48673D03*
X34700Y-49027D03*
X35700Y-48673D03*
X35700Y-49027D03*
X36422Y-48673D03*
X36422Y-49027D03*
X37350Y-48673D03*
X37350Y-49027D03*
X38100Y-48673D03*
X38100Y-49027D03*
X39000Y-48673D03*
X39000Y-49027D03*
X39700Y-48673D03*
X39700Y-49027D03*
X41450Y-48673D03*
X41450Y-49027D03*
X42200Y-48673D03*
X42200Y-49027D03*
X42950Y-48673D03*
X42950Y-49027D03*
X53540Y-48663D03*
X53540Y-49017D03*
X54290Y-48663D03*
X54290Y-49017D03*
X55290Y-48663D03*
X55290Y-49017D03*
X24800Y-48663D03*
X24800Y-49017D03*
X22300Y-48663D03*
X22300Y-49017D03*
X24050Y-48663D03*
X24050Y-49017D03*
X23050Y-48663D03*
X23050Y-49017D03*
X72000Y-48673D03*
X72000Y-49027D03*
X21285Y-48663D03*
X21285Y-49017D03*
X20544Y-48663D03*
X20544Y-49017D03*
X75945Y-48673D03*
X75945Y-49027D03*
X75195Y-48673D03*
X75195Y-49027D03*
X74445Y-48673D03*
X74445Y-49027D03*
X72700Y-48673D03*
X72700Y-49027D03*
X71100Y-48673D03*
X71100Y-49027D03*
X70350Y-48673D03*
X70350Y-49027D03*
X69400Y-48673D03*
X69400Y-49027D03*
X68700Y-48673D03*
X68700Y-49027D03*
X67700Y-48673D03*
X67700Y-49027D03*
X67000Y-48673D03*
X67000Y-49027D03*
X29684Y-48663D03*
X29684Y-49017D03*
X28881Y-48663D03*
X28881Y-49017D03*
X28166Y-48663D03*
X28166Y-49017D03*
X25800Y-48663D03*
X25800Y-49017D03*
X26550Y-48663D03*
X26550Y-49017D03*
G54D26*
X59883Y-37962D03*
X60483Y-37962D03*
G54D37*
X55470Y-28677D03*
X55470Y-28323D03*
X54200Y-28677D03*
X54200Y-28323D03*
X51100Y-28677D03*
X51100Y-28323D03*
X48500Y-28677D03*
X48500Y-28323D03*
X53000Y-28677D03*
X53000Y-28323D03*
G54D26*
X48568Y-44356D03*
X49168Y-44356D03*
G54D24*
X67300Y-17900D03*
X67300Y-18500D03*
X66100Y-17900D03*
X66100Y-18500D03*
G54D26*
X68800Y-21587D03*
X69400Y-21587D03*
X68800Y-22337D03*
X69400Y-22337D03*
X68800Y-23037D03*
X69400Y-23037D03*
X68800Y-23737D03*
X69400Y-23737D03*
X23300Y-19000D03*
X23900Y-19000D03*
G54D24*
X68500Y-17900D03*
X68500Y-18500D03*
X65100Y-36600D03*
X65100Y-36000D03*
X64650Y-34050D03*
X64650Y-34650D03*
G54D26*
X82102Y-20048D03*
X81502Y-20048D03*
G54D24*
X69500Y-17900D03*
X69500Y-18500D03*
G54D26*
X77850Y-53400D03*
X77250Y-53400D03*
G54D24*
X59800Y-45250D03*
X59800Y-45850D03*
X73300Y-45250D03*
X73300Y-45850D03*
G54D26*
X53600Y-53200D03*
X53000Y-53200D03*
G54D24*
X64250Y-47050D03*
X64250Y-47650D03*
X65000Y-47050D03*
X65000Y-47650D03*
G54D26*
X48600Y-26200D03*
X49200Y-26200D03*
G54D12*
X101450Y-28950D03*
G54D13*
X101450Y-27950D03*
X101450Y-26950D03*
G54D51*
X89140Y-41106D03*
X89640Y-41106D03*
G54D29*
X86650Y-50325D03*
X86650Y-49575D03*
G54D38*
X57823Y-28075D03*
X58177Y-28075D03*
X57823Y-28550D03*
X58177Y-28550D03*
G54D26*
X83940Y-48964D03*
X84540Y-48964D03*
G54D37*
X61990Y-37113D03*
X61990Y-37467D03*
X53750Y-28677D03*
X53750Y-28323D03*
X51570Y-28677D03*
X51570Y-28323D03*
X57550Y-34127D03*
X57550Y-33773D03*
G54D38*
X58348Y-33800D03*
X58702Y-33800D03*
X52446Y-33972D03*
X52092Y-33972D03*
G54D37*
X56200Y-33377D03*
X56200Y-33023D03*
X55700Y-33377D03*
X55700Y-33023D03*
G54D19*
X101331Y-19268D03*
X101331Y-57031D03*
X11168Y-57031D03*
X11168Y-19268D03*
G54D26*
X47562Y-44907D03*
X48162Y-44907D03*
G54D52*
X89050Y-56000D03*
G54D53*
X89050Y-55500D03*
X89550Y-56000D03*
X89550Y-55500D03*
X90050Y-56000D03*
X90050Y-55500D03*
X90550Y-56000D03*
X90550Y-55500D03*
X91050Y-56000D03*
X91050Y-55500D03*
X91550Y-56000D03*
X91550Y-55500D03*
X92050Y-56000D03*
X92050Y-55500D03*
X92550Y-56000D03*
X92550Y-55500D03*
X93050Y-56000D03*
X93050Y-55500D03*
X93550Y-56000D03*
X93550Y-55500D03*
X94050Y-56000D03*
X94050Y-55500D03*
X94550Y-56000D03*
X94550Y-55500D03*
X95050Y-56000D03*
X95050Y-55500D03*
X95550Y-56000D03*
X95550Y-55500D03*
X96050Y-56000D03*
X96050Y-55500D03*
X96550Y-56000D03*
G54D54*
X96550Y-55500D03*
G54D53*
X97050Y-56000D03*
X97050Y-55500D03*
X97550Y-56000D03*
X97550Y-55500D03*
X98050Y-56000D03*
X98050Y-55500D03*
X98550Y-56000D03*
X98550Y-55500D03*
M02*
