<?xml version="1.0" encoding="UTF-8" standalone="no"?>
<!-- Created with Inkscape (http://www.inkscape.org/) -->

<svg
   xmlns:dc="http://purl.org/dc/elements/1.1/"
   xmlns:cc="http://creativecommons.org/ns#"
   xmlns:rdf="http://www.w3.org/1999/02/22-rdf-syntax-ns#"
   xmlns:svg="http://www.w3.org/2000/svg"
   xmlns="http://www.w3.org/2000/svg"
   xmlns:sodipodi="http://sodipodi.sourceforge.net/DTD/sodipodi-0.dtd"
   xmlns:inkscape="http://www.inkscape.org/namespaces/inkscape"
   width="210mm"
   height="297mm"
   viewBox="0 0 744.09448819 1052.3622047"
   id="svg2"
   version="1.1"
   inkscape:version="0.91 r13725"
   sodipodi:docname="Ports Vectors - master.svg">
  <defs
     id="defs4">
    <marker
       orient="auto"
       id="DistanceX"
       style="overflow:visible"
       refX="0.0"
       refY="0.0">
      <path
         id="path3343"
         d="M 3,-3 L -3,3 M 0,-5 L  0,5"
         style="stroke:#000000; stroke-width:0.5" />
    </marker>
    <pattern
       id="Hatch"
       x="0"
       y="0"
       patternUnits="userSpaceOnUse"
       width="8"
       height="8">
      <path
         id="path3346"
         d="M8 4 l-4,4"
         stroke-width="0.25"
         stroke="#000000"
         linecap="square" />
      <path
         id="path3348"
         d="M6 2 l-4,4"
         stroke-width="0.25"
         stroke="#000000"
         linecap="square" />
      <path
         id="path3350"
         d="M4 0 l-4,4"
         stroke-width="0.25"
         stroke="#000000"
         linecap="square" />
    </pattern>
    <symbol
       id="$MODEL_SPACE" />
    <symbol
       id="$PAPER_SPACE" />
    <marker
       orient="auto"
       id="DistanceX-2"
       style="overflow:visible"
       refX="0.0"
       refY="0.0">
      <path
         id="path3501"
         d="M 3,-3 L -3,3 M 0,-5 L  0,5"
         style="stroke:#000000; stroke-width:0.5" />
    </marker>
    <pattern
       id="Hatch-8"
       x="0"
       y="0"
       patternUnits="userSpaceOnUse"
       width="8"
       height="8">
      <path
         id="path3504"
         d="M8 4 l-4,4"
         stroke-width="0.25"
         stroke="#000000"
         linecap="square" />
      <path
         id="path3506"
         d="M6 2 l-4,4"
         stroke-width="0.25"
         stroke="#000000"
         linecap="square" />
      <path
         id="path3508"
         d="M4 0 l-4,4"
         stroke-width="0.25"
         stroke="#000000"
         linecap="square" />
    </pattern>
    <symbol
       id="$MODEL_SPACE-3" />
    <symbol
       id="$PAPER_SPACE-4" />
    <marker
       orient="auto"
       id="DistanceX-8"
       style="overflow:visible"
       refX="0.0"
       refY="0.0">
      <path
         id="path3587"
         d="M 3,-3 L -3,3 M 0,-5 L  0,5"
         style="stroke:#000000; stroke-width:0.5" />
    </marker>
    <pattern
       id="Hatch-89"
       x="0"
       y="0"
       patternUnits="userSpaceOnUse"
       width="8"
       height="8">
      <path
         id="path3590"
         d="M8 4 l-4,4"
         stroke-width="0.25"
         stroke="#000000"
         linecap="square" />
      <path
         id="path3592"
         d="M6 2 l-4,4"
         stroke-width="0.25"
         stroke="#000000"
         linecap="square" />
      <path
         id="path3594"
         d="M4 0 l-4,4"
         stroke-width="0.25"
         stroke="#000000"
         linecap="square" />
    </pattern>
    <symbol
       id="$MODEL_SPACE-6" />
    <symbol
       id="$PAPER_SPACE-0" />
  </defs>
  <sodipodi:namedview
     id="base"
     pagecolor="#ffffff"
     bordercolor="#666666"
     borderopacity="1.0"
     inkscape:pageopacity="0.0"
     inkscape:pageshadow="2"
     inkscape:zoom="0.98994949"
     inkscape:cx="369.66584"
     inkscape:cy="825.50456"
     inkscape:document-units="px"
     inkscape:current-layer="g3602"
     showgrid="false"
     inkscape:window-width="1920"
     inkscape:window-height="1137"
     inkscape:window-x="-8"
     inkscape:window-y="-8"
     inkscape:window-maximized="1" />
  <metadata
     id="metadata7">
    <rdf:RDF>
      <cc:Work
         rdf:about="">
        <dc:format>image/svg+xml</dc:format>
        <dc:type
           rdf:resource="http://purl.org/dc/dcmitype/StillImage" />
        <dc:title></dc:title>
      </cc:Work>
    </rdf:RDF>
  </metadata>
  <g
     inkscape:label="Layer 1"
     inkscape:groupmode="layer"
     id="layer1">
    <g
       id="g3748"
       transform="translate(67.518281,-748.19742)">
      <g
         id="g3598"
         inkscape:label="0" />
      <g
         id="g3600"
         inkscape:label="HIDDEN" />
      <g
         id="g3602"
         inkscape:label="VISIBLE">
        <path
           id="path3616"
           d="m 290.51575,1048.9961 0,0 10.62992,-9.0355 0,0 0,-10.6299 0,0 -53.14961,0 0,10.6299 10.62992,9.0355 z"
           style="fill:none;stroke:#000000"
           inkscape:connector-curvature="0"
           sodipodi:nodetypes="cccccccccc" />
        <path
           id="path3620"
           d="m 0,1029.3307 0,10.6299 10.629921,9.0364 31.889764,-9e-4 10.629921,-9.0355 0,-10.6299 z"
           style="fill:none;stroke:#000000"
           inkscape:connector-curvature="0"
           sodipodi:nodetypes="ccccccc" />
        <path
           id="path3636"
           d="m 441.14173,1027.2047 -63.24803,0 0,16.2992 0,0 7.08662,7.0867 0,0 56.16141,0 0,0 0,-23.3859 z"
           style="fill:none;stroke:#000000"
           inkscape:connector-curvature="0"
           sodipodi:nodetypes="cccccccccc" />
        <path
           id="path3650"
           d="m 175.96063,1048.9961 -10.62992,-9.0355 0,-10.6299 53.1496,0 0,10.6299 -10.62992,9.0355 z"
           style="fill:none;stroke:#000000"
           inkscape:connector-curvature="0"
           sodipodi:nodetypes="ccccccc" />
        <path
           id="path3676"
           d="m 93.295276,1048.9961 -10.629922,-9.0355 0,-10.6299 53.149606,0 0,10.6299 -10.62992,9.0355 z"
           style="fill:none;stroke:#000000"
           inkscape:connector-curvature="0"
           sodipodi:nodetypes="ccccccc" />
        <path
           id="path3686"
           d="m 353.79921,1046.1614 0,-21.2598 0,0 -7.08661,-7.0866 -17.71654,0 -7.08661,7.0866 0,0 0,21.2598 z"
           style="fill:none;stroke:#000000"
           inkscape:connector-curvature="0"
           sodipodi:nodetypes="ccccccccc" />
        <path
           id="path3688"
           d="m 522.1063,1027.2047 -63.24803,0 0,0 0,16.2992 0,0 7.08661,7.0867 0,0 56.16142,0 0,0 0,-23.3859 z"
           style="fill:none;stroke:#000000"
           inkscape:connector-curvature="0"
           sodipodi:nodetypes="ccccccccccc" />
      </g>
      <g
         id="g3722"
         inkscape:label="TANGENT_LINES" />
      <g
         id="g3724"
         inkscape:label="TANGENT_HIDDEN" />
      <g
         id="g3726"
         inkscape:label="INVISIBLE_LINES" />
      <g
         id="g3728"
         inkscape:label="SECTION_CUTTING_LINE" />
      <g
         id="g3730"
         inkscape:label="DETAIL_VIEW_BORDER" />
      <g
         id="g3732"
         inkscape:label="DETAIL_VIEW_PARENT_BORDER" />
      <g
         id="g3734"
         inkscape:label="TEXT" />
    </g>
  </g>
</svg>
